<svg xmlns="http://www.w3.org/2000/svg" xml:space="preserve" width="666.66669" height="666.66669"><defs><clipPath id="a" clipPathUnits="userSpaceOnUse"><path d="M0 500h500V0H0Z"/></clipPath><clipPath id="b" clipPathUnits="userSpaceOnUse"><path d="M58.3148 470.885H438.865V27.902H58.3148Z"/></clipPath><clipPath id="c" clipPathUnits="userSpaceOnUse"><path d="M41.6666 448.197H454.592V52.6655H41.6666Z"/></clipPath><clipPath id="d" clipPathUnits="userSpaceOnUse"><path d="M0 500h500V0H0Z"/></clipPath><clipPath id="e" clipPathUnits="userSpaceOnUse"><path d="M0 500h500V0H0Z"/></clipPath><clipPath id="f" clipPathUnits="userSpaceOnUse"><path d="M127.67 99.51h194.3V64.96h-194.3z"/></clipPath><clipPath id="g" clipPathUnits="userSpaceOnUse"><path d="M127.67 99.51h194.3V64.96h-194.3z"/></clipPath><clipPath id="h" clipPathUnits="userSpaceOnUse"><path d="m151.78 205.22-9.83-36.92-7.06-26.51c-.79-2.951 1.429-5.84 4.48-5.84h60.46c.85 0 1.54.69 1.54 1.54v3.11c0 .85-.69 1.54-1.54 1.54h-6.16c-3.99 0-7.3 3.1-7.55 7.091l-1.15 17.93-1.39 21.499-1.06 16.56z"/></clipPath><clipPath id="i" clipPathUnits="userSpaceOnUse"><path d="M140.71 188.66h52.96v-46.52h-52.96z"/></clipPath><clipPath id="j" clipPathUnits="userSpaceOnUse"><path d="M140.71 188.66h52.96v-46.52h-52.96z"/></clipPath><clipPath id="k" clipPathUnits="userSpaceOnUse"><path d="M141.95 205.22h43.02v-38.79h-43.02z"/></clipPath><clipPath id="l" clipPathUnits="userSpaceOnUse"><path d="M141.95 205.22h43.02v-38.79h-43.02z"/></clipPath><clipPath id="m" clipPathUnits="userSpaceOnUse"><path d="M0 500h500V0H0Z"/></clipPath><clipPath id="n" clipPathUnits="userSpaceOnUse"><path d="M62.7751 365.937H302.272V194.509H62.7751Z"/></clipPath><clipPath id="o" clipPathUnits="userSpaceOnUse"><path d="M116.337 333.767h27.78v-27.781h-27.78z"/></clipPath><clipPath id="p" clipPathUnits="userSpaceOnUse"><path d="m127.542 137.904 43.78-12.556h133.699l-62.49 12.556z"/></clipPath><clipPath id="q" clipPathUnits="userSpaceOnUse"><path d="M127.542 137.904H305.02v-12.555H127.542Z"/></clipPath><clipPath id="r" clipPathUnits="userSpaceOnUse"><path d="M127.542 137.904H305.02v-12.555H127.542Z"/></clipPath><clipPath id="s" clipPathUnits="userSpaceOnUse"><path d="M0 500h500V0H0Z"/></clipPath><clipPath id="t" clipPathUnits="userSpaceOnUse"><path d="M0 500h500V0H0Z"/></clipPath><clipPath id="u" clipPathUnits="userSpaceOnUse"><path d="M305.61 216.63c-2.39-1.62-3.86-2.821-4.04-2.98-.011-.011-.021-.011-.021-.011-4.219-1.349-7.879-3.089-11.019-5.189-14.52-9.68-18.15-26.96-17.05-48.29.39-7.34 1.33-15.16 2.58-23.32.13-.85.27-1.71.4-2.571.7-4.329 1.47-8.759 2.28-13.25 3.87-21.329 8.7-44.189 10.541-66.299 3.689.499 7.359 1.08 11.018 1.76 1.772.33 3.541.68 5.3 1.051C312.16 58.91 318.64 60.58 325 62.55c30.76 9.53 58.71 26 78.99 49.59-5.35 33.01-13.81 79.35-20.69 90.12-4.44 6.95-11.44 11.759-18.219 15.021-9.961 4.779-19.401 6.229-19.401 6.229-2.23 1.141-4.51 1.91-6.8 2.37-.57.12-1.14.21-1.71.29-1.333.182-2.666.265-3.992.265-11.239 0-21.96-6.031-27.568-9.805"/></clipPath><clipPath id="v" clipPathUnits="userSpaceOnUse"><path d="M275.67 155.81h36.67v-54.63h-36.67z"/></clipPath><clipPath id="w" clipPathUnits="userSpaceOnUse"><path d="M275.67 155.81h36.67v-54.63h-36.67z"/></clipPath><clipPath id="x" clipPathUnits="userSpaceOnUse"><path d="M295.52 226.22h108.47V55.65H295.52Z"/></clipPath><clipPath id="y" clipPathUnits="userSpaceOnUse"><path d="M295.52 226.22h108.47V55.65H295.52Z"/></clipPath><clipPath id="z" clipPathUnits="userSpaceOnUse"><path d="M0 500h500V0H0Z"/></clipPath><clipPath id="A" clipPathUnits="userSpaceOnUse"><path d="M247.07 164.394c-11.688-8.881-18.094-20.029-18.094-20.029s-10.394-1.743-10.394-5.524c0-3.781-3.466-24.461 17.367-30.35 20.832-5.889 26.887 2.643 26.887 2.643s35.507 21.068 42.009 29.802c3.253 4.366 14.93 21.053 5.727 43.784l-20.294 24.021c-24.216-5.749-31.521-35.468-43.208-44.347"/></clipPath><clipPath id="B" clipPathUnits="userSpaceOnUse"><path d="M222.983 145.88h33.327v-30.388h-33.327Z"/></clipPath><clipPath id="C" clipPathUnits="userSpaceOnUse"><path d="M222.983 145.88h33.327v-30.388h-33.327Z"/></clipPath><clipPath id="D" clipPathUnits="userSpaceOnUse"><path d="M0 500h500V0H0Z"/></clipPath><clipPath id="E" clipPathUnits="userSpaceOnUse"><path d="M281.346 312.087h62.605v-37.465h-62.605z"/></clipPath><clipPath id="F" clipPathUnits="userSpaceOnUse"><path d="M410.548 234.41c-8.595-.52-18.482-1.038-29.807-.86-22.461.36-34.851-2.09-41.861-7.67-.38-.309-.76-.63-1.111-.95-.469-.439-.909-.89-1.328-1.35-1.991-2.23-3.401-4.84-4.431-7.86-.72-2.12-1.26-4.45-1.67-6.979-1.61-9.871-11.951-61.982-20.77-106.091-2.01-10.04-3.94-19.669-5.67-28.289v-.011c-1.341-6.65-2.55-12.69-3.601-17.87 1.772.33 3.541.68 5.3 1.051C312.16 58.91 318.64 60.58 325 62.55c30.76 9.53 58.71 26 78.99 49.59 1.93 2.24 3.79 4.54 5.569 6.91 20.751 27.549 36.522 65.94 42.461 105.08.199 1.29.38 2.57.56 3.86-.08.11-.16.22-.25.319-4.988 5.54-12.244 6.996-22.322 6.996-5.587 0-12.043-.448-19.46-.895"/></clipPath><clipPath id="G" clipPathUnits="userSpaceOnUse"><path d="M325 224.26h127.02V62.55H325Z"/></clipPath><clipPath id="H" clipPathUnits="userSpaceOnUse"><path d="M325 224.26h127.02V62.55H325Z"/></clipPath><clipPath id="I" clipPathUnits="userSpaceOnUse"><path d="M0 500h500V0H0Z"/></clipPath></defs><g clip-path="url(#a)" transform="matrix(1.33333 0 0 -1.33333 0 666.66667)"><g clip-path="url(#b)" opacity=".7"><path fill="#fff" d="M67.9312 332.9141s-27.877-71.987 11.297-144.503c39.173-72.517 119.879-110.802 184.469-143.549 64.59-32.746 131.661-16.799 163.534 36.838 31.872 53.637-11.845 91.929-11.897 168.419-.051 76.49 11.447 96.741-29.963 161.364-41.41 64.622-143.059 78.925-219.899 30.996-76.842-47.929-97.541-109.565-97.541-109.565"/></g><path fill="#5ae4a7" d="M95.8594 412.2607c.186.169.373.338.56.507 51.569 46.435 120.065 48.528 169.963-1.457 26.008-26.052 72.188-21.067 105.227-30.49 113.919-32.49 94.223-187.055 37.951-261.771-50.78-67.424-160.807-82.656-234.731-49.482-64.959 29.151-110.698 94.275-126.976 162.369-1.633 6.828-2.975 13.726-4.001 20.672-8.563 57.967 7.884 119.529 52.007 159.652"/><g clip-path="url(#c)" opacity=".7"><path fill="#fff" d="M95.8594 412.2607c.186.169.373.338.56.507 51.569 46.435 120.065 48.528 169.963-1.457 26.008-26.052 72.188-21.067 105.227-30.49 113.919-32.49 94.223-187.055 37.951-261.771-50.78-67.424-160.807-82.656-234.731-49.482-64.959 29.151-110.698 94.275-126.976 162.369-1.633 6.828-2.975 13.726-4.001 20.672-8.563 57.967 7.884 119.529 52.007 159.652"/></g></g><path fill="none" stroke="#1a2e35" stroke-linecap="round" stroke-linejoin="round" stroke-miterlimit="10" stroke-width="1.33333" d="M594.46479 243.20841H452.14612v-16.15733H574.4648m-61.16015 24.4216v-8.264m-11.45706.846 4.58666 30.33333h6.87067"/><path fill="none" stroke="#1a2e35" stroke-linecap="round" stroke-linejoin="round" stroke-miterlimit="10" stroke-width="1.33333" d="M482.19145 167.04108v60.01067h-12.77733v-77.79867h12.77733v3.37334m0 5.73293v2.45733"/><path fill="none" stroke="#1a2e35" stroke-linecap="round" stroke-linejoin="round" stroke-miterlimit="10" stroke-width="1.33333" d="M513.30465 169.98055v-20.72667h-31.11333m25.22533 77.7976h-12.776v-57.07066h12.776"/><path fill="none" stroke="#1a2e35" stroke-linecap="round" stroke-linejoin="round" stroke-miterlimit="10" stroke-width="1.33333" d="M538.53119 212.38481v-42.404h-31.11467m.00013 22.61427v34.456m0-44.32386v6.66m0-16.06227v3.21733m-38.00266-7.66666h12.77733m-10.29293 13.8516h10.29333m12.44893 30.10093H503.69m-9.04935 5.32026h12.776"/><path fill="none" stroke="#1a2e35" stroke-linecap="round" stroke-linejoin="round" stroke-miterlimit="10" stroke-width="1.33333" d="M513.30465 185.22522h20.69467v8.324m-4.1412-.0004h-16.55333v-3.248"/><g fill="none" stroke="#1a2e35" stroke-linecap="round" stroke-linejoin="round" stroke-miterlimit="10" clip-path="url(#d)" transform="matrix(1.33333 0 0 -1.33333 0 666.66667)"><path d="M383.9326 301.8882c.349-2.56.697-5.12 1.046-7.679m-2.0059 14.7185c.203-1.493.407-2.986.61-4.479m-1.7917 13.145c.143-1.042.284-2.084.427-3.126m49.2761 15.2437h-37.127c-2.946 0-5.334 2.388-5.334 5.334 0 2.946 2.388 5.333 5.334 5.333h37.127"/><path d="M445.4941 329.7114h-27.127c-2.946 0-5.334 2.388-5.334 5.334 0 2.946 2.388 5.333 5.334 5.333h19.127m-19.208-2.9057h17.14m4.7497-2.4273h-15.147m-4.1059-2.8237h14.503"/></g><g clip-path="url(#e)" transform="matrix(1.33333 0 0 -1.33333 0 666.66667)"><g clip-path="url(#f)" opacity=".3"><g clip-path="url(#g)" opacity=".7"><path d="m321.9697 99.5098-135.78-34.55c-3.87 1.41-7.66 2.95-11.36 4.611-17.11 7.679-32.88 17.849-47.14 29.919-.01 0-.01 0-.02.02z"/></g></g><path fill="#5ae4a7" d="M201.3701 140.5996v-3.109c0-.851-.69-1.54-1.54-1.54h-60.46c-3.05 0-5.27 2.889-4.48 5.839l7.06 26.51 9.83 36.92h30.74l1.06-16.559 1.39-21.5 1.15-17.93c.25-3.99 3.56-7.091 7.55-7.091h6.16c.85 0 1.54-.689 1.54-1.54"/></g><g clip-path="url(#h)" transform="matrix(1.33333 0 0 -1.33333 0 666.66667)"><g clip-path="url(#i)" opacity=".3"><g clip-path="url(#j)" opacity=".7"><path d="M193.6699 142.1396h-52.96l6.19 25.561 4.88 20.16 31.8.8 1.39-21.5 1.15-17.93c.25-3.99 3.56-7.091 7.55-7.091"/></g></g><g clip-path="url(#k)" opacity=".3"><g clip-path="url(#l)" opacity=".7"><path d="M184.9702 167.1602c-14.09-1.36-27.73-.61-38.07.54-1.75.18-3.4.39-4.95.6l9.83 36.92h30.74l1.06-16.56Z"/></g></g></g><g clip-path="url(#m)" transform="matrix(1.33333 0 0 -1.33333 0 666.66667)"><path fill="none" stroke="#1a2e35" stroke-linecap="round" stroke-linejoin="round" stroke-miterlimit="10" d="M201.3701 140.5996v-3.109c0-.851-.69-1.54-1.54-1.54h-60.46c-3.05 0-5.27 2.889-4.48 5.839l7.06 26.51 9.83 36.92h30.74l1.06-16.559 1.39-21.5 1.15-17.93c.25-3.99 3.56-7.091 7.55-7.091h6.16c.85 0 1.54-.689 1.54-1.54Z"/><path fill="#5ae4a7" d="M305.251 192.334c0-3.755-2.927-6.856-6.676-7.068-22.125-1.254-93.157-5.158-119.744-5.158-26.588 0-97.62 3.904-119.745 5.158-3.749.212-6.675 3.313-6.675 7.068V365.18c0 3.91 3.17 7.08 7.08 7.08H298.17c3.911 0 7.081-3.17 7.081-7.08z"/><path fill="none" stroke="#1a2e35" stroke-linecap="round" stroke-linejoin="round" stroke-miterlimit="10" d="M305.251 192.334c0-3.755-2.927-6.856-6.676-7.068-22.125-1.254-93.157-5.158-119.744-5.158-26.588 0-97.62 3.904-119.745 5.158-3.749.212-6.675 3.313-6.675 7.068V365.18c0 3.91 3.17 7.08 7.08 7.08H298.17c3.911 0 7.081-3.17 7.081-7.08z"/><path fill="#5ae4a7" d="M308.9434 192.334c0-3.755-2.927-6.856-6.675-7.068-22.126-1.254-93.158-5.158-119.745-5.158-26.587 0-97.619 3.904-119.745 5.158-3.749.212-6.675 3.313-6.675 7.068V365.18c0 3.91 3.17 7.08 7.08 7.08h238.68c3.91 0 7.08-3.17 7.08-7.08z"/><path fill="none" stroke="#1a2e35" stroke-linecap="round" stroke-linejoin="round" stroke-miterlimit="10" d="M308.9434 192.334c0-3.755-2.927-6.856-6.675-7.068-22.126-1.254-93.158-5.158-119.745-5.158-26.587 0-97.619 3.904-119.745 5.158-3.749.212-6.675 3.313-6.675 7.068V365.18c0 3.91 3.17 7.08 7.08 7.08h238.68c3.91 0 7.08-3.17 7.08-7.08z"/><path fill="#1a2e35" stroke="#1a2e35" stroke-linecap="round" stroke-linejoin="round" stroke-miterlimit="10" d="M302.272 194.51H62.774v171.427h239.498z"/><g clip-path="url(#n)" opacity=".2"><path fill="#fff" d="M302.272 194.51H62.774v171.427h239.498z"/></g><path fill="#fff" stroke="#1a2e35" stroke-linecap="round" stroke-linejoin="round" stroke-miterlimit="10" d="M302.272 347.045H62.774v18.892h239.498z"/><path fill="silver" stroke="#1a2e35" stroke-miterlimit="10" d="M62.775 194.51h26.247v152.536H62.775Z"/><path fill="none" stroke="#fff" stroke-linecap="round" stroke-linejoin="round" stroke-miterlimit="10" d="M186.5732 347.0454v-152.536M89.022 280.1621h213.25"/><path fill="silver" d="M299.335 359.9878c0-1.448-1.173-2.621-2.621-2.621-1.447 0-2.62 1.173-2.62 2.621 0 1.447 1.173 2.621 2.62 2.621 1.448 0 2.621-1.174 2.621-2.621"/><path fill="none" stroke="#1a2e35" stroke-miterlimit="10" d="M299.335 359.9878c0-1.448-1.173-2.621-2.621-2.621-1.447 0-2.62 1.173-2.62 2.621 0 1.447 1.173 2.621 2.62 2.621 1.448 0 2.621-1.174 2.621-2.621Z"/><path fill="silver" d="M289.2314 359.9878c0-1.448-1.174-2.621-2.621-2.621-1.448 0-2.621 1.173-2.621 2.621 0 1.447 1.173 2.621 2.621 2.621 1.447 0 2.621-1.174 2.621-2.621"/><path fill="none" stroke="#1a2e35" stroke-miterlimit="10" d="M289.2314 359.9878c0-1.448-1.174-2.621-2.621-2.621-1.448 0-2.621 1.173-2.621 2.621 0 1.447 1.173 2.621 2.621 2.621 1.447 0 2.621-1.174 2.621-2.621Z"/><path fill="silver" d="M279.127 359.9878c0-1.448-1.174-2.621-2.621-2.621s-2.621 1.173-2.621 2.621c0 1.447 1.174 2.621 2.621 2.621s2.621-1.174 2.621-2.621"/><path fill="none" stroke="#1a2e35" stroke-miterlimit="10" d="M279.127 359.9878c0-1.448-1.174-2.621-2.621-2.621s-2.621 1.173-2.621 2.621c0 1.447 1.174 2.621 2.621 2.621s2.621-1.174 2.621-2.621Z"/><path fill="#fff" stroke="#1a2e35" stroke-linecap="round" stroke-linejoin="round" stroke-miterlimit="10" d="M84.734 333.3h-17.67v7.128h17.67zm0-9.266h-17.67v7.128h17.67zm0-9.267h-17.67v7.128h17.67zm0-9.267h-17.67v7.128h17.67zm0-17.291h-17.67v7.128h17.67zm0-8.967h-17.67v7.128h17.67zm0-8.967h-17.67v7.128h17.67zm0-8.967h-17.67v7.128h17.67zm0-8.967h-17.67v7.128h17.67zm-10.543-17.324h-7.128v7.128h7.128zm10.543 0h-7.128v7.128h7.128zm-10.543-10.632h-7.128v7.128h7.128zm10.543 0h-7.128v7.128h7.128z"/><path fill="none" stroke="#1a2e35" stroke-linecap="round" stroke-linejoin="round" stroke-miterlimit="10" d="M62.7749 300.0767h26.247m-26.247-53.2749h26.247"/><path fill="silver" stroke="#1a2e35" stroke-miterlimit="10" d="M235.396 357.977h28.22v4.022h-28.22zm-162.726-.793h-5.607v5.607h5.607z"/><path fill="#5ae4a7" d="M160.1167 314.1621c0-13.036-10.568-23.604-23.604-23.604-13.037 0-23.604 10.568-23.604 23.604 0 13.037 10.567 23.604 23.604 23.604 13.036 0 23.604-10.567 23.604-23.604"/><g clip-path="url(#o)" opacity=".5"><path fill="#fff" d="M144.1167 319.8765c0-7.671-6.219-13.89-13.89-13.89s-13.89 6.219-13.89 13.89 6.219 13.89 13.89 13.89 13.89-6.219 13.89-13.89"/></g><path fill="#fff" stroke="#1a2e35" stroke-linecap="round" stroke-linejoin="round" stroke-miterlimit="10" d="M302.272 200.517H62.774v-6.007h239.498z"/><path fill="silver" stroke="#1a2e35" stroke-miterlimit="10" d="M291.571 200.517h10.701v146.529h-10.701z"/><path fill="none" stroke="#1a2e35" stroke-linecap="round" stroke-linejoin="round" stroke-miterlimit="10" d="M291.5713 331.1616h10.701m-10.701-32.9306h10.701m-10.701-32.9312h10.701"/><path fill="none" stroke="#fff" stroke-miterlimit="10" d="M261.4893 314.1621c0-13.036-10.568-23.604-23.604-23.604s-23.604 10.568-23.604 23.604c0 13.037 10.568 23.604 23.604 23.604s23.604-10.567 23.604-23.604Zm-47.2085 0h47.208m-23.6035 23.6045v-47.209m-16.691 40.2954 33.382-33.382m-.0001 33.382-33.382-33.382m-5.1058 25.7507 43.593-18.119m-12.7366 30.8563-18.119-43.593m.0531 43.615 18.013-43.637m12.8122 30.8249-43.637-18.013"/><path fill="none" stroke="#fff" stroke-miterlimit="10" d="M253.7383 314.1621c0-8.755-7.098-15.853-15.853-15.853-8.755 0-15.853 7.098-15.853 15.853 0 8.755 7.098 15.853 15.853 15.853 8.755 0 15.853-7.098 15.853-15.853Z"/><path fill="none" stroke="#fff" stroke-miterlimit="10" d="M245.1245 314.1621c0-3.998-3.241-7.239-7.239-7.239-3.998 0-7.24 3.241-7.24 7.239 0 3.998 3.242 7.239 7.24 7.239s7.239-3.241 7.239-7.239Z"/><path fill="none" stroke="#fff" stroke-linecap="round" stroke-linejoin="round" stroke-miterlimit="10" d="M160.1167 239.5146c0 13.036-10.568 23.604-23.604 23.604-13.037 0-23.604-10.568-23.604-23.604s10.567-23.604 23.604-23.604c13.036 0 23.604 10.568 23.604 23.604Zm-47.2085 0h47.208m-23.6035 23.6045v-47.209"/><path fill="none" stroke="#fff" stroke-linecap="round" stroke-linejoin="round" stroke-miterlimit="10" d="M144.5229 239.5146c0-13.036-3.586-23.604-8.01-23.604-4.425 0-8.011 10.568-8.011 23.604s3.586 23.604 8.011 23.604c4.424 0 8.01-10.568 8.01-23.604Z"/><path fill="none" stroke="#fff" stroke-linecap="round" stroke-linejoin="round" stroke-miterlimit="10" d="M151.7827 239.5146c0-13.036-6.837-23.604-15.27-23.604-8.434 0-15.27 10.568-15.27 23.604s6.836 23.604 15.27 23.604c8.433 0 15.27-10.568 15.27-23.604Z"/><path fill="none" stroke="#fff" stroke-linecap="round" stroke-linejoin="round" stroke-miterlimit="10" d="M157.7739 239.5146c0-13.036-9.519-23.604-21.261-23.604-11.743 0-21.262 10.568-21.262 23.604s9.519 23.604 21.262 23.604c11.742 0 21.261-10.568 21.261-23.604Zm-42.2392 10.8262h41.952m-33.5795 9.1279h25.209m-33.5815-30.7802h41.952m-33.5795-9.128h25.209"/><path fill="none" stroke="#fff" stroke-miterlimit="10" d="M261.4893 239.5146c0-13.036-10.568-23.604-23.604-23.604s-23.604 10.568-23.604 23.604 10.568 23.604 23.604 23.604 23.604-10.568 23.604-23.604Z"/><path fill="none" stroke="#fff" stroke-miterlimit="10" d="M246.2539 239.5146c0-13.036-3.747-23.604-8.369-23.604-4.621 0-8.368 10.568-8.368 23.604s3.747 23.604 8.368 23.604c4.622 0 8.369-10.568 8.369-23.604Z"/><path fill="none" stroke="#fff" stroke-miterlimit="10" d="M237.8853 231.1465c-13.036 0-23.604 3.746-23.604 8.368s10.568 8.368 23.604 8.368 23.604-3.746 23.604-8.368-10.568-8.368-23.604-8.368Zm-7.8257 0 16.194 16.193m-31.9728-7.8249h47.208m-23.6035 23.6045v-47.209"/><path fill="#fff" d="M104.8022 135.9521h236.081c-78.725.042-157.525.045-236.081.013Z"/><path fill="none" stroke="#1a2e35" stroke-linecap="round" stroke-linejoin="round" stroke-miterlimit="10" d="M104.8022 135.9521h236.081c-78.725.042-157.525.045-236.081.013Z"/><path fill="#fff" d="M101.6372 135.9639c-9.081-.004-18.173-.007-27.247-.012h27.247Z"/><path fill="none" stroke="#1a2e35" stroke-linecap="round" stroke-linejoin="round" stroke-miterlimit="10" d="M101.6372 135.9639c-9.081-.004-18.173-.007-27.247-.012h27.247Z"/><path fill="#fff" stroke="#1a2e35" stroke-linecap="round" stroke-linejoin="round" stroke-miterlimit="10" d="M60.0112 135.9521h7.198"/><path fill="#1a2e35" d="M127.3955 120.9209h61.055v12.475l-60.909-.791Z"/><path fill="none" stroke="#1a2e35" stroke-linecap="round" stroke-linejoin="round" stroke-miterlimit="10" d="M127.3955 120.9209h61.055v12.475l-60.909-.791Z"/><path fill="#5ae4a7" d="M305.0205 120.9209h-133.699l-40.497 9.837-3.283 7.146h114.989l62.49-12.555Z"/><path fill="none" stroke="#1a2e35" stroke-linecap="round" stroke-linejoin="round" stroke-miterlimit="10" d="M305.0205 120.9209h-133.699l-40.497 9.837-3.283 7.146h114.989l62.49-12.555Z"/><path fill="#5ae4a7" d="M192.8022 125.3486h112.218l-62.489 12.556h-114.99l43.781-12.556h16.205"/></g><g clip-path="url(#p)" transform="matrix(1.33333 0 0 -1.33333 0 666.66667)"><g clip-path="url(#q)" opacity=".3"><g clip-path="url(#r)" opacity=".7"><path d="m127.5415 137.9043 43.78-12.556h133.699l-62.49 12.556Z"/></g></g></g><g stroke="#1a2e35" stroke-linecap="round" stroke-linejoin="round" stroke-miterlimit="10" clip-path="url(#s)" transform="matrix(1.33333 0 0 -1.33333 0 666.66667)"><path fill="none" d="M192.8022 125.3486h112.218l-62.489 12.556h-114.99l43.781-12.556h16.205m-16.2054-2.7666v-1.661"/><path fill="#5ae4a7" d="M132.3774 132.7178c.273-1.016.425-2.133.425-3.305 0-4.69-2.421-8.492-5.407-8.492s-5.407 3.802-5.407 8.492c0 4.69 2.421 8.492 5.407 8.492 1.651 0 3.129-1.163 4.121-2.994"/><path fill="#fff" d="M104.4365 111.4668c76.563-.467 154.563-.467 231.97 0m-250.5276 0c4.121-.467 7.121-.467 11.346 0m99.9646-11.9609c45.811.494 90.811.494 136.58 0m-224.1762 0c24.407.494 48.407.494 72.123 0"/></g><g clip-path="url(#t)" transform="matrix(1.33333 0 0 -1.33333 0 666.66667)"><path fill="#fff" d="M306.1133 229.9512c-4.06-.946-8.228-1.249-12.363-.802-.478.056-.953.122-1.429.188-5.248.796-5.383 6.294-9.296 27.364-1.119 6.025 2.917 13.845.58 22.879-.489 1.906 2.634 16.223 6.916 20.855 13.924 15.057 45.94 12.223 51.343-7.977 7.915-29.602-12.205-56.984-35.751-62.507"/><path fill="none" stroke="#1a2e35" stroke-linecap="round" stroke-linejoin="round" stroke-miterlimit="10" d="M306.1133 229.9512c-4.06-.946-8.228-1.249-12.363-.802-.478.056-.953.122-1.429.188-5.248.796-5.383 6.294-9.296 27.364-1.119 6.025 2.917 13.845.58 22.879-.489 1.906 2.634 16.223 6.916 20.855 13.924 15.057 45.94 12.223 51.343-7.977 7.915-29.602-12.205-56.984-35.751-62.507Z"/><path fill="none" stroke="#1a2e35" stroke-linecap="round" stroke-linejoin="round" stroke-miterlimit="10" d="M298.3652 240.7354c-.309-3.21-8.595-9.264-6.048-11.395"/><path fill="#1a2e35" d="M306.1133 229.9512c-4.06-.946-8.228-1.249-12.363-.802 5.112 1.87 8.732 5.992 8.732 5.992z"/><path fill="#fff" stroke="#1a2e35" stroke-linecap="round" stroke-linejoin="round" stroke-miterlimit="10" d="M153.769 140.2529s-.527-2.804 0-4.303c.528-1.5 2.374-1.269 2.638 0 .263 1.27 2.11 4.303 2.11 4.303"/><path fill="#fff" d="M237.8853 136.543s-46.17 10.624-49.729 10.28c-3.559-.344-19.708 12.854-21.865 12.704-2.156-.148-10.26-6.354-10.26-6.354l-9.308-11.198-2.607-6.513s1.335-3.336 5.339 1.393l6.576 3.396s11.619-10.677 23.429-8.897c0 0 49.355-28.342 58.696-27.365 9.342.977 40.913 32.866 40.913 32.866z"/><path fill="none" stroke="#1a2e35" stroke-linecap="round" stroke-linejoin="round" stroke-miterlimit="10" d="M237.8853 136.543s-46.17 10.624-49.729 10.28c-3.559-.344-19.708 12.854-21.865 12.704-2.156-.148-10.26-6.354-10.26-6.354l-9.308-11.198-2.607-6.513s1.335-3.336 5.339 1.393l6.576 3.396s11.619-10.677 23.429-8.897c0 0 49.355-28.342 58.696-27.365 9.342.977 40.913 32.866 40.913 32.866z"/><path fill="#fff" stroke="#1a2e35" stroke-linecap="round" stroke-linejoin="round" stroke-miterlimit="10" d="M301.5508 233.1035c2.859-1.989 6.287-10.281 3.295-19.466l37.548 2.868s-9.656 15.391-11.949 29.244c-2.295 13.853-19.637 3.695-19.637 3.695"/><path fill="#1a2e35" d="M350.4287 284.8999c-3.572 21.379-18.017 28.882-32.503 28.316 0 0-2.344.313-5.674.754-21.969 2.913-32.607-6.493-34.377-15.359-1.277-6.401 1.485-15.305 14.028-19.483 0 0-3.063 3.848-2.035 8.797.597-1.614 1.375-3.293 2.398-5.02 4.19-7.083 4.935-10.538 5.388-13.12l1.131-1.102c.544 3.015 1.976 7.041 5.675 4.069 6.656-5.348 3.618-18.762.776-22.892 0 0 6.058-14.421 25.428-11.39 0 0 23.336 25.051 19.765 46.43"/><path fill="#fff" stroke="#1a2e35" stroke-linecap="round" stroke-linejoin="round" stroke-miterlimit="10" d="M300.8799 266.9116s-1.694 9.209 1.202 8.69c2.897-.519 4.709-10.175 3.623-15.758-1.087-5.582-3.61-10.844-5.635-8.998-2.023 1.845.983 4.492.983 4.492"/><path fill="#9a9a9a" d="M403.9902 112.1396c-20.28-23.59-48.23-40.06-78.99-49.59-6.361-1.97-12.84-3.639-19.401-5.019-1.759-.37-3.529-.721-5.299-1.05-3.661-.681-7.331-1.261-11.02-1.761-1.84 22.11-6.67 44.971-10.54 66.3-.811 4.49-1.58 8.921-2.28 13.25-.13.86-.27 1.721-.401 2.57-1.25 8.16-2.189 15.981-2.579 23.321-1.1 21.33 2.53 38.609 17.05 48.29 3.14 2.099 6.8 3.839 11.02 5.189 0 0 .009 0 .02.011.18.159 1.649 1.359 4.04 2.979 6.27 4.22 18.93 11.26 31.56 9.54.57-.08 1.139-.17 1.71-.29 2.29-.46 4.57-1.229 6.799-2.37 0 0 9.441-1.45 19.401-6.229 6.78-3.261 13.78-8.071 18.22-15.021 6.879-10.769 15.339-57.109 20.69-90.12"/></g><g clip-path="url(#u)" transform="matrix(1.33333 0 0 -1.33333 0 666.66667)"><g clip-path="url(#v)" opacity=".3"><g clip-path="url(#w)" opacity=".7"><path d="M312.3398 155.8096s-5.87-31.859-16.99-41.489c0 0-4.55-10.011-12.92-13.141-1.239 6.71-2.51 13.351-3.69 19.84-.81 4.49-1.58 8.921-2.28 13.25-.13.86-.269 1.721-.4 2.57-.13.88-.27 1.75-.39 2.62z"/></g></g><g clip-path="url(#x)" opacity=".3"><g clip-path="url(#y)" opacity=".7"><path d="M403.9902 112.1396c-20.28-23.59-48.23-40.06-78.99-49.59-6.361-1.97-12.84-3.639-19.401-5.019-1.759-.37-3.529-.721-5.299-1.05-1.59-.301-3.18-.57-4.781-.83 1.62 18.25 4.841 44.859 10.08 48.309 0 0 4.101 28.97 8.441 43.731 8.55 29.059-4.33 57.55 21.22 69.659-13.06-1.47-22.76.48-22.76.48 4.49 3.451 14.36 6.43 24.23 8.39h.01c.14-.01.29-.029.43-.05.57-.08 1.139-.17 1.71-.29 2.29-.46 4.57-1.229 6.799-2.37 0 0 9.441-1.45 19.401-6.229 6.78-3.261 13.78-8.071 18.22-15.021 6.879-10.769 15.339-57.109 20.69-90.12"/></g></g></g><g clip-path="url(#z)" transform="matrix(1.33333 0 0 -1.33333 0 666.66667)"><path fill="none" stroke="#1a2e35" stroke-linecap="round" stroke-linejoin="round" stroke-miterlimit="10" d="M403.9902 112.1396c-20.28-23.59-48.23-40.06-78.99-49.59-6.361-1.97-12.84-3.639-19.401-5.019-1.759-.37-3.529-.721-5.299-1.05-3.661-.681-7.331-1.261-11.02-1.761-1.84 22.11-6.67 44.971-10.54 66.3-.811 4.49-1.58 8.921-2.28 13.25-.13.86-.27 1.721-.401 2.57-1.25 8.16-2.189 15.981-2.579 23.321-1.1 21.33 2.53 38.609 17.05 48.29 3.14 2.099 6.8 3.839 11.02 5.189 0 0 .009 0 .02.011.18.159 1.649 1.359 4.04 2.979 6.27 4.22 18.93 11.26 31.56 9.54.57-.08 1.139-.17 1.71-.29 2.29-.46 4.57-1.229 6.799-2.37 0 0 9.441-1.45 19.401-6.229 6.78-3.261 13.78-8.071 18.22-15.021 6.879-10.769 15.339-57.109 20.69-90.12Z"/><path fill="#9a9a9a" d="M290.2783 208.7402c-24.217-5.748-31.521-35.467-43.208-44.347-11.688-8.881-18.094-20.029-18.094-20.029s-10.394-1.742-10.394-5.523c0-3.781-3.466-24.461 17.366-30.351 20.833-5.889 26.888 2.644 26.888 2.644s35.506 21.068 42.009 29.801c3.252 4.367 14.929 21.054 5.727 43.785"/></g><g clip-path="url(#A)" transform="matrix(1.33333 0 0 -1.33333 0 666.66667)"><g clip-path="url(#B)" opacity=".3"><g clip-path="url(#C)" opacity=".7"><path d="M256.3096 116.2305c-32.33-4.931-34.149 16.06-33.129 26.569 2.79 1.061 5.799 1.561 5.799 1.561s.32.559.951 1.519c-3.44-16.95 26.379-29.649 26.379-29.649"/></g></g></g><g clip-path="url(#D)" transform="matrix(1.33333 0 0 -1.33333 0 666.66667)"><path fill="none" stroke="#1a2e35" stroke-linecap="round" stroke-linejoin="round" stroke-miterlimit="10" d="M290.2783 208.7402c-24.217-5.748-31.521-35.467-43.208-44.347-11.688-8.881-18.094-20.029-18.094-20.029s-10.394-1.742-10.394-5.523c0-3.781-3.466-24.461 17.366-30.351 20.833-5.889 26.888 2.644 26.888 2.644s35.506 21.068 42.009 29.801c3.252 4.367 14.929 21.054 5.727 43.785M155.3516 143.418s-.527 3.692 0 5.143c.527 1.45 3.033 1.054 3.297 2.637.264 1.582 1.582 4.616 3.297 4.616 1.714 0 3.164 1.765 3.164 1.765m-18.3865-15.6044s5.643 4.028 7.046 4.872"/><path fill="none" stroke="#1a2e35" stroke-linecap="round" stroke-linejoin="round" stroke-miterlimit="10" d="M307 163.7256s-43.347-10.383-56.48 3.983m-21.5434-23.3443s-3.867-13.022 6.023-20.963c9.891-7.939 22.55-7.148 22.55-7.148m44.0012 97.3844s27.91 12.253 44.13 9.871m-27.2081-67.6952s-7.718-19.296-24.232-24.187m-7.48-5.2857s11.932-25.121 39.426-29.473"/><path fill="none" stroke="#1a2e35" stroke-linecap="round" stroke-linejoin="round" stroke-miterlimit="10" d="M305.5996 57.5303c-.43 4.93-1.02 11-1.699 16.819v.011c-1.061 9.029-2.33 17.46-3.631 20.13-3.159 6.529-2.51 17.109-2.51 17.109-4.49 6.04-3.519 17.811-3.519 17.811"/><g clip-path="url(#E)" opacity=".39999"><path fill="none" stroke="#fff" stroke-linecap="round" stroke-linejoin="round" stroke-miterlimit="10" d="M321.085 278.9614c2.021-.664 4.112-1.26 6.233-1.495m-27.693 34.1205c-6.051-2.595-8.807-10.367-5.303-15.726 5.303-7.542 13.975-11.389 22.36-15.255m-26.2543 28.6114c-8.835-4.164-11.524-12.683-4.86-20.348m55.4528-9.6862c.949-1.254 1.833-2.6 2.43-4.061m-23.8323 32.6928c-3.847-12.91 12.486-18.745 19.346-26.177"/></g><path fill="#5ae4a7" d="M452.5801 227.9902c-.18-1.29-.36-2.57-.561-3.86-5.939-39.14-21.71-77.531-42.46-105.08-1.779-2.371-3.639-4.67-5.569-6.911-20.28-23.589-48.23-40.059-78.99-49.589-6.36-1.97-12.84-3.64-19.4-5.02-1.76-.37-3.53-.721-5.3-1.05 1.05 5.18 2.259 11.22 3.6 17.869v.011c1.73 8.62 3.659 18.25 5.67 28.29 8.82 44.11 19.16 96.22 20.77 106.09.41 2.529.95 4.859 1.67 6.979 1.03 3.021 2.44 5.63 4.43 7.861.42.46.86.91 1.329 1.349.351.321.731.641 1.111.951 7.01 5.58 19.4 8.03 41.86 7.67 38.72-.61 60.63 6.93 71.59-5.241.09-.099.17-.21.25-.319"/></g><g clip-path="url(#F)" transform="matrix(1.33333 0 0 -1.33333 0 666.66667)"><g clip-path="url(#G)" opacity=".3"><g clip-path="url(#H)" opacity=".7"><path d="M452.0195 224.1299c-5.939-39.14-21.71-77.53-42.46-105.08-1.779-2.37-3.64-4.67-5.569-6.91-20.281-23.59-48.231-40.06-78.991-49.59 7.831 33.56 28.371 121.931 30.92 137.34 1.67 10.04 4.64 14.97 9.161 17.39 4.08 2.18 9.41 2.31 16.16 2.28 10.389-.04 46.62 5.62 70.779 4.57"/></g></g></g><g fill="none" stroke="#1a2e35" stroke-linecap="round" stroke-linejoin="round" stroke-miterlimit="10" clip-path="url(#I)" transform="matrix(1.33333 0 0 -1.33333 0 666.66667)"><path d="M452.5801 227.9902c-.18-1.29-.36-2.57-.561-3.86-5.939-39.14-21.71-77.531-42.46-105.08-1.779-2.371-3.639-4.67-5.569-6.911-20.28-23.589-48.23-40.059-78.99-49.589-6.36-1.97-12.84-3.64-19.4-5.02-1.76-.37-3.53-.721-5.3-1.05 1.05 5.18 2.259 11.22 3.6 17.869v.011c1.73 8.62 3.659 18.25 5.67 28.29 8.82 44.11 19.16 96.22 20.77 106.09.41 2.529.95 4.859 1.67 6.979 1.03 3.021 2.44 5.63 4.43 7.861.42.46.86.91 1.329 1.349.351.321.731.641 1.111.951 7.01 5.58 19.4 8.03 41.86 7.67 38.72-.61 60.63 6.93 71.59-5.241.09-.099.17-.21.25-.319Z"/><path d="M434.877 224.0752c3.655.156 7.313.233 10.972.206m-17.8207-.5839c1.141.076 2.281.146 3.423.209M338.126 119c5.358 22.488 10.828 44.967 15.008 67.712 1.522 8.28 1.916 18.094 6.713 25.324 5.716 8.617 16.007 7.301 25.05 7.704 13.04.581 26.014 2.636 39.026 3.658m-87.8332-113.064c.359 1.556.723 3.11 1.088 4.665M325 62.5498c2.946 12.628 5.882 25.259 8.804 37.893"/></g></svg>