<svg xmlns="http://www.w3.org/2000/svg" width="1013.4" height="610.3" data-name="Layer 1" viewBox="0 0 1013 610"><path fill="#f2f2f2" d="m689 348 9-1 3-1a71 71 0 0 1 45-131l-11 27 27-24a1 1 0 0 1 0 1 71 71 0 0 1 44 91l-2 3c8-4 15-8 21-14 12-11 19-27 26-47 15-39 29-78 42-118a71 71 0 0 1-33-86 72 72 0 0 1 6-13l1-1 2-4 2-2 3-4 1-2 3-3 2-1a71 71 0 0 1 92-2l-15 35 27-24a71 71 0 0 1 2 85l-1 1-1 2-3 3-2 2-2 3-2 2-5 3-2 2-3 2-2 1a71 71 0 0 1-10 5l-2 1-4 1-2 1-6 1h-2l-5 1h-2a70 70 0 0 1-7 0l-4-1h-2l-5-1-18 50a71 71 0 0 1 104 9l-25 27 34-14a71 71 0 0 1 2 55 70 70 0 0 1-9 17 71 71 0 0 1-129-31l-1 5c-7 17-15 39-31 55-11 10-25 17-38 23l-26 10a71 71 0 0 1-32 10c-13 4-27 7-41 9l-9 2-24 4 3 1a71 71 0 0 1 48 70l-55 17 50 8a71 71 0 0 1-119 21l1 5 3 10c13 45 8 80-16 99l-12-15c22-19 15-57 9-79l-3-10c-8-28-18-60-5-89 18-45 73-54 116-62Z"/><path fill="#3f3d56" d="M673 609H289a48 48 0 0 1-48-48V385a19 19 0 0 1 6-14l204-193a44 44 0 0 1 60 0l195 184a49 49 0 0 1 15 36v163a48 48 0 0 1-48 48Z"/><path d="M241 388h476v192a29 29 0 0 1-29 29H270a29 29 0 0 1-29-29V388Z" opacity=".1"/><rect width="354" height="354" x="304" y="237" fill="#55198b" rx="26.2"/><path d="M657 396v194H303V396l177 85 177-85z" opacity=".1"/><path fill="#3f3d56" d="M480 492 254 383a9 9 0 0 0-14 8v189a29 29 0 0 0 29 28h423a29 29 0 0 0 28-28V394a11 11 0 0 0-16-10Z"/><path fill="#f2f2f2" d="M334 269h99v14h-99zm-8 51h294v8H326zm0 27h294v8H326zm0 27h294v8H326z"/><path fill="none" stroke="#3f3d56" stroke-miterlimit="10" d="M61 609h824"/><path fill="#46455b" d="M0 485c0 59 37 107 83 107"/><path fill="#55198b" d="M83 592c0-60 41-108 92-108m-145 7c0 56 24 101 53 101"/><path fill="#46455b" d="M83 592c0-76 47-138 106-138"/><path fill="#a8a8a8" d="M65 593s12-1 16-3 18-6 18-2 18 20 5 21-31-2-34-5-5-11-5-11Z"/><path d="M104 607c-13 0-31-2-34-4s-4-8-4-10h-1s1 9 5 11 21 5 34 5c4 0 5-2 5-4-1 1-2 2-5 2Z" opacity=".2"/><path fill="#a0616a" d="M720 163c-1 5-5 9-6 15-3 7 1 16 7 22a49 49 0 0 0 34 16 15 15 0 0 0 5-1 12 12 0 0 0 5-2c4-5 6-10 7-16v-17a10 10 0 0 0-1-4 9 9 0 0 0-2-2 52 52 0 0 0-9-7 11 11 0 0 1-4-3 10 10 0 0 1-2-4l-1-5a11 11 0 0 0-1-5c-2-2-6-3-9-3h-11l-12-1c-3 1-2 4-2 7a46 46 0 0 1 2 10Z"/><path d="M720 163c-1 5-5 9-6 15-3 7 1 16 7 22a49 49 0 0 0 34 16 15 15 0 0 0 5-1 12 12 0 0 0 5-2c4-5 6-10 7-16v-17a10 10 0 0 0-1-4 9 9 0 0 0-2-2 52 52 0 0 0-9-7 11 11 0 0 1-4-3 10 10 0 0 1-2-4l-1-5a11 11 0 0 0-1-5c-2-2-6-3-9-3h-11l-12-1c-3 1-2 4-2 7a46 46 0 0 1 2 10Z" opacity=".1"/><path fill="#605d82" d="m793 404-5 53a483 483 0 0 1-8 57c-3 13-8 26-10 39v1a34 34 0 0 1-2 9l-3 6-2 13a56 56 0 0 0-19-7c-3 0-7-1-9-3-2-3-2-7-2-10l4-34a87 87 0 0 1 3-14l1-5 2-6a77 77 0 0 0 2-11l4-34a345 345 0 0 0 3-59c0-4 0-6 3-8a109 109 0 0 1 37-13 45 45 0 0 1 2 11 130 130 0 0 1-1 15Z"/><path d="m783 499-3 15c-3 13-8 26-10 39v1l-29-45 2-6a77 77 0 0 0 2-11l4-34a35 35 0 0 0 3 7c7 13 22 20 30 33l1 1Z" opacity=".1"/><path fill="#605d82" d="M700 380c0 11 2 21 4 32l3 23c2 12 4 24 10 35 4 8 11 15 16 22 14 18 25 39 38 57 3 6 9 12 15 10 5 0 8-4 11-7 4-3 9-5 12-9s4-11-1-14a22 22 0 0 0-4-2c-7-2-11-9-14-15s-4-14-8-20c-8-13-23-19-30-33-4-8-4-16-5-25v-22l1-7c2-5 10-6 16-7a57 57 0 0 0 20-6c4-2 8-5 9-8 2-3 2-7 3-11l2-39-1-10c-3-8-13-11-21-11-16 1-31 8-46 13a115 115 0 0 1-11 3l-11 1c-5 2-5 14-6 19a164 164 0 0 0-2 31Z"/><path fill="#535070" d="M784 561c2 2 2 4 2 6a185 185 0 0 1 4 32 5 5 0 0 0 0 3 4 4 0 0 0 2 1c4 2 8 0 12-3 6-6 11-13 12-21a49 49 0 0 1 0-7c0-3 2-5 4-8a72 72 0 0 0 6-15v-6a5 5 0 0 0-2-1l-18-6c-2-1-6 9-6 10-2 3-3 5-6 5l-10 1c-5 3-3 6 0 9Zm-28 6a6 6 0 0 0-1-1 6 6 0 0 0-3-1c-3-1-8-1-10 1-2 3-2 7-4 9l-2 3a9 9 0 0 0 0 4v13c0 3 1 7 3 10 3 4 10 5 15 5h5a9 9 0 0 0 4 0 6 6 0 0 0 3-4c2-6-2-12-4-18-3-7-2-14-6-21Z"/><path fill="#3f3d56" d="M718 133a4 4 0 0 1 1-2l3-1c6 2 11 0 17 1s11 3 12 8a40 40 0 0 0 10-10c2-2 3-5 3-8 0-4-3-7-7-9l-9-8a14 14 0 0 0-4-2h-6c-7 0-14-3-20 0l-6 5-8 10a5 5 0 0 0-1 2v10c2 3 6 4 8 6l4 3c2 0 3-4 3-5Z"/><circle cx="732.1" cy="134.9" r="25.9" fill="#a0616a"/><path fill="#3f3d56" d="M738 192a13 13 0 0 0-12-9 4 4 0 0 1-2 0 3 3 0 0 1-1-1 45 45 0 0 1-4-9l-2-3a3 3 0 0 0-3 1 27 27 0 0 1-3 3c-3 2-9 0-12 2l-2 2a8 8 0 0 1-2 1 183 183 0 0 0-19 7c2 14 4 28 10 41l7 19c5 14 5 29 5 44 0 10 0 20-3 30a28 28 0 0 0-2 7l2 6a8 8 0 0 0 4 1c6 1 11-1 17-2l46-7 25-4a15 15 0 0 0 5-1c5-3 6-10 3-14l-5-6c-1-2-1-6 1-7 4-4 3-10 3-15v-43a87 87 0 0 1 0-9 80 80 0 0 1 2-16l8-30c-2-3-6-5-9-6l-12-3c-7-2-14-8-21-7a4 4 0 0 0-2 0c-2 1-2 4-2 6 0 4-3 8-7 10l-11 8a5 5 0 0 0-2 4Z"/><path fill="#a0616a" d="M635 221a31 31 0 0 1-5 3 18 18 0 0 0-5 2 8 8 0 0 0-2 2 10 10 0 0 0 9 15 20 20 0 0 0 7-2l18-8c3-1 7-3 8-6a1 1 0 0 0 0-1 41 41 0 0 1-11-10l-3-5c-4-2-12 8-16 10Zm196-7 7 8 4 5a59 59 0 0 1 8 15l2 12a29 29 0 0 1-2 6 76 76 0 0 1-4 11 63 63 0 0 1-6 7 180 180 0 0 1-17 20c-2 2-3 6-4 9-2 6-6 10-10 14a29 29 0 0 1-5 4 15 15 0 0 1-8 3 9 9 0 0 1-4-1c-3-2-4-5-5-8a17 17 0 0 1 2-9c4-8 14-12 21-18l10-13a44 44 0 0 0 5-9c2-4 1-9 3-14l2-5v-5a8 8 0 0 0-4-2c-4-3-9-6-10-11a11 11 0 0 1 2-7 32 32 0 0 1 6-6l7-6Z"/><path fill="#a0616a" d="m631 231-5-6a9 9 0 0 0-7 0 28 28 0 0 0-7 4l-6 5a14 14 0 0 0-3 3 13 13 0 0 0-2 5 35 35 0 0 0-1 12c1 6 5 12 9 17 3 3 6 6 11 7l4-3a6 6 0 0 0 1-2c0-7-3-14-6-21a14 14 0 0 1-1-6 2 2 0 0 1 1-1c4-1 11 2 14-2 2-3-1-9-2-12Z"/><path fill="#3f3d56" d="M717 124a4 4 0 0 1 0-1c1-2 3-1 4-1l16 1c5 1 12 3 13 8a40 40 0 0 0 10-10c2-3 3-5 3-8-1-4-4-7-7-9l-9-8a14 14 0 0 0-4-2l-7-1c-6 0-13-3-19 0l-6 6-8 9a5 5 0 0 0-2 3l1 3v7c1 3 5 4 8 6 1 0 2 3 4 3s3-4 3-6Zm-55 72a11 11 0 0 0-3 2l-2 5c-1 3-6 4-8 7a3 3 0 0 0-1 1 3 3 0 0 0 1 2l12 20c4 0 8-3 12-2h5a13 13 0 0 0 3-2l7-4c2-2 3-5 3-7a31 31 0 0 0-1-8c-2-7-8-13-11-19-2-3-3-5-6-3l-11 8Zm149-10a29 29 0 0 1 6 5l5 8 6 6 7 12a171 171 0 0 1-16 18 5 5 0 0 1-2 1 4 4 0 0 1-3-1l-3-3a12 12 0 0 0-7-4 52 52 0 0 0-9 0 3 3 0 0 1-2 0 3 3 0 0 1-1-1c-3-6-2-13-1-19l3-15a33 33 0 0 1 2-8c1-3 4-6 6-6 3 1 7 5 9 7Z"/><ellipse cx="318" cy="242.1" fill="#fff" rx="41" ry="41.1"/><path fill="#57b894" d="M318 194a49 49 0 1 0 49 49 49 49 0 0 0-49-49Zm-10 75-25-25 7-7 18 18 38-38 7 7-45 45Z"/></svg>