<svg xmlns="http://www.w3.org/2000/svg" width="1061" height="742.9" data-name="Layer 1" viewBox="0 0 1061 743"><path fill="#f2f2f2" d="M1049 437c0 104-62 141-138 141s-138-37-138-141 138-236 138-236 138 133 138 236Z"/><path fill="#3f3d56" d="m906 562 1-87 59-108-58 94v-39l41-78-40 68 1-71 43-62-43 51 1-129-5 171v-7l-44-67 44 81-4 78-1-2-50-71 50 78v11l-11 199h14l2-103 51-78-51 71z"/><path fill="#f2f2f2" d="M762 343c0 134-80 181-178 181s-179-47-179-181S584 38 584 38s178 171 178 305Z"/><path fill="#3f3d56" d="m577 504 2-113 76-139-76 122 1-51 53-101-53 88 2-91 56-80-56 65 1-166-6 220 1-9-57-87 56 105-5 101-1-2-65-92 65 101v13h-1v1l-13 258h18l2-133 66-102-66 92z"/><path fill="#3f3d56" d="M1038 691c0 10-29 20-80 28-92 14-254 24-439 24-287 0-519-23-519-52 0-4 4-7 13-11s24-8 43-12c39-8 97-14 168-19 82-6 181-9 288-9h63l177 5 7 1h3l32 2h9l88 7 14 2 83 12c32 7 50 14 50 22Z"/><ellipse cx="753" cy="688.1" opacity=".1" rx="113.1" ry="26.2"/><path d="M1038 691c0 10-29 20-80 28-39-4-65-13-65-24 0-13 41-24 95-26 32 7 50 14 50 22Zm-475-12c0 18-123 32-275 32-151 0-273-14-275-31a862 862 0 0 1 275-32c152 0 275 14 275 31Z" opacity=".1"/><path fill="#3f3d56" d="M56 0h456v683H56z"/><path fill="#2f2e41" d="M84 237h428v210H84z"/><path fill="#3f3d56" d="M257 242h424v200H257z"/><path fill="#55198b" d="M283 271h95v34h-95zm23 60h348v9H306zm0 24h348v9H306zm0 24h348v9H306zm0 24h348v9H306z"/><path fill="#f2f2f2" d="M86 77h95v34H86zm24 60h348v9H110zm0 24h348v9H110zm0 24h348v9H110zm0 24h348v9H110zM90 468h95v34H90zm24 60h348v9H114zm0 24h348v9H114zm0 24h348v9H114zm0 23h348v9H114z"/><path fill="#ffb9b9" d="M723 140s19 25 17 42 39-24 39-24-15-29-7-44-49 26-49 26Z"/><path fill="#2f2e41" d="M789 631s25 27 21 33-77 28-85 27-13-7-10-9l22-12 16-18s12-6 12-10 24-11 24-11Z"/><path fill="#ffb9b9" d="M747 661s-9 15-11 16 9 22 9 22l25-8 13-11-3-16Z"/><path fill="#d0cde1" d="m722 368-12 52s-41 92-12 108l62 119 33-15-56-122 26-140Z"/><path d="m722 368-12 52s-41 92-12 108l62 119 33-15-56-122 26-140Z" opacity=".1"/><path fill="#d0cde1" d="M726 376h-6a334 334 0 0 0 3 55l15 99s-1 13 2 17 4-1 5 8l6 75s4 14 0 17-13 19-7 21 47 5 49 4 0-113 0-113-1-23-3-24-6-17-4-21 0-14 0-16-5 0 0-7 5-69 5-69 25-39 18-49Z"/><circle cx="739.6" cy="110.3" r="39" fill="#ffb9b9"/><path fill="#2f2e41" d="M779 152s-24 6-33 20l-9 2v8s-15 49-12 70 0 63-5 74-8 14-5 18 7 21 4 28 0 14 27 16 66 2 66-8-3-36 0-43 3-12 2-18 2-79 2-79 1-73-37-88Z"/><path fill="#ffb9b9" d="m723 334-32 49s-35 31-22 45 45-41 45-41l35-40Z"/><path fill="#2f2e41" d="M744 680s-1-8-6-8-31 19-31 19-37 4-23 12 101 9 102 6 1-32-3-32l-37 6Zm-2-590a10 10 0 0 1-4 1l-4-1a6 6 0 0 1-1-3 9 9 0 0 0-11-8 13 13 0 0 0 2 6 12 12 0 0 1-11-2v8h-7c-2-1-2-5 0-6-2-1-5-2-6-4 0-3 3-4 3-7v-6c1-2 5-3 5-5v-4c1-3 5-5 9-5h10l3-4a11 11 0 0 1 13-1l4 3c3 1 6-1 10-2a8 8 0 0 1 6 2 6 6 0 0 1 1 7h6c2 1 3 3 3 5a6 6 0 0 0-1 1l2 2 3 1c4 1 3 8 6 11a25 25 0 0 0 4 2 8 8 0 0 1 2 10l-1 4c0 3 2 4 4 5a10 10 0 0 1 2 11l-5 9v5a9 9 0 0 1-4 7 21 21 0 0 1-7 3l-3 2c-1 1 1 3 1 4a3 3 0 0 1-1 2c-2 2-6 0-8-2s-1-6-1-9l1-10c0-4 0-8-2-10-3-2-8 0-11-1-3-2-5-6-5-10l1-11c-1-5-5-8-9-5 4-1 4 3 1 5Z"/><path d="M775 180s-24 9-24 30 2 46-3 55-7 12-5 19 7 6 0 11-6-3-6 6 6 10 0 14-22 20-15 26 24 22 29 16 9-23 18-22 9 2 8-4-7-6 0-8 10 2 8-4-4-8 1-14 7-9 6-15 13-65 13-65 4-50-30-45Z" opacity=".1"/><path d="M769 179s-24 9-24 29 1 47-3 56-8 12-5 19 6 6 0 11-6-3-7 5 6 10 0 15-21 20-15 26 24 22 30 15 9-23 17-21 10 1 8-5-6-5 1-7 10 2 8-4-5-8 0-14 7-9 7-15 13-65 13-65 4-50-30-45Z" opacity=".1"/><path fill="#2f2e41" d="M772 177s-24 10-24 30 1 46-3 55-8 12-5 19 6 6 0 11-6-3-7 6 6 10 0 14-21 20-15 26 24 22 30 16 9-23 17-22 9 2 8-4-6-6 1-8 10 2 8-4-5-8 0-14 7-9 7-15 13-65 13-65 4-50-30-45Zm123 408c0 52 32 94 72 94"/><path fill="#55198b" d="M967 679c0-53 37-95 81-95m-127 6c0 49 21 89 46 89"/><path fill="#2f2e41" d="M967 679c0-67 42-121 94-121"/><path fill="#a8a8a8" d="M952 679s11 0 14-2 15-5 16-1 16 17 4 17-27-2-30-3-4-11-4-11Z"/><path d="M986 692c-11 0-27-2-30-4-2-1-3-6-3-9h-1s1 9 4 11 18 3 30 3c3 0 5-1 4-3 0 1-1 2-4 2Z" opacity=".2"/></svg>