<svg xmlns="http://www.w3.org/2000/svg" width="1144" height="617.3" data-name="Layer 1" viewBox="0 0 1144 617"><path fill="#6c63ff" d="M1144 396a182 182 0 0 1-7 50 180 180 0 0 1-19 44c0 50-34 94-83 114a167 167 0 0 1-65 13H217c-40 0-77-11-108-29a186 186 0 0 1-25-18c-34-30-55-70-55-115a181 181 0 0 1-29-98c0-74 43-137 106-165a175 175 0 0 1 25-9l9-2a175 175 0 0 1 26-3l9-1h2l10 1 1-2 5-7 8-12 9-13 1-1 6-6 19-21C308 46 421 0 548 0c99 0 189 28 258 73a174 174 0 0 1 86-22c98 0 177 80 177 179a185 185 0 0 1-1 19 180 180 0 0 1 76 147Z" opacity=".1"/><path fill="#6c63ff" d="M236 116v21h-19l19-21Zm9-5h26v26h-26zm35 0h26v26h-26zm35 0h26v26h-26zm35 0h26v26h-26zm35 0h26v26h-26z" opacity=".2"/><path fill="#6c63ff" d="M419 111h26v26h-26z"/><path fill="#6c63ff" d="M454 111h26v26h-26zm35 0h26v26h-26zm35 0h26v26h-26z" opacity=".2"/><path fill="#6c63ff" d="M559 111h26v26h-26z"/><path fill="#6c63ff" d="M594 111h26v26h-26zm35 0h26v26h-26zm34 0h26v26h-26zm35 0h26v26h-26zm35 0h26v26h-26zm35 0h26v26h-26z" opacity=".2"/><path fill="#6c63ff" d="M803 111h26v26h-26zm35 0h26v26h-26z"/><path fill="#6c63ff" d="M873 111h26v26h-26zm35 0h26v26h-26z" opacity=".2"/><path fill="#6c63ff" d="M942 111h26v26h-26zm35 0h26v26h-26zm-776 46v12h-8l8-12Z"/><path fill="#6c63ff" d="M210 143h26v26h-26z" opacity=".2"/><path fill="#6c63ff" d="M245 143h26v26h-26z"/><path fill="#6c63ff" d="M280 143h26v26h-26z" opacity=".2"/><path fill="#6c63ff" d="M315 143h26v26h-26z" opacity=".7"/><path fill="#6c63ff" d="M350 143h26v26h-26z" opacity=".2"/><path fill="#6c63ff" d="M385 143h26v26h-26z" opacity=".4"/><path fill="#6c63ff" d="M419 143h26v26h-26z"/><path fill="#6c63ff" d="M454 143h26v26h-26z" opacity=".4"/><path fill="#6c63ff" d="M489 143h26v26h-26z" opacity=".2"/><path fill="#6c63ff" d="M524 143h26v26h-26z" opacity=".4"/><path fill="#6c63ff" d="M559 143h26v26h-26z"/><path fill="#6c63ff" d="M594 143h26v26h-26zm35 0h26v26h-26z" opacity=".4"/><path fill="#6c63ff" d="M663 143h26v26h-26z" opacity=".2"/><path fill="#6c63ff" d="M698 143h26v26h-26zm35 0h26v26h-26z" opacity=".4"/><path fill="#6c63ff" d="M768 143h26v26h-26zm35 0h26v26h-26z" opacity=".2"/><path fill="#6c63ff" d="M838 143h26v26h-26z" opacity=".4"/><path fill="#6c63ff" d="M873 143h26v26h-26z" opacity=".2"/><path fill="#6c63ff" d="M908 143h26v26h-26zm34 0h26v26h-26zm35 0h26v26h-26z"/><path fill="#6c63ff" d="M131 183v18h-25v-9a175 175 0 0 1 25-9Zm35-5v23h-26v-20l26-3z" opacity=".2"/><path fill="#6c63ff" d="M175 176h26v26h-26z"/><path fill="#6c63ff" d="M210 176h26v26h-26z" opacity=".7"/><path fill="#6c63ff" d="M245 176h26v26h-26z"/><path fill="#6c63ff" d="M280 176h26v26h-26zm35 0h26v26h-26z" opacity=".7"/><path fill="#6c63ff" d="M350 176h26v26h-26z" opacity=".2"/><path fill="#6c63ff" d="M385 176h26v26h-26zm34 0h26v26h-26z" opacity=".4"/><path fill="#6c63ff" d="M454 176h26v26h-26z"/><path fill="#6c63ff" d="M489 176h26v26h-26z" opacity=".2"/><path fill="#6c63ff" d="M524 176h26v26h-26z" opacity=".4"/><path fill="#6c63ff" d="M559 176h26v26h-26z"/><path fill="#6c63ff" d="M594 176h26v26h-26z" opacity=".2"/><path fill="#6c63ff" d="M629 176h26v26h-26z" opacity=".4"/><path fill="#6c63ff" d="M663 176h26v26h-26z" opacity=".2"/><path fill="#6c63ff" d="M698 176h26v26h-26z"/><path fill="#6c63ff" d="M733 176h26v26h-26z" opacity=".2"/><path fill="#6c63ff" d="M768 176h26v26h-26zm35 0h26v26h-26z" opacity=".7"/><path fill="#6c63ff" d="M838 176h26v26h-26z" opacity=".4"/><path fill="#6c63ff" d="M873 176h26v26h-26z" opacity=".2"/><path fill="#6c63ff" d="M908 176h26v26h-26zm34 0h26v26h-26zm35 0h26v26h-26z"/><path fill="#6c63ff" d="M106 208h26v26h-26zm34 0h26v26h-26zm35 0h26v26h-26zm35 0h26v26h-26z" opacity=".2"/><path fill="#6c63ff" d="M245 208h26v26h-26z"/><path fill="#6c63ff" d="M280 208h26v26h-26zm35 0h26v26h-26z" opacity=".7"/><path fill="#6c63ff" d="M350 208h26v26h-26zm35 0h26v26h-26z" opacity=".2"/><path fill="#6c63ff" d="M419 208h26v26h-26zm35 0h26v26h-26z" opacity=".4"/><path fill="#6c63ff" d="M489 208h26v26h-26z"/><path fill="#6c63ff" d="M524 208h26v26h-26z" opacity=".2"/><path fill="#6c63ff" d="M559 208h26v26h-26zm35 0h26v26h-26zm35 0h26v26h-26zm34 0h26v26h-26z" opacity=".4"/><path fill="#6c63ff" d="M698 208h26v26h-26zm35 0h26v26h-26zm35 0h26v26h-26zm35 0h26v26h-26z" opacity=".2"/><path fill="#6c63ff" d="M838 208h26v26h-26zm35 0h26v26h-26z" opacity=".7"/><path fill="#6c63ff" d="M908 208h26v26h-26z" opacity=".4"/><path fill="#6c63ff" d="M942 208h26v26h-26z" opacity=".2"/><path fill="#6c63ff" d="M977 208h26v26h-26z"/><path fill="#6c63ff" d="M106 240h26v26h-26zm34 0h26v26h-26z" opacity=".2"/><path fill="#6c63ff" d="M175 240h26v26h-26z" opacity=".4"/><path fill="#6c63ff" d="M210 240h26v26h-26zm35 0h26v26h-26z" opacity=".2"/><path fill="#6c63ff" d="M280 240h26v26h-26zm35 0h26v26h-26z" opacity=".7"/><path fill="#6c63ff" d="M350 240h26v26h-26zm35 0h26v26h-26z" opacity=".2"/><path fill="#6c63ff" d="M419 240h26v26h-26z" opacity=".4"/><path fill="#6c63ff" d="M454 240h26v26h-26z"/><path fill="#6c63ff" d="M489 240h26v26h-26z" opacity=".2"/><path fill="#6c63ff" d="M524 240h26v26h-26zm35 0h26v26h-26zm35 0h26v26h-26z"/><path fill="#6c63ff" d="M629 240h26v26h-26z" opacity=".2"/><path fill="#6c63ff" d="M663 240h26v26h-26z"/><path fill="#6c63ff" d="M698 240h26v26h-26zm35 0h26v26h-26zm35 0h26v26h-26zm35 0h26v26h-26zm35 0h26v26h-26z" opacity=".2"/><path fill="#6c63ff" d="M873 240h26v26h-26z" opacity=".7"/><path fill="#6c63ff" d="M908 240h26v26h-26zm34 0h26v26h-26z" opacity=".2"/><path fill="#6c63ff" d="M977 240h26v26h-26z"/><path fill="#6c63ff" d="M106 273h26v26h-26zm34 0h26v26h-26zm35 0h26v26h-26z" opacity=".2"/><path fill="#6c63ff" d="M210 273h26v26h-26z" opacity=".4"/><path fill="#6c63ff" d="M245 273h26v26h-26zm35 0h26v26h-26z" opacity=".2"/><path fill="#6c63ff" d="M315 273h26v26h-26z" opacity=".7"/><path fill="#6c63ff" d="M350 273h26v26h-26zm35 0h26v26h-26zm34 0h26v26h-26z" opacity=".2"/><path fill="#6c63ff" d="M454 273h26v26h-26z"/><path fill="#6c63ff" d="M489 273h26v26h-26z" opacity=".2"/><path fill="#6c63ff" d="M524 273h26v26h-26zm35 0h26v26h-26z"/><path fill="#6c63ff" d="M594 273h26v26h-26zm35 0h26v26h-26zm34 0h26v26h-26zm35 0h26v26h-26zm35 0h26v26h-26zm35 0h26v26h-26zm35 0h26v26h-26zm35 0h26v26h-26zm35 0h26v26h-26zm35 0h26v26h-26z" opacity=".2"/><path fill="#6c63ff" d="M942 273h26v26h-26z" opacity=".4"/><path fill="#6c63ff" d="M977 273h26v26h-26z"/><path fill="#6c63ff" d="M106 305h26v26h-26zm34 0h26v26h-26zm35 0h26v26h-26zm35 0h26v26h-26zm35 0h26v26h-26z" opacity=".7"/><path fill="#6c63ff" d="M280 305h26v26h-26zm35 0h26v26h-26zm35 0h26v26h-26zm35 0h26v26h-26zm34 0h26v26h-26zm35 0h26v26h-26z" opacity=".2"/><path fill="#6c63ff" d="M489 305h26v26h-26z"/><path fill="#6c63ff" d="M524 305h26v26h-26zm35 0h26v26h-26zm35 0h26v26h-26z" opacity=".2"/><path fill="#6c63ff" d="M629 305h26v26h-26z"/><path fill="#6c63ff" d="M663 305h26v26h-26zm35 0h26v26h-26zm35 0h26v26h-26zm35 0h26v26h-26zm35 0h26v26h-26zm35 0h26v26h-26zm35 0h26v26h-26zm35 0h26v26h-26zm34 0h26v26h-26z" opacity=".2"/><path fill="#6c63ff" d="M977 305h26v26h-26z"/><circle cx="734.5" cy="363.9" r="34.9" fill="#767d9f"/><path fill="#ae6e79" d="m733 320 9 45c0 5 1 10-1 14-1 4-4 7-6 10s-4 7-3 11 6 5 9 6c11 3 23 1 33-2a53 53 0 0 0 14-6c5-3 8-7 12-11 15-19 26-42 35-64a39 39 0 0 1-33-13c-4-5-7-12-4-17-7 3-15 4-22 6a75 75 0 0 0-12 6l-15 9c-5 3-10 6-16 6Z"/><path fill="#767d9f" d="M806 346c-6 12-14 23-26 30s-26 9-38 2c-5-3-10-9-14-13s-11-8-18-7c-7 0-13 6-18 11-7 8-14 17-20 27-10 18-12 40-11 62l3 63c0 26-4 52-9 78 41-5 83 6 124 10a757 757 0 0 0 93 0 18 18 0 0 0 5-7c4-7 5-14 6-22 3-19 3-39 3-58 0-47 1-94-5-141-2-11-4-23-8-34s-12-20-22-26c-6-4-21-10-29-6s-12 23-16 31Z"/><path fill="#4c4981" d="M809 478c-2-29-8-60 5-85 4-7-8-14-5-21a92 92 0 0 0 10-24c1-2 2-5 1-8-1-6-6-9-11-12-5-4-7-14-9-20s13 1 18-1c8-3 18-1 26 2l14 2 27-1 13-1c10 0 19 8 25 16s10 18 15 27c4 8 10 15 13 23l7 22 5 19a26 26 0 0 1 2 9l-3 8a164 164 0 0 1-19 29c-11 13-24 25-30 41-3 6-4 13-5 19a708 708 0 0 0-11 79 174 174 0 0 0-37-12 178 178 0 0 0-19-3c-5-1-13 1-18-1-9-2-10-18-11-25l-3-38v-44Zm-196-54c4 24 9 48 18 71l-3 2-6 5a8 8 0 0 0-1 2 5 5 0 0 0 0 5c-5 2-11 1-16 1s-9 0-13 3c-5 3-7 10-7 16l-1 7-1 6a189 189 0 0 0 0 21v4a97 97 0 0 1-54-24 16 16 0 0 1-2-10v-2a42 42 0 0 1 2-9 107 107 0 0 1 20-32c3-4 7-8 9-14l2-7c3-10 15-14 19-24l3-7a18 18 0 0 1 4-5l2-1 21-18 3-3a59 59 0 0 0 1 13Z"/><path fill="#4c4981" d="m714 353-5 5-2 1a39 39 0 0 0-7 9v1c-5 9-3 20-2 30a262 262 0 0 1 2 39l-2 54a277 277 0 0 0 2 32l2 22a802 802 0 0 1 2 36l1 6v4l-1 7v9c-1 3-1 7-3 9h-4a333 333 0 0 0-67-1 686 686 0 0 0 2-15v-6l1-6 1-15 2-23v-41a27 27 0 0 0-1-4 50 50 0 0 0-3-9v-1l-1-1c6-5 10-12 14-19 6-11 13-22 14-35s-5-26-17-30l-10-2-14-4-6 6a22 22 0 0 1 2-9h2a3 3 0 0 1 0-1l2-4c5-4 12-4 15-10l3-7c2-7 11-9 16-15s6-13 10-19a29 29 0 0 1 12-10h1c8-4 18-5 27-5l16 2a5 5 0 0 1 2 1c4 5-3 16-6 19Z"/><path fill="#4c4981" d="M615 401a61 61 0 0 1 46 5c8 4 14 10 18 17 6 11 6 24 5 36 0 6 0 13-3 18-3 7-9 11-15 15a42 42 0 0 1-12 5c-7 1-14 0-21-1s-15-3-20-8l-6-12-7-17c-4-10-6-19 0-29l7-13c2-2 6-15 8-16Z"/><path fill="#504f60" d="M1035 574v30a167 167 0 0 1-65 13H217c-40 0-77-11-108-29v-46l231-27 134 12 35 3 18 1 38 3 19 2 28 2 4 1 20 1 27 3 39 3 64 5 45 4 74 6 14 2h3l19 2 20 1h3Z"/><path fill="#9c9ca1" d="m764 573-289-49-11 56 132 16 41 5 112-22 15-6z"/><path fill="#9c9ca1" d="m614 599 145-28a5 5 0 0 1 6 5 5 5 0 0 1-4 5l-141 27Z"/><path fill="#ae6e79" d="M677 513c5 0 9-1 13-3l14-10c10-7 24-8 35-4s22 13 29 23c4 7 7 15 4 23a31 31 0 0 1-4 6l-8 11a29 29 0 0 1-6 6c-3 3-7 4-11 4-10 2-20 1-30 2-18 1-35 6-53 6-10 0-20-2-30-4l-44-9c-7-2-16-4-19-11-2-3-2-6-2-10-1-10 0-20 6-27 7-7 16-9 24-14 9-6 12-4 22 1a120 120 0 0 0 60 10Z"/><path d="M677 513c5 0 9-1 13-3l14-10c10-7 24-8 35-4s22 13 29 23c4 7 7 15 4 23a31 31 0 0 1-4 6l-8 11a29 29 0 0 1-6 6c-3 3-7 4-11 4-10 2-20 1-30 2-18 1-35 6-53 6-10 0-20-2-30-4l-44-9c-7-2-16-4-19-11-2-3-2-6-2-10-1-10 0-20 6-27 7-7 16-9 24-14 9-6 12-4 22 1a120 120 0 0 0 60 10Z" opacity=".1"/><path fill="#ae6e79" d="M853 499c-12 5-25 10-38 13-21 4-44 4-65 9-11 3-23 8-34 7l-15-4c-29-7-61-4-84 14-8 6-14 14-20 22a15 15 0 0 0 6 22 87 87 0 0 0 28 7c13 1 26-1 39-2l58-9 21-3c51-7 102 1 152-4l15-3c12-6 17-20 15-33s-12-24-23-30c-9-6-20-8-30-10s-16 1-25 4Z"/><path d="M961 423c5 7 6 17 6 26l-3 27c-1 13 2 25 2 38l-5 26c-3 9-7 20-16 25-12 6-38 3-51 8 2-8 13-18 14-25l1-16c-1-6-5-12-10-16-7-8-16-13-26-15s-35-1-43 6c-1-7 17-13 24-15 3 0 7 0 9-2 5-4 2-12 2-18 0-5 3-10 4-15 1-8-4-16-2-24 0-3 2-5 3-8 4-8 2-18 0-27-1-6-2-12 1-17 3-4 11 12 17 11 17-2 33-15 47-5 7 6 8 11 11 19 3 7 10 11 15 17Z" opacity=".1"/><path fill="#4c4981" d="M964 423c5 7 6 17 6 26l-3 27c-1 13 2 25 2 38l-5 26c-3 9-7 20-16 25-12 6-38 3-51 8 2-8 13-18 14-25l1-16c-1-6-5-12-10-16-7-8-16-13-26-15s-35-1-43 6c-1-7 17-13 24-15 3 0 7 0 9-2 5-4 2-12 2-18 0-5 3-10 4-15 1-8-4-16-2-24 0-3 2-5 3-8 4-8 2-18 0-27-1-6-2-12 1-17 3-4 9-6 14-7a68 68 0 0 1 50 13c7 6 8 11 11 19 3 7 10 11 15 17Z"/><path fill="#9c9ca1" d="m302 376 54 201a13 13 0 0 0 11 9l245 23a13 13 0 0 0 13-15l-59-242a13 13 0 0 0-13-10l-240 18a13 13 0 0 0-11 16Z"/><ellipse cx="787.1" cy="387.7" fill="#fff" rx="26.9" ry="27.3"/><path fill="#fff" d="M809 338s6 17-11 24l-2 4 10 10s13-24 12-32c0 0-2-8-9-6Z"/><circle cx="790.2" cy="389" r="25.9" fill="#6c63ff"/><path fill="#6c63ff" d="m818 348-4-7-6-1c1-22-5-29-5-29h-1l-6-1-11-11v-3c16 2 24 9 29 18 8 15 4 34 4 34Z"/><path stroke="#4c4981" stroke-miterlimit="10" d="M802 307v4l-6-1-11-11s17 4 17 8Zm16 41-4-7v-27c8 15 4 34 4 34Z" opacity=".1"/><ellipse cx="757.1" cy="518.2" fill="#fff" rx="14.4" ry="26.3" transform="rotate(-30 479 500)"/><path fill="#6c63ff" d="M733 375c7 12 16 21 9 25s-27 2-34-11-1-30 6-34 12 7 19 20Z"/><path d="M798 284c0 40-28 79-68 79a73 73 0 0 1 0-146c40 0 68 27 68 67Z" opacity=".1"/><circle cx="730" cy="288.1" r="72.8" fill="#ae6e79"/><path fill="#444053" d="M724 256c8 3 13 12 21 17 11 7 25 5 38 2 7-2 14-4 21-2a6 6 0 0 0 3 0c2 0 3-2 3-3 9-26 5-55-8-78-3-6-7-12-13-16-4-4-9-6-14-8a145 145 0 0 0-29-7 18 18 0 0 0-5 0c-3 0-5 2-7 3a69 69 0 0 1-30 8c-14 1-30-3-41 6-13 11-10 32-18 47-6 9-16 16-18 27a26 26 0 0 0 1 10c4 17 20 30 38 31a14 14 0 0 0 7-2 18 18 0 0 0 4-4c12-13 25-39 47-31Z"/><path d="M810 262c0 2-1 3-3 4a6 6 0 0 1-3-1c-7-2-14 0-21 2-13 4-27 6-38-1-8-5-13-14-21-18-22-7-35 18-47 32a18 18 0 0 1-4 4 14 14 0 0 1-7 1 41 41 0 0 1-39-33 26 26 0 0 0 1 10c4 17 20 30 38 31a14 14 0 0 0 7-2 18 18 0 0 0 4-4c12-13 25-39 47-31 8 3 13 12 21 17 11 7 25 5 38 2 7-2 14-5 21-2a6 6 0 0 0 3 0c2 0 3-2 3-4a90 90 0 0 0 5-32 89 89 0 0 1-5 25Z" opacity=".1"/></svg>