<svg xmlns="http://www.w3.org/2000/svg" width="795.4" height="574" data-name="Layer 1" viewBox="0 0 795 574"><defs><linearGradient id="a" x1="-450.8" x2="-450.8" y1="2803" y2="2729.3" gradientTransform="rotate(90 1104 2114)" gradientUnits="userSpaceOnUse"><stop offset="0" stop-color="gray" stop-opacity=".3"/><stop offset=".5" stop-color="gray" stop-opacity=".1"/><stop offset="1" stop-color="gray" stop-opacity=".1"/></linearGradient></defs><ellipse cx="232.1" cy="450.1" fill="#e0e0e0" rx="35.1" ry="5.3" transform="rotate(-64 0 532)"/><ellipse cx="670.6" cy="667.9" fill="#e0e0e0" rx="35.1" ry="3.6" transform="rotate(-64 438 749)"/><path fill="#f55f44" d="m220 405 17 14-45 54-16-14z"/><path d="m223 482-24-5 16-68 24 5z" opacity=".1"/><path fill="#f55f44" d="m222 482-20-4 16-69 20 5z"/><path fill="url(#a)" d="M415 314h74v490h-74z" transform="rotate(-64 219 640)"/><path fill="#f5f5f5" d="M453 536 14 319c24-37 31-63 31-63l439 217s-15 27-31 63Z"/><path d="m237 351 36 18-31 62-36-17z" opacity=".1"/><path fill="#f55f44" d="m239 352 33 16-31 63-33-17z"/><path d="m243 354 23 11-31 63-23-11z" opacity=".1"/><path fill="#f55f44" d="m245 355 19 9-31 63-19-9z"/><circle cx="261.3" cy="563.9" r="2.9" fill="#dbdbdb"/><g fill="#47e6b1" opacity=".5"><path d="M29 482h3v17h-3z"/><path d="M39 489v3H22v-3z"/></g><g fill="#47e6b1" opacity=".5"><path d="M785 270h3v17h-3z"/><path d="M795 277v3h-17v-3z"/></g><g fill="#47e6b1" opacity=".5"><path d="M47 59h3v17h-3z"/><path d="M57 66v3H40v-3z"/></g><g fill="#47e6b1" opacity=".5"><path d="M695 33h3v17h-3z"/><path d="M705 40v3h-17v-3z"/></g><path fill="#4d8af0" d="M12 253a4 4 0 0 1-2-4 2 2 0 0 0-3-2 2 2 0 0 0 0 1 4 4 0 0 1-5 2 2 2 0 0 0-1 3 4 4 0 0 1 2 5 2 2 0 0 0 3 1 2 2 0 0 0 1 0 4 4 0 0 1 4-2 2 2 0 0 0 2-3 2 2 0 0 0-1-1ZM184 56a4 4 0 0 1-2-4 2 2 0 0 0-3-2 2 2 0 0 0 0 1 4 4 0 0 1-5 2 2 2 0 0 0-1 3 4 4 0 0 1 2 5 2 2 0 0 0 3 1 2 2 0 0 0 1 0 4 4 0 0 1 4-2 2 2 0 0 0 2-3 2 2 0 0 0-1-1Zm210 511a4 4 0 0 1-2-4 2 2 0 0 0-3-2 2 2 0 0 0 0 1 4 4 0 0 1-5 2 2 2 0 0 0-1 3 4 4 0 0 1 2 5 2 2 0 0 0 3 1 2 2 0 0 0 1 0 4 4 0 0 1 4-2 2 2 0 0 0 2-3 2 2 0 0 0-1-1Z" opacity=".5"/><circle cx="759.4" cy="444" r="6" fill="#f55f44" opacity=".5"/><circle cx="627.4" cy="482" r="6" fill="#4d8af0" opacity=".5"/><circle cx="103.4" cy="541" r="6" fill="#47e6b1" opacity=".5"/><circle cx="411.4" cy="6" r="6" fill="#f55f44" opacity=".5"/><path fill="#55198b" d="m205 358-24 36s8 37 185 36 191-36 191-36l-33-48-101-69Z"/><path d="m205 358-24 36s8 37 185 36 191-36 191-36l-33-48-101-69Z" opacity=".1"/><path fill="#55198b" d="M715 224 400 363 16 224 368 64l173 80 6 3 168 77z"/><path d="M715 224 400 363 16 224 368 64l173 80 6 3 168 77z" opacity=".1"/><path fill="#f5f5f5" d="m554 257-6 1-7-114 6 3 7 110z"/><path fill="#55198b" d="m209 224-28 170s201-65 376 0l-26-180s-235-29-322 10Z"/><ellipse cx="553.4" cy="272" fill="#f5f5f5" rx="29" ry="20"/></svg>