<svg xmlns="http://www.w3.org/2000/svg" xmlns:xlink="http://www.w3.org/1999/xlink" xml:space="preserve" width="666.7" height="666.7"><defs><path id="a" d="M0 500h500V0H0Z"/><path id="g" fill="#5ae4a7" d="M62 90.2c2.5-.4 8 1.2 8.4 1.3A72.5 72.5 0 0 1 76 77.3l-1 1.4c-2 2.4-7.3 5.7-10.5 4.3-2.3-1-3-3.7-1.8-5.8 1.2-2 4-3.2 6.3-3.5 2.3-.3 7 1 8.2 1.3l1-2 4.5-9.3 1.5-3.3-1 1.3c-2 2.3-7.2 5.6-10.4 4.3-2.3-1-3-3.7-1.8-5.8 1.2-2.2 4-3.2 6.3-3.5 2.2-.4 6.5.7 8 1.1l1.2-3.3.7-2.3.7-2.3 1-4.5.6-2.9A93 93 0 0 1 88 46c-1.6 2.6-6.3 6.7-9.7 5.8-2.4-.6-3.5-3.2-2.7-5.4.9-2.3 3.5-3.8 5.7-4.5a28 28 0 0 1 8.5 0A182.2 182.2 0 0 0 92 27.4h2.3a212.4 212.4 0 0 1-2.8 15.4c.4.2 2.7 1.1 4.7 2.2a30 30 0 0 1 6.9-4.4 183.5 183.5 0 0 0-6-13.2h2.5a210.2 210.2 0 0 1 5.4 13c.7-.2 6-1.3 8.5-.7 2.2.5 5 1.8 6 4s0 4.8-2.3 5.6c-3.3 1.1-8.3-2.6-10.1-5l-1.7-3 .8 2 1.5 4.5.7 2.3.6 2.4 1 5.5c1.3-.5 5.7-2 8-1.9 2.3.2 5.2 1 6.5 3 1.3 2 .9 4.9-1.3 6-3.1 1.6-8.6-1.3-10.8-3.5l-2.3-2.8.5 3.5c.5 3.4.8 6.9 1.1 10.3l.4 3.2c.4-.1 5.7-2.1 8.2-2 2.3.2 5.2 1 6.5 3.1 1.4 2 .9 4.8-1.3 6-3 1.5-8.6-1.4-10.8-3.6a92 92 0 0 1-2.6-3.3l.8 7a72 72 0 0 0 2 9c.2 0 5.7-2 8.4-1.9 2.3.2 5.1 1 6.5 3 1.3 2 .8 4.8-1.4 6-3 1.6-8.6-1.4-10.8-3.5 0-.2-1.6-2-2.3-3h-.2a52.7 52.7 0 0 0 6 13c1-.4 5.6-2.6 8-2.7 2.3 0 5.2.4 6.8 2.3 1.5 1.9 1.3 4.7-.7 6-3 2-8.7-.3-11.1-2.3l-2.2-2.2 1.1 1.9a92.8 92.8 0 0 0 6.3 8.3c1.3 0 6.1.2 8.3 1.2 2 1 4.4 2.8 5 5.1.4 2.4-1 4.8-3.5 5-3.4.4-7.5-4.3-8.7-7a70.8 70.8 0 0 1-1.3-4.3 100.7 100.7 0 0 1-10.9-15.3 53.3 53.3 0 0 1-3.8-8.7l-.1 4c-.4 3-3 8.7-6.4 9.4-2.4.4-4.5-1.5-4.7-3.9-.2-2.4 1.6-4.8 3.3-6.4 2-1.7 7.3-3.4 7.7-3.5a72.4 72.4 0 0 1-3-15l-.1 1.8c-.4 3-3 8.7-6.4 9.3-2.4.5-4.5-1.4-4.7-3.8-.2-2.4 1.6-4.9 3.3-6.4 1.7-1.6 6.3-3 7.5-3.5l-.3-2.1-1.3-10.3-.6-3.6v1.6c-.4 3-3 8.7-6.4 9.3-2.4.5-4.5-1.4-4.7-3.8-.2-2.4 1.6-4.9 3.3-6.4a26 26 0 0 1 7.3-3.4l-.8-3.5-.7-2.3-.7-2.3-1.6-4.3-1-2.8.4 3.7c0 2-.7 5.4-2.1 7.8v.9c-.4 2.3-2.7 4-5 3.4-3.4-.9-5.5-6.7-5.7-9.8l.2-3.4-.5 2.2-1.1 4.5-.7 2.3L88 55l-2.2 5.4c1.2.3 5.8 1.5 7.7 2.9 1.8 1.4 3.7 3.7 3.7 6.1 0 2.4-2 4.5-4.4 4.2-3.4-.4-6.4-5.8-7-8.9l-.4-3.6-1.5 3.2-4.8 9.3-1.5 2.8c.5.1 6 1.4 8 3 1.8 1.4 3.8 3.7 3.7 6 0 2.5-1.9 4.5-4.4 4.3-3.4-.4-6.4-5.9-7-8.9l-.4-4.2c-1 2-2.1 4.1-3 6.2a71.8 71.8 0 0 0-3.4 8.7c.2 0 5.9 1.4 8 3 1.8 1.4 3.8 3.7 3.7 6.1 0 2.4-1.9 4.5-4.4 4.2-3.4-.4-6.4-5.8-7-8.8l-.4-3.8a52.6 52.6 0 0 0-2.1 14.1c1 .2 6 .8 8 2 2 1.3 4.2 3.3 4.5 5.8.2 2.3-1.5 4.6-4 4.6-3.4 0-7-5.1-8-8l-.6-3v2a92.3 92.3 0 0 0 .7 10.5c1 .7 5 3.5 6.2 5.5 1.2 2 2.2 4.8 1.3 7-.9 2.3-3.4 3.5-5.6 2.4-3.1-1.6-4-7.8-3.4-10.8a70.6 70.6 0 0 1 1.3-4.2 103.4 103.4 0 0 1-.7-18.8c.3-3 .7-6.1 1.6-9.3v-.1L68 95.2c-2 2.4-7.3 5.7-10.5 4.3-2.3-1-3-3.7-1.8-5.8 1.2-2.1 4-3.2 6.2-3.5"/></defs><defs><clipPath id="b" clipPathUnits="userSpaceOnUse"><use xlink:href="#a"/></clipPath><clipPath id="c" clipPathUnits="userSpaceOnUse"><path d="M36.4 462.7H474V26.2H36.4Z"/></clipPath><clipPath id="d" clipPathUnits="userSpaceOnUse"><use xlink:href="#a"/></clipPath><clipPath id="e" clipPathUnits="userSpaceOnUse"><path d="M20 478.9h458.7V56.6H20Z"/></clipPath><clipPath id="f" clipPathUnits="userSpaceOnUse"><use xlink:href="#a"/></clipPath><clipPath id="h" clipPathUnits="userSpaceOnUse"><path d="M54.6 118h13.8v-11.2H54.6Z"/></clipPath><clipPath id="i" clipPathUnits="userSpaceOnUse"><path d="M112.8 121.8h9.6v-15.4h-9.6z"/></clipPath><clipPath id="j" clipPathUnits="userSpaceOnUse"><path d="M55.1 135.5h87.6V27.3H55.1Z"/></clipPath><clipPath id="k" clipPathUnits="userSpaceOnUse"><use xlink:href="#a"/></clipPath><clipPath id="l" clipPathUnits="userSpaceOnUse"><path d="M93.6 448.7h305.1V171.6h-305Z"/></clipPath><clipPath id="m" clipPathUnits="userSpaceOnUse"><use xlink:href="#a"/></clipPath><clipPath id="n" clipPathUnits="userSpaceOnUse"><use xlink:href="#a"/></clipPath></defs><g clip-path="url(#b)" transform="matrix(1.33333 0 0 -1.33333 0 666.7)"><path fill="#5ae4a7" d="M433.1 377.4S348 456 265.5 461.7c-82.4 5.9-168.6-16.4-203.5-64-34.9-47.4-7.8-139.5-16.5-186S19.3 79 80.4 44.1c61-34.9 139.5-15.7 186.4 30.4 46.9 46 122.7 22 164.4 63.6 41.7 41.7 69.8 180.2 2 239.3"/><g clip-path="url(#c)" opacity=".7"><path fill="#fff" d="M433.1 377.4S348 456 265.5 461.7c-82.4 5.9-168.6-16.4-203.5-64-34.9-47.4-7.8-139.5-16.5-186S19.3 79 80.4 44.1c61-34.9 139.5-15.7 186.4 30.4 46.9 46 122.7 22 164.4 63.6 41.7 41.7 69.8 180.2 2 239.3"/></g></g><g clip-path="url(#d)" transform="matrix(1.33333 0 0 -1.33333 0 666.7)"><g clip-path="url(#e)" opacity=".1"><path d="M134.3 473.1v-17.3H50v-14.7h49.5v2H52v10.8h84.3V473a3 3 0 0 1-1 5.8 3 3 0 0 1-.9-5.8M33 394.4a3 3 0 1 1-4-2.8v-37.5l30.6-26h41.8v1.9H61v47.5a3 3 0 0 1-1.3 5.6 3 3 0 0 1-.7-5.9v-46.1l-13.4 11.4v41.8a3 3 0 0 1-1 5.8 3 3 0 0 1-.9-5.8v-40.2L31 355v36.5a3 3 0 0 1 2 2.9m-2.9-81.1h69.4v2H30.1a3 3 0 0 1-5.7-1 3 3 0 0 1 5.7-1m2-168.9v104.4l47.4 50.5H102v2H78.7l-48.5-51.8v-105a3 3 0 1 1 2-.1"/><path d="M43 143.8v99.9L79.5 284h22.6v1.9H78.6l-37.5-41.5V143.8a3 3 0 0 1 0-5.6v-.2H43v.2a3 3 0 0 1 0 5.6"/><path d="M103.7 85.6v67h-11a3 3 0 0 1-5.9 0h-17V234h47.4v2H67.8v-85.3H87a3 3 0 0 1 5.4 0h9.3v-38.8H53.3V62.4a3 3 0 0 1 1-5.8 3 3 0 0 1 .9 5.8V110h46.5V85.6a3 3 0 0 1 1-5.7 3 3 0 0 1 1 5.7m164.7 60.1v47.6h-2v-47.6a3 3 0 0 1 1-5.7 3 3 0 0 1 1 5.7m17.4.2v47.4H284v-47.8a3 3 0 0 1 1.5-5.5 3 3 0 0 1 .4 5.9m187 254.3a3 3 0 1 1 .2 2H442l-21.8-21.9h-.5v-.5L398.8 359h-29.6v99h69.7v-19.4h34a3 3 0 0 1 5.8.8 3 3 0 0 1-5.7 1.1h-32v19.4h-73.7v-10.7h-30v22.3a3 3 0 0 1-1 5.7 3 3 0 0 1-1-5.7v-24.2h32v-90.1H397l-23.3-23.3H234L205.8 362H79.4v73.5H36v28h65.8a3 3 0 1 1-.2 2H34v-32h43.5v-33.8H66l-18 17.9H25.9a3 3 0 1 1-.2-2h21.8l17.9-17.8h12.2V360H205l28-28.1h219.5v-40.7h-42a3 3 0 0 1-5.5-1.5 3 3 0 0 1 5.9-.4h41.6V265h-41.8a3 3 0 0 1-5.7-1 3 3 0 0 1 5.7-1h41.8v-33.6a3 3 0 0 1-2.6-2.2h-39v-48.4h1.9v46.5H450a3 3 0 1 1 4.5 3.6v105h-78.1l23.2 23.2H473a3 3 0 0 1 5.7 1 3 3 0 0 1-5.7 1h-71.4l19.3 19.3H473a3 3 0 1 1 0 2h-50.1l19.8 19.8ZM160.8 150.7h-22.3v-30.2a3 3 0 0 1 1-5.7 3 3 0 0 1 1 5.7v28.2h22.3v46.6h-2z"/><path d="M467 323.2a4.9 4.9 0 1 0 0 9.7 4.9 4.9 0 0 0 0-9.7m0 11.6a6.8 6.8 0 1 1 0-13.6 6.8 6.8 0 0 1 0 13.6M81.4 256.3a4.9 4.9 0 1 0-9.7 0 4.9 4.9 0 0 0 9.7 0m-11.7 0a6.8 6.8 0 1 1 13.6 0 6.8 6.8 0 0 1-13.6 0m101.8 217.1a4.9 4.9 0 1 0 0-9.7 4.9 4.9 0 0 0 0 9.7m0-11.7a6.8 6.8 0 1 1 0 13.6 6.8 6.8 0 0 1 0-13.6m38.7 11.7a4.9 4.9 0 1 0 0-9.7 4.9 4.9 0 0 0 0 9.7m0-11.7a6.8 6.8 0 1 1 0 13.6 6.8 6.8 0 0 1 0-13.6M78.5 59.6a4.9 4.9 0 1 0 0 9.7 4.9 4.9 0 0 0 0-9.7m0 11.6a6.8 6.8 0 1 1 0-13.6 6.8 6.8 0 0 1 0 13.6M122 142a4.9 4.9 0 1 0 0 9.7 4.9 4.9 0 0 0 0-9.7m0 11.6a6.8 6.8 0 1 1 0-13.6 6.8 6.8 0 0 1 0 13.6m345 84.3a4.9 4.9 0 1 0 0 9.7 4.9 4.9 0 0 0 0-9.7m0 11.6a6.8 6.8 0 1 1 0-13.6 6.8 6.8 0 0 1 0 13.6"/></g></g><g clip-path="url(#f)" transform="matrix(1.33333 0 0 -1.33333 0 666.7)"><path fill="#5ae4a7" d="m121.1 106.4 1.2 4.3c.4 3-.6 9.2-3.7 10.7a4 4 0 0 1-5.5-2.5c-.9-2.2.2-5 1.4-7 1.5-2.3 6.6-5.5 6.6-5.5m-61.2 1.3c2.4-1 8.5-.9 8.5-.9L67 111c-1.4 2.8-5.6 7.4-9 7-2.4-.4-3.8-2.9-3.3-5.2.6-2.4 3-4.1 5.2-5"/><use xlink:href="#g"/><g clip-path="url(#h)" opacity=".3"><path fill="#5ae4a7" d="M59.9 107.7c2.4-1 8.5-.9 8.5-.9L67 111c-1.4 2.8-5.6 7.4-9 7-2.4-.4-3.8-2.9-3.3-5.2.6-2.4 3-4.1 5.2-5"/></g><g clip-path="url(#i)" opacity=".3"><path fill="#5ae4a7" d="m121.1 106.4 1.2 4.3c.4 3-.6 9.2-3.7 10.7a4 4 0 0 1-5.5-2.5c-.9-2.2.2-5 1.4-7 1.5-2.3 6.6-5.5 6.6-5.5"/></g><g clip-path="url(#j)" opacity=".3"><use xlink:href="#g"/></g></g><path fill="#5ae4a7" d="M531.6 437.9H124.8V68.4h406.8z"/><g clip-path="url(#k)" transform="matrix(1.33333 0 0 -1.33333 0 666.7)"><g clip-path="url(#l)" opacity=".1"><path d="M398.7 171.6h-305v277.1h305z"/></g></g><path fill="none" stroke="#1a2e35" stroke-miterlimit="10" stroke-width="1.3" d="M531.6 437.9H124.8V68.4h406.8z"/><path fill="#5ae4a7" d="M506.9 327v52H478v36.8h-23.7V215.3H508v36.9h-32.3V327Zm1.1-124.4h-53.6v-25.3H508zm12.7 62.2V164.6h-66.3V68.4H124.8v369.5h329.6v-9.4h36.3v-36.9h28.8v-77.2h-31v-49.6z"/><path fill="none" stroke="#1a2e35" stroke-miterlimit="10" stroke-width="1.3" d="M506.9 327v52H478v36.8h-23.7V215.3H508v36.9h-32.3V327Zm1.1-124.4h-53.6v-25.3H508zm12.7 62.2V164.6h-66.3V68.4H124.8v369.5h329.6v-9.4h36.3v-36.9h28.8v-77.2h-31v-49.6z"/><g clip-path="url(#m)" transform="matrix(1.33333 0 0 -1.33333 0 666.7)"><path fill="#1a2e35" d="M108.3 411.9a2 2 0 1 1-4.1 0 2 2 0 0 1 4.1 0m32.2 0a2 2 0 1 1-4.1 0 2 2 0 0 1 4.1 0m32.2 0a2 2 0 1 1-4.1 0 2 2 0 0 1 4.1 0m32.3 0a2 2 0 1 1-4.2 0 2 2 0 0 1 4.1 0m32.2 0a2 2 0 1 1-4.1 0 2 2 0 0 1 4.1 0m32.2 0a2 2 0 1 1-4.1 0 2 2 0 0 1 4.1 0m32.2 0a2 2 0 1 1-4.1 0 2 2 0 0 1 4.1 0m32.2 0a2 2 0 1 1-4.1 0 2 2 0 0 1 4.1 0m-225.4-31.3a2 2 0 1 1-4.1 0 2 2 0 0 1 4.1 0m32.2 0a2 2 0 1 1-4.1 0 2 2 0 0 1 4.1 0m32.2 0a2 2 0 1 1-4.1 0 2 2 0 0 1 4.1 0m32.3 0a2 2 0 1 1-4.2 0 2 2 0 0 1 4.1 0m32.2 0a2 2 0 1 1-4.1 0 2 2 0 0 1 4.1 0m32.2 0a2 2 0 1 1-4.1 0 2 2 0 0 1 4.1 0m32.2 0a2 2 0 1 1-4.1 0 2 2 0 0 1 4.1 0m32.2 0a2 2 0 1 1-4.1 0 2 2 0 0 1 4.1 0m-225.4-31.3a2 2 0 1 1-4.1 0 2 2 0 0 1 4.1 0m32.2 0a2 2 0 1 1-4.1 0 2 2 0 0 1 4.1 0m32.2 0a2 2 0 1 1-4.1 0 2 2 0 0 1 4.1 0m32.3 0a2 2 0 1 1-4.2 0 2 2 0 0 1 4.1 0m32.2 0a2 2 0 1 1-4.1 0 2 2 0 0 1 4.1 0m32.2 0a2 2 0 1 1-4.1 0 2 2 0 0 1 4.1 0m32.2 0a2 2 0 1 1-4.1 0 2 2 0 0 1 4.1 0m32.2 0a2 2 0 1 1-4.1 0 2 2 0 0 1 4.1 0M108.3 318a2 2 0 1 1-4.1 0 2 2 0 0 1 4.1 0m32.2 0a2 2 0 1 1-4.1 0 2 2 0 0 1 4.1 0m32.2 0a2 2 0 1 1-4.1 0 2 2 0 0 1 4.1 0m32.3 0a2 2 0 1 1-4.2 0 2 2 0 0 1 4.1 0m32.2 0a2 2 0 1 1-4.1 0 2 2 0 0 1 4.1 0m32.2 0a2 2 0 1 1-4.1 0 2 2 0 0 1 4.1 0m32.2 0a2 2 0 1 1-4.1 0 2 2 0 0 1 4.1 0m32.2 0a2 2 0 1 1-4.1 0 2 2 0 0 1 4.1 0m-225.4-31.2a2 2 0 1 1-4.1 0 2 2 0 0 1 4.1 0m32.2 0a2 2 0 1 1-4.1 0 2 2 0 0 1 4.1 0m32.2 0a2 2 0 1 1-4.1 0 2 2 0 0 1 4.1 0m32.3 0a2 2 0 1 1-4.2 0 2 2 0 0 1 4.1 0m32.2 0a2 2 0 1 1-4.1 0 2 2 0 0 1 4.1 0m32.2 0a2 2 0 1 1-4.1 0 2 2 0 0 1 4.1 0m32.2 0a2 2 0 1 1-4.1 0 2 2 0 0 1 4.1 0m32.2 0a2 2 0 1 1-4.1 0 2 2 0 0 1 4.1 0m-225.4-31.3a2 2 0 1 1-4.1 0 2 2 0 0 1 4.1 0m32.2 0a2 2 0 1 1-4.1 0 2 2 0 0 1 4.1 0m32.2 0a2 2 0 1 1-4.1 0 2 2 0 0 1 4.1 0m32.3 0a2 2 0 1 1-4.2 0 2 2 0 0 1 4.1 0m32.2 0a2 2 0 1 1-4.1 0 2 2 0 0 1 4.1 0m32.2 0a2 2 0 1 1-4.1 0 2 2 0 0 1 4.1 0m32.2 0a2 2 0 1 1-4.1 0 2 2 0 0 1 4.1 0m32.2 0a2 2 0 1 1-4.1 0 2 2 0 0 1 4.1 0m-225.4-31.3a2 2 0 1 1-4.1 0 2 2 0 0 1 4.1 0m32.2 0a2 2 0 1 1-4.1 0 2 2 0 0 1 4.1 0m32.2 0a2 2 0 1 1-4.1 0 2 2 0 0 1 4.1 0m32.3 0a2 2 0 1 1-4.2 0 2 2 0 0 1 4.1 0m32.2 0a2 2 0 1 1-4.1 0 2 2 0 0 1 4.1 0m32.2 0a2 2 0 1 1-4.1 0 2 2 0 0 1 4.1 0m32.2 0a2 2 0 1 1-4.1 0 2 2 0 0 1 4.1 0m32.2 0a2 2 0 1 1-4.1 0 2 2 0 0 1 4.1 0M108.3 193a2 2 0 1 1-4.1 0 2 2 0 0 1 4.1 0m32.2 0a2 2 0 1 1-4.1 0 2 2 0 0 1 4.1 0m32.2 0a2 2 0 1 1-4.1 0 2 2 0 0 1 4.1 0m32.3 0a2 2 0 1 1-4.2 0 2 2 0 0 1 4.1 0m32.2 0a2 2 0 1 1-4.1 0 2 2 0 0 1 4.1 0m32.2 0a2 2 0 1 1-4.1 0 2 2 0 0 1 4.1 0m32.2 0a2 2 0 1 1-4.1 0 2 2 0 0 1 4.1 0m32.2 0a2 2 0 1 1-4.1 0 2 2 0 0 1 4.1 0"/><path fill="#fff" d="M129.8 414a7.8 7.8 0 0 0-7.8 7.8v26.8h15.6v-26.8c0-4.3-3.5-7.8-7.8-7.8"/><path fill="none" stroke="#1a2e35" stroke-miterlimit="10" d="M129.8 414a7.8 7.8 0 0 0-7.8 7.8v26.8h15.6v-26.8c0-4.3-3.5-7.8-7.8-7.8Z"/><path fill="#1a2e35" d="M134.6 422.3a4.8 4.8 0 1 1-9.6 0 4.8 4.8 0 0 1 9.6 0"/><path fill="none" stroke="#1a2e35" stroke-miterlimit="10" d="M134.6 422.3a4.8 4.8 0 1 1-9.6 0 4.8 4.8 0 0 1 9.6 0Z"/><path fill="#fff" d="M149.8 414a7.8 7.8 0 0 0-7.8 7.8v26.8h15.6v-26.8c0-4.3-3.5-7.8-7.8-7.8"/><path fill="none" stroke="#1a2e35" stroke-miterlimit="10" d="M149.8 414a7.8 7.8 0 0 0-7.8 7.8v26.8h15.6v-26.8c0-4.3-3.5-7.8-7.8-7.8Z"/><path fill="#1a2e35" d="M154.6 422.3a4.8 4.8 0 1 1-9.6 0 4.8 4.8 0 0 1 9.6 0"/><path fill="none" stroke="#1a2e35" stroke-miterlimit="10" d="M154.6 422.3a4.8 4.8 0 1 1-9.6 0 4.8 4.8 0 0 1 9.6 0Z"/><path fill="#fff" d="M169.8 414a7.8 7.8 0 0 0-7.8 7.8v26.8h15.6v-26.8c0-4.3-3.5-7.8-7.8-7.8"/><path fill="none" stroke="#1a2e35" stroke-miterlimit="10" d="M169.8 414a7.8 7.8 0 0 0-7.8 7.8v26.8h15.6v-26.8c0-4.3-3.5-7.8-7.8-7.8Z"/><path fill="#1a2e35" d="M174.6 422.3a4.8 4.8 0 1 1-9.6 0 4.8 4.8 0 0 1 9.6 0"/><path fill="none" stroke="#1a2e35" stroke-miterlimit="10" d="M174.6 422.3a4.8 4.8 0 1 1-9.6 0 4.8 4.8 0 0 1 9.6 0Z"/><path fill="#fff" d="M189.8 414a7.8 7.8 0 0 0-7.8 7.8v26.8h15.6v-26.8c0-4.3-3.5-7.8-7.8-7.8"/><path fill="none" stroke="#1a2e35" stroke-miterlimit="10" d="M189.8 414a7.8 7.8 0 0 0-7.8 7.8v26.8h15.6v-26.8c0-4.3-3.5-7.8-7.8-7.8Z"/><path fill="#1a2e35" d="M194.6 422.3a4.8 4.8 0 1 1-9.6 0 4.8 4.8 0 0 1 9.6 0"/><path fill="none" stroke="#1a2e35" stroke-miterlimit="10" d="M194.6 422.3a4.8 4.8 0 1 1-9.6 0 4.8 4.8 0 0 1 9.6 0Z"/><path fill="#fff" d="M209.8 414a7.8 7.8 0 0 0-7.8 7.8v26.8h15.6v-26.8c0-4.3-3.5-7.8-7.8-7.8"/><path fill="none" stroke="#1a2e35" stroke-miterlimit="10" d="M209.8 414a7.8 7.8 0 0 0-7.8 7.8v26.8h15.6v-26.8c0-4.3-3.5-7.8-7.8-7.8Z"/><path fill="#1a2e35" d="M214.6 422.3a4.8 4.8 0 1 1-9.6 0 4.8 4.8 0 0 1 9.6 0"/><path fill="none" stroke="#1a2e35" stroke-miterlimit="10" d="M214.6 422.3a4.8 4.8 0 1 1-9.6 0 4.8 4.8 0 0 1 9.6 0Z"/><path fill="#fff" d="M229.8 414a7.8 7.8 0 0 0-7.8 7.8v26.8h15.6v-26.8c0-4.3-3.5-7.8-7.8-7.8"/><path fill="none" stroke="#1a2e35" stroke-miterlimit="10" d="M229.8 414a7.8 7.8 0 0 0-7.8 7.8v26.8h15.6v-26.8c0-4.3-3.5-7.8-7.8-7.8Z"/><path fill="#1a2e35" d="M234.6 422.3a4.8 4.8 0 1 1-9.6 0 4.8 4.8 0 0 1 9.6 0"/><path fill="none" stroke="#1a2e35" stroke-miterlimit="10" d="M234.6 422.3a4.8 4.8 0 1 1-9.6 0 4.8 4.8 0 0 1 9.6 0Z"/><path fill="#fff" d="M249.8 414a7.8 7.8 0 0 0-7.8 7.8v26.8h15.6v-26.8c0-4.3-3.5-7.8-7.8-7.8"/><path fill="none" stroke="#1a2e35" stroke-miterlimit="10" d="M249.8 414a7.8 7.8 0 0 0-7.8 7.8v26.8h15.6v-26.8c0-4.3-3.5-7.8-7.8-7.8Z"/><path fill="#1a2e35" d="M254.6 422.3a4.8 4.8 0 1 1-9.6 0 4.8 4.8 0 0 1 9.6 0"/><path fill="none" stroke="#1a2e35" stroke-miterlimit="10" d="M254.6 422.3a4.8 4.8 0 1 1-9.6 0 4.8 4.8 0 0 1 9.6 0Z"/><path fill="#fff" d="M269.8 414a7.8 7.8 0 0 0-7.8 7.8v26.8h15.6v-26.8c0-4.3-3.5-7.8-7.8-7.8"/><path fill="none" stroke="#1a2e35" stroke-miterlimit="10" d="M269.8 414a7.8 7.8 0 0 0-7.8 7.8v26.8h15.6v-26.8c0-4.3-3.5-7.8-7.8-7.8Z"/><path fill="#1a2e35" d="M274.6 422.3a4.8 4.8 0 1 1-9.6 0 4.8 4.8 0 0 1 9.6 0"/><path fill="none" stroke="#1a2e35" stroke-miterlimit="10" d="M274.6 422.3a4.8 4.8 0 1 1-9.6 0 4.8 4.8 0 0 1 9.6 0Z"/><path fill="#fff" d="M289.8 414a7.8 7.8 0 0 0-7.8 7.8v26.8h15.6v-26.8c0-4.3-3.5-7.8-7.8-7.8"/><path fill="none" stroke="#1a2e35" stroke-miterlimit="10" d="M289.8 414a7.8 7.8 0 0 0-7.8 7.8v26.8h15.6v-26.8c0-4.3-3.5-7.8-7.8-7.8Z"/><path fill="#1a2e35" d="M294.6 422.3a4.8 4.8 0 1 1-9.6 0 4.8 4.8 0 0 1 9.6 0"/><path fill="none" stroke="#1a2e35" stroke-miterlimit="10" d="M294.6 422.3a4.8 4.8 0 1 1-9.6 0 4.8 4.8 0 0 1 9.6 0Z"/><path fill="#fff" d="M289.8 206.2c4.3 0 7.8-3.5 7.8-7.8v-26.8H282v26.8c0 4.3 3.5 7.8 7.8 7.8"/><path fill="none" stroke="#1a2e35" stroke-miterlimit="10" d="M289.8 206.2c4.3 0 7.8-3.5 7.8-7.8v-26.8H282v26.8c0 4.3 3.5 7.8 7.8 7.8Z"/><path fill="#1a2e35" d="M285 197.8a4.8 4.8 0 1 1 9.6 0 4.8 4.8 0 0 1-9.6 0"/><path fill="none" stroke="#1a2e35" stroke-miterlimit="10" d="M285 197.8a4.8 4.8 0 1 1 9.6 0 4.8 4.8 0 0 1-9.6 0Z"/><path fill="#fff" d="M269.8 206.2c4.3 0 7.8-3.5 7.8-7.8v-26.8H262v26.8c0 4.3 3.5 7.8 7.8 7.8"/><path fill="none" stroke="#1a2e35" stroke-miterlimit="10" d="M269.8 206.2c4.3 0 7.8-3.5 7.8-7.8v-26.8H262v26.8c0 4.3 3.5 7.8 7.8 7.8Z"/><path fill="#1a2e35" d="M265 197.8a4.8 4.8 0 1 1 9.6 0 4.8 4.8 0 0 1-9.6 0"/><path fill="none" stroke="#1a2e35" stroke-miterlimit="10" d="M265 197.8a4.8 4.8 0 1 1 9.6 0 4.8 4.8 0 0 1-9.6 0Z"/><path fill="#fff" d="M249.8 206.2c4.3 0 7.8-3.5 7.8-7.8v-26.8H242v26.8c0 4.3 3.5 7.8 7.8 7.8"/><path fill="none" stroke="#1a2e35" stroke-miterlimit="10" d="M249.8 206.2c4.3 0 7.8-3.5 7.8-7.8v-26.8H242v26.8c0 4.3 3.5 7.8 7.8 7.8Z"/><path fill="#1a2e35" d="M245 197.8a4.8 4.8 0 1 1 9.6 0 4.8 4.8 0 0 1-9.6 0"/><path fill="none" stroke="#1a2e35" stroke-miterlimit="10" d="M245 197.8a4.8 4.8 0 1 1 9.6 0 4.8 4.8 0 0 1-9.6 0Z"/><path fill="#fff" d="M229.8 206.2c4.3 0 7.8-3.5 7.8-7.8v-26.8H222v26.8c0 4.3 3.5 7.8 7.8 7.8"/><path fill="none" stroke="#1a2e35" stroke-miterlimit="10" d="M229.8 206.2c4.3 0 7.8-3.5 7.8-7.8v-26.8H222v26.8c0 4.3 3.5 7.8 7.8 7.8Z"/><path fill="#1a2e35" d="M225 197.8a4.8 4.8 0 1 1 9.6 0 4.8 4.8 0 0 1-9.6 0"/><path fill="none" stroke="#1a2e35" stroke-miterlimit="10" d="M225 197.8a4.8 4.8 0 1 1 9.6 0 4.8 4.8 0 0 1-9.6 0Z"/><path fill="#fff" d="M209.8 206.2c4.3 0 7.8-3.5 7.8-7.8v-26.8H202v26.8c0 4.3 3.5 7.8 7.8 7.8"/><path fill="none" stroke="#1a2e35" stroke-miterlimit="10" d="M209.8 206.2c4.3 0 7.8-3.5 7.8-7.8v-26.8H202v26.8c0 4.3 3.5 7.8 7.8 7.8Z"/><path fill="#1a2e35" d="M205 197.8a4.8 4.8 0 1 1 9.6 0 4.8 4.8 0 0 1-9.6 0"/><path fill="none" stroke="#1a2e35" stroke-miterlimit="10" d="M205 197.8a4.8 4.8 0 1 1 9.6 0 4.8 4.8 0 0 1-9.6 0Z"/><path fill="#fff" d="M189.8 206.2c4.3 0 7.8-3.5 7.8-7.8v-26.8H182v26.8c0 4.3 3.5 7.8 7.8 7.8"/><path fill="none" stroke="#1a2e35" stroke-miterlimit="10" d="M189.8 206.2c4.3 0 7.8-3.5 7.8-7.8v-26.8H182v26.8c0 4.3 3.5 7.8 7.8 7.8Z"/><path fill="#1a2e35" d="M185 197.8a4.8 4.8 0 1 1 9.6 0 4.8 4.8 0 0 1-9.6 0"/><path fill="none" stroke="#1a2e35" stroke-miterlimit="10" d="M185 197.8a4.8 4.8 0 1 1 9.6 0 4.8 4.8 0 0 1-9.6 0Z"/><path fill="#fff" d="M169.8 206.2c4.3 0 7.8-3.5 7.8-7.8v-26.8H162v26.8c0 4.3 3.5 7.8 7.8 7.8"/><path fill="none" stroke="#1a2e35" stroke-miterlimit="10" d="M169.8 206.2c4.3 0 7.8-3.5 7.8-7.8v-26.8H162v26.8c0 4.3 3.5 7.8 7.8 7.8Z"/><path fill="#1a2e35" d="M165 197.8a4.8 4.8 0 1 1 9.6 0 4.8 4.8 0 0 1-9.6 0"/><path fill="none" stroke="#1a2e35" stroke-miterlimit="10" d="M165 197.8a4.8 4.8 0 1 1 9.6 0 4.8 4.8 0 0 1-9.6 0Z"/><path fill="#fff" d="M149.8 206.2c4.3 0 7.8-3.5 7.8-7.8v-26.8H142v26.8c0 4.3 3.5 7.8 7.8 7.8"/><path fill="none" stroke="#1a2e35" stroke-miterlimit="10" d="M149.8 206.2c4.3 0 7.8-3.5 7.8-7.8v-26.8H142v26.8c0 4.3 3.5 7.8 7.8 7.8Z"/><path fill="#1a2e35" d="M145 197.8a4.8 4.8 0 1 1 9.6 0 4.8 4.8 0 0 1-9.6 0"/><path fill="none" stroke="#1a2e35" stroke-miterlimit="10" d="M145 197.8a4.8 4.8 0 1 1 9.6 0 4.8 4.8 0 0 1-9.6 0Z"/><path fill="#fff" d="M129.8 206.2c4.3 0 7.8-3.5 7.8-7.8v-26.8H122v26.8c0 4.3 3.5 7.8 7.8 7.8"/><path fill="none" stroke="#1a2e35" stroke-miterlimit="10" d="M129.8 206.2c4.3 0 7.8-3.5 7.8-7.8v-26.8H122v26.8c0 4.3 3.5 7.8 7.8 7.8Z"/><path fill="#1a2e35" d="M125 197.8a4.8 4.8 0 1 1 9.6 0 4.8 4.8 0 0 1-9.6 0"/><path fill="none" stroke="#1a2e35" stroke-miterlimit="10" d="M125 197.8a4.8 4.8 0 1 1 9.6 0 4.8 4.8 0 0 1-9.6 0Z"/><path fill="none" stroke="#1a2e35" stroke-miterlimit="10" stroke-width="2" d="M205.5 357.2v9.2l-5 6.3v6.9m49.3-21.4v37.2m-26.7-43.1v37.2m-8.9-31.3v37.2"/><path fill="#1a2e35" d="M204.6 369.1a2.8 2.8 0 1 1 0-5.5 2.8 2.8 0 0 1 0 5.5"/><path fill="none" stroke="#1a2e35" stroke-miterlimit="10" d="M204.6 369.1a2.8 2.8 0 1 1 0-5.5 2.8 2.8 0 0 1 0 5.5Z"/><path fill="#fff" d="M204.6 365a1.3 1.3 0 1 0 0 2.7 1.3 1.3 0 0 0 0-2.7"/><path fill="none" stroke="#1a2e35" stroke-miterlimit="10" d="M204.6 365a1.3 1.3 0 1 0 0 2.7 1.3 1.3 0 0 0 0-2.7Z"/><path fill="#1a2e35" d="M214.1 398.1a2.8 2.8 0 1 1 0-5.5 2.8 2.8 0 0 1 0 5.5"/><path fill="none" stroke="#1a2e35" stroke-miterlimit="10" d="M214.1 398.1a2.8 2.8 0 1 1 0-5.5 2.8 2.8 0 0 1 0 5.5Z"/><path fill="#fff" d="M214.1 394a1.3 1.3 0 1 0 0 2.7 1.3 1.3 0 0 0 0-2.7"/><path fill="none" stroke="#1a2e35" stroke-miterlimit="10" d="M214.1 394a1.3 1.3 0 1 0 0 2.7 1.3 1.3 0 0 0 0-2.7Z"/><path fill="#1a2e35" d="M223 393.8a2.8 2.8 0 1 1 0-5.5 2.8 2.8 0 0 1 0 5.5"/><path fill="none" stroke="#1a2e35" stroke-miterlimit="10" d="M223 393.8a2.8 2.8 0 1 1 0-5.5 2.8 2.8 0 0 1 0 5.5Z"/><path fill="#fff" d="M223 389.8a1.3 1.3 0 1 0 0 2.6 1.3 1.3 0 0 0 0-2.6"/><path fill="none" stroke="#1a2e35" stroke-miterlimit="10" d="M223 389.8a1.3 1.3 0 1 0 0 2.6 1.3 1.3 0 0 0 0-2.6Z"/><path fill="#1a2e35" d="M232 399.5a2.8 2.8 0 1 1 0-5.6 2.8 2.8 0 0 1 0 5.6"/><path fill="none" stroke="#1a2e35" stroke-miterlimit="10" d="M232 399.5a2.8 2.8 0 1 1 0-5.6 2.8 2.8 0 0 1 0 5.6Z"/><path fill="#fff" d="M232 395.4a1.3 1.3 0 1 0 0 2.6 1.3 1.3 0 0 0 0-2.6"/><path fill="none" stroke="#1a2e35" stroke-miterlimit="10" d="M232 395.4a1.3 1.3 0 1 0 0 2.6 1.3 1.3 0 0 0 0-2.6Z"/><path fill="#1a2e35" d="M240.7 393.8a2.8 2.8 0 1 1 0-5.5 2.8 2.8 0 0 1 0 5.5"/><path fill="none" stroke="#1a2e35" stroke-miterlimit="10" d="M240.7 393.8a2.8 2.8 0 1 1 0-5.5 2.8 2.8 0 0 1 0 5.5Z"/><path fill="#fff" d="M240.7 389.8a1.3 1.3 0 1 0 0 2.6 1.3 1.3 0 0 0 0-2.6"/><path fill="none" stroke="#1a2e35" stroke-miterlimit="10" d="M240.7 389.8a1.3 1.3 0 1 0 0 2.6 1.3 1.3 0 0 0 0-2.6Z"/><path fill="#1a2e35" d="M249.8 399.5a2.8 2.8 0 1 1 0-5.6 2.8 2.8 0 0 1 0 5.6"/><path fill="none" stroke="#1a2e35" stroke-miterlimit="10" d="M249.8 399.5a2.8 2.8 0 1 1 0-5.6 2.8 2.8 0 0 1 0 5.6Z"/><path fill="#fff" d="M249.8 395.4a1.3 1.3 0 1 0 0 2.6 1.3 1.3 0 0 0 0-2.6"/><path fill="none" stroke="#1a2e35" stroke-miterlimit="10" d="M249.8 395.4a1.3 1.3 0 1 0 0 2.6 1.3 1.3 0 0 0 0-2.6Z"/><path fill="none" stroke="#1a2e35" stroke-miterlimit="10" stroke-width="2" d="M241 352.3v37.2m-9-31.3v37.2m17.8-118.2V240m-26.7 43.1V246m-8.9 31.2V240"/><path fill="#1a2e35" d="M214.1 237.3a2.8 2.8 0 1 0 0 5.5 2.8 2.8 0 0 0 0-5.5"/><path fill="none" stroke="#1a2e35" stroke-miterlimit="10" d="M214.1 237.3a2.8 2.8 0 1 0 0 5.5 2.8 2.8 0 0 0 0-5.5Z"/><path fill="#fff" d="M214.1 241.4a1.3 1.3 0 1 1 0-2.7 1.3 1.3 0 0 1 0 2.7"/><path fill="none" stroke="#1a2e35" stroke-miterlimit="10" d="M214.1 241.4a1.3 1.3 0 1 1 0-2.7 1.3 1.3 0 0 1 0 2.7Z"/><path fill="none" stroke="#1a2e35" stroke-miterlimit="10" stroke-width="2" d="M205.8 277.2v-24"/><path fill="#1a2e35" d="M206.2 250.6a2.8 2.8 0 1 0-1 5.4 2.8 2.8 0 0 0 1-5.4"/><path fill="none" stroke="#1a2e35" stroke-miterlimit="10" d="M206.2 250.6a2.8 2.8 0 1 0-1 5.4 2.8 2.8 0 0 0 1-5.4Z"/><path fill="#fff" d="M206 254.6a1.3 1.3 0 0 1-.6-2.6 1.3 1.3 0 0 1 .7 2.6"/><path fill="none" stroke="#1a2e35" stroke-miterlimit="10" d="M206 254.6a1.3 1.3 0 0 1-.6-2.6 1.3 1.3 0 0 1 .7 2.6Z"/><path fill="none" stroke="#1a2e35" stroke-miterlimit="10" stroke-width="2" d="M196.6 277.2v-27.5"/><path fill="#1a2e35" d="M197 259.6a2.8 2.8 0 1 0-1 5.5 2.8 2.8 0 0 0 1-5.5"/><path fill="none" stroke="#1a2e35" stroke-miterlimit="10" d="M197 259.6a2.8 2.8 0 1 0-1 5.5 2.8 2.8 0 0 0 1-5.5Z"/><path fill="#fff" d="M196.8 263.6a1.3 1.3 0 1 1-.6-2.6 1.3 1.3 0 0 1 .6 2.6"/><path fill="none" stroke="#1a2e35" stroke-miterlimit="10" d="M196.8 263.6a1.3 1.3 0 1 1-.6-2.6 1.3 1.3 0 0 1 .6 2.6Z"/><path fill="#1a2e35" d="M223 241.6a2.8 2.8 0 1 0 0 5.5 2.8 2.8 0 0 0 0-5.5"/><path fill="none" stroke="#1a2e35" stroke-miterlimit="10" d="M223 241.6a2.8 2.8 0 1 0 0 5.5 2.8 2.8 0 0 0 0-5.5Z"/><path fill="#fff" d="M223 245.7a1.3 1.3 0 1 1 0-2.7 1.3 1.3 0 0 1 0 2.7"/><path fill="none" stroke="#1a2e35" stroke-miterlimit="10" d="M223 245.7a1.3 1.3 0 1 1 0-2.7 1.3 1.3 0 0 1 0 2.7Z"/><path fill="#1a2e35" d="M232 236a2.8 2.8 0 1 0 0 5.5 2.8 2.8 0 0 0 0-5.6"/><path fill="none" stroke="#1a2e35" stroke-miterlimit="10" d="M232 236a2.8 2.8 0 1 0 0 5.5 2.8 2.8 0 0 0 0-5.6Z"/><path fill="#fff" d="M232 240a1.3 1.3 0 1 1 0-2.6 1.3 1.3 0 0 1 0 2.6"/><path fill="none" stroke="#1a2e35" stroke-miterlimit="10" d="M232 240a1.3 1.3 0 1 1 0-2.6 1.3 1.3 0 0 1 0 2.6Z"/><path fill="#1a2e35" d="M240.7 241.6a2.8 2.8 0 1 0 0 5.5 2.8 2.8 0 0 0 0-5.5"/><path fill="none" stroke="#1a2e35" stroke-miterlimit="10" d="M240.7 241.6a2.8 2.8 0 1 0 0 5.5 2.8 2.8 0 0 0 0-5.5Z"/><path fill="#fff" d="M240.7 245.7a1.3 1.3 0 1 1 0-2.7 1.3 1.3 0 0 1 0 2.7"/><path fill="none" stroke="#1a2e35" stroke-miterlimit="10" d="M240.7 245.7a1.3 1.3 0 1 1 0-2.7 1.3 1.3 0 0 1 0 2.7Z"/><path fill="#1a2e35" d="M249.8 236a2.8 2.8 0 1 0 0 5.5 2.8 2.8 0 0 0 0-5.6"/><path fill="none" stroke="#1a2e35" stroke-miterlimit="10" d="M249.8 236a2.8 2.8 0 1 0 0 5.5 2.8 2.8 0 0 0 0-5.6Z"/><path fill="#fff" d="M249.8 240a1.3 1.3 0 1 1 0-2.6 1.3 1.3 0 0 1 0 2.6"/><path fill="none" stroke="#1a2e35" stroke-miterlimit="10" d="M249.8 240a1.3 1.3 0 1 1 0-2.6 1.3 1.3 0 0 1 0 2.6Z"/><path fill="none" stroke="#1a2e35" stroke-miterlimit="10" stroke-width="2" d="M241 283.1V246m-9 31.2V240"/><path fill="#fff" stroke="#1a2e35" stroke-miterlimit="10" d="M203.6 379H198v11h5.6z"/><path fill="#fff" stroke="#1a2e35" stroke-miterlimit="10" d="M203.6 381.3H198v6.4h5.6zm-3.9-139.6h-5.6v11h5.6z"/><path fill="#fff" stroke="#1a2e35" stroke-miterlimit="10" d="M199.7 244h-5.6v6.4h5.6zm62.2 9.9h-5.7v11h5.7z"/><path fill="#fff" stroke="#1a2e35" stroke-miterlimit="10" d="M261.9 256.2h-5.7v6.4h5.7z"/><path fill="none" stroke="#1a2e35" stroke-miterlimit="10" stroke-width="2" d="M258.8 357.2v9.2l5 6.3v6.9"/><path fill="#1a2e35" d="M259.7 369.1a2.8 2.8 0 1 0 0-5.5 2.8 2.8 0 0 0 0 5.5"/><path fill="none" stroke="#1a2e35" stroke-miterlimit="10" d="M259.7 369.1a2.8 2.8 0 1 0 0-5.5 2.8 2.8 0 0 0 0 5.5Z"/><path fill="#fff" d="M259.7 365a1.3 1.3 0 1 1 0 2.7 1.3 1.3 0 0 1 0-2.7"/><path fill="none" stroke="#1a2e35" stroke-miterlimit="10" d="M259.7 365a1.3 1.3 0 1 1 0 2.7 1.3 1.3 0 0 1 0-2.7Z"/><path fill="#1a2e35" d="M301.4 355.4a2.8 2.8 0 1 0 0-5.6 2.8 2.8 0 0 0 0 5.6"/><path fill="none" stroke="#1a2e35" stroke-miterlimit="10" d="M301.4 355.4a2.8 2.8 0 1 0 0-5.6 2.8 2.8 0 0 0 0 5.6Z"/><path fill="#fff" d="M301.4 351.3a1.3 1.3 0 1 1 0 2.6 1.3 1.3 0 0 1 0-2.6"/><path fill="none" stroke="#1a2e35" stroke-miterlimit="10" d="M301.4 351.3a1.3 1.3 0 1 1 0 2.6 1.3 1.3 0 0 1 0-2.6Z"/><path fill="#fff" stroke="#1a2e35" stroke-miterlimit="10" d="M260.7 379h5.7v11h-5.7z"/><path fill="#fff" stroke="#1a2e35" stroke-miterlimit="10" d="M260.7 381.3h5.7v6.4h-5.7z"/><path fill="none" stroke="#1a2e35" stroke-miterlimit="10" stroke-width="2" d="M196.6 357.2v6.2l-6.7 8.9v9.3"/><path fill="#fff" stroke="#1a2e35" stroke-miterlimit="10" d="M192.7 379h-5.6v11h5.6z"/><path fill="#fff" stroke="#1a2e35" stroke-miterlimit="10" d="M192.7 381.3h-5.6v6.4h5.6z"/><path fill="none" stroke="#1a2e35" stroke-miterlimit="10" stroke-width="2" d="M268.3 348.3h8.4v33"/><path fill="#fff" stroke="#1a2e35" stroke-miterlimit="10" d="M273.8 379h5.7v11h-5.7z"/><path fill="#fff" stroke="#1a2e35" stroke-miterlimit="10" d="M273.8 381.3h5.7v6.4h-5.7zm24.7-25.1h5.6v11h-5.6z"/><path fill="#fff" stroke="#1a2e35" stroke-miterlimit="10" d="M298.5 358.5h5.6v6.4h-5.6z"/><path fill="none" stroke="#1a2e35" stroke-miterlimit="10" stroke-width="2" d="M268.3 321.9H282l10.5 18.9V352"/><path fill="#fff" stroke="#1a2e35" stroke-miterlimit="10" d="M289.8 350.4h5.6v11h-5.6z"/><path fill="#fff" stroke="#1a2e35" stroke-miterlimit="10" d="M289.8 352.7h5.6v6.4h-5.6z"/><path fill="none" stroke="#1a2e35" stroke-miterlimit="10" stroke-width="2" d="M268.7 338.7h22.6m-22.6-8h18m11.5-32.2-5.6-.1-7.6 5h-17.6"/><path fill="none" stroke="#1a2e35" stroke-miterlimit="10" stroke-width="6" d="M297.6 319h20.7a10 10 0 0 0 8.3-4.6l.2-.2a10 10 0 0 0-8.2-15.5l-20.4-.2"/><path fill="none" stroke="#1a2e35" stroke-miterlimit="10" stroke-width="2" d="M267.4 312.7H285l6.8 6.3h5.8"/><path fill="#fff" stroke="#1a2e35" stroke-miterlimit="10" d="M292.7 316.8h11v5.7h-11z"/><path fill="#fff" stroke="#1a2e35" stroke-miterlimit="10" d="M295 316.8h6.4v5.7H295zm17.7 0h11v5.7h-11z"/><path fill="#fff" stroke="#1a2e35" stroke-miterlimit="10" d="M315 316.8h6.4v5.7H315zM292.7 296h11v5.6h-11z"/><path fill="#fff" stroke="#1a2e35" stroke-miterlimit="10" d="M295 296h6.4v5.6H295zm17.7 0h11v5.6h-11z"/><path fill="#fff" stroke="#1a2e35" stroke-miterlimit="10" d="M315 296h6.4v5.6H315z"/><path fill="none" stroke="#1a2e35" stroke-miterlimit="10" stroke-width="2" d="M267 294.6h16.8l10-7.5H304"/><path fill="#fff" d="m292.6 290.2.1-5.6 11 .1v5.7z"/><path fill="none" stroke="#1a2e35" stroke-miterlimit="10" d="m292.6 290.2.1-5.6 11 .1v5.7z"/><path fill="#fff" d="M295 290.3v-5.7l6.4.1v5.7Z"/><path fill="none" stroke="#1a2e35" stroke-miterlimit="10" d="M295 290.3v-5.7l6.4.1v5.7Z"/><path fill="#1a2e35" d="M289.8 293a2.8 2.8 0 1 0 0-5.5 2.8 2.8 0 0 0 0 5.5"/><path fill="none" stroke="#1a2e35" stroke-miterlimit="10" d="M289.8 293a2.8 2.8 0 1 0 0-5.5 2.8 2.8 0 0 0 0 5.5Z"/><path fill="#fff" d="M289.8 288.9a1.3 1.3 0 1 1 0 2.7 1.3 1.3 0 0 1 0-2.7"/><path fill="none" stroke="#1a2e35" stroke-miterlimit="10" d="M289.8 288.9a1.3 1.3 0 1 1 0 2.7 1.3 1.3 0 0 1 0-2.7Z"/><path fill="none" stroke="#1a2e35" stroke-miterlimit="10" stroke-width="2" d="M267.4 285.4h9.3a15.4 15.4 0 0 0 15.5-15.5v-20.2h24.3l4.6-5"/><path fill="#fff" d="M323.8 220.8H308a7 7 0 0 0-7 7v11.1a7 7 0 0 0 7 7h15.8a7 7 0 0 0 7-7v-11.2a7 7 0 0 0-7-7"/><path fill="none" stroke="#1a2e35" stroke-miterlimit="10" d="M323.8 220.8H308a7 7 0 0 0-7 7v11.1a7 7 0 0 0 7 7h15.8a7 7 0 0 0 7-7v-11.2a7 7 0 0 0-7-7Z"/><path fill="#fff" d="M321.3 222.8h-10.8a7 7 0 0 0-7 7v7a7 7 0 0 0 7 7h10.8a7 7 0 0 0 7-7v-7a7 7 0 0 0-7-7"/><path fill="none" stroke="#1a2e35" stroke-miterlimit="10" d="M321.3 222.8h-10.8a7 7 0 0 0-7 7v7a7 7 0 0 0 7 7h10.8a7 7 0 0 0 7-7v-7a7 7 0 0 0-7-7Z"/><path fill="none" stroke="#1a2e35" stroke-miterlimit="10" stroke-width="2" d="M259 282v-13.4"/><path fill="#1a2e35" d="M259.4 266.5a2.8 2.8 0 1 0-.8 5.5 2.8 2.8 0 0 0 .8-5.5"/><path fill="none" stroke="#1a2e35" stroke-miterlimit="10" d="M259.4 266.5a2.8 2.8 0 1 0-.8 5.5 2.8 2.8 0 0 0 .8-5.5Z"/><path fill="#fff" d="M259.3 270.5a1.3 1.3 0 1 1-.6-2.6 1.3 1.3 0 0 1 .6 2.6"/><path fill="none" stroke="#1a2e35" stroke-miterlimit="10" d="M259.3 270.5a1.3 1.3 0 1 1-.6-2.6 1.3 1.3 0 0 1 .6 2.6Z"/><path fill="none" stroke="#1a2e35" stroke-miterlimit="10" stroke-width="2" d="M188.5 286.2H176l-6.7-7.5v-13.9"/><path fill="none" stroke="#1a2e35" stroke-miterlimit="10" stroke-width="2" d="M190.2 295H165l-8-10.5V259"/><path fill="#1a2e35" d="M169.6 262.1a2.8 2.8 0 1 0-.9 5.5 2.8 2.8 0 0 0 .9-5.5"/><path fill="none" stroke="#1a2e35" stroke-miterlimit="10" d="M169.6 262.1a2.8 2.8 0 1 0-.9 5.5 2.8 2.8 0 0 0 .9-5.5Z"/><path fill="#fff" d="M169.5 266.1a1.3 1.3 0 0 1-.7-2.5 1.3 1.3 0 0 1 .7 2.5"/><path fill="none" stroke="#1a2e35" stroke-miterlimit="10" d="M169.5 266.1a1.3 1.3 0 0 1-.7-2.5 1.3 1.3 0 0 1 .7 2.5Z"/><path fill="#1a2e35" d="M157.8 257.5a2.8 2.8 0 1 0-.9 5.5 2.8 2.8 0 0 0 1-5.5"/><path fill="none" stroke="#1a2e35" stroke-miterlimit="10" d="M157.8 257.5a2.8 2.8 0 1 0-.9 5.5 2.8 2.8 0 0 0 1-5.5Z"/><path fill="#fff" d="M157.7 261.5a1.3 1.3 0 1 1-.7-2.6 1.3 1.3 0 0 1 .7 2.6"/><path fill="none" stroke="#1a2e35" stroke-miterlimit="10" d="M157.7 261.5a1.3 1.3 0 1 1-.7-2.6 1.3 1.3 0 0 1 .7 2.6Z"/><path fill="none" stroke="#1a2e35" stroke-miterlimit="10" stroke-width="2" d="M190.2 303.7H165l-8 10.5V380"/><path fill="#1a2e35" d="M157.8 381.5a2.8 2.8 0 1 1-.9-5.5 2.8 2.8 0 0 1 1 5.5"/><path fill="none" stroke="#1a2e35" stroke-miterlimit="10" d="M157.8 381.5a2.8 2.8 0 1 1-.9-5.5 2.8 2.8 0 0 1 1 5.5Z"/><path fill="#fff" d="M157.7 377.5a1.3 1.3 0 1 0-.7 2.6 1.3 1.3 0 0 0 .7-2.6"/><path fill="none" stroke="#1a2e35" stroke-miterlimit="10" d="M157.7 377.5a1.3 1.3 0 1 0-.7 2.6 1.3 1.3 0 0 0 .7-2.6Z"/><path fill="none" stroke="#1a2e35" stroke-miterlimit="10" stroke-width="2" d="M195.7 312.7h-25.2l-8 10.5v66"/><path fill="#1a2e35" d="M163.3 390.5a2.8 2.8 0 1 1-.9-5.4 2.8 2.8 0 0 1 .9 5.4"/><path fill="none" stroke="#1a2e35" stroke-miterlimit="10" d="M163.3 390.5a2.8 2.8 0 1 1-.9-5.4 2.8 2.8 0 0 1 .9 5.4Z"/><path fill="#fff" d="M163.2 386.5a1.3 1.3 0 1 0-.7 2.6 1.3 1.3 0 0 0 .7-2.6"/><path fill="none" stroke="#1a2e35" stroke-miterlimit="10" d="M163.2 386.5a1.3 1.3 0 1 0-.7 2.6 1.3 1.3 0 0 0 .7-2.6Z"/><path fill="none" stroke="#1a2e35" stroke-miterlimit="10" stroke-width="2" d="M201.5 321.5h-25.2l-8 10.5v66"/><path fill="#1a2e35" d="M169.1 399.4a2.8 2.8 0 1 1-.8-5.5 2.8 2.8 0 0 1 .8 5.5"/><path fill="none" stroke="#1a2e35" stroke-miterlimit="10" d="M169.1 399.4a2.8 2.8 0 1 1-.8-5.5 2.8 2.8 0 0 1 .8 5.5Z"/><path fill="#fff" d="M169 395.3a1.3 1.3 0 1 0-.6 2.6 1.3 1.3 0 0 0 .6-2.6"/><path fill="none" stroke="#1a2e35" stroke-miterlimit="10" d="M169 395.3a1.3 1.3 0 1 0-.6 2.6 1.3 1.3 0 0 0 .6-2.6Z"/><path fill="none" stroke="#1a2e35" stroke-miterlimit="10" stroke-width="2" d="M125.3 347.2v14.7"/><path fill="#1a2e35" d="M125.7 357.8a2.8 2.8 0 1 1-.8-5.4 2.8 2.8 0 0 1 .8 5.4"/><path fill="none" stroke="#1a2e35" stroke-miterlimit="10" d="M125.7 357.8a2.8 2.8 0 1 1-.8-5.4 2.8 2.8 0 0 1 .8 5.4Z"/><path fill="#fff" d="M125.6 353.8a1.3 1.3 0 1 0-.6 2.6 1.3 1.3 0 0 0 .6-2.6"/><path fill="none" stroke="#1a2e35" stroke-miterlimit="10" d="M125.6 353.8a1.3 1.3 0 1 0-.6 2.6 1.3 1.3 0 0 0 .6-2.6Z"/><path fill="#fff" d="m115.6 365.4.1-5.6 11 .2v5.6z"/><path fill="none" stroke="#1a2e35" stroke-miterlimit="10" d="m115.6 365.4.1-5.6 11 .2v5.6z"/><path fill="#fff" d="M118 365.5v-5.7l6.4.1v5.7Z"/><path fill="none" stroke="#1a2e35" stroke-miterlimit="10" d="M118 365.5v-5.7l6.4.1v5.7Z"/><path fill="none" stroke="#1a2e35" stroke-miterlimit="10" stroke-width="2" d="M125.3 301.5v-14.7"/><path fill="#1a2e35" d="M125.7 290.9a2.8 2.8 0 1 0-.8 5.4 2.8 2.8 0 0 0 .8-5.4"/><path fill="none" stroke="#1a2e35" stroke-miterlimit="10" d="M125.7 290.9a2.8 2.8 0 1 0-.8 5.4 2.8 2.8 0 0 0 .8-5.4Z"/><path fill="#fff" d="M125.6 294.9a1.3 1.3 0 0 1-.6-2.6 1.3 1.3 0 0 1 .6 2.6"/><path fill="none" stroke="#1a2e35" stroke-miterlimit="10" d="M125.6 294.9a1.3 1.3 0 0 1-.6-2.6 1.3 1.3 0 0 1 .6 2.6Z"/><path fill="#fff" d="m115.6 283.3.1 5.6 11-.2v-5.6Z"/><path fill="none" stroke="#1a2e35" stroke-miterlimit="10" d="m115.6 283.3.1 5.6 11-.2v-5.6Z"/><path fill="#fff" d="M118 283.2v5.7l6.4-.1V283Z"/><path fill="none" stroke="#1a2e35" stroke-miterlimit="10" d="M118 283.2v5.7l6.4-.1V283Z"/><path fill="#fff" stroke="#1a2e35" stroke-miterlimit="10" d="M135.4 341H112v7.2h23.3zm0-41H112v7.2h23.3z"/><path fill="#1a2e35" stroke="#1a2e35" stroke-miterlimit="10" d="M131.3 304.6h-16.2v40h16.2z"/><path fill="none" stroke="#1a2e35" stroke-miterlimit="10" stroke-width="6" d="M328.5 308.5v77.6"/><path fill="#fff" stroke="#1a2e35" stroke-miterlimit="10" d="M322 385.7h-7V409h7zm10.4-4.1h-7V405h7zm10.4 4.1h-7V409h7zM198 359.8h-2.7v-5.1h2.7zm8.9 0H204v-5.1h2.8zm8.9 0H213v-5.1h2.8zm8.8 0H222v-5.1h2.7zm8.9 0h-2.8v-5.1h2.8zm8.9 0h-2.8v-5.1h2.8zm8.8 0h-2.7v-5.1h2.7zm8.9 0h-2.8v-5.1h2.8zM198 281h-2.7v-5.1h2.7zm8.9 0H204v-5.1h2.8zm8.9 0H213v-5.1h2.8zm8.8 0H222v-5.1h2.7zm8.9 0h-2.8v-5.1h2.8zm8.9 0h-2.8v-5.1h2.8zm8.8 0h-2.7v-5.1h2.7zm8.9 0h-2.8v-5.1h2.8zm4.5 3.5h5.1v2.8h-5zm0 8.9h5.1v2.8h-5zm0 8.9h5.1v2.7h-5zm0 8.8h5.1v2.8h-5zm0 8.9h5.1v2.8h-5zm0 8.9h5.1v2.7h-5zm0 8.9h5.1v2.7h-5zm0 8.8h5.1v2.8h-5zm-79.2-62.1h5.1v2.8h-5.1zm0 8.9h5.1v2.8h-5.1zm0 8.9h5.1v2.7h-5.1zm0 8.8h5.1v2.8h-5.1zm0 8.9h5.1v2.8h-5.1zm0 8.9h5.1v2.7h-5.1zm0 8.9h5.1v2.7h-5.1zm0 8.8h5.1v2.8h-5.1z"/><path fill="#1a2e35" stroke="#1a2e35" stroke-miterlimit="10" d="M266.4 278.2H189v77.5h77.4z"/><path fill="#1a2e35" d="M387.6 422a17.4 17.4 0 1 1-35 0 17.4 17.4 0 0 1 35 0"/><path fill="none" stroke="#1a2e35" stroke-miterlimit="10" d="M387.6 422a17.4 17.4 0 1 1-35 0 17.4 17.4 0 0 1 35 0Z"/><path fill="#fff" d="M381.7 422a11.6 11.6 0 1 1-23.2 0 11.6 11.6 0 0 1 23.2 0"/><path fill="none" stroke="#1a2e35" stroke-miterlimit="10" d="M381.7 422a11.6 11.6 0 1 1-23.2 0 11.6 11.6 0 0 1 23.2 0Z"/><path fill="#1a2e35" d="M130.8 237.5a11 11 0 1 1-21.8 0 11 11 0 0 1 21.8 0"/><path fill="none" stroke="#1a2e35" stroke-miterlimit="10" d="M130.8 237.5a11 11 0 1 1-21.8 0 11 11 0 0 1 21.8 0Z"/><path fill="#fff" d="M127.2 237.5a7.3 7.3 0 1 1-14.6 0 7.3 7.3 0 0 1 14.6 0"/><path fill="none" stroke="#1a2e35" stroke-miterlimit="10" d="M127.2 237.5a7.3 7.3 0 1 1-14.6 0 7.3 7.3 0 0 1 14.6 0Z"/><path fill="#1a2e35" d="M156 237.5a11 11 0 1 1-21.9 0 11 11 0 0 1 21.9 0"/><path fill="none" stroke="#1a2e35" stroke-miterlimit="10" d="M156 237.5a11 11 0 1 1-21.9 0 11 11 0 0 1 21.9 0Z"/><path fill="#fff" d="M152.3 237.5a7.3 7.3 0 1 1-14.5 0 7.3 7.3 0 0 1 14.5 0"/><path fill="none" stroke="#1a2e35" stroke-miterlimit="10" d="M152.3 237.5a7.3 7.3 0 1 1-14.5 0 7.3 7.3 0 0 1 14.5 0Z"/></g><path fill="#1a2e35" d="M356.3 580.6H244.1L233.9 497H346z"/><path fill="none" stroke="#1a2e35" stroke-miterlimit="10" stroke-width="1.3" d="M356.3 580.6H244.1L233.9 497H346z"/><path fill="#818181" d="M350.5 576.6H248.9l-9.2-75.8h101.6z"/><path fill="none" stroke="#1a2e35" stroke-miterlimit="10" stroke-width="1.3" d="M350.5 576.6H248.9l-9.2-75.8h101.6z"/><g clip-path="url(#n)" transform="matrix(1.33333 0 0 -1.33333 0 666.7)"><path fill="#fff" stroke="#1a2e35" stroke-miterlimit="10" d="m326 25.4-.6 68.6-18.8-13.2-18.4-6-20.5 4.7 1.7 4.3s6.8 15.3 10.7 19.6c3.8 4.3 18 12.4 18 12.4l11.9 9.8s4.3 21.4 5.6 25.3c1.2 3.8 25.2 18 25.2 18s17.5 9.7 26.5 11.4c9 1.8 14.5.9 14.5.9s36.3-14.1 38.9-17.5c2.6-3.4 3-86.8 3-103.4 0-16.7 5.1-38.5 5.1-38.5"/><path fill="none" stroke="#1a2e35" stroke-miterlimit="10" d="M351.5 46.4V41m2.1 89.4a1358.7 1358.7 0 0 1-2-79.7m2.7 93.5-.5-9.8m-32.9 2.9-.5 4.4m5.3-45.9-4.4 38.2m-5.6-8a18 18 0 0 0-3 4m10-11s-2.6 2.3-5 4.9m-14.7-4.4s6.6-7.4 18.1-13m-11.8 2.5a52 52 0 0 1 10.3-4.8m-16.3 8.7s1-.9 2.8-2"/><path fill="#fff" d="m355.1 147.9-12 6.7-6-8.1 3.6 20.5 10-8.9z"/><path fill="none" stroke="#1a2e35" stroke-miterlimit="10" d="m355.1 147.9-12 6.7-6-8.1 3.6 20.5 10-8.9z"/><path fill="#fff" d="m376 185.2-21.5-22.8-.6-15-5.6 5.3-13.9 12.9s-7.5-5.3-10.2-5.6c-2.6-.3-11.8 13.1-11.8 13.1s-5.2-1.6-6.7-.5c-1.5 1.2-2 14.8-2 14.8s-1.8 4.3-4.2 5.8c-2.4 1.6-5 16.6-5 16.6s-1 5.7 2.8 8.3c3.7 2.7 14.6 10.2 23.5 10.7 9 .5 25.6-4 30.2-8.9 4.6-4.9 7.4-18.5 7.4-18.5z"/><path fill="none" stroke="#1a2e35" stroke-miterlimit="10" d="m376 185.2-21.5-22.8-.6-15-5.6 5.3-13.9 12.9s-7.5-5.3-10.2-5.6c-2.6-.3-11.8 13.1-11.8 13.1s-5.2-1.6-6.7-.5c-1.5 1.2-2 14.8-2 14.8s-1.8 4.3-4.2 5.8c-2.4 1.6-5 16.6-5 16.6s-1 5.7 2.8 8.3c3.7 2.7 14.6 10.2 23.5 10.7 9 .5 25.6-4 30.2-8.9 4.6-4.9 7.4-18.5 7.4-18.5z"/><path fill="#1a2e35" d="M314.1 189.2c.7-1 .8-2 .2-2.4-.6-.4-1.6 0-2.3 1-.7 1-.7 2-.1 2.4.5.4 1.5 0 2.2-1"/><path fill="none" stroke="#1a2e35" stroke-linecap="round" stroke-miterlimit="10" stroke-width="2" d="M314.5 197c-7.3-1-7.3-3.5-7.3-3.5l-.4-1.1"/><path fill="none" stroke="#1a2e35" stroke-miterlimit="10" d="m318 170.2 5 2.7m-10.6.2 4.7 2.1-.9 3.2"/><path fill="#1a2e35" d="m349.7 180.7-1.4-28-13.9 12.9s12.6 12.3 13.2 14.3c.6 2-1.6 9.9-1.6 9.9z"/><path fill="none" stroke="#1a2e35" stroke-miterlimit="10" d="m349.7 180.7-1.4-28-13.9 12.9s12.6 12.3 13.2 14.3c.6 2-1.6 9.9-1.6 9.9z"/><path fill="#fff" stroke="#1a2e35" stroke-miterlimit="10" d="M348.1 205.3s-.5-5.3-.9-6.7c-.4-1.4-4.1-2-4.1-2"/><path fill="#1a2e35" d="M304.8 236s-3.5 7.3-10.8.2c-7.3-7-9.4-21.7-7.2-24.6 2-2.9 8.3-2.7 10.1-2.5 1.8.2 19 7.9 19 7.9s.7-11.6 4-12.6c3.2-1 9-.8 9-.8s1-5.3 3.7-5c2.7.3 4.8 1.9 4.5 4-.2 2.3-5.4 4.9-1 9 4.6 4 9.1 3.6 11-1 1.8-4.8-.2-6.4 1.7-7.5 1.9-1.2 11.6-3.7 11.6-3.7s-.6 22-2.8 29.8c-2.2 7.8-15.3 16.7-24 19-8.8 2.1-21.6-4.7-23.6-6.7l-5.2-5.5"/><path fill="none" stroke="#1a2e35" stroke-miterlimit="10" d="M304.8 236s-3.5 7.3-10.8.2c-7.3-7-9.4-21.7-7.2-24.6 2-2.9 8.3-2.7 10.1-2.5 1.8.2 19 7.9 19 7.9s.7-11.6 4-12.6c3.2-1 9-.8 9-.8s1-5.3 3.7-5c2.7.3 4.8 1.9 4.5 4-.2 2.3-5.4 4.9-1 9 4.6 4 9.1 3.6 11-1 1.8-4.8-.2-6.4 1.7-7.5 1.9-1.2 11.6-3.7 11.6-3.7s-.6 22-2.8 29.8c-2.2 7.8-15.3 16.7-24 19-8.8 2.1-21.6-4.7-23.6-6.7l-5.2-5.5Z"/><path fill="#fff" d="m353.4 161 9-18.3 26 37.4-11.9 9Z"/><path fill="none" stroke="#1a2e35" stroke-miterlimit="10" d="m353.4 161 9-18.3 26 37.4-11.9 9Zm-28.6-51s4.7 4.4 8.7 2.4c4.1-2 5.5-7.9 5.5-10.8V27.4"/><path fill="#5ae4a7" d="m314.5 97.7-6.9 1.6c-2.2.7-4 1.3-4.2-1.3-.2-2.7 5.1-5.4 6-5.4.9 0 10 2 10.7 2.3.6.2-5.6 2.8-5.6 2.8"/><path fill="none" stroke="#1a2e35" stroke-miterlimit="10" d="m314.5 97.7-6.9 1.6c-2.2.7-4 1.3-4.2-1.3-.2-2.7 5.1-5.4 6-5.4.9 0 10 2 10.7 2.3.6.2-5.6 2.8-5.6 2.8Z"/><path fill="#fff" d="m287.5 65.6-.6.5 14.4 17 .6-.5z"/><path fill="none" stroke="#1a2e35" stroke-miterlimit="10" d="m287.5 65.6-.6.5 14.4 17 .6-.5z"/><path fill="#5ae4a7" d="m302 81.1-2.3 2 23.7 28 2.3-1.9z"/><path fill="none" stroke="#1a2e35" stroke-miterlimit="10" d="m302 81.1-2.3 2 23.7 28 2.3-1.9z"/><path fill="#5ae4a7" d="M353.3 77.5 332 97.2h-19.2s-11.5-8.6-12.8-11.6c-1.3-3 1.7-2.1 3-1.7 1.3.4 6 5.1 6 5.1s-.9-13.2 2.1-16.2 15-3.4 18-3.4 9.8-3.4 12.3-3.9c2.6-.4 9.4-.8 9.4-.8z"/><path fill="none" stroke="#1a2e35" stroke-miterlimit="10" d="M353.3 77.5 332 97.2h-19.2s-11.5-8.6-12.8-11.6c-1.3-3 1.7-2.1 3-1.7 1.3.4 6 5.1 6 5.1s-.9-13.2 2.1-16.2 15-3.4 18-3.4 9.8-3.4 12.3-3.9c2.6-.4 9.4-.8 9.4-.8z"/><path fill="none" stroke="#1a2e35" stroke-miterlimit="10" d="m308.9 89 2.5 2.2 14.7.1m-16.9-7.5 15.7.2m-15.5-6.9 14.7-.2"/><path fill="#fff" d="m346.7 84.6-3.1-21.4 21.5-7 3.5 20.5Z"/><path fill="none" stroke="#1a2e35" stroke-miterlimit="10" d="m346.7 84.6-3.1-21.4 21.5-7 3.5 20.5Z"/><path fill="#fff" stroke="#1a2e35" stroke-miterlimit="10" d="M397.9 151.3c-6-5.7-14.5-29.6-14-32.5.6-2.8 15.7-33.3 15.7-33.3l-1.7-3.7c-.3-.9 2.3-2.3 2.3-2.3s-27 1.1-28.5.3c-1.4-.9-3-2.3-3-2.3s-5.3-14.5-4.4-20c.8-5.4 8-9.3 11-10 3.2-.5 27.4-4.8 41.4-4.8s23.4-1.7 28 .9c4.5 2.6 8.2 16 5 22.8-3 6.8-16 62-17.6 69.8-1.7 7.7-10.8 25-11.1 26.2-.3 1.3-4.6 4.3-12.3.6"/><path fill="none" stroke="#1a2e35" stroke-miterlimit="10" d="M400.2 79.5s17 .8 22-.6m-17.5 2.9s16.3 8.8 22 10c5.7 1 4.2-.6 2.2-2-2-1.5-6-2.9-6-2.9M406.8 110c.5 2.5 1 4.8 1.6 6.8m-6.5-31.3s1.7 10.2 3.9 20.2"/><path fill="#fff" stroke="#1a2e35" stroke-miterlimit="10" d="M327.5 25.2v39H137.8v-39"/><path fill="#1a2e35" stroke="#1a2e35" stroke-miterlimit="10" d="M137.8 51.3h189.7v10H137.8Z"/><path fill="#fff" stroke="#1a2e35" stroke-miterlimit="10" d="M132 54.1h201.2v10H132.1Z"/><path fill="#5ae4a7" d="M288.8 76.8s-2 4.3-6.9 7.1c-4.8 2.9-9.6 2.9-9.6 2.9s-2-15.1-2.6-16.3c-.6-1.1-1.4-1.1 2.3-2.2 3.7-1.2 9.4 0 9.4 0z"/><path fill="none" stroke="#1a2e35" stroke-miterlimit="10" d="M288.8 76.8s-2 4.3-6.9 7.1c-4.8 2.9-9.6 2.9-9.6 2.9s-2-15.1-2.6-16.3c-.6-1.1-1.4-1.1 2.3-2.2 3.7-1.2 9.4 0 9.4 0z"/><path fill="#5ae4a7" d="M258.6 78s-4-2.6-4-3.5c0-.8-.6-8.2.8-8.5 1.5-.3 2.6 2 2.6 2l.9 2.5h1.4Z"/><path fill="none" stroke="#1a2e35" stroke-miterlimit="10" d="M258.6 78s-4-2.6-4-3.5c0-.8-.6-8.2.8-8.5 1.5-.3 2.6 2 2.6 2l.9 2.5h1.4Z"/><path fill="#5ae4a7" d="M263.4 82s-7.4-.6-6.5-3.5c.8-2.8 2.5-10 3.7-10.8 1.1-.9 5.4.6 5.4.6l-1.2 14Z"/><path fill="none" stroke="#1a2e35" stroke-miterlimit="10" d="M263.4 82s-7.4-.6-6.5-3.5c.8-2.8 2.5-10 3.7-10.8 1.1-.9 5.4.6 5.4.6l-1.2 14Z"/><path fill="#5ae4a7" d="M267.4 86.8s-4-.3-6-2.3c-2-2 1.2-4.6 1.4-5.7.3-1.1 1.2-9.7 2.3-10.5 1.2-.9 3.4-.9 4 1.1.6 2-1.7 17.4-1.7 17.4"/><path fill="none" stroke="#1a2e35" stroke-miterlimit="10" d="M267.4 86.8s-4-.3-6-2.3c-2-2 1.2-4.6 1.4-5.7.3-1.1 1.2-9.7 2.3-10.5 1.2-.9 3.4-.9 4 1.1.6 2-1.7 17.4-1.7 17.4Z"/><path fill="#5ae4a7" d="M274.8 86.8s2-16.5.3-17.7c-1.7-1.1-7.1-2.6-7.1-.8l-1.2 21c0 .9 2 2 4.3 2s3.7-4.5 3.7-4.5"/><path fill="none" stroke="#1a2e35" stroke-miterlimit="10" d="M274.8 86.8s2-16.5.3-17.7c-1.7-1.1-7.1-2.6-7.1-.8l-1.2 21c0 .9 2 2 4.3 2s3.7-4.5 3.7-4.5Z"/><path fill="#5ae4a7" d="M283.6 79.4s-6.2-8.9-5.4-10.6c.9-1.7 1.2-2 2.3-2a37 37 0 0 1 9.9 9.4c-.2 1.2-5.3 4.9-5.3 4.9z"/><path fill="none" stroke="#1a2e35" stroke-miterlimit="10" d="M283.6 79.4s-6.2-8.9-5.4-10.6c.9-1.7 1.2-2 2.3-2a37 37 0 0 1 9.9 9.4c-.2 1.2-5.3 4.9-5.3 4.9z"/><path fill="#fff" stroke="#1a2e35" stroke-miterlimit="10" d="M303.6 67h-57.3v-2.6h57.3Z"/><path fill="#1a2e35" stroke="#1a2e35" stroke-miterlimit="10" d="M167.4 102.3h73.2V64h-73.2z"/><path fill="#fff" stroke="#1a2e35" stroke-miterlimit="10" d="M183.4 102.3h57.2V64h-57.2Z"/><path fill="#fff" d="M209.5 71.8h-18.1c-1.3 0-2.3 1-2.3 2.3V96c0 1.3 1 2.3 2.3 2.3h18.1c1.3 0 2.4-1 2.4-2.3V74c0-1.3-1-2.3-2.4-2.3"/><path fill="none" stroke="#1a2e35" stroke-miterlimit="10" d="M209.5 71.8h-18.1c-1.3 0-2.3 1-2.3 2.3V96c0 1.3 1 2.3 2.3 2.3h18.1c1.3 0 2.4-1 2.4-2.3V74c0-1.3-1-2.3-2.4-2.3Z"/><path fill="#5ae4a7" d="M208.4 73.1h-15.9c-1.3 0-2.3 1-2.3 2.3v19.3c0 1.3 1 2.3 2.3 2.3h16c1.2 0 2.2-1 2.2-2.3V75.4c0-1.3-1-2.3-2.3-2.3"/><path fill="none" stroke="#1a2e35" stroke-miterlimit="10" d="M208.4 73.1h-15.9c-1.3 0-2.3 1-2.3 2.3v19.3c0 1.3 1 2.3 2.3 2.3h16c1.2 0 2.2-1 2.2-2.3V75.4c0-1.3-1-2.3-2.3-2.3Z"/><path fill="none" stroke="#1a2e35" stroke-miterlimit="10" d="M190 91.6h2.2l1 2 1-2.6 1.3 1.2.5-1.9 1.8 3.4.8-2.5 1.4 1.5.3-1.3 1 1 .3-1.5 1.8 2.4.5-2h1.6l.7 2.4.4-2.2c0-.3 2 1.4 2 1.4l.5-3 .8 1.9h.4m-.3-7.1h-2l-1 2-1-2.6-1.2 1.2-.5-1.8-1.8 3.4-.8-2.6-1.3 1.6-.3-1.4-1 1-.3-1.5-1.8 2.5-.5-2H195l-.7 2.4-.4-2.3c0-.3-2 1.5-2 1.5l-.5-3.1-.7 2h-.4m19.7-6.3h-2l-1 2-1-2.6-1.2 1.2-.5-1.8-1.8 3.4-.8-2.6-1.3 1.5-.3-1.3-1 1-.3-1.5-1.8 2.4-.5-2H195l-.7 2.5-.4-2.3c0-.3-2 1.4-2 1.4l-.5-3-.7 2h-.4"/><path fill="#fff" d="M218.6 95.8a1.2 1.2 0 1 0-2.4 0 1.2 1.2 0 0 0 2.4 0"/><path fill="none" stroke="#1a2e35" stroke-miterlimit="10" d="M218.6 95.8a1.2 1.2 0 1 0-2.4 0 1.2 1.2 0 0 0 2.4 0Z"/><path fill="#fff" d="M226.2 95.8a1.2 1.2 0 1 0-2.3 0 1.2 1.2 0 0 0 2.3 0"/><path fill="none" stroke="#1a2e35" stroke-miterlimit="10" d="M226.2 95.8a1.2 1.2 0 1 0-2.3 0 1.2 1.2 0 0 0 2.3 0Z"/><path fill="#fff" d="M233.9 95.8a1.2 1.2 0 1 0-2.4 0 1.2 1.2 0 0 0 2.4 0"/><path fill="none" stroke="#1a2e35" stroke-miterlimit="10" d="M233.9 95.8a1.2 1.2 0 1 0-2.4 0 1.2 1.2 0 0 0 2.4 0Z"/><path fill="#fff" d="M218.6 89.4a1.2 1.2 0 1 0-2.4 0 1.2 1.2 0 0 0 2.4 0"/><path fill="none" stroke="#1a2e35" stroke-miterlimit="10" d="M218.6 89.4a1.2 1.2 0 1 0-2.4 0 1.2 1.2 0 0 0 2.4 0Z"/><path fill="#fff" d="M226.2 89.4a1.2 1.2 0 1 0-2.3 0 1.2 1.2 0 0 0 2.3 0"/><path fill="none" stroke="#1a2e35" stroke-miterlimit="10" d="M226.2 89.4a1.2 1.2 0 1 0-2.3 0 1.2 1.2 0 0 0 2.3 0Z"/><path fill="#fff" d="M233.9 89.4a1.2 1.2 0 1 0-2.4 0 1.2 1.2 0 0 0 2.4 0"/><path fill="none" stroke="#1a2e35" stroke-miterlimit="10" d="M233.9 89.4a1.2 1.2 0 1 0-2.4 0 1.2 1.2 0 0 0 2.4 0Z"/><path fill="#fff" d="M218.6 82.9a1.2 1.2 0 1 0-2.4 0 1.2 1.2 0 0 0 2.4 0"/><path fill="none" stroke="#1a2e35" stroke-miterlimit="10" d="M218.6 82.9a1.2 1.2 0 1 0-2.4 0 1.2 1.2 0 0 0 2.4 0Z"/><path fill="#fff" d="M226.2 82.9a1.2 1.2 0 1 0-2.3 0 1.2 1.2 0 0 0 2.3 0"/><path fill="none" stroke="#1a2e35" stroke-miterlimit="10" d="M226.2 82.9a1.2 1.2 0 1 0-2.3 0 1.2 1.2 0 0 0 2.3 0Z"/><path fill="#fff" d="M233.9 82.9a1.2 1.2 0 1 0-2.4 0 1.2 1.2 0 0 0 2.4 0"/><path fill="none" stroke="#1a2e35" stroke-miterlimit="10" d="M233.9 82.9a1.2 1.2 0 1 0-2.4 0 1.2 1.2 0 0 0 2.4 0Z"/><path fill="#fff" d="M218.6 76.4a1.2 1.2 0 1 0-2.4 0 1.2 1.2 0 0 0 2.4 0"/><path fill="none" stroke="#1a2e35" stroke-miterlimit="10" d="M218.6 76.4a1.2 1.2 0 1 0-2.4 0 1.2 1.2 0 0 0 2.4 0Z"/><path fill="#fff" d="M226.2 76.4a1.2 1.2 0 1 0-2.3 0 1.2 1.2 0 0 0 2.3 0"/><path fill="none" stroke="#1a2e35" stroke-miterlimit="10" d="M226.2 76.4a1.2 1.2 0 1 0-2.3 0 1.2 1.2 0 0 0 2.3 0Z"/><path fill="#fff" d="M233.9 76.4a1.2 1.2 0 1 0-2.4 0 1.2 1.2 0 0 0 2.4 0"/><path fill="none" stroke="#1a2e35" stroke-miterlimit="10" d="M233.9 76.4a1.2 1.2 0 1 0-2.4 0 1.2 1.2 0 0 0 2.4 0Z"/></g></svg>