<svg xmlns="http://www.w3.org/2000/svg" width="1094" height="760" data-name="Layer 1"><rect width="130.7" height="39.5" x="155" y="305" fill="#55198b" opacity=".1" rx="7.4"/><rect width="130.7" height="39.5" x="292" y="344" fill="#55198b" opacity=".1" rx="7.4"/><rect width="130.7" height="39.5" x="429" y="384" fill="#55198b" opacity=".1" rx="7.4"/><rect width="130.7" height="39.5" x="155" y="245" fill="#55198b" opacity=".1" rx="7.4"/><rect width="130.7" height="39.5" x="292" y="285" fill="#55198b" opacity=".1" rx="7.4"/><rect width="130.7" height="39.5" x="429" y="324" fill="#55198b" opacity=".1" rx="7.4"/><rect width="130.7" height="39.5" x="581" y="305" fill="#55198b" opacity=".1" rx="7.4"/><rect width="130.7" height="39.5" x="718" y="344" fill="#55198b" opacity=".1" rx="7.4"/><rect width="130.7" height="39.5" x="854" y="384" fill="#55198b" opacity=".1" rx="7.4"/><rect width="130.7" height="39.5" x="581" y="245" fill="#55198b" opacity=".1" rx="7.4"/><rect width="130.7" height="39.5" x="718" y="285" fill="#55198b" opacity=".1" rx="7.4"/><rect width="130.7" height="39.5" x="854" y="324" fill="#55198b" opacity=".1" rx="7.4"/><rect width="130.7" height="39.5" x="155" y="166" fill="#55198b" opacity=".1" rx="7.4"/><rect width="130.7" height="39.5" x="292" y="206" fill="#55198b" opacity=".1" rx="7.4"/><rect width="130.7" height="39.5" x="429" y="245" fill="#55198b" opacity=".1" rx="7.4"/><rect width="130.7" height="39.5" x="155" y="107" fill="#55198b" opacity=".1" rx="7.4"/><rect width="130.7" height="39.5" x="292" y="146" fill="#55198b" opacity=".1" rx="7.4"/><rect width="130.7" height="39.5" x="429" y="186" fill="#55198b" opacity=".1" rx="7.4"/><rect width="130.7" height="39.5" x="581" y="166" fill="#55198b" opacity=".1" rx="7.4"/><rect width="130.7" height="39.5" x="718" y="206" fill="#55198b" opacity=".1" rx="7.4"/><rect width="130.7" height="39.5" x="854" y="245" fill="#55198b" opacity=".1" rx="7.4"/><rect width="130.7" height="39.5" x="581" y="107" fill="#55198b" opacity=".1" rx="7.4"/><rect width="130.7" height="39.5" x="718" y="146" fill="#55198b" opacity=".1" rx="7.4"/><rect width="130.7" height="39.5" x="854" y="186" fill="#55198b" opacity=".1" rx="7.4"/><ellipse cx="547" cy="660.5" fill="#55198b" opacity=".1" rx="547" ry="99.5"/><path fill="#3f3d56" d="m240 321-46 282 208-22-9-24-162 14 38-250h-29z"/><path fill="#3f3d56" d="m186 1 280-1 81 613-281 38L186 1z"/><path fill="#fff" d="M217 25h226l79 570-233 32-72-602z"/><path fill="#3f3d56" d="m430 569 4 8c5 7 16 8 23 13a2 2 0 0 1 1 1c1 1 0 2-1 2-6 4-13 4-21 4a27 27 0 0 1-7 0l-10-5a28 28 0 0 0-6-1h-8a18 18 0 0 1-6-2 6 6 0 0 1-4-4l1-5c1-4 1-9 4-11a11 11 0 0 1 4-2 132 132 0 0 1 16-5c5 0 8 3 10 7Zm-89 21c1 3 1 5-1 7a7 7 0 0 1-3 1c-8 2-16 2-22-2a6 6 0 0 1-2-2 5 5 0 0 1-1-2l1-9a147 147 0 0 0 5-19l20 4 2 11 1 11Z"/><path fill="#192534" d="m411 330 5 47 2 28c-1 11-4 22-3 33l2 13a69 69 0 0 1-1 8c-2 29 5 57 9 85a37 37 0 0 1 1 10c-1 4-2 8 1 10l-29 11c-4-5-2-12-2-18-1-6-4-11-6-16l-2-14c-2-27-10-53-12-80a36 36 0 0 0-1-7l-5-9-4-15-6-30c-7 9-7 22-8 33l-9 48a94 94 0 0 0-2 10v28c-1 11-5 21-4 32l4 17c1 5 3 12 0 18a54 54 0 0 0-25-3c-10-10-12-23-12-37s1-27-1-41l-1-12c-1-12 5-24 8-37a79 79 0 0 0 1-34l-5-22c-1-11 1-22 3-32l5-21c1-8 3-15 8-22 8-10 21-14 33-13s24 7 34 14a128 128 0 0 1 22 18Z"/><path fill="#fbbebe" d="M378 152a9 9 0 0 0-1 3l2 6a31 31 0 0 1 3 7 12 12 0 0 1 0 5 12 12 0 0 1-1 4c-2 3-5 7-9 8a15 15 0 0 1-9 1 29 29 0 0 1-9-4 26 26 0 0 1-6-6 35 35 0 0 1-4-7c-2-4-4-9-3-13a5 5 0 0 1 0-2 7 7 0 0 1 1-2 26 26 0 0 0 6-18l15 4 9 2c3 1 7 2 9 4s-2 6-3 8Z"/><circle cx="370.3" cy="123.3" r="26.5" fill="#fbbebe"/><path fill="#f2f2f2" d="M366 177c1-3 4-4 6-6s4-3 5-6a4 4 0 0 1 0-2c1-1 3 0 4 1l7 8a74 74 0 0 1 6 12c3 8 4 16 4 24l-1 21c-1 5-3 9-3 14-1 16-6 32-7 48a127 127 0 0 0 1 15l1 11-44-4-3-15a315 315 0 0 1-10-60l-3-32c-1-9-3-19-2-29a40 40 0 0 1 5-12 8 8 0 0 1 3-4 9 9 0 0 1 2-1 42 42 0 0 1 7-1 5 5 0 0 1 2 0 5 5 0 0 1 2 3 42 42 0 0 0 18 15Z"/><path fill="#55198b" d="M354 175c2 2 6 3 7 6a16 16 0 0 1 2 3l4 10c2 4 2 10 2 15a49 49 0 0 1-1 12l-2 7a36 36 0 0 0-2 13 5 5 0 0 0 1 2 6 6 0 0 0 3 2c3 1 6 3 9 2a3 3 0 0 0 2 0 4 4 0 0 0 1-1l2-4c1-3 3-6 3-10a20 20 0 0 0-3-5 61 61 0 0 1-3-8c-3-9-6-19-7-28a25 25 0 0 1 1-11 31 31 0 0 1 4-6 3 3 0 0 0-3-1 17 17 0 0 0-3 1h-9c-1 0-3-2-4-1l-4 2Z"/><path fill="#f2f2f2" d="M377 174h-2a2 2 0 0 0 0 1l-4 3c-2 1-3 0-3-1a2 2 0 0 1 0-2 8 8 0 0 1 2-2 21 21 0 0 0 9-14 7 7 0 0 1 2 4l1 5 1 7v3a23 23 0 0 0 1 4l-7-8Zm-20-6-3-3a39 39 0 0 1-10-15l-3 4a6 6 0 0 0 2 3 51 51 0 0 1 7 19 6 6 0 0 1 5-2l9 3c1-2-6-8-7-9Z"/><path fill="#3f3d56" d="M379 160a83 83 0 0 0 34 20 8 8 0 0 1 3 2 7 7 0 0 1 2 3l4 29a16 16 0 0 1 0 5l-5 7c-5 6-12 12-13 21a33 33 0 0 1-1 4l-2 6c-3 9 4 19 0 28a51 51 0 0 1 5 15 20 20 0 0 0 1 6l7 7c6 7 7 17 8 27 0 6 0 12-4 15-3 3-6 3-9 4-4 0-9 1-13-1l-6-7-10-14c-4-8-9-17-8-26 0 10-2 19-7 27s-11 15-20 17-20 1-26-5a35 35 0 0 1-6-8 73 73 0 0 1-8-20v-6l2-2c2-3 0-6-1-9-3 0-4-3-4-5l2-7c3-6 3-13 1-20s-3-13-3-20c0-8-5-14-9-20l-7-11a33 33 0 0 1-3-24 65 65 0 0 1 6-13l3-6a10 10 0 0 1 7-6l23-9a34 34 0 0 0 8-4l8-7a4 4 0 0 1 3-1c2 0 3 2 3 5 0 4 4 8 5 13 6 25 20 49 24 75 4-11 8-21 14-30a25 25 0 0 0 2-4 18 18 0 0 0 0-7c0-7-2-13-3-19l-7-25Z"/><path fill="#3f3d56" d="m423 237 1 13 4 14a37 37 0 0 0 3 8 10 10 0 0 1 1 2c1 2-1 4-1 6-1 6 3 13 0 19l-3 4 1 7c1 6-2 12-4 18l-3 9c-3-5-6-11-11-16l-4-6a38 38 0 0 1-5-9 84 84 0 0 1-5-26 18 18 0 0 1 0-8 39 39 0 0 1 3-4c2-4 3-10 3-16v-16a38 38 0 0 1 4-13 19 19 0 0 1 5-7 10 10 0 0 1 6-2c3 0 3 3 3 6Zm-147-13-6 18-4 18a39 39 0 0 0-1 8 36 36 0 0 0 1 9c7 24 19 45 32 65a58 58 0 0 1 13-12 3 3 0 0 0 1-1 3 3 0 0 0 0-2c-4-8-10-14-11-23l-2-10c-1-4-4-8-4-13-1-4 1-10-2-14 5-2 8-7 10-11a61 61 0 0 0 4-15 44 44 0 0 0-5-28 45 45 0 0 0-9-11c-1-2-4-5-6-5s-3 4-4 6l-7 21Z"/><path fill="#fbbebe" d="M317 336h1l-1 1a8 8 0 0 0-3 4 109 109 0 0 0-4 11 50 50 0 0 0-8-9c-2-2-5-4-6-7l6-4 4-6c2-1 4 3 5 4a40 40 0 0 0 6 6Z"/><path fill="#192534" d="m398 119-1-3a5 5 0 0 0-3-1c-6 0-12 1-17-1l-10-6c-3-2-9-2-11 1-3 2-3 5-4 8a46 46 0 0 1-8 17c-3-1-5-3-6-6-5-9-3-19 0-28l4-9 2-7a13 13 0 0 0 8-4l2 2a13 13 0 0 0 7-2c1 1 3 2 5 1l5-2c4-1 9 1 14 1a58 58 0 0 1 6 0c6 1 10 7 12 12 1 4 2 9 6 10l-3 3a2 2 0 0 0 1 1l3 7a8 8 0 0 1-5 0c-1 4-6 9-7 6Z"/><path fill="#fbbebe" d="M568 135a131 131 0 0 1 4 17c1 4 1 8-1 12 9-14 19-28 33-37a30 30 0 0 1-8-23l-12 4-12 7c-2 1-11 4-11 6l4 6a46 46 0 0 1 3 8Z"/><path fill="#fff" d="M611 660a16 16 0 0 0-16-1c-4 2-7 7-11 10-7 5-17 5-25 8-2 1-5 2-6 4a7 7 0 0 0 1 6 14 14 0 0 0 7 7c3 2 8 2 12 2h36c11 0 22 0 33 2l7-1c4-2 4-7 4-11a103 103 0 0 0-7-31l-2-2a4 4 0 0 0-3 0c-10 6-22 10-33 5"/><path fill="#3f3d56" d="M629 432c-4 23-1 47 3 70a122 122 0 0 0 3 14l6 15c4 13 3 27 2 40l-2 62c0 5-1 10 1 15v6a4 4 0 0 1-2 1 33 33 0 0 1-21-3l-1-62c0-20 0-39-3-58-3-15-7-30-7-45 0-16 4-32 8-48 0-3 4-5 6-8a8 8 0 0 1 3-2c2 0 3 2 4 3Z"/><path d="M629 432c-4 23-1 47 3 70a122 122 0 0 0 3 14l6 15c4 13 3 27 2 40l-2 62c0 5-1 10 1 15v6a4 4 0 0 1-2 1 33 33 0 0 1-21-3l-1-62c0-20 0-39-3-58-3-15-7-30-7-45 0-16 4-32 8-48 0-3 4-5 6-8a8 8 0 0 1 3-2c2 0 3 2 4 3Z" opacity=".1"/><path fill="#3f3d56" d="M554 359c-1 6 2 13 1 19l-1 11c0 4 4 7 5 10a27 27 0 0 1 2 9l-1 22 1 38a117 117 0 0 0 9 31 54 54 0 0 1 3 8 60 60 0 0 1 1 9 83 83 0 0 0 7 25c3 6 7 10 9 16l1 18 4 12 1 17c2 16 10 32 5 47-1 3-2 6-1 10v4l-2 4c-1 2 1 5 2 7a20 20 0 0 0 7 4c7 3 15 6 23 6a6 6 0 0 0 3-1l2-4 5-10v-3a7 7 0 0 0-2-2c-3-3-2-8-2-12a178 178 0 0 0 4-33 356 356 0 0 0-12-88c-2-7-6-14-5-21 0-8-2-17 0-25l5-23 3-32 3-12 4-7 7-18 5-8a22 22 0 0 0 1-7 84 84 0 0 0-1-18 117 117 0 0 0-55-13c-7 1-15 1-22 4-6 2-12 6-19 6Z"/><path fill="#fff" d="M595 676c-3 4-3 9-5 13-2 5-7 9-12 12l-30 19-4 4a7 7 0 0 0 0 4 16 16 0 0 0 11 10 31 31 0 0 0 8 1h13a79 79 0 0 0 13 0l11-3 20-2a108 108 0 0 0 13-3c5-2 10-3 14-6a7 7 0 0 0 2-3v-5l-6-29a17 17 0 0 0-3-6c-1-2-4-3-6-2a13 13 0 0 0-2 1c-4 2-8 3-12 2-2-1-6-1-8-3l-3-5a9 9 0 0 0-14 1Z"/><circle cx="575.5" cy="94.8" r="36.1" fill="#fbbebe"/><path fill="#192534" d="M548 97c3-2 3-8 7-10s7 2 10 5a43 43 0 0 1 6 16l2 5c1 2 3 1 4 1l14 1c5 1 11 1 15-1a11 11 0 0 0 5-4 17 17 0 0 0 2-5c2-9 5-18 5-28 0-4 0-8-2-11l-3-6c0-2 1-5 3-5a13 13 0 0 1-6-1c-2-1-3-3-3-5-5 1-8-4-12-8a3 3 0 0 0-3-1 9 9 0 0 0-2 1c-2 1-4-1-6-1-6-2-12 2-17-2 1 3-2 4-5 4h-8a5 5 0 0 1-2 7l1 3a7 7 0 0 0-5 5c-2 5-1 13-1 18 0 2 2 21 1 22Z"/><path fill="#55198b" d="M579 141c-19 21-23 49-27 77l-6 39-4 32c-1 7-2 14-1 21l4 16a155 155 0 0 1 6 44c2-4 6-5 9-6a147 147 0 0 1 92 10c5-14 4-30 6-45 2-21 9-42 11-63a284 284 0 0 0 0-41c-2-7-5-13-8-18a469 469 0 0 0-27-47l-16-22-8-11c-3-3-4-6-9-4-8 4-16 11-22 18Z"/><path fill="#fbbebe" d="M589 311a98 98 0 0 1-13 0h-10a10 10 0 0 0-4 2 3 3 0 0 0 2 5h3c2 0 5 0 6 2a4 4 0 0 1 1 2c1 3-1 4-3 5a29 29 0 0 0-7 5 10 10 0 0 0-3 6 1 1 0 0 0 2 1c4-2 6-8 11-7a18 18 0 0 0-10 7 4 4 0 0 0 6 7 20 20 0 0 0 2-2 46 46 0 0 0 8-8c-4 7-7 15-3 21a2 2 0 0 0 2 2l2-3c0-3 0-6 2-9 3-6 12-7 19-10 8-3 13-11 15-20a15 15 0 0 0 1-7c-2-6-9-7-13-5-6 4-9 6-16 6Z"/><path d="M582 199c7 11 19 17 29 25a25 25 0 0 1 7 6c3 4 3 9 2 14 0 6-2 12-4 18l-5 13c-2 9-5 17-11 24l-2 6a8 8 0 0 0 1 4 24 24 0 0 0 15 11 12 12 0 0 0 6 0 177 177 0 0 0 31-37c6-12 10-24 14-37a77 77 0 0 0 3-14c0-9-2-18-6-26l-14-23a158 158 0 0 0-18-19c-10-10-24-16-38-11-11 4-14 13-15 24a36 36 0 0 0 5 22Z" opacity=".1"/><path fill="#55198b" d="M586 197c7 10 19 16 29 24a25 25 0 0 1 7 6c2 4 3 10 2 14l-5 19-4 13c-3 8-6 16-11 23l-3 6a7 7 0 0 0 2 4 24 24 0 0 0 15 11 12 12 0 0 0 6 0l6-5c9-10 18-20 25-32 6-11 10-24 13-36a76 76 0 0 0 3-15c1-9-1-18-5-26l-15-22a158 158 0 0 0-17-20c-11-10-24-16-39-10-10 4-14 12-15 23a36 36 0 0 0 6 23Z"/><path fill="#3f3d56" d="M807 555a37 37 0 0 1-1 8v1c-3 12-11 20-21 21h-1c-10 0-19-9-21-21l-1-1a37 37 0 0 1 0-8c0-16 10-29 22-29s23 13 23 29Z"/><path d="M807 555a37 37 0 0 1-1 8v1h-1a46 46 0 0 1-8-1 45 45 0 0 1-6 2 46 46 0 0 1-6 0h-1a46 46 0 0 1-6 0 45 45 0 0 1-10-2 46 46 0 0 1-5 1l-1-1a37 37 0 0 1 0-8c0-16 10-29 22-29s23 13 23 29Z" opacity=".1"/><path fill="#55198b" d="M855 500a46 46 0 0 0-5-20l-27 8 24-14a46 46 0 0 0-35-19 46 46 0 0 0-3-5l-38 12 31-18a46 46 0 0 0-72 24l32 37-35-25a46 46 0 0 0 41 81 46 46 0 0 0 29 0 46 46 0 0 0 56-44v-3a46 46 0 0 0 2-14Z"/><path d="M854 509a122 122 0 0 0-42-1c-16 3-33 9-48 5-9-3-17-9-26-12a49 49 0 0 0-27-2 46 46 0 0 0 57 62 46 46 0 0 0 29 0 46 46 0 0 0 56-44v-3a45 45 0 0 0 1-5Z" opacity=".1"/></svg>