<svg xmlns="http://www.w3.org/2000/svg" width="1103.8" height="707.8" data-name="Layer 1" viewBox="0 0 1104 708"><defs><linearGradient id="a" x1="891.8" x2="891.8" y1="790.7" y2="522.9" gradientUnits="userSpaceOnUse"><stop offset="0" stop-color="gray" stop-opacity=".3"/><stop offset=".5" stop-color="gray" stop-opacity=".1"/><stop offset="1" stop-color="gray" stop-opacity=".1"/></linearGradient></defs><ellipse cx="843.4" cy="664.8" fill="#55198b" opacity=".1" rx="192" ry="43"/><path fill="#55198b" d="M625 27c0 156 98 282 219 282" opacity=".1"/><path fill="#55198b" d="M627 130c-70 1-138-15-203-33S294 59 225 51c-45-6-95-5-131 16-33 19-43 52-48 81-4 23-6 46 7 67 9 14 25 25 36 39 38 47 14 107-24 155-17 23-38 45-52 69s-19 51-5 74c13 24 43 40 76 52 66 23 143 28 218 29a6334 6334 0 0 0 682-34c34-5 68-13 92-30 30-22 37-57 15-83-36-42-133-49-159-95-14-25-2-55 17-79 40-53 108-100 110-159 1-40-34-79-87-96-55-18-130-13-170 21-40 36-112 52-175 52Z" opacity=".1"/><path fill="#fff" d="M947 31v519c0 15-15 28-33 28H210c-18 0-33-13-33-28V31c0-15 15-31 33-31l704 2c18 0 33 14 33 29Z"/><path fill="#3f3d56" d="M947 31v24H177V31a31 31 0 0 1 31-31h708a31 31 0 0 1 31 31Z"/><circle cx="214.3" cy="27.7" r="11.1" fill="#fa5959" opacity=".8"/><circle cx="246.5" cy="27.7" r="11.1" fill="#fed253" opacity=".8"/><circle cx="278.8" cy="27.7" r="11.1" fill="#8ccf4d" opacity=".8"/><rect width="70" height="33.2" x="457" y="171" fill="#55198b" opacity=".2" rx="8.6"/><rect width="70" height="33.2" x="599" y="171" fill="#55198b" opacity=".2" rx="8.6"/><path fill="none" stroke="#3f3d56" stroke-miterlimit="10" d="m492 203 70 92 72-92"/><rect width="107" height="50.8" x="508" y="292" opacity=".1" rx="8.6"/><rect width="102.7" height="48.7" x="511" y="293" fill="#55198b" rx="8.6"/><path fill="none" stroke="#3f3d56" stroke-miterlimit="10" d="m492 171-1-33m184 2-41 31-43-31"/><rect width="70" height="33.2" x="457" y="107" fill="#55198b" opacity=".2" rx="8.6"/><rect width="70" height="33.2" x="640" y="107" fill="#55198b" opacity=".2" rx="8.6"/><rect width="70" height="33.2" x="556" y="107" fill="#55198b" opacity=".2" rx="8.6"/><path fill="none" stroke="#3f3d56" stroke-miterlimit="10" d="M562 342v88m-1 32Zm-99 31 99-31 100 31"/><rect width="70" height="33.2" x="527" y="430" fill="#55198b" opacity=".2" rx="8.6"/><rect width="70" height="33.2" x="862" y="345" fill="#55198b" opacity=".2" rx="8.6" transform="rotate(90 921 290)"/><rect width="70" height="33.2" x="862" y="455" fill="#55198b" opacity=".2" rx="8.6" transform="rotate(-90 825 447)"/><rect width="70" height="33.2" x="626" y="493" fill="#55198b" opacity=".2" rx="8.6"/><rect width="70" height="33.2" x="476" y="589" fill="#55198b" opacity=".2" rx="8.6" transform="rotate(-180 486 557)"/><rect width="70" height="33.2" x="577" y="589" fill="#55198b" opacity=".2" rx="8.6" transform="rotate(-180 587 557)"/><path fill="none" stroke="#3f3d56" stroke-miterlimit="10" d="m801 320 31 55m-97-55h33m-155-3 90 3m129-54-31 54"/><rect width="70" height="33.2" x="732" y="399" fill="#55198b" opacity=".2" rx="8.6" transform="rotate(90 791 344)"/><rect width="70" height="33.2" x="798" y="400" fill="#55198b" opacity=".2" rx="8.6" transform="rotate(90 856 344)"/><rect width="70" height="33.2" x="288" y="345" fill="#55198b" opacity=".2" rx="8.6" transform="rotate(90 347 290)"/><rect width="70" height="33.2" x="288" y="455" fill="#55198b" opacity=".2" rx="8.6" transform="rotate(-90 251 447)"/><path fill="none" stroke="#3f3d56" stroke-miterlimit="10" d="m323 320-31 55m97-55h-33m155-3-90 3m-129-54 31 54"/><rect width="70" height="33.2" x="418" y="399" fill="#55198b" opacity=".2" rx="8.6" transform="rotate(90 477 344)"/><rect width="70" height="33.2" x="353" y="400" fill="#55198b" opacity=".2" rx="8.6" transform="rotate(90 411 344)"/><path fill="#46455b" d="M108 502c0 50 32 91 70 91"/><path fill="#55198b" d="M178 593c0-51 36-92 79-92m-123 5c0 48 20 87 44 87"/><path fill="#46455b" d="M178 593c0-65 41-118 91-118"/><ellipse cx="175.4" cy="607.2" fill="#55198b" opacity=".1" rx="17.5" ry="3"/><path fill="#a8a8a8" d="M164 593s10 0 13-2 15-5 16-1 15 17 4 17-27-2-30-4-3-10-3-10Z"/><path d="M197 606c-12 0-26-2-29-4-3-1-4-6-4-9s0 8 3 10 18 4 30 4c3 0 4-1 4-3l-4 2Z" opacity=".2"/><path fill="url(#a)" d="m1004 745-27-40s-1-10-3-12 0-8 0-8 2-3 0-3 0-7 0-7v-22a4 4 0 0 1 0-4s2-5 0-7-1-10-1-17-2-10-2-11l-11-12s-6-5-10-6l-6-2-6-3s-5 0-7-3-9-4-9-4v-1l1-2 1-1a11 11 0 0 0 6-2 9 9 0 0 0 3-6 14 14 0 0 0-1-7l-3-7 2-4a8 8 0 0 0-1-6l-4-5a21 21 0 0 1-2-8 12 12 0 0 0-1-4 8 8 0 0 0-3-2 23 23 0 0 0-14-4l-10 1a39 39 0 0 1-6-2c-5-1-10-2-13 1l-8 11c-2 3-6 6-7 10v-1a12 12 0 0 0-1 3v8l2 4 5 1v1a30 30 0 0 0 20 34v3s-13-2-17 0l-11 4c-1 1-4 0-6 6s-2 12-5 15-5 5-5 7l-1 3c-1 0-3 4-2 5l-2 4a4 4 0 0 0-1 3l-3 4c-2 1-3 5-3 5l-6 7-11-13a5 5 0 0 0-7-1l-6 6a11 11 0 0 0-6 3 15 15 0 0 0-3 4l-3 3a5 5 0 0 0-1 4 5 5 0 0 0 0 5l8 8a13 13 0 0 0-7 3c-12 10-12 19-10 23l16 20s8 11 20 16v1h-1v1h-1v2h-1v2l-1 1v5c0 1 0 0 0 0v19s2 4 7 5a9 9 0 0 0 2 0c7-2 23-4 28-3l14-1 2-1v3l3-1 2 2h1c3 9 13 6 13 6l3 1 25 1a51 51 0 0 0 9 4 9 9 0 0 0 1 1 57 57 0 0 0 7 0h3v-15l23-2c13-2 19-14 21-21a61 61 0 0 1 1 8 59 59 0 0 0 2 7 24 24 0 0 0 3 6c10-4 4-9 2-11s1-4 1-4 3-2 3-4-1-3 8-3 8-7 8-7Zm-136-82 2 10a14 14 0 0 1 1 5l-11-1a1 1 0 0 1 0 1l-1-1h-1l10-15Zm-19 30 9 1h1a30 30 0 0 0-1 5h1a12 12 0 0 0-1 2l10 4h-1c-4-2-11-3-11-5s-24-9-24-9l-2-1 6 1h1a90 90 0 0 0 12 2Z" transform="translate(-48 -96)"/><path fill="#65617d" d="M927 654s-4 22-22 25-79 3-79 3-35-5-47-35-21-41-10-41 69 20 72 20 89-45 86 28Z"/><path d="M927 654s-4 22-22 25-79 3-79 3-35-5-47-35-21-41-10-41 69 20 72 20 89-45 86 28Z" opacity=".1"/><path fill="#3f3d56" d="M764 678s2 5 7 6a9 9 0 0 0 2-1c7-1 22-3 28-2l14-1 5-2-6-17-23-14-18-1a9 9 0 0 0-6 3c-2 2-4 6-4 12l1 17Z"/><path d="M764 678s2 5 7 6a74 74 0 0 1-5-7v-13a22 22 0 0 1 7-18s-9 0-10 15 1 17 1 17Zm77-27 16-13 26-25-7-1c-1 1-4 3-4 6s-7 0-10 2-21 24-25 24-5-2-6 1Z" opacity=".1"/><path d="m767 649 2 1c12 5 28 17 29 19l17 11 5-2-6-17-23-14-18-1a9 9 0 0 0-6 3Z" opacity=".1"/><path fill="#65617d" d="M732 612c2 5 16 20 16 20s8 12 21 17 28 17 29 19l18 11 2 1 3 2 2 1 9-6c5-3 8-7 8-7l1-5-2-4a18 18 0 0 0-7-6c-6-3-8-9-8-9l-2-1a17 17 0 0 0-5-2l-8-6s-4-3-5-6-22-16-24-17l49 31 11 7 17-13 26-26h-9l-38-1a21 21 0 0 1-7 1s-6 0-10-2-11-3-12-5-24-10-24-10-30-16-41-6-12 18-10 22Z"/><path fill="#ee8e9e" d="m832 518 4 14 5 29 19 2 5-9 5-9 6-24c2-10 4-20 1-21-2-1-3-5-4-8v-2a74 74 0 0 1-1-9s-40-2-34 14a26 26 0 0 1 1 8 22 22 0 0 1 0 3 18 18 0 0 1-7 12Z"/><path fill="#e3e8f4" d="m823 516 2 23 3 19 4 9 3 48s31 4 38 0a3 3 0 0 0 2-1c9-14 6-54 6-54l3-25-2-13-6-1-4-1-2 3c-4 5-11 15-11 19 1 6-1 12-3 13l-4 1v-4c1-2-2-9-2-9s-4-8-3-11-1-8-2-8-2-2-1-6-5-12-5-12Z"/><path d="m864 572 1 39 8 4a3 3 0 0 0 1-1c9-14 6-54 6-54l4-25-3-14h-5c2-11 3-21 1-22s-3-4-4-8l-4 27v5a14 14 0 0 1 0 5v6c-3 5-4 12-4 19l-1 19Z" opacity=".1"/><path fill="#3f3d56" d="M873 491s6 0 8 3 8 3 8 3l6 3 5 2 11 6 10 12c0 1 3 4 3 11v24a4 4 0 0 0 0 4c2 2 0 12 0 12v27l3 12 27 40s1 7-8 7-9 2-8 4-3 3-3 3-3 2-1 4 8 7-2 11a24 24 0 0 1-3-6 58 58 0 0 1-2-7s-1-9-3-11-1-7-1-7 2-5-1-7l-56-31-1-38s-1-29 4-38l1-6v-10Z"/><path d="M839 506s-13-3-16-1l-11 4c-1 1-4 1-6 7s-3 12-6 15-4 4-4 6l-1 4c-1 1-3 3-2 4l26 24 3 10c1 2-2 32-4 35s17 1 17 1l2-20c1-1-1-22-1-22s0-18 2-23 1-20 1-20 2-10 4-12-4-12-4-12Z" opacity=".1"/><path fill="#3f3d56" d="M839 506s-13-3-16-1l-12 4c-1 1-3 0-6 6s-2 12-5 15-5 5-5 7v3c-1 0-3 3-3 5s27 23 27 23l2 11c1 2-1 32-4 34s18 2 18 2l1-21v-22l1-22 2-21s1-9 3-12-3-11-3-11Z"/><path d="M838 495a26 26 0 0 1 1 8 29 29 0 0 0 34-13 74 74 0 0 1-1-10s-40-2-34 15Z" opacity=".1"/><path fill="#ee8e9e" d="M818 474a29 29 0 1 0 1-6 29 29 0 0 0-1 6Z"/><path fill="#3f3d56" d="m799 542-7 3s1 2-1 3a4 4 0 0 0-2 4l-2 4-3 5-6 6-2 3c1 1-2 1-2 1l1 23 12 2h8l6-3 5-3 3-6 10-17Z"/><path fill="#ee8e9e" d="M775 573s-15-23-27-10 5 32 9 31l22-2Z"/><rect width="81.8" height="63.5" x="770" y="638" fill="#3f3d56" rx="1.5" transform="rotate(27 987 522)"/><path fill="#55198b" d="m744 535 62 31-24 47-61-32z"/><circle cx="730.3" cy="557" r="1.1" fill="#e6e8ec"/><circle cx="796.6" cy="591" r="1.9" fill="#e6e8ec"/><path fill="#ee8e9e" d="M765 578c0 17 35 20 35 20l9 2h4l2-16-4-1c-4-1-8-2-9-4-2-3-37-18-37-1Z"/><path d="M819 468a3 3 0 0 1 2 1l2 4a3 3 0 0 0 2 0c3 0 5-4 8-5a9 9 0 0 1 6 0 4 4 0 0 1 2 1l1 6c1 2 3 3 6 3s5 1 7 3a6 6 0 0 1 1 5 4 4 0 0 0 0 1c1 2 4 2 5 1 0-2 0-2 2-3a6 6 0 0 1 3 1 23 23 0 0 0 8 1 29 29 0 1 0-55-19Z" opacity=".1"/><path fill="#3f3d56" d="M856 487a4 4 0 0 1 0-2 6 6 0 0 0-1-5c-2-2-5-2-7-3s-5-1-6-3l-1-5a4 4 0 0 0-2-2 9 9 0 0 0-6 0c-3 1-5 5-8 5a3 3 0 0 1-2 0l-2-3c-2-2-5-1-7-2l-2-4v-9c1-4 5-8 8-12 2-3 4-8 8-11s8-2 13 0a38 38 0 0 0 6 1c3 1 7 0 10-1a22 22 0 0 1 14 5 8 8 0 0 1 2 2 11 11 0 0 1 1 4 21 21 0 0 0 3 8l3 5a8 8 0 0 1 1 6l-1 3c-1 2 1 5 2 7a14 14 0 0 1 2 7 9 9 0 0 1-3 6 11 11 0 0 1-7 2 23 23 0 0 1-8-1 6 6 0 0 0-3-1c-2 1-2 2-2 3-1 1-4 2-5 0Z"/><path d="m840 652 17-13 26-25-9-1a6 6 0 0 0-2 4c0 3-7 0-10 2s-21 24-25 24-5-2-6 0v1a4 4 0 0 1-2 1Z" opacity=".1"/><path fill="#65617d" d="m807 651 8 27 1 4 4-1 9-3 39-10a34 34 0 0 0 14-4 42 42 0 0 1 24-5c5 0 11-2 16-11 0 0 10-32-17-41s-28 5-28 5h-1c-1 1-4 3-4 6s-7 0-10 2-21 24-25 24-5-2-6 1l-6 1h-2l-2 1Z"/><path d="M809 600h4l2-16-4-1-2 17Z" opacity=".1"/><path d="M914 522s12-3 9 31-25 55-25 55-26 11-37 9a198 198 0 0 0-20-2 29 29 0 0 0-11-3c-7 0-20-4-20-5s3-20 1-22l20 2h6c2 0 8-5 20-1l5-1h4a11 11 0 0 0 3-1h4a1 1 0 0 0 2-1 8 8 0 0 1 1-3s4-19 10-27c0 0 2-1 2-3s10-32 26-28Z" opacity=".1"/><path fill="#3f3d56" d="M913 520s12-4 9 30-25 55-25 55-25 12-36 10l-20-2a29 29 0 0 0-12-3l-20-6c-1-1 4-20 2-22 0 1 18 1 20 3s4 0 6 0 8-6 20-1l5-1h4a11 11 0 0 0 3-2h3a1 1 0 0 0 2-1 9 9 0 0 1 2-3s3-19 10-26c0 0 2-2 1-4s11-31 26-27Z"/><path d="m821 647 17 20s2-4 1-5-3-6-9-9a17 17 0 0 1-7-7Z" opacity=".1"/><path d="m821 682 2 1 9-6c5-3 8-7 8-7l1-5-2-4c-12-4-4 4-3 5 0 0-14-4-15 12a18 18 0 0 0 0 4Z" opacity=".1"/><path fill="#3f3d56" d="m835 689 3 1 24 1a50 50 0 0 0 9 4 8 8 0 0 0 1 0 59 59 0 0 0 7 1l4-1-2-34c-1-2-3-1-5 0a30 30 0 0 0-4 2s-11 1-12 2h-10c-3 1-8-4-8-4-14-5-6 4-5 5 0 0-14-4-15 12s13 11 13 11Z"/><path fill="#565387" d="M871 677c0 6 5 14 8 19l4-1-2-34c-1-2-3-1-5-1-2 5-5 12-5 17Z"/><path d="M871 677c0 6 5 14 8 19l4-1-2-34c-1-2-3-1-5-1-2 5-5 12-5 17Z" opacity=".1"/><path d="M867 678c2 6 1 13 4 17a8 8 0 0 0 1 0 59 59 0 0 0 7 1l4-1-2-34c-1-2-3-1-5-1a30 30 0 0 0-4 3s-7 7-5 15Zm-86-64s13 4 23 19Zm100-153a11 11 0 0 1 0 1 8 8 0 0 1 0-1Zm-69-7a12 12 0 0 1 1-2v9l2 4c2 1 5 0 7 2l2 3a3 3 0 0 0 2 0c3 0 5-4 8-5a9 9 0 0 1 6 0 4 4 0 0 1 2 2l1 5c0 2 3 3 6 4s5 0 7 2a6 6 0 0 1 1 5 4 4 0 0 0 0 2c0 2 4 1 5 0 0-1 0-2 2-2a6 6 0 0 1 3 0 23 23 0 0 0 8 1 11 11 0 0 0 6-2 8 8 0 0 0 2-2 8 8 0 0 1-2 4 11 11 0 0 1-7 2 23 23 0 0 1-8-1 6 6 0 0 0-3-1c-2 1-2 2-2 3h-5a4 4 0 0 1 0-2 6 6 0 0 0-1-5c-2-2-5-2-7-3s-5-1-6-3l-1-5a4 4 0 0 0-2-2 9 9 0 0 0-6 0c-3 1-5 5-8 5a3 3 0 0 1-2 0l-2-4-7-1-2-4v-9Zm71 103-7 9c-2 3-3 8-3 12l5-8 8-13c1-1 4-6 2-6l-5 6Z" opacity=".1"/></svg>