<svg xmlns="http://www.w3.org/2000/svg" width="1200" height="800" viewBox="-73.46 -59.71 636.69 358.29"><defs><clipPath id="a" clipPathUnits="userSpaceOnUse"><path d="M0 0h595.28v595.28H0z"/></clipPath></defs><g fill="#d91920" clip-path="url(#a)" transform="matrix(7.7903 0 0 -7.7903 -2058.1 4085.3)"><path d="M296.81 497.83c-1.22.08-2.62.3-3.72.61a11.23 11.23 0 1 0 14.65 10.82h4.05a15.3 15.3 0 0 1-15.28 15.13 15.28 15.28 0 0 1-7.23-28.73 18.61 18.61 0 0 1 2.52-1.06c1.37-.4 3.04-.68 4.53-.8.5-.03 2.27-.05 2.79-.05h27.94v4.04h-27.9c-.37 0-1.99.01-2.35.04m2.35 6.34c-.3 0-1.83.01-2.12.04a6.4 6.4 0 0 0-2.83.65 4.82 4.82 0 0 0-2.54 4.24 4.83 4.83 0 0 0 4.84 4.84 4.83 4.83 0 0 0 4.83-4.68h3.9a8.73 8.73 0 0 1-8.73 8.58 8.73 8.73 0 0 1-8.74-8.74 8.72 8.72 0 0 1 6.29-8.36c.8-.21 1.88-.36 2.75-.42.32-.03 1.9-.04 2.24-.04h28v3.9zm-20.44-10.4h-4.08v26.55h-5.97v4.09h10.05zm-14.53 24.51v-3.92h4.48v-20.6h3.93v24.52zm55.65 5.84a2.67 2.67 0 0 1-2.7-2.64 2.71 2.71 0 0 1 2.7-2.7 2.68 2.68 0 0 1 2.69 2.7 2.64 2.64 0 0 1-2.7 2.64m0-4.9a2.25 2.25 0 0 0-2.25 2.26 2.25 2.25 0 0 0 2.26 2.21c1.21 0 2.26-.97 2.26-2.21a2.24 2.24 0 0 0-2.26-2.26"/><path d="M320.86 520.75c0 .3-.04.58-.38.69.42.14.47.42.47.6 0 .68-.62.76-.88.76h-1.17v-2.64h.49v1.08h.38c.56 0 .6-.25.6-.48 0-.46 0-.54.11-.6h.49c-.1.1-.06.19-.1.6m-.9.87h-.58v.83h.5c.34 0 .57-.1.57-.43 0-.17-.09-.4-.5-.4"/></g></svg>