<svg xmlns="http://www.w3.org/2000/svg" viewBox="15.04 0.12 279.46 159.7"><g fill="none" stroke-width="2"><path stroke="#d0b87c" d="m112.46 55.5-.21 7.95q-.1 3.68-.21 0-.12-4.3-.01-8.61.01-.45-.33-.17t-.14.74q.31.7-.42.45-.5-.18-.66-.63-.21-.62-.86-.51c-3.03.5-19.9-.37-20.72.94q-.16.26-.33.01l-.28-.42" vector-effect="non-scaling-stroke"/><path stroke="#bda66b" d="M41.4 25.47 19.25 13.04" vector-effect="non-scaling-stroke"/><path stroke="#b59e64" d="M41.38 46.56q-1.04-3.68-.72-6.01-.24 2.23-.15 4.5.02.3-.24.14-.23-.15-.4-.22-9.94-4.22-20.02-8.09c-1.26-.49-2.5-.59-3.81-.63" vector-effect="non-scaling-stroke"/><path stroke="#bfa76d" d="m112.46 87.5-.31 1.98q-.15.94-.15-.01v-2.72q0-.04-.04.04-.69 1.63-.43 3.46.07.48-.34.23l-.23-.14q-.29-.17-.6-.04-1.43.61-2.87-.06-.44-.2-.92-.12c-3.62.57-5.98.8-9.96.01q-3.33-.66-6.66.71-.21.09-.33-.11-.07-.14-.14-.24-.26-.43-.23.07.03.35-.01.68-.36 3.87-.25-.03.05-1.84-.01-3.67-.47-14.3-.23-.01.03 1.23-.01 2.44-.1 3.39-.24 0L88.29 85" vector-effect="non-scaling-stroke"/><path stroke="#ac955b" d="m111.96 120.5.02-6.72q.01-1.41-.2-.02l-.33 2.21q-.03.18-.18.08-1-.67-2.27-.66-10.7.13-21.4.46c-1.91.06-2.25-.88-4.55-.3q-2.06.52-4.09-.25-.41-.16-.83-.01l-2.46.91q-.45.16-.81-.15l-.61-.51" vector-effect="non-scaling-stroke"/><path stroke="#b59e64" d="M19 146.29q1.61-.21 2.25-.54 10.03-5.18 19.54-11.25M40.96 122.75q-.8.1-.78.86.03.83-.69.4l-.26-.16q-.44-.25-.88-.02-10.3 5.32-20.76 10.34c-.78.37-.84.75-.93 1.54q-.03.33-.08 0-.07-.46-.09-.95-.18-4.56-.22.04l-.06 5.95" vector-effect="non-scaling-stroke"/><path stroke="#bda66b" d="M41 106.79q-12.91 6.52-24.9 14.75" vector-effect="non-scaling-stroke"/><path stroke="#d0b87c" d="M43.04 105.5c-3.41-3.38-5.66-8.48-7.67-11.39q-3.53-5.1-7.12-10.15" vector-effect="non-scaling-stroke"/><path stroke="#bfa76d" d="M51 101.21q-7.05-9.76-13.11-20.17-.26-.44-.1-.92.23-.72-.04-1.41" vector-effect="non-scaling-stroke"/></g><path fill="#d7bf83" d="m112.46 55.5-.21 7.95q-.1 3.68-.21 0-.12-4.3-.01-8.61.01-.45-.33-.17t-.14.74q.31.7-.42.45-.5-.18-.66-.63-.21-.62-.86-.51c-3.03.5-19.9-.37-20.72.94q-.16.26-.33.01l-.28-.42q-.42-3.02-2.35-4.19-10.4-6.26-44.54-25.59L19.25 13.04Q30.28 6.8 41.28.52c1.66-.95 4.6-.06 6.46 1q30.95 17.75 61.85 35.57c4.49 2.59 2.92 13.86 2.87 18.41Z"/><path fill="#a28c52" d="M19.25 13.04 41.4 25.47q-1.01 10.52-.02 21.09-1.04-3.68-.72-6.01-.24 2.23-.15 4.5.02.3-.24.14-.23-.15-.4-.22-9.94-4.22-20.02-8.09c-1.26-.49-2.5-.59-3.81-.63q-.12-15.58.27-20.19.18-2.07 2.94-3.02Z"/><path fill="#c8b075" d="M16.04 36.25c1.31.04 2.55.14 3.81.63q10.08 3.87 20.02 8.09.17.07.4.22.26.16.24-.14-.09-2.27.15-4.5-.32 2.33.72 6.01-11.09 7.86-23.15 14.16-.79.4-1.22.26a1.43 1.13 10.9 0 1-1-1.16l.03-23.57Z"/><path fill="#2d2d2d" d="M145.16 52.16q.47.14.68.59l9.11 20.06q.22.48-.29.64c-2.82.83-3.56-3.27-4.52-5.16q-.27-.54-.87-.54l-10.12.01q-.54 0-.76.49l-2.05 4.71q-.22.5-.77.52l-1.32.03q-.86.02-.5-.76 4.53-9.68 8.73-19.46.74-1.72 2.68-1.13Zm-5.36 12.91a.3.3 0 0 0 .27.43l8.49.01a.3.3 0 0 0 .27-.42l-4.23-9.35a.3.3 0 0 0-.54 0l-4.26 9.33ZM162.21 71.25h11.11a.47.47 0 0 1 .47.52l-.14 1.31a.47.47 0 0 1-.46.42h-13.47a.47.47 0 0 1-.47-.47V52.52a.47.47 0 0 1 .53-.47l1.58.19a.47.47 0 0 1 .42.47l-.04 18.07a.47.47 0 0 0 .47.47Z"/><rect width="2.32" height="21.34" x="-1.16" y="-10.67" fill="#2d2d2d" rx=".6" transform="rotate(.1 -35866.372 112537.35)"/><path fill="#2d2d2d" d="m219.84 52 .87.27q.52.16.53.71c.04 4.99.8 12.84-1.21 16.7-2.77 5.32-12.28 5.57-15.28.21-2.13-3.81-1.29-12.26-1.23-17.05q.01-.78.79-.74l1.04.06q.66.04.66.7-.02 5.95-.03 11.89c-.01 6.87 7.97 9.23 11.98 3.7 1.49-2.05.81-12.86.77-15.62a.86.85-81.6 0 1 1.11-.83ZM236.71 63.2a.38.38 0 0 0 .64 0l7.17-10.72a1.49 1.49 0 0 1 2.73.83v19.56q0 .63-.62.63h-1.11q-.8 0-.8-.8l.09-15.15a.42.42 0 0 0-.77-.23l-6.56 9.89a.57.57 0 0 1-.94 0l-6.6-9.91a.38.38 0 0 0-.7.21l.04 15.42q0 .65-.65.6l-1.23-.1q-.65-.05-.65-.7V53.48a1.61 1.6-61.8 0 1 2.94-.89l7.02 10.61ZM183.25 55v17.87q0 .63-.62.63h-1.25q-.63 0-.63-.63V55.25q0-.75-.75-.75h-5.31q-.41 0-.71-.28-.75-.69-.37-1.52.2-.45.7-.45h15.56q.63 0 .63.62v1q0 .63-.63.63h-6.12q-.5 0-.5.5Z"/><path fill="#c8b075" d="M112.46 55.5v32l-.31 1.98q-.15.94-.15-.01v-2.72q0-.04-.04.04-.69 1.63-.43 3.46.07.48-.34.23l-.23-.14q-.29-.17-.6-.04-1.43.61-2.87-.06-.44-.2-.92-.12c-3.62.57-5.98.8-9.96.01q-3.33-.66-6.66.71-.21.09-.33-.11-.07-.14-.14-.24-.26-.43-.23.07.03.35-.01.68-.36 3.87-.25-.03.05-1.84-.01-3.67-.47-14.3-.23-.01.03 1.23-.01 2.44-.1 3.39-.24 0L88.29 85V55.25l.28.42q.17.25.33-.01c.82-1.31 17.69-.44 20.72-.94q.65-.11.86.51.16.45.66.63.73.25.42-.45-.2-.46.14-.74.34-.28.33.17-.11 4.31.01 8.61.11 3.68.21 0l.21-7.95Z"/><path fill="#b59e64" d="M51 101.21q-7.05-9.76-13.11-20.17-.26-.44-.1-.92.23-.72-.04-1.41l25.9-14.67a.94.94 0 0 1 1.4.83q-.07 12.55-.06 25.21c0 2.41 1.03 2.72-1.67 4.23q-6.17 3.45-12.32 6.9Z"/><path fill="#c8b075" d="M37.75 78.71q.27.69.04 1.41-.16.48.1.92Q43.95 91.45 51 101.21l-7.96 4.29c-3.41-3.38-5.66-8.48-7.67-11.39q-3.53-5.1-7.12-10.15l9.5-5.25Z"/><path fill="#2d2d2d" d="M213.1 92.53c-1.03 8.03 11.1 7.36 8.99 3.46q-.27-.49-.83-.49h-2.76q-.75 0-.75-.75V92q0-.75.75-.75h8.62q.69 0 .68.69l-.18 8.43q-.01.64-.56.98-6.16 3.87-12.61 1.93c-16-4.84-4.2-29.64 11.86-18.88q.9.61.18 1.42l-2.74 3.12q-.37.42-.8.07c-4.07-3.31-9.18-1.7-9.85 3.52ZM163.75 90.53l9.25-.05a.5.5 0 0 1 .5.5v3.77a.5.5 0 0 1-.5.5h-9.23a.5.5 0 0 0-.5.49l-.03 2.25a.5.5 0 0 0 .5.51h10.51a.5.5 0 0 1 .5.5v4a.5.5 0 0 1-.5.5H158a.5.5 0 0 1-.5-.5V83.01a.5.5 0 0 1 .5-.5l16.11-.04a.5.5 0 0 1 .5.52l-.16 4.03a.5.5 0 0 1-.5.48h-10.2a.5.5 0 0 0-.5.5v2.03a.5.5 0 0 0 .5.5ZM179.96 96.79c2.05 1.51 5.64 2.87 8.08 1.83q.44-.19.6-.64c1.01-2.84-11-1.88-11.41-8.67-.55-8.92 11.44-8.13 16.52-4.85q.57.37.16.92l-2.41 3.2q-.39.52-.94.18c-1.46-.89-7.38-3.51-7.33-.1q.01.54.52.71c2.74.92 7.32 1.67 9.28 3.54 2.44 2.32 2.04 6.7-.24 8.86-4.09 3.87-12.03 2.03-16.21-.8q-.61-.41-.13-.97l2.71-3.12q.36-.42.8-.09Z"/><rect width="6" height="21.04" x="197.75" y="82.46" fill="#2d2d2d" rx=".46"/><path fill="#2d2d2d" d="M134.22 83.14a.63.63 0 0 1 .62-.64l8.78-.03a10.81 10.34-.2 0 1 10.85 10.3v.34a10.81 10.34-.2 0 1-10.77 10.38l-8.78.03a.63.63 0 0 1-.64-.62l-.06-19.76Zm6.02 4.92.02 9.9a.3.3 0 0 0 .3.3l2.55-.01a5.17 4.97-.1 0 0 5.16-4.98v-.56a5.17 4.97-.1 0 0-5.18-4.96l-2.55.01a.3.3 0 0 0-.3.3ZM236.54 103.5h-5.23a.32.32 0 0 1-.32-.32l-.02-20.36a.32.32 0 0 1 .32-.32h5.27a.32.32 0 0 1 .26.13l7.81 10.23a.32.32 0 0 0 .57-.2l-.1-9.84a.32.32 0 0 1 .32-.32h5.24a.32.32 0 0 1 .32.32l.06 20.36a.32.32 0 0 1-.32.32h-4.87a.32.32 0 0 1-.26-.12l-8.31-10.8a.32.32 0 0 0-.58.2l.16 10.4a.32.32 0 0 1-.32.32ZM261.09 98.5h10.66a.5.5 0 0 1 .5.5v4a.5.5 0 0 1-.5.5h-16.5a.5.5 0 0 1-.5-.5V83a.5.5 0 0 1 .5-.5h16.15a.5.5 0 0 1 .5.5v4a.5.5 0 0 1-.5.5h-10.15a.5.5 0 0 0-.5.5v2.02a.5.5 0 0 0 .5.5l9.27-.03a.5.5 0 0 1 .5.55l-.35 3.76a.5.5 0 0 1-.5.45h-9.08a.5.5 0 0 0-.5.5V98a.5.5 0 0 0 .5.5ZM290.03 96.92l4.31 5.97q.44.61-.32.61h-5.74q-.54 0-.85-.46c-1.21-1.85-3.31-6.59-5.98-5.74q-.49.15-.46.66l.32 4.86q.05.68-.63.68h-4.91q-.55 0-.55-.55l.02-19.89q0-.38.38-.4c6.38-.4 16.48-1.87 18.13 5.18q1.2 5.17-3.56 8.23-.53.34-.16.85Zm-8.97-8.86V92a.53.53 0 0 0 .53.53l3.51-.01a2.86 2.33-.1 0 0 2.86-2.34v-.34a2.86 2.33-.1 0 0-2.86-2.32l-3.51.01a.53.53 0 0 0-.53.53Z"/><path fill="#d7bf83" d="M28.25 83.96q3.59 5.05 7.12 10.15c2.01 2.91 4.26 8.01 7.67 11.39L41 106.79q-12.91 6.52-24.9 14.75-.25-12.75 0-26.04c.05-3.1.28-4.65 3.13-6.36q4.47-2.69 9.02-5.18Z"/><path fill="#b59e64" d="m88.29 85 .21 4.97q.14 3.39.24 0 .04-1.21.01-2.44-.24-14.29.23.01.06 1.83.01 3.67-.11 3.9.25.03.04-.33.01-.68-.03-.5.23-.07.07.1.14.24.12.2.33.11 3.33-1.37 6.66-.71c3.98.79 6.34.56 9.96-.01q.48-.08.92.12 1.44.67 2.87.06.31-.13.6.04l.23.14q.41.25.34-.23-.26-1.83.43-3.46.04-.08.04-.04v2.72q0 .95.15.01l.31-1.98.04 30.98c0 .95-.24 1.2-.54 2.02l.02-6.72q.01-1.41-.2-.02l-.33 2.21q-.03.18-.18.08-1-.67-2.27-.66-10.7.13-21.4.46c-1.91.06-2.25-.88-4.55-.3q-2.06.52-4.09-.25-.41-.16-.83-.01l-2.46.91q-.45.16-.81-.15l-.61-.51c2.77-1.57 14.02-7.01 14.01-10.29q-.05-10.13.03-20.25Z"/><path fill="#a28c52" d="m41 106.79-.04 15.96q-.8.1-.78.86.03.83-.69.4l-.26-.16q-.44-.25-.88-.02-10.3 5.32-20.76 10.34c-.78.37-.84.75-.93 1.54q-.03.33-.08 0-.07-.46-.09-.95-.18-4.56-.22.04l-.06 5.95-.11-19.21q11.99-8.23 24.9-14.75ZM111.96 120.5q-.77 1.9-2.54 2.91-31.45 18.06-62.93 36.07c-1.03.59-3.82.37-5.14-.34q-11.36-6.1-22.35-12.85 1.61-.21 2.25-.54 10.03-5.18 19.54-11.25l33.46-18.96.61.51q.36.31.81.15l2.46-.91q.42-.15.83.01 2.03.77 4.09.25c2.3-.58 2.64.36 4.55.3q10.7-.33 21.4-.46 1.27-.01 2.27.66.15.1.18-.08l.33-2.21q.21-1.39.2.02l-.02 6.72Z"/><path fill="#c8b075" d="m40.96 122.75-.17 11.75q-9.51 6.07-19.54 11.25-.64.33-2.25.54-3.11-1.87-2.79-5.54l.06-5.95q.04-4.6.22-.04.02.49.09.95.05.33.08 0c.09-.79.15-1.17.93-1.54q10.46-5.02 20.76-10.34.44-.23.88.02l.26.16q.72.43.69-.4-.02-.76.78-.86Z"/></svg>