<svg xmlns="http://www.w3.org/2000/svg" width="2499" height="2500" viewBox="0 0 1372.2 1372.7"><path fill="#00979D" stroke="#81C9CB" stroke-miterlimit="10" stroke-width=".9" d="M1371.7 686A685.6 685.6 0 1 1 .5 686a685.6 685.6 0 0 1 1371.2 0z"/><linearGradient id="a" x1="-16.3" x2="1354.9" y1="16.1" y2="16.1" gradientTransform="matrix(1 0 0 -1 16.8 702.7)" gradientUnits="userSpaceOnUse"><stop offset=".1" stop-color="#fff" stop-opacity="0"/><stop offset=".3" stop-color="#c0d1d3" stop-opacity=".2"/><stop offset=".4" stop-color="#91b3b7" stop-opacity=".3"/><stop offset=".5" stop-color="#6d9fa3" stop-opacity=".5"/><stop offset=".7" stop-color="#4d9195" stop-opacity=".6"/><stop offset=".8" stop-color="#30888b" stop-opacity=".7"/><stop offset=".9" stop-color="#148386" stop-opacity=".9"/><stop offset="1" stop-color="#008184"/></linearGradient><linearGradient id="b" x1="-16.8" x2="1355.4" y1="16.1" y2="16.1" gradientTransform="matrix(1 0 0 -1 16.8 702.7)" gradientUnits="userSpaceOnUse"><stop offset="0" stop-color="#fff" stop-opacity="0"/><stop offset=".2" stop-color="#c0d1d3" stop-opacity=".2"/><stop offset=".3" stop-color="#91b3b7" stop-opacity=".3"/><stop offset=".5" stop-color="#6d9fa3" stop-opacity=".5"/><stop offset=".6" stop-color="#4d9195" stop-opacity=".6"/><stop offset=".7" stop-color="#30888b" stop-opacity=".7"/><stop offset=".9" stop-color="#148386" stop-opacity=".9"/><stop offset="1" stop-color="#008184"/></linearGradient><path fill="url(#a)" stroke="url(#b)" stroke-miterlimit="10" d="M1371.7 686.6a685.6 685.6 0 1 1-1371.2 0 685.6 685.6 0 0 1 1371.2 0z" opacity=".5"/><g fill="#FFF"><path d="M948 931.2c-13 0-26.2-1-39.2-2.9-109-15.5-181.8-93.8-222.6-154-41 60.2-113.8 138.6-222.8 154a275.9 275.9 0 0 1-39.1 2.9 257.5 257.5 0 0 1-179.2-71A239.3 239.3 0 0 1 170 686c0-66.1 26.7-128 75-174.3a257.4 257.4 0 0 1 179.3-70.9c13 0 26 1 39 2.8 109 15.5 181.8 93.8 222.8 154 40.8-60.2 113.6-138.4 222.6-154 13-1.9 26.2-2.8 39-2.8 67.8 0 131.5 25.2 179.3 71a239.2 239.2 0 0 1 75 174.2c0 66-26.6 128-75 174.2a257.6 257.6 0 0 1-179.1 71M734.4 686c21.3 40.6 84 141.7 186.7 156.4 9 1.2 18 2 26.9 2 92.1 0 167.2-71 167.2-158.4s-75-158.3-167.3-158.3c-8.8 0-17.9.6-26.8 1.9C818.5 544.3 755.7 645.4 734.4 686m-310-158.3C332 527.7 257 598.7 257 686c0 87.3 75 158.3 167.3 158.3 8.8 0 17.9-.6 26.9-1.9C553.8 827.7 616.6 726.6 637.8 686c-21.2-40.5-84-141.7-186.6-156.3-9-1.4-18-2-26.8-2"/><path d="M354.4 662H507v49.2H354.4zm662 0h-51.6v-51.7h-49.3v51.8h-51.7v49.1h51.7V763h49.3v-51.8h51.7z"/></g></svg>