<svg xmlns="http://www.w3.org/2000/svg" xmlns:xlink="http://www.w3.org/1999/xlink" viewBox="0.01 0.01 998.99 166.09"><defs><linearGradient id="c"><stop offset="0" stop-color="#29a5e3"/><stop offset=".52" stop-color="#356eb9"/><stop offset="1" stop-color="#394da5"/></linearGradient><linearGradient id="b"><stop offset="0" stop-color="#2b7a77"/><stop offset=".51" stop-color="#4ebaa9"/><stop offset="1" stop-color="#5cc2b1"/></linearGradient><linearGradient id="a"><stop offset="0" stop-color="#236736"/><stop offset=".49" stop-color="#6ba443"/><stop offset="1" stop-color="#86c146"/></linearGradient><linearGradient xlink:href="#a" id="g" x1="908.37" x2="637.57" y1="189.12" y2="825.09" gradientUnits="userSpaceOnUse"/><linearGradient xlink:href="#b" id="f" x1="627.31" x2="1173.01" y1="939.97" y2="831.24" gradientUnits="userSpaceOnUse"/><linearGradient xlink:href="#c" id="h" x1="1013" x2="1410.99" y1="117.32" y2="1065.12" gradientUnits="userSpaceOnUse"/><clipPath id="d" clipPathUnits="userSpaceOnUse"><path d="M637.5 36h117.71v19.52H637.5z"/></clipPath><clipPath id="e" clipPathUnits="userSpaceOnUse"><path d="M637.5 36h117.71v19.52H637.5z"/></clipPath></defs><g fill="#231f20" clip-path="url(#d)" transform="matrix(8.49547 0 0 -8.49547 -5416.87 471.74)"><path d="M755.06 42.02a.85.85 0 0 0-.87-.88c-.5 0-.87.37-.87.88s.37.88.87.88.87-.36.87-.87m.15 0a1.02 1.02 0 1 1-2.04 0 1.02 1.02 0 0 1 2.04 0"/><path d="M754.38 42.26c0-.15-.13-.16-.25-.16h-.1v.33h.15c.15 0 .2-.07.2-.17m.25-.76-.25.35a.57.57 0 0 1-.12.14c.18.02.28.12.28.27 0 .16-.1.3-.32.3h-.35V41.5h.15v.48c.09 0 .12-.03.17-.1l.26-.38z"/></g><path fill="#0e0d0f" d="m256.16 46.92-16.44 38.4h33.04zm50.31 76.5h-17.81l-9.74-23.16h-45.38l-9.87 23.16H206.4l42.23-96.65h15.61zm155.6 0h-17V43.08h-30.45V27.45h79.25l-6.53 15.63h-25.27zm322.86-80.34h-51.4v24.4h32.92v15.1h-32.92v25.5h51.42v15.34h-68.4V27.45h68.38zm120.5 80.35h-16.08V27.45h16.08z"/><g clip-path="url(#e)" transform="matrix(8.49547 0 0 -8.49547 -5416.87 471.74)"><path fill="#0e0d0f" d="M736.15 50.67c-1.16 0-2.14-.35-2.14-1.12 0-.9.55-1.2 2.68-1.9 2.35-.77 3.6-1.55 3.58-3.46-.01-2.16-1.67-3.38-4.1-3.38-1.72 0-3.27.55-4.44 1.59l.73 1.77a5.97 5.97 0 0 1 3.76-1.54c1.22 0 2.09.6 2.09 1.47 0 .74-.43 1.23-2.49 1.88-2.36.78-3.79 1.59-3.78 3.51.02 1.92 1.81 3 4.07 3 2.26-.01 3.53-.84 3.72-.95l-.7-1.61c-.47.25-1.48.74-2.98.74m10.49-3.84 5.05 5.47h-2.42l-5.07-5.47 5.57-5.83h2.46zm-44.77-4.2c-2.22 0-3.84 1.8-3.84 4.02s1.62 4.02 3.84 4.02c2.22 0 3.84-1.8 3.84-4.02 0-2.22-1.62-4.02-3.84-4.02m0 9.86a5.84 5.84 0 1 1 0-11.68 5.84 5.84 0 0 1 0 11.68m12.22-9.68h-2.28v7.65h2.29a3.68 3.68 0 0 0 3.83-3.8 3.73 3.73 0 0 0-3.84-3.85m0 9.49h-4.29V41h4.29a5.7 5.7 0 0 1 5.84 5.66 5.67 5.67 0 0 1-5.84 5.64M684.24 46c0-3.36-1.98-5.18-4.84-5.18-2.87 0-4.84 1.82-4.84 5.19v6.29h2v-6.53c0-1.98 1.16-3.14 2.84-3.14s2.84 1.16 2.84 3.14v6.53h2z"/></g><path fill="url(#f)" d="M733.24 1068.4c-27.14 0-41.25-10.24-54.8-34.03l-123.7-229.33c-8.53-16.43-8.67-21.9-8.67-33.75l194.43 8.57 44.5 44.5h390l-323.82 200.6c-15.78 9.34-75.81 43.44-117.94 43.44z" transform="translate(-95.06 -19.9) scale(.17409)"/><path fill="url(#g)" d="M785.18 824.36H617c-50.8 0-70.93-26.57-70.93-53.07 0-16.77 5.4-25.92 12.86-44.55l245.09-585.1 2.63-5.13 3.4-5.26 7.05-6.88 10.36-5.54 15-3.3 25.8.67 170.31 63.3-57.59 181.61z" transform="translate(-95.06 -19.9) scale(.17409)"/><path fill="url(#h)" fill-rule="evenodd" d="M1279 1068.36 892.14 152.54c-6.66-15.6-17.34-35.71-45-35.71-24.7 0-36.47 11.96-43.12 24.82 3.44-9.27 13.84-27.29 43.98-27.29h267c24.6 0 36.41 14.49 41.79 27.75L1548 1068.37z" transform="translate(-95.06 -19.9) scale(.17409)"/></svg>