<svg xmlns="http://www.w3.org/2000/svg" viewBox="2 2 1179.13 368"><path fill="#e85984" d="M3 44 67 2v297l-25 17a1122 1122 0 0 0-39 24V44Z"/><g fill="#e51050"><path d="M67 2h284c10 0 19 8 20 18l1 53v204l-1 22H67V2m130 62-17 55-33 107-2 9h31l12-41 1-4h59l14 45h32l-20-63-35-108h-42Z"/><path d="m218 86 4 15 18 64h-44l22-79Z"/></g><path fill="#231f20" d="m2 58 1-14v297l-1-9V58Zm895 45c9-7 21-10 32-10 13 0 26 5 36 13l-11 12c-7-4-14-8-22-8-9-1-19 2-24 10-4 5-6 12-6 18v35c0 7 3 14 7 19 5 6 13 8 21 7 9 0 17-3 25-8l9 13c-9 7-20 11-32 12-13 1-27-2-37-11-10-8-14-20-14-32v-34c0-13 5-28 16-36Zm-365-7h27c2-1 3 0 3 2l24 75c4 13 10 27 13 41h-22l-9-31h-42l-8 31h-22l36-118m14 16-15 54h31l-4-14-9-34-3-6Zm461-16h29l10 30 27 84 1 4h-22l-9-31h-42l-8 31h-22l31-100 5-18m14 16-15 54h31l-4-14-9-33c-1-2-1-5-3-7Zm74-16h39c12-1 25 3 35 11 8 9 13 21 12 33v26c1 13-5 27-14 36a56 56 0 0 1-39 12h-33V96m21 16v85h16c10 0 20-5 25-14 4-9 3-19 3-29s1-20-3-29c-4-8-13-13-22-13h-19Zm-392-10h19v22h20v16h-20v50c0 4 2 7 5 9 5 2 10 0 15 0l2 15c-10 3-21 4-31-1-7-3-11-10-12-17v-56h-14v-16h15l1-22Zm87 20c10-1 20-1 29 4 10 4 17 12 20 22 3 9 2 19 2 28 0 11-4 22-12 29-7 7-16 11-26 11-6 0-13 1-19-1-8-3-16-7-20-15-4-5-6-12-7-18l-1-17c0-10 3-21 9-30 6-8 16-12 25-13m1 16c-5 2-10 7-12 12-3 8-1 16-2 24 0 8 3 18 10 23 5 4 12 4 18 2 6-1 11-6 13-12 3-8 2-16 2-24s-2-16-8-21-14-5-21-4Zm-198-14h21v65c0 5 3 10 8 11 7 1 14-1 19-5 2-2 6-4 6-8v-63h21v90h-18l-1-9-10 7c-10 5-23 6-33 1-8-5-14-14-13-24v-65Z"/><path fill="#fff" d="M197 64h42l35 108 20 63h-32l-14-45h-59l-1 4-12 41h-31l2-9 33-107 17-55m21 22-22 79h44l-18-64-4-15Z"/><path fill="#770829" d="M372 73h25v297H67c-7 0-14-1-19-5-4-4-7-9-6-14v-35l25-17h304l1-22V73Z"/></svg>