<svg xmlns="http://www.w3.org/2000/svg" width="1200" height="800" viewBox="-32.3 -22.7 280.1 136.1"><g fill="none" fill-rule="evenodd"><path fill="#FEFEFE" d="m73.8 18.5-28.6-17c-3.4-2-7.6-2-11 0l-28.7 17c-3.4 2-5.5 5.8-5.5 9.9v34c0 4 2.1 7.8 5.5 9.8l28.7 17a10.8 10.8 0 0 0 11 0l28.6-17c3.5-2 5.6-5.8 5.6-9.8v-34c0-4.1-2.1-7.9-5.6-9.9z"/><path fill="#3E474A" d="m35.2 87.4-28.7-17a9.4 9.4 0 0 1-4.5-8v-34c0-3.4 1.7-6.5 4.5-8.1l28.7-17a8.9 8.9 0 0 1 9 0l28.6 17a9 9 0 0 1 4.4 6.5c-.9-2-3-2.6-5.5-1.1L44.6 42.4c-3.4 2-5.9 4.2-6 8.3V84c0 2.4 1 4 2.6 4.4l-1.5.2c-1.6 0-3.2-.4-4.5-1.3m38.6-68.9-28.6-17a10.8 10.8 0 0 0-11 0l-28.7 17c-3.4 2-5.5 5.8-5.5 9.9v34c0 4 2.1 7.8 5.5 9.8l28.7 17a10.8 10.8 0 0 0 11 0l28.6-17c3.5-2 5.6-5.8 5.6-9.8v-34c0-4.1-2.1-7.9-5.6-9.9"/><path fill="#47B353" d="m66.3 65.6-7 4.3c-.3.1-.4.2-.4.5v1.8c0 .3.1.4.3.2l7.3-4.4c.2 0 .2-.3.2-.5v-1.6c0-.3-.2-.4-.4-.3"/><path fill="#FEFEFE" d="M51.2 50c.2-.2.4 0 .4.3v2.4c1-.4 2-.5 2.7-.3.2 0 .3.3.2.6l-.5 2.2-.3.4-.1.1h-.2c-.4 0-1.3-.2-2.7.5-1.4.7-2 2-2 2.9.1 1.1.7 1.5 2.7 1.5 2.6 0 3.7 1.2 3.8 3.9 0 2.6-1.4 5.4-3.5 7.1v2.5c0 .2-.2.6-.4.7l-1.5.8c-.2.1-.4 0-.4-.3V73c-1.2.5-2.5.6-3.3.3l-.2-.5.6-2.2.2-.5a.5.5 0 0 1 .2 0l.2-.1c.9.3 2 .2 3-.4a4 4 0 0 0 2.3-3.4c0-1.3-.7-1.8-2.3-1.8-2.1 0-4-.4-4.1-3.4a9 9 0 0 1 3.4-6.9v-2.4c0-.3.1-.7.4-.8z"/><path fill="#3E474A" d="M98.5 48h6.3a6.4 6.4 0 0 1 4.4 1.3 4.6 4.6 0 0 1 1.6 3.9 4.6 4.6 0 0 1-1.7 3.7 8 8 0 0 1-4.4 1.5h-6.2zm10.9-9.4c-.4.6-.8 1-1.3 1.4l-2 1c-.7.1-1.4.3-2.2.3h-5.4v-9h5.3c.8 0 1.6.2 2.4.4a6 6 0 0 1 2 .8c.5.3.9.8 1.2 1.3.3.5.4 1.2.4 2 0 .7-.1 1.3-.4 1.8zm7 8a10.5 10.5 0 0 0-3-2.4c.9-.5 1.6-1.1 2.2-1.8a8.8 8.8 0 0 0 2-5.6 9.8 9.8 0 0 0-4.4-8.6c-1.4-.8-2.9-1.5-4.6-2-1.6-.3-3.3-.5-5-.6H92.2c-.8 0-1.5.7-1.5 1.4v36.7c0 .7.7 1.4 1.5 1.4h12.3c1.8 0 3.5-.3 5.2-.8a18 18 0 0 0 4.6-2.3 10.5 10.5 0 0 0 4.4-8.9 10.2 10.2 0 0 0-2.3-6.4zm23.5 2.2h-6.3l3.2-9.9zm.3-22.2c-.2-.6-.7-1-1.4-1h-4c-.7 0-1.3.4-1.5 1L121 63.3c-.1.4 0 .8.2 1.2.3.3.7.6 1.2.6h4.9c.6 0 1.2-.4 1.4-1l2.7-8.5h10.8l2.7 8.5c.2.6.8 1 1.4 1h4.9c.4 0 .9-.3 1.1-.6.3-.4.4-.8.2-1.2zM182 48.1l-2.3-2.3a19.3 19.3 0 0 0-5.7-3 50 50 0 0 0-5.7-1.9c-.9-.3-1.7-.6-2.5-1.1-.6-.4-1.2-.9-1.6-1.5-.4-.5-.6-1.1-.6-1.9 0-.7.1-1.3.4-1.9l1.3-1.4a6 6 0 0 1 2-.9c1.6-.5 3.5-.4 4.9.1a5.7 5.7 0 0 1 3.2 3c.3.7.6 1.5.7 2.4 0 .7.7 1.2 1.4 1.2h5c.4 0 .8-.1 1-.4.4-.2.5-.6.5-1a11 11 0 0 0-1.3-5.1c-.8-1.5-1.9-2.8-3.2-4A17 17 0 0 0 160 28c-1.4 1-2.5 2.2-3.3 3.6a9.3 9.3 0 0 0-1.3 5 9 9 0 0 0 1.3 4.7c.8 1.3 1.9 2.5 3.2 3.4 1.2 1 2.6 1.8 4.1 2.4a47 47 0 0 0 7.2 2.5c.9.3 1.7.7 2.5 1.2.7.4 1.2 1 1.6 1.5.4.6.6 1.3.6 2.1s-.2 1.4-.5 2a4 4 0 0 1-1.3 1.3c-.6.4-1.3.7-2 .9-1.9.4-3.8.3-5.4-.2-.8-.2-1.6-.6-2.2-1a6.1 6.1 0 0 1-1.5-2c-.5-.6-.7-1.5-.9-2.5 0-.7-.7-1.2-1.4-1.2h-5c-.4 0-.8.2-1 .4-.3.3-.5.7-.5 1 .1 2 .6 3.8 1.5 5.4a13 13 0 0 0 3.6 3.8c1.4 1 3 1.9 4.8 2.4a18.7 18.7 0 0 0 15-1.8 13 13 0 0 0 3.5-3.5 9.3 9.3 0 0 0 1.3-5A10 10 0 0 0 182 48m32-22.5h-4.5c-.8 0-1.5.7-1.5 1.4v14.4h-13V27c0-.7-.7-1.4-1.5-1.4H189c-.8 0-1.4.7-1.4 1.4v36.7c0 .7.6 1.4 1.4 1.4h4.6c.8 0 1.5-.7 1.5-1.4V48H208v15.6c0 .7.7 1.4 1.5 1.4h4.6c.8 0 1.4-.7 1.4-1.4V27c0-.7-.6-1.4-1.4-1.4M93.4 76.1h-1v-4.7h-1.7v-.7h4.4v.7h-1.7zm6.2-2.4h-2V76h-.8v-5.4h.9v2.2h2v-2.2h.8V76h-.9zm4 1.7h2.7v.7h-3.7v-5.4h3.7v.7h-2.7v1.5h2.3v.8h-2.3zm11.4-1.8v1.8h1l.4-.1.4-.2a.8.8 0 0 0 .2-.6v-.4a.8.8 0 0 0-.2-.2l-.3-.2h-.4zm0-.6h1l.3-.1c.1 0 .2 0 .3-.2a.7.7 0 0 0 .2-.2l.1-.3v-.4a.6.6 0 0 0-.3-.2l-.3-.1a2 2 0 0 0-.4-.1h-.9zm-1 3.1v-5.4h2.7l.6.3.4.5.2.6c0 .3-.1.5-.3.7a1 1 0 0 1-.6.5l.4.1.3.3a1.3 1.3 0 0 1 .3.8c0 .3 0 .5-.2.7 0 .2-.2.4-.4.5l-.6.3a3 3 0 0 1-.8.1zm8.7-3a3.5 3.5 0 0 0 0-.7l-.2-.5-.4-.4a1 1 0 0 0-.5-.1l-.5.1a1 1 0 0 0-.4.4l-.1.5v1.9c0 .2 0 .4.2.6l.3.4.5.1.5-.1.4-.4.2-.6v-.6zm1 .6c0 .4 0 .7-.2 1l-.3.7a1.9 1.9 0 0 1-1.6.8l-.9-.2a1.9 1.9 0 0 1-.6-.6l-.4-.7-.1-1V73a3.3 3.3 0 0 1 .2-1.2l.3-.5a1.8 1.8 0 0 1 .9-.6l.6-.1c.4 0 .7 0 1 .2l.6.5c.1.3.3.5.3.8l.2 1zm5.6-3v3.6c0 .3 0 .5-.2.8 0 .2-.2.4-.4.6l-.6.3-.7.2c-.3 0-.6 0-.8-.2a1.7 1.7 0 0 1-1-1 2 2 0 0 1-.1-.7v-3.6h1v4.1c0 .1 0 .2.2.3l.3.3h.8l.3-.3.2-.3v-4.1zm3 2.6h.8l.4-.1.4-.2a.8.8 0 0 0 .2-.3V72a.8.8 0 0 0-.2-.3l-.3-.1-.5-.1h-.9zm.9.7h-1v2h-.9v-5.3h2.6l.7.4.4.5.1.7v.5a1.4 1.4 0 0 1-.6.7 2 2 0 0 1-.4.3l1.2 2.3h-1zm4.7-1.6V76h-1v-5.4h1l1.9 3.7v-3.7h1V76h-1zm5.9 3h2.7v.7h-3.7v-5.4h3.7v.7h-2.7v1.5h2.3v.8h-2.3zm8.3-2h-3.2v.7h3.2zm3.4.7h1.3l-.7-2.2zm1.5.7h-1.8l-.3 1.3h-1l1.8-5.4h.9l1.8 5.4h-1zm6.8.6a2.3 2.3 0 0 1-.8.5 2.8 2.8 0 0 1-1 .3 2 2 0 0 1-1.6-.7l-.5-.8-.1-1v-.6l.1-1 .4-.8a1.9 1.9 0 0 1 1.6-.7l.7.1c.3 0 .5.2.6.3l.4.6.2.7h-.9l-.1-.4a.8.8 0 0 0-.5-.5h-.4a1 1 0 0 0-.5 0l-.4.4-.2.6v2l.2.5.4.4.5.1a2.4 2.4 0 0 0 .6 0l.2-.1.2-.2v-1h-1v-.8h2zm3.2-1.3h1.3l-.7-2.2zm1.5.7h-1.8l-.4 1.3h-1l2-5.4h.7l2 5.3h-1zm6.5-3.4h-1.2v4h1.2v.7h-3.4v-.7h1.2v-4h-1.2v-.7h3.4zm3.1 1V76h-1v-5.4h1l1.9 3.7v-3.7h1V76h-1zm13.6 2.3-.1-.3-.2-.3-.4-.2a5 5 0 0 0-.5-.2 5.4 5.4 0 0 1-.6-.2c-.3 0-.5-.2-.6-.3l-.4-.5c-.2-.2-.2-.4-.2-.6 0-.2 0-.4.2-.6 0-.2.2-.4.4-.5l.6-.3a2.6 2.6 0 0 1 1.5 0c.2 0 .5.2.6.4l.5.5.1.6h-1V72a.9.9 0 0 0-.2-.3l-.3-.2h-.9l-.3.1a.7.7 0 0 0-.2.3v.6l.3.3.4.1.4.2.7.2.6.4.4.5.1.6-.1.6-.5.5a2 2 0 0 1-.6.3 3 3 0 0 1-1.8-.1 2.2 2.2 0 0 1-.4-.3 1.8 1.8 0 0 1-.3-.3 1.5 1.5 0 0 1-.4-1h1v.5l.3.3.4.2a1.7 1.7 0 0 0 .9 0l.3-.1a.7.7 0 0 0 .2-.3v-.3m5.6-1h-2V76h-.8v-5.4h.9v2.2h2v-2.2h.9V76h-1zm4 1.7h2.7v.7h-3.7v-5.4h3.7v.7h-2.7V73h2.3v.8h-2.3zm8.5.7H206v-5.4h1v4.7h2.7zm5.7 0h-3.6v-5.4h1v4.7h2.6z"/></g></svg>