<svg xmlns="http://www.w3.org/2000/svg" height="800" width="1200" viewBox="-6.505605 -9.543 56.38191 57.258"><g fill="#26326f"><path d="M20.0775 5.3404c-2.0024.1478-3.9557.3707-5.7605.9637-1.953.5687-3.7084 1.607-5.5129 2.5467C11.4246 5.4882 14.8116 2.3484 18.2977 0c.6671 1.7064 1.2608 3.5355 1.7798 5.3404"/><path d="M20.3002 6.1805c.6424 1.9287 1.3596 3.808 1.9032 5.7605-1.607-.9888-3.4114-1.7797-5.389-2.027-4.3265-.4202-8.4057.4946-11.9906 2.1999 4.1286-2.8674 8.3312-5.5376 13.474-5.9828l2.0024.0494"/><path d="M17.4072 10.7542c-3.8068-.3457-7.4658 1.7064-9.1966 5.0934-2.1759 5.3643.0988 11.0998 2.843 15.55-2.2249-1.9529-4.1782-4.3013-5.7107-6.6995-1.6813-2.5714-2.2006-6.8979-.2226-9.6174 2.8677-3.8813 7.4912-5.4392 12.287-4.3265"/><path d="M8.5072 11.3482c-2.5961 1.3839-4.8948 4.029-5.1668 6.9465-.5193 4.277 1.8291 7.4909 4.4503 10.5562-3.1648-1.8542-7.8867-4.7213-7.788-9.1476-.1234-4.0537 3.9557-6.6498 7.1202-8.0094.4695-.0984.8653-.3708 1.3843-.3457m13.9121 10.6209c.0257.4212.9207.3613.5016.7814l-2.3738-.0028c0-.395.5937-.4667.6428-.8869v-6.8237c-.0247-.247-.1482-.5197-.4198-.6428l-.47-.0494c.0988-.6674 1.0626-.2222 1.4835-.5436.1972-.0745.417-.3796.6396-.2321l-.004 8.4m15.3335-5.1088c.279.3245.3785.8131.3785.8131l-.0039 4.3515c.1235.3207.4424.2502.738.349l.109.0306c.024.1478.0145.3158-.1573.3401h-2.3238c-.0462-.0917-.0483-.2078-.0039-.2667.1584-.0723.3574-.1718.4075-.3429l-.0018-4.307c-.085-.587-.798-.7204-1.2922-.5465-.6248.2713-.9067.422-.9716 1.1116-.0134.8199.0106 2.255-.0018 3.6685.199.2717.4537.3345.7514.3585v.3273h-2.6867l-.004-.2395s.6326-.1894.6326-.5136c0-.3246.0117-4.5893.0117-4.5893-.1235-.2974-.6982-.0745-.5747-.4943.643-.0744 1.2361-.2723 1.8542-.4706l.0339.8414c.816-.6431 2.3188-1.41 3.1047-.4212"/><path d="M24.8737 17.1579c-.4946.1972-.7165.7165-.767 1.186.0505.6431.2474 1.3847.9399 1.607.4946.0994 1.0382.025 1.36-.4202.2963-.4943.2208-1.0633.074-1.607-.224-.618-.9394-1.0382-1.6069-.7658m3.9786-.767c.1239.2967-.1714.569-.3707.8164-.2473.2713-.5677.024-.8883.074.2219.544.618 1.4584.1234 2.0765-.6925 1.0382-1.9282 1.2855-3.1404 1.3106-.2473.1979-.2956.5436-.1718.816 1.3575.7909 3.4107-.4453 4.2764 1.3095.1975.618-.0755 1.1627-.4946 1.6069-1.0142 1.1126-2.571 1.3105-4.029 1.0632-.3959-.1478-.8905-.3707-1.0644-.8403-.222-.618.0995-1.2118.5447-1.5826-.0745.5938.1972 1.385.8904 1.5826.7398.3217 2.002.4696 2.6691-.0991.2956-.2967.543-.7165.346-1.1367-1.0131-1.0883-3.0151-.0494-4.1034-1.1377-.223-.1979-.2964-.569-.0995-.816.1235-.346.6932-.5185.594-.9637-.4705-.2473-1.017-.6336-1.0886-1.2362-.0272-.6025.0716-1.1648.3711-1.6072.618-.6922 1.094-1.0467 2.25-1.2362 1.1377 0 2.3238.5197 3.3856 0"/><path d="M29.793 17.3308c-.2962.3457-.4829.9175-.4074 1.3374 1.4764-.0269 1.8698.0966 2.1382-.2008.1485-.2713.0117-.5986-.0755-.8403-.2706-.6431-1.186-.6671-1.6552-.2963m2.5305-.3902c.4459.5196.7415 1.1617.5937 1.8542 0 0-.0339.2967-.2963.2967-.2629 0-2.0765.0106-3.3165.0067-.0984 1.094.1757 2.2183 1.19 2.7626.4691.2473 1.0628.0988 1.483-.0991.346-.2473.6897-.484.9398-.8894.0589.1358-.0056.4353-.2346.8312-.5959.853-1.4468 1.4428-2.6084 1.1214-.6425-.1982-1.3357-.7168-1.6563-1.36-.593-1.236-.4692-3.0409.3457-4.1041.816-1.0623 2.6462-1.607 3.5599-.4202m-14.8174.5631c-.1728.3457-.356.7821-.2963 1.1673l1.5572-.0112c.6053.0085.7073-.2823.534-.8008-.2776-.9183-1.3497-.9483-1.7949-.3553M15.38 14.648c-.0772.2162.2406 1.6746-.1234 2.306-.3218-.074-.3218-.594-.47-.8903-.5189-.5687-1.1616-.7666-1.953-.6675-.6674 0-1.1373.6424-1.3599 1.1871-.3457 1.384-.4448 3.2382.297 4.45.47.6424 1.088 1.211 1.9534 1.0622.9144.0254 1.7053-.5677 2.2-1.3596-.2474-1.631.1978-3.3377 1.6566-4.1526.5436-.2974 1.3843-.4212 1.953-.1235.89.4943 1.3102 1.384 1.1867 2.3728 0 0-.0656.2653-.3591.2653-.2939 0-3.1542-.0028-3.1542-.0028-.205.1884-.0625 1.2361.0765 1.6408.2473.4452.5934 1.0139 1.1123 1.187.6435.1726 1.2863 0 1.7308-.42.3961-.2823.5133-.423.7172-.767.1696.4702-.3955 1.0139-.7172 1.3596-.519.4706-1.0873.8657-1.8292.792-.9394-.025-1.7304-.7666-2.2003-1.5575-.9641 1.1617-2.2496 1.9776-3.8075 1.6069-1.2608-.3218-2.0024-1.6814-2.2497-2.843-.1234-1.409-.1481-2.9176.7172-3.9808.4946-.742 1.6006-1.4062 2.1259-1.4835.525-.0772 2.0175.0646 2.497.0184"/><path d="M13.0562 27.4179c2.2747 1.1366 5.5379.7659 7.6147-.5197l2.0764-1.7307-2.0764 6.3535-.297.2234c-4.4002.3707-8.5292-1.2122-10.8035-5.0934-1.2115-1.8292-1.5325-4.0298-1.607-6.3536.2964 2.9175 2.2995 5.9334 5.0928 7.1205"/><path d="M20.2503 32.4609c-.6671 1.8792-1.063 3.8812-1.8542 5.7111-3.8813-2.5717-6.947-6.4777-8.7764-10.5071 2.4228 3.5849 6.4032 5.0182 10.6306 4.796m19.9572-15.1301c-.2964.3457-.4809.9175-.4085 1.3374 1.4774-.0269 1.8707.0966 2.1392-.2008.1489-.2713.0134-.5986-.0744-.8403-.2713-.6431-1.1871-.6671-1.6563-.2963m2.5322-.3902c.4431.5196.7416 1.1617.592 1.8542 0 0-.0339.2967-.2964.2967-.2628 0-2.0775.0106-3.3164.0067-.0984 1.094.1774 2.2183 1.1899 2.7626.471.2473 1.063.0988 1.483-.0991.348-.2473.6898-.484.9399-.8894.0589.1358-.0071.4353-.2346.8312-.597.853-1.4468 1.4428-2.6085 1.1214-.643-.1982-1.3338-.7168-1.6563-1.36-.594-1.236-.4702-3.0409.3458-4.1041.816-1.0623 2.6451-1.607 3.5616-.4202"/></g></svg>