<svg xmlns="http://www.w3.org/2000/svg" height="800" width="1200" viewBox="-121.8 -31.5 1055.6 189"><path d="M63.9 66.6l-10 10c.7 1.2 1.3 2.5 1.7 3.9h-7.5C46.8 78.4 44.6 77 42 77c-3.9 0-7 3.1-7 7s3.1 7 7 7c2.6 0 4.8-1.4 6.1-3.5h7.5c-1.6 6-7 10.5-13.5 10.5-2.9 0-5.6-.9-7.8-2.4l-5 5c3.5 2.7 8 4.4 12.8 4.4 2.3 0 4.5-.4 6.6-1.1l5.4 5.4c-3.6 1.7-7.7 2.7-12 2.7-8.9 0-16.8-4.1-21.9-10.6l10-10C28.8 89.3 28 86.7 28 84c0-7.7 6.3-14 14-14 2.9 0 5.6.9 7.8 2.4l5-5c-3.5-2.7-8-4.4-12.8-4.4-2.3 0-4.5.4-6.6 1.1L30 58.7C33.7 57 37.7 56 42 56c8.9 0 16.8 4.1 21.9 10.6zM53.7 43.7V7h7V0h-14v49.3C63.8 51.6 77 66.3 77 84c0 8.7-3.2 16.6-8.4 22.8l-5-5c4-4.8 6.4-11 6.4-17.8 0-4.3-1-8.3-2.7-12l-5.4 5.4c.7 2.1 1.1 4.3 1.1 6.6 0 6.9-3.4 13.1-8.6 16.9l10 10C58.3 116 50.5 119 42 119c-19.3 0-35-15.7-35-35 0-8.7 3.2-16.6 8.4-22.8l5 5C16.4 71 14 77.2 14 84c0 4.3 1 8.3 2.7 12l5.4-5.4c-.7-2.1-1.1-4.3-1.1-6.6 0-6.9 3.4-13.1 8.6-16.9l-10-10c4.9-4.1 11-6.9 17.7-7.8V0h-14v7h7v36.7C12.8 48.7 0 64.9 0 84c0 23.2 18.8 42 42 42s42-18.8 42-42c0-19.1-12.8-35.3-30.3-40.3zm112.2-25.4c-.4 0-.8-.1-1.2-.1-29.5 0-47.8 20.4-47.8 45.5s18.3 45.5 47.8 45.5c.4 0 .8 0 1.2-.1 9.4-.2 18.2-2.7 25.7-6.7V89.7c-7 4.7-15.9 7.6-25.7 7.8-.4 0-.8.1-1.2.1-21.8 0-33.8-15.1-33.8-33.8 0-18.7 12-33.8 33.8-33.8.4 0 .8 0 1.2.1 9.8.2 18.7 3.1 25.7 7.8V25c-7.6-4.1-16.3-6.6-25.7-6.7zm76.8 16.2c-9.1 0-16.9 3.4-22.2 9.2V19.4h-14V108h14V66c0-11.5 7.2-19.8 18.7-19.8s16.3 7.2 16.3 18.7V108h14V63.7c0-19.8-11.7-29.2-26.8-29.2zm113.1 37.4c0 1.2-.1 2.3-.2 3.5h-58c1.4 15.9 12.9 22.2 29 22.2 10.9 0 20.3-2.9 24.5-6.9v12.2c-5.2 3.9-14.2 6.4-24.5 6.4-27.2 0-43.2-12.4-43.2-37.3 0-20.6 13-37.3 37.3-37.3 21.9-.2 35.1 13.4 35.1 37.2zm-14.6-8.2c-2-11.8-8.7-17.5-20.4-17.5-13.3 0-20.2 7.3-22.5 17.5zm115-29.2c-11.2 0-20.5 5.1-25.4 13.6-4.5-9.1-13.3-13.6-23.6-13.6-9.1 0-16.9 3.4-22.2 9.2v-8h-14V108h14V66c0-11.5 7.2-19.8 18.7-19.8S420 53.4 420 64.9V108h14V66c0-11.5 7.2-19.8 18.7-19.8S469 53.4 469 64.9V108h14V63.7c0-19.8-11.7-29.2-26.8-29.2zm194.5 1.2l-27.1 36.2 27.1 36.2h-15.2L616 82l-19.5 26h-27.4l-11.4-25.7h-42.8L503.4 108H490l39.4-88.7h13.8l39 87.7 26.4-35.2-27.1-36.2h15.2L616 61.8l19.5-26.1zm-98.2 35l-16.2-36.5L520 70.7zm181.3 1.2c0 20.6-17.2 37.3-38.5 37.3s-38.5-16.7-38.5-37.3c0-20.6 17.2-37.3 38.5-37.3 21.3-.1 38.5 16.6 38.5 37.3zm-14 0c0-14.2-11-25.7-24.5-25.7s-24.5 11.5-24.5 25.7 11 25.7 24.5 25.7c13.6-.1 24.5-11.6 24.5-25.7zM812 108V63.7c0-19.8-11.7-29.2-26.8-29.2-9.1 0-16.9 3.4-22.2 9.2v-8h-14V108h14V66c0-11.5 7.2-19.8 18.7-19.8S798 53.4 798 64.9V108z" fill="#FFA000"/></svg>