<svg xmlns="http://www.w3.org/2000/svg" height="800" width="1200" viewBox="-50.5338 -28.2165 437.9596 169.299"><path d="M336.892 112.866H0V0h336.892z" fill="#4d2587"/><path d="M28.792 65.097c-16.228 0-20.888-14.732-20.888-28.463 0-13.9 4.66-28.714 21.06-28.714 7.82 0 13.728 3.578 16.809 10.823 1.495 3.575 1.91 6.821 2.164 10.647l-11.07.835c-.33-4.992-1.17-12.402-7.825-12.402-8.486 0-8.239 13.981-8.239 19.643 0 5.824-.166 17.725 8.239 17.725 5.824 0 7.24-6.409 7.826-11.066l11.32.663c-.92 11.317-7.33 20.31-19.396 20.31m125.92 34.392h-4.77l2.382-5.928zm-8.33 4.42h1.804l1.213-3.012h5.856l1.222 3.012h1.866l-5.05-11.966h-1.805zm14.905-79.678c0 6.074-3.831 6.906-8.908 6.906h-3.91V17.742h4.827c4.663 0 7.991 1.33 7.991 6.49m13.904 24.72c0-3.832-1.173-7.33-3.744-10.153-1.836-1.918-3.162-2.58-5.668-3.416 2.161-.829 3.832-1.664 5.327-3.497 1.91-2.412 2.58-5.411 2.58-8.49 0-4.325-1.505-9.652-5.327-12.232-3.835-2.58-8.323-2.412-12.733-2.412h-18.892v55.51h18.892c4.66 0 9.49.25 13.48-2.58 4.083-2.828 6.085-7.904 6.085-12.73m-12.412-1.586c0 5.58-3.159 7.325-8.317 7.325h-5.993V40.128h5.993c5.158 0 8.317 1.667 8.317 7.238m92.053 17.731c-10.491 0-16.474-5.248-19.22-15.232l10.653-2.997c1.254 4.826 3.494 8.323 8.905 8.323 3.67 0 7.075-1.995 7.075-5.99 0-4.328-4.25-5.745-7.657-6.993-4.248-1.583-8.073-2.662-11.576-5.662-3.569-3.078-5.148-6.987-5.148-11.648 0-10.488 7.49-16.978 17.725-16.978 4.492 0 8.817 1.08 12.39 3.91 3.262 2.58 4.25 5.16 5.501 8.99l-10.16 3.912c-1.315-3.913-3.327-6.91-7.819-6.91-3.077 0-5.83 1.915-5.83 5.162 0 9.155 24.885 5.411 24.885 24.47 0 11.481-8.905 17.643-19.724 17.643M127.764 91.944h2.83l3.748 9.945 3.692-9.945h2.82v11.966h-1.706V93.562h-.039l-3.958 10.348h-1.68l-3.96-10.348h-.03v10.348h-1.716V91.944zm72.41-83.194h12.148v55.51h-12.148zm-92.222 46.857c-2.662 6.991-9.987 9.49-16.978 9.49-3.825 0-8.404-.666-11.736-2.58-7.49-4.329-7.322-14.4-7.322-21.973V8.752h12.149v31.792c0 6.08-.582 14.647 7.904 14.647 8.489 0 7.413-8.654 7.413-14.647V8.752h10.234v31.213c0 5.155.255 10.732-1.664 15.642m209.634-36.452v45.11h-12.158v-45.11H294.37V8.752h34.616v10.403zM200.69 98.958c0 3.36-1.693 5.158-4.647 5.158-2.941 0-4.631-1.798-4.631-5.158v-7.014h1.709v6.79c0 2.297.715 3.877 2.922 3.877 2.22 0 2.944-1.58 2.944-3.877v-6.79h1.703zM69.517 93.455h1.46c1.059 0 2.642.55 2.642 2.057 0 1.577-1.336 2.106-2.402 2.106h-1.7zm-1.71 10.455h1.71v-4.777h1.684c2.158 0 4.234-.943 4.234-3.604 0-2.724-2.044-3.585-4.491-3.585h-3.136zm13.495-11.966h1.72v5.008h5.722v-5.008h1.716v11.966h-1.716v-5.45h-5.723v5.45h-1.72zm23.071 7.546h-4.767l2.382-5.928zm-8.33 4.42h1.798l1.215-3.012h5.867l1.215 3.012h1.869l-5.06-11.966h-1.804zm82.135-11.966h6.701v1.511h-4.985v3.497h4.533v1.508h-4.533v3.942h4.985v1.508h-6.701zm42.665 0h1.7v11.966h-1.7zm-10.916 1.511h-3.721v-1.511h9.158v1.511h-3.721v10.455h-1.716zm27.693.469a4.726 4.726 0 00-2.463-.67c-2.753 0-4.599 1.986-4.599 4.674 0 2.811 2.022 4.683 4.511 4.683.861 0 2.012-.224 2.607-.585l.106 1.667c-.91.374-2.03.423-2.733.423-3.776 0-6.302-2.435-6.302-6.237 0-3.682 2.678-6.14 6.322-6.14.926 0 1.836.137 2.694.52l-.143 1.665zm22.12-1.98h1.712v10.458h4.995v1.508h-6.708zm17.797 1.801c-.878-.344-1.362-.49-2.252-.49-.953 0-2.097.34-2.097 1.589 0 2.3 5.148 1.77 5.148 5.71 0 2.554-1.972 3.562-4.368 3.562-.845 0-1.657-.24-2.447-.498l.172-1.592c.572.24 1.602.585 2.473.585.988 0 2.35-.552 2.35-1.96 0-2.674-5.129-1.933-5.129-5.645 0-2.129 1.668-3.266 3.832-3.266.79 0 1.723.136 2.561.432l-.244 1.573zm-162.409-.29h1.647c1.58 0 2.402.686 2.402 1.765 0 1.15-.965 1.869-2.59 1.869h-1.46zm-1.716 10.455h1.716v-5.313h1.03c.91 0 1.472 0 2.005 1.163l1.836 4.15h1.954l-2.269-4.76c-.37-.739-.63-.995-1.157-1.2v-.036c1.388-.24 2.464-1.264 2.464-2.724 0-2.863-2.282-3.246-4.648-3.246h-2.931v11.966zm137.208-4.42h-4.768l2.386-5.928zm-8.327 4.42h1.794l1.229-3.012h5.866l1.206 3.012h1.869l-5.054-11.966h-1.804zm-70.183-9.986a4.784 4.784 0 00-2.474-.67c-2.766 0-4.599 1.986-4.599 4.674 0 2.811 2.022 4.683 4.511 4.683.862 0 2-.224 2.604-.585l.101 1.667c-.9.374-2.022.423-2.727.423-3.786 0-6.298-2.435-6.298-6.237 0-3.682 2.665-6.14 6.321-6.14.926 0 1.836.137 2.69.52l-.13 1.665z" fill="#fff"/></svg>