<svg xmlns="http://www.w3.org/2000/svg" viewBox="0 0 726 198"><g fill="#7289DA"><path d="M106 83c-6 0-10 5-10 11s4 11 10 11 10-5 10-11-4-11-10-11zm-37 0c-5 0-10 5-10 11s5 11 10 11c6 0 11-5 11-11s-5-11-11-11z"/><path d="M155 0H21C9 0 0 9 0 21v134c0 11 9 20 21 20h113l-5-18 12 11 13 12 21 18V21c0-12-9-21-20-21zm-39 130-7-8c13-4 18-12 18-12l-11 6a72 72 0 0 1-62-4h-1l-1-1-3-1s5 8 18 11l-7 9c-22-1-30-16-30-16 0-31 14-57 14-57 15-11 28-11 28-11l1 2c-18 5-26 13-26 13l6-3c11-5 19-6 23-7h1a85 85 0 0 1 51 9s-8-7-25-12l1-2s14 0 28 11c0 0 14 26 14 57 0 0-8 15-30 15zm151-87h-33v37l22 20V64h12c7 0 11 3 11 9v28c0 6-4 10-11 10h-34v21h33c18 0 34-9 34-29V73c0-21-16-30-34-30zm174 60V72c0-11 20-14 26-3l18-7c-7-16-20-20-31-20-18 0-36 10-36 30v31c0 20 18 30 35 30 12 0 25-6 32-20l-19-9c-5 12-25 9-25-1zm-61-27c-7-1-11-4-11-8 0-11 16-11 25-1l15-11c-9-11-20-14-30-14-17 0-33 9-33 26s13 26 28 28c7 1 15 4 15 9-1 10-20 9-29-2l-14 14c8 10 19 16 30 16 16 0 34-10 35-27 1-21-15-27-31-30zm-67 56h23V43h-23zm378-89h-33v37l22 20V64h12c7 0 11 3 11 9v28c0 6-3 10-11 10h-34v21h33c18 0 35-9 35-29V73c0-21-17-30-35-30zm-163-1c-18 0-37 10-37 30v30c0 21 19 31 37 31 19 0 37-10 37-31V72c0-20-18-30-37-30zm15 60c0 7-8 10-15 10s-14-3-14-10V72c0-6 7-10 14-10s15 3 15 10zm102-30c0-21-14-29-33-29h-35v89h23v-29h4l20 29h28l-24-31c11-3 18-13 18-29zm-32 12h-13V64h13c14 0 14 20 0 20z"/></g></svg>