<svg xmlns="http://www.w3.org/2000/svg" width="1200" height="800" viewBox="-37.2 -21.6 322.4 129.6"><g fill-rule="evenodd"><path d="M14 42c0 8 6 13 15 11V31c-10-3-15 3-15 11M29 0h14v63c-13 2-25 3-34-2-11-6-12-26-3-35 4-4 13-8 23-5V0m35 14H51V0h13zm159 40c14 5 16-26 1-23-9 2-9 20-1 23m0-34c11-1 20 4 23 11 5 13 0 28-10 32-4 2-9 2-14 2-13-1-22-15-17-31l2-5c3-5 8-8 16-9M82 49c-3 6 6 7 12 6v-9c-5 0-10 0-12 3m23 14c-10 1-27 4-33-3-3-4-3-12 0-16 4-5 13-7 21-7 1-2 0-5-1-6-7-2-14 1-19 3V24c7-4 25-8 31 1 3 4 1 11 1 18zm47 1h-13V47c0-6 1-13-2-15s-8-1-12 0v32h-13V23c14-4 38-7 40 10v31m20-14c2 3 8 5 13 2l-1-21c-11-3-18 10-12 19m33-28-5 9h-3c0 15 3 34-3 44-3 7-9 11-19 11-7 1-12 0-18-2V71c6 4 22 7 26-1l2-7-9 1c-14 0-22-11-19-26 1-6 5-11 9-13 10-6 25-6 39-3"/><path d="M64 21v28c0 12 0 21-5 27l-4 4-5 2c-1 1-5-1-6-2l-6-3c5-3 9-6 11-12 2-5 2-13 2-21V21h13z"/></g></svg>