<svg xmlns="http://www.w3.org/2000/svg" xmlns:xlink="http://www.w3.org/1999/xlink" viewBox="0 -19 610.25 165"><defs><clipPath id="a"><path d="M76 2v46H54v23H36l-1 2c-1 13 1 24 6 34l2 3 4 5 2 4c13 15 33 22 56 22 51 0 94-22 113-73 13 2 26-2 32-13-9-6-21-4-28-1l18-52-72 46h-23V2z"/></clipPath></defs><path fill="none" stroke="#394d54" stroke-linecap="round" stroke-linejoin="round" stroke-width="10.5" d="M468 113V42m26 20-26 26 26 25M321 88a26 26 0 0 0-25-27h-1l-10 2c-18 8-21 33-6 45 14 10 33 6 40-9l2-11V42m124 22c-3-2-8-3-12-3h-2c-12 1-24 10-24 27 0 21 22 32 38 22m75-2 39-34-2-2a26 26 0 1 0-32 39c8 3 18 3 24-1M364 61h-2c-16 1-27 17-24 32 4 15 20 24 34 19 16-4 23-25 14-39-5-7-13-12-22-12zm241 1c-7 0-13 2-18 6-7 6-8 14-8 24v21"/><path fill="#394d54" d="M147 46h23v23h12a50 50 0 0 0 24-6c-4-4-5-10-6-15 0-7 1-16 6-22l2-3 3 3c7 5 13 14 14 23 9-3 19-2 27 2l3 2-2 3c-6 13-20 17-33 16-20 49-63 73-115 73-27 0-52-10-66-34l-2-5c-5-10-7-22-5-33v-4h19V46h23V23h46V0h27v46"/><g clip-path="url(#a)"><g id="d"><g id="c" transform="translate(0 -23)"><path fill="#00acd3" d="M124 4h20v20h-20z"/><path fill="#20c2ef" d="M124 27h20v19h-20z"/><path id="b" stroke="#394d54" stroke-width="1.6" d="M126 22V5m3 17V5m3 17V5m3 17V5m3 17V5m3 17V5"/><use xlink:href="#b" width="100%" height="100%" transform="translate(0 23)"/></g><use xlink:href="#c" width="100%" height="100%" transform="matrix(1 0 0 -1 23 5)"/></g><use xlink:href="#d" width="100%" height="100%" transform="translate(-91 46)"/><use xlink:href="#d" width="100%" height="100%" transform="translate(-46 46)"/><use xlink:href="#d" width="100%" height="100%" transform="translate(0 46)"/></g><path fill="#17b5eb" d="M222 54c1-12-8-21-13-25-7 7-8 26 2 34-5 5-17 10-29 10H34v73h217l-1-91c-9-6-21-4-28-1" clip-path="url(#a)"/><path fill-opacity=".2" d="M34 89v57h217V89" clip-path="url(#a)"/><path fill="#d4edf1" d="M111 141c-13-7-21-15-25-25l-41 2 21 28 45-5" clip-path="url(#a)"/><path fill-opacity=".1" d="M223 54c-21 27-51 50-83 63-29 11-54 11-71 2l-6-3c-12-9-20-24-19-43H34v73h217V50h-25z" clip-path="url(#a)"/><path fill="none" stroke="#394d54" stroke-linecap="round" stroke-width="3.4" d="M46 117c14 1 29 1 42-3"/><path fill="#d4edf1" d="M102 107a5 5 0 1 1-11 0 5 5 0 0 1 11 0z"/><path fill="#394d54" d="M98 103a2 2 0 0 0 1 3l1-1a4 4 0 1 1-2-2zM0 90h254c-5-1-17-3-15-10-10 11-35 8-41 2-7 10-46 6-49-2-9 10-35 10-44 0-2 8-42 12-49 2-6 6-30 9-40-2 2 7-10 9-16 10"/></svg>