<svg xmlns="http://www.w3.org/2000/svg" viewBox="-0.01 0.7 994.01 993.57"><g transform="translate(-15 -11)"><linearGradient id="a" x1="512" x2="512" y1="11.5" y2="1005.5" gradientUnits="userSpaceOnUse"><stop offset="0" stop-color="#00b2ff"/><stop offset="1" stop-color="#006aff"/></linearGradient><path fill="url(#a)" fill-rule="evenodd" d="M512 12A480 480 0 0 0 15 494c0 145 59 270 156 356 8 8 13 18 13 29l3 88c1 28 30 46 56 35l99-43c8-4 17-5 26-2 45 12 94 19 144 19 280 0 497-205 497-482S792 12 512 12z" clip-rule="evenodd"/><path fill="#fff" fill-rule="evenodd" d="m214 635 146-232c23-37 73-46 107-20l117 87c10 8 25 8 35 0l157-119c21-16 49 9 34 32L665 614a75 75 0 0 1-108 20l-116-87c-11-8-26-8-36 0L248 666c-21 16-48-9-34-31z" clip-rule="evenodd"/></g></svg>