<svg xmlns="http://www.w3.org/2000/svg" height="800" width="1200" viewBox="-29.61315 -75.18775 256.6473 451.1265"><path d="M98.633 292.309c-1.544-.485-1.603-.59-1.3-2.313.356-2.033 8.871-27.987 10.275-31.321l.909-2.159 2.737 8.021c3.017 8.843 6.883 22.043 7.37 25.169l.313 2.004-1.86.328c-3.418.602-16.763.798-18.444.27zm8.25-253.505c-2.34-2.206-2.771-8.91-.842-13.102 1.12-2.437 1.291-2.587 2.77-2.443 2.327.227 3.75 3.28 3.75 8.042 0 3.884-.508 5.715-2.047 7.378-1.256 1.356-2.288 1.392-3.631.125z" fill="#fcfefc"/><path d="M94.085 124.137s.007 3.92.12 8.557H79.227v13.26h14.75c-.793 4.221-3.337 5.593-11.36 5.283-5.346.28-15.527-.304-15.527-.304l.045 14.316s16.514.526 24.434-.492c7.13-.918 13.999-7.197 16.084-18.803h4.83c2.084 11.606 8.952 17.885 16.083 18.803 7.92 1.018 24.434.492 24.434.492l.045-14.316s-10.181.584-15.527.304c-8.023.31-10.567-1.062-11.36-5.283h14.122v-13.26h-14.35c.113-4.636.12-8.557.12-8.557l-13.28.246c-.1.763-.67 3.289-.884 8.31h-3.64c-.213-5.021-.781-7.547-.882-8.31zm-17.704 44.61c-5.118.004-9.246.135-9.246.135l-.045 14.316s10.181-.584 15.527-.303c8.978-.347 11.1 1.407 11.577 6.914H79.227v12.23h14.96c-.1 4.375-.102 7.955-.102 7.955l13.28-.246c.096-.73.621-3.098.854-7.71h3.697c.233 4.612.758 6.98.855 7.71l13.28.246s-.004-3.58-.103-7.955h14.47v-12.23h-14.477c.478-5.507 2.599-7.261 11.577-6.914 5.346-.28 15.527.303 15.527.303L153 168.882s-16.514-.526-24.434.493c-7.458.959-14.626 7.783-16.337 20.434h-4.324c-1.71-12.65-8.878-19.475-16.336-20.434-3.96-.51-10.07-.632-15.188-.628zM106.476.009a49.43 49.43 0 00-3.285.046c-23.78 1.117-43.292 18.96-46.218 42.266a47.719 47.719 0 006.807 30.997c-18.08 8.615-33.2 22.196-45.34 40.772C6.146 133.08 0 155.216 0 180.498c0 36.15 13.23 69.612 35.907 92.378 10.153 9.047 37.47 31.521 87.067 23.808-.624-1.903-.661-1.939-1.163-3.831-54.361 4.775-56.312-19.813-64.985-35.638-13.543-18.508-21.327-36.994-22.192-74.965-1.116-48.993 16.834-76.59 33.305-95.924a43.057 43.057 0 013.418-3.591c7.601 7.342 17.421 12.04 27.972 13.38 15.575 1.943 31.149-3.606 41.87-14.918 8.145 6.425 38.97 25.638 40.69 101.47.638 28.073-10.946 57.608-10.946 57.608l10.703 7.877s14.375-38.737 15.57-59.084c1.02-17.377-1.818-35.156-7.299-51.697-11.111-33.537-42.178-57.678-45.365-60.09a47.898 47.898 0 009.466-22.752l.087-.691c3.12-26.403-15.996-50.321-42.75-53.493a49.578 49.578 0 00-4.879-.336z" fill-rule="evenodd"/><path d="M113.973 32.943a4.866 9.109 0 01-5.44 7.85 4.866 9.109 0 01-4.212-10.155 4.866 9.109 0 015.409-7.924 4.866 9.109 0 014.252 10.099" fill="#fff"/><path d="M111.639 61.445l42.018-23.537 40.511 23.415z" fill="#ecae04" fill-rule="evenodd" stroke="#000" stroke-width=".971"/><path d="M110.207 62.27l43.166 9.723 41.363-9.857z" fill="#ecae04" fill-rule="evenodd" stroke="#000"/><path d="M98.1 1053.184l-50.481-.063-15.54-48.029 40.877-29.62 40.802 29.722zm81.678.102l-50.48-.063-15.54-48.029 40.877-29.62 40.802 29.722z" transform="matrix(.96551 0 0 .97704 -.326 -728.84)" fill="#ecae04" stroke="#000"/></svg>