<svg xmlns="http://www.w3.org/2000/svg" width="1200" height="800" viewBox="-30 -75 257 451"><path fill="#fcfefc" d="M99 292c-2 0-2 0-2-2l11-31 1-2 2 8 8 25v2H99zm8-253c-2-2-3-9-1-13 1-3 1-3 3-3s4 4 4 8l-2 8h-4z"/><path fill-rule="evenodd" d="M94 124v9H79v13h15c-1 4-3 6-11 5H67v14h25c7-1 14-7 16-19h4c3 12 9 18 17 19h24v-14h-15c-9 1-11-1-12-5h14v-13h-14v-9h-13l-1 9h-4l-1-9zm-18 45h-9v14h16c9 0 11 1 11 7H79v12h15v8h13l1-8h4l1 8h13v-8h14v-12h-14c0-6 3-7 12-7h15v-14h-24c-8 1-15 8-17 21h-4c-2-13-9-20-16-21H76zM106 0a49 49 0 0 0-3 0C79 1 60 19 57 42a48 48 0 0 0 7 31c-18 9-33 23-46 41-12 19-18 41-18 66 0 37 13 70 36 93 10 9 37 31 87 24l-1-4c-55 5-57-20-65-36-14-18-22-37-22-75-1-49 16-76 33-96a43 43 0 0 1 3-3 49 49 0 0 0 70-2c8 7 39 26 41 102 1 28-11 57-11 57l11 8s14-39 15-59c1-17-2-35-7-52-11-33-42-57-45-60a48 48 0 0 0 9-22v-1c3-27-16-50-43-54a50 50 0 0 0-5 0z"/><path fill="#fff" d="M114 33a5 9 0 0 1-5 8 5 9 0 0 1-5-10 5 9 0 0 1 6-8 5 9 0 0 1 4 10"/><path fill="#ecae04" fill-rule="evenodd" stroke="#000" d="m112 61 42-23 40 23zm-2 1 43 10 42-10z"/><path fill="#ecae04" stroke="#000" d="M98 1053H48l-16-48 41-30 41 30zm82 0h-51l-15-48 41-29 40 29z" transform="matrix(.96551 0 0 .97704 0 -729)"/></svg>