<svg xmlns="http://www.w3.org/2000/svg" viewBox="0.03 0.01 436.47 170.49"><path d="M57.1 151.8c-7.3-5.7-15-11.2-20.3-19a153.8 153.8 0 0 1-25.7-46C7.6 76.2 6.3 64.6 1.8 54.3c-4.8-7.6.8-15.8 9-18.2 3.7-.7 10.2-4.2 2.4-1.7-7 5.1-7.7-4.7-.5-5.3 4.9-.6 6.7-4.6 5-8.2-5.3-3.5 12.7-7.2 3.7-12.3C12-1.7 34.6-3.7 29 7.9c-1.3 8.9 15.8-1.6 11.8 8.6 4 5 15.1 1.1 14.9 8 5.9.4 7.9 5.4 13.4 5.8 5.7 2.6 16.1 4.6 18 11-5.6 4.6-18.8-9.2-19.4 3.2C69.4 63 69 82 75.7 99.4c3.2 10.6 10.9 19 17.9 27.2 6.6 8.1 15.7 13.8 24.9 18.6 8 3.8 16.8 6.3 25.6 8 3.5-2.8 9.8-13 15.4-8.7.3 4.8-11 10-.5 9.5 6.2-1.8 10.4 4.8 15.5-1.2 4.7 5.6 19.5-3.5 16.2 7.8-4.5 3-11.1 1.2-15.6 5.2-7.5-3.7-13.4 3.3-21.7 2.4-9.1 1.7-18.4 2.3-27.7 2.3-15.2-1.2-30.8-1.7-45.3-7-8.1-2.4-16.1-7-23.3-11.7zm12.9 5.6c8 3.5 15.7 7.1 24.5 8.2 13.8 2 28.1 4.9 42 2.2-6.2-2.9-12.7 1-19-2-7.5 1.6-15.6-.5-23.3-1.5-8.6-3.8-18-6.5-26.2-11.5-10.1-3.7 5.3 4.7 8 5.4 6.4 3.6-7-1.8-8.8-3.3-5.4-3-6-2.4-.6.6l3.4 2zm-15.2-10.7c7.7 2.9 0-5.4-3.6-5-1.5-2.7-6-4.4-2.8-5.8-5.6 1.9-5.9-7.5-8.5-6.1-6-1.9-2.3-8.5-9.4-12.6-.7-4.3-7-8-9-14.5-1-3.3-7.3-12.9-3.4-4 3.3 8.5 9 15.9 14 23.2 3.7 7 8.1 14.2 15 18.5 2.2 2.2 4.5 5.6 7.7 6.3zm-22.2-24.4c.2-1.2 1.4 2.5 0 0zM64 150c1.7-.7-2.5-1 0 0zm4.2 1.6c-.5-2.1-2 1.1 0 0zm5.2 2.2c2.5-2.4-3.8-1.6 0 0zm9 5c1.5-2.3-4.9-.9 0 0zm-17.3-12c4-2.6-5-.1 0 0zm4 1.9c-.1-1.3-1.4.6 0 0zM88.8 161c3.2 2 18.5 4.3 9 .8-1.7.3-17.8-4.6-9-.8zm-31.2-24.4c-.3-1.3-4.9-1.4 0 0zm9.2 5.4c2.4-1.7-5-1.3 0 0zm7.7 4.7c3.4-1.3-5.6-1.3 0 0zm-20.6-14.1c3.7 2.8 15 .3 5.7-1.7-4.3-2.3-13.8-3.8-7.3 1.3l1.6.4zm25.8 15.7c1.5-2.6-6.5-1.5 0 0zm-7.9-6.2c9.1 2.6-7.6-5.7-2.2-1l1.2.6 1 .4zm15.8 9c8.6.2-7.8-1.1 0 0zm-37-23.5c-.4-1.6-2.1.1 0 0zm51.5 31.7c.2-2.8-2.8 2.2 0 0zm-36.9-22.7c-.5-1.5-2.6 0 0 0zm-13.8-10c5-.3-6.8-2.2 0 0zM35 116.1c-.6-2.4-5.4-4.3 0 0zm43 27.3c-.8-1-.4.3 0 0zM105 160c-.1-1.6-1.5.6 0 0zm-29.2-19c.5-2-4.2-.5 0 0zm-20-12.6c3.7-.4-5.9-2.5 0 0zm33.8 21c5.7-2.2-5.6-1 0 0zm-17.6-12c6.6 1-7.8-4.4-1.4-.4l1.4.5zm23 14.2c6-3.7 4 8.6 10.4 1 6.2-4.5-5.4 5.6 2.3.8 5.5-3.7 13.7 1.8 19 3.6 3.6-.2 7.3 3.2 11 1.1 7.4-2-14.3-3-8.6-6.4-6.7 2-11.7-2.4-15-6.7-7.6-1.7-16.3-5.6-20-12.3-1.6-2.5 2.2.4-1.4-3.7-4.5-4-6.8-8.6-9.8-13.6-3.7-1.9-4.1-7.6-4.5-.1 0-4.8-4.4-8-5.5-6.6 0-4.6 4.8-2.3 1.4-5.7-.7-4.7-3-9.6-3.8-14.9-1-2.6-.1-8-3.7-2.3-1.3 6.2-.5-7.5 1.6-3 2.7-4.6-1-4-1.1-3.4 1.7-3.9 1-9.4-.5-7.3 1-4.1 1.5-15.1-1.4-13.2 1.8-4.3 3.3-19.7-4.2-13.8a32 32 0 0 0-10.9 2.3c7.9 4.4-.8 1.6-4 1-.4 4-3.6 2.2-7.5 2.2 6.3.8-3 6.5-6.7 4.3-4.7 2.2 4 7.8 0 9.6.6 2.6-7.1-1-6.5 5-4.6-1.8-.6 7.2 1.6 4.2 7.8 2 5.5 6.9 5.7 11.4-1.3 2.7-6.2-6.2-1.1-5.8-4-6.6-4.5-2.4-7.9.7-.7.2 8.6 4.3 2.8 6.4 5.1.8 5.3 5.3 6.3 8.2 3.1 3.2 2.5-3.6 6.2.3-2.3-3.5-12.4-9.8-4.3-7.8 0-3.5-1.5-6.3 1-6.2 2.5-4.5-2.6 11 3 5.3 1.6-.6 2-4.4 4.7.4 4 4 1.5 6.8-4.2 3.2 1 3.5 7.6 4.7 6.3 10 1.4 4.8 3.2 3 4.8 2.8 1.3 4.6 2 1.2 2-1 5.8 1.3 4.4 4.7 6.2 7 4 1.8-5.6-12 1.2-4.1 7.1 6.4 2.6 9.1-3.8 8 4-.3 5.4 5.6 10.5 5.4 4.6 2.2 7.7 10.6-.2 7.1-2.8-2.5-12.6-5.6-4.6-.8 7.4 3.4 13.3 5.5 20.4 9.8 5.1 3.6 7.3 7.8 9.2 8.6-4.3 2-12.9-1.6-6.5-2.8-4-.7-8.5-2.7-4.6 2.3 3.2 2.7 11.5 2.4 13 2.7-1.3 2.8-3.4 3 0 3.2-3.8 2 1.3 2.4 1.6 3.6zm-8-22.4c-2.3-2.5-3-7-.4-3 1.3.5 4.2 7.5.4 3zm25.8 16.4c1.5-.1 0 1.1 0 0zm-29.5-22.4c0-3.8.8 2.8 0 0zm-2.6-3.5c-3-5.7 3.8 1.6 0 0zm-31-21.4c1.7-.5.8 3 0 0zm24.7 13.4c1-4 1.2 3.3 0 0zM56.8 99.4c-1.2-2.2 2.6 2.1 0 0zm15 4.8c-2.8-6.3 2-3.4.6 1zM46 87c-1.3-2-3.4-8.1-2.7-10 .6 3 6.4 13 2.8 4.1-3.9-7.4 4.7 2.4 5.6 4.3.4 1.8-2.4-.5-.5 3.8-3.5-4.9-2 2.7-5.2-2.2zm-8-5.5c.3-4.8 1.8 3.3 0 0zm3.6 1.2c1.7-3.6 2.9 5 0 0zM32.9 76c-3-3-5.1-5.6.2-1.8 2 0-4.6-6.2.4-2 5.3 1 2.6 8.6-.6 3.8zm4.6 0c1.7-1.8.9 1.6 0 0zm2.8.8c-2.7-4.9 3.1 2 0 0zm-5.6-5.3c-8.7-7.7 10.9 4 1.4 1.4l-1.4-1.4zm24.8 14.4c-3.8-2.2-1-15.8.3-6.5 3.6-1.2-.2 4.8 2.5 4.7-.5 3.8-1.7 5.1-2.8 1.8zm9.1 5.4c.4-4 .8 2.8 0 0zM67 89.7c.5-1.7 0 2.1 0 0zM36.4 69c-5.6-7.7 16.1 7.7 3.6 2-1.4-.4-3-.5-3.6-2zM54 78.3c-.5-6.4 1.2 1.1 0 0zM67.4 87c1-3.6.1 2.5 0 0zM37.2 66c3.3-.7 13.7 5.8 4.2 2-1-1.3-3.3-.7-4.2-2zm28.4 14.2c.4-6.6 2-4 0 1v-1zM39.7 63.8c1.3-2-3.6-9 .7-2.5 1.9 1.4 5.4 2.4 2.3 3 4.8 4.3-1.2 1.2-3-.5zM64.2 78c1-7.5.8 4.4 0 0zM36.9 56.8c1-.4.5 1.4 0 0zm6.4 3.8c1.6-3.4 3 3.9 0 0zm18 10c0-1.3.3 2 0 0zm-1-2.3c-2.5-6.1 2.3 3.3 0 0zm-1.6-4c-.4-2.6 1.5 3.2 0 0zm2.5-4c-1.7-3.1 2.2-13.4 2.6-7-1.8 5-.5 7.7.8 1 2.3-5.2-.5 10.4-3.4 6zm2.6-15.4c.7-1 .2 1.1 0 0zm-4.3 84.5c-1-.9.1.6 0 0zm8.8 4.5c5 1.3 5-.8.5-1.4-2.4-2.2-10-4.6-3.2-.2.5 1 1.9 1 2.7 1.6zM51 122.3c2.7 2 10.2 5.7 3.8.8 2.2-2.5-4-3.8-2-5.5-5.2-3.2-4.1-3-.4-2.8-6.4-2.9.9-2.6.5-4-2.4-.6-12-4.4-6.4.2-5.8-3-1.4 1.1-3.1.7-6-1.6 5.3 4.5-1 3 3.4 2.7 9.2 6.9 1.5 2.8-1 1.5 5.5 3.7 7 4.8zm9.2 5.3c11.3 3.6-5.5-4.4 0 0zm47.3 28.7c.2-2.3-1.5 1.9 0 0zm5 2c2.5-2.5 0 4 4.2-.6 0-3.3-.1-5.3-4.8-1.2-1.3.7-1.9 3.7.5 1.8zM35 109.8c-.8-3-5.6-3 0 0zm5.2 3.4c-2-3.2-6.9-2.9 0 0zm29.5 17.9c3 2.5 13.3 1.8 3.6.3-1.5-2.2-9.2-1.6-3.6-.3zm40.7 25c4.4-3.7-4.3 1.7 0 0zm9.2 6.4c0-1.2-2 .5 0 0zm0-1.7c5-5.2-4.8.3 0 0zM22.3 99.1c-4.1-6-2.6-8.6-6.6-13.5-.8-3.7-7-12.2-3.2-3.2C16 87.6 17 95.7 22.3 99zm95.9 60c9-5.8-3.7-2.5 0 0zm6.9 2.8c4.5-4-2.9-.9 0 0zm-91.5-58.7c1.3-1.9-3.4-.2 0 0zm90 56.8c4.4-2.8-1-2.4-.8.3l.8-.3zm-59.5-37.5c-.1-2-2.3.2 0 0zm3.7 2.1c-1.2-2.3-1.8.4 0 0zm62.9 37.3c5.6-4-3.4-.8-1.2.8zm-2.2-1c4.6-3.8-4.8 1.7 0 0zm11 7.3c3-2-3.7-.7 0 0zM36.4 101.8c4.1 1 16.5 10.2 9.2.7-3.8-1.1-1.5-10.2-5.3-8.6 2.5 4.2 2 6-3.3 3.4-6.7-3.3-3.8 1.6-2.5 3-1.7.4 2.4 1.5 1.9 1.5zM17.6 87c.8-3-6.8-16.8-3.5-6.9 1.1 2.1 1 6 3.5 7zm34.5 21.3c-2.2-1.8-.1-.3 0 0zm5.2 1.2c0-3.3-5.8-1.3 0 0zm45.3 28.5c-1-2.2-3.5 0 0 0zm2.1 1.6c-.3-1.2-1.2.2 0 0zm18 11.3c1.7-1.3-2.2-.2 0 0zM27 89.4c5-1.9-5.3-1.3 0 0zm71.6 45.1c0-3.2-3.2.8 0 0zM25 84.9c3.2-1.1-2.9-.7 0 0zm9.3 4.4c-.1-1-1 .4 0 0zm112.2 68.8c4-.8 13.3 2.1 14.8-1-4.9-.2-17-3.5-17.7.8l1.1.1 1.8.1zm-109.3-68c0-3.3-2.5-.2 0 0zM13 73.3c-1.1-6.2-4.2-1 0 0zm5.8 1.4c0-2-5.3-1.8 0 0zm3.2 1.7c-1-.8-.7 1 0 0zm20.8 13.3c1-1-2.3-.7 0 0zm-23-17c-.5-4.7-6.6-.7 0 0zM8 65C8 63 7 65.8 8 65zm1.8-1.3c-.3-2.6-1.5.3 0 0zm9.7 5.8c4.1-1.6-7.5-3.3-.8-.3zm130.1 80.4c2.6-2.5-3.3-.8 0 0zm15.7 8.1c1-3.1-2.6.4 0 0zM20.5 64.4c.4-3-3.3.6 0 0zM6.7 55.1C5.9 51 6 43.4 13 46c-9.5 2 6.6 11.8 4.6 4 4 .2 7.8-2.4 5.7 1.5 7.8-.9 13.3-7.7 20.9-6.7 5.9-.8 12.4-1.4 18.7-3.8 5.3-.3 10.3-6 7.4-9.3-7.1-.6-14.6.3-22.5 1.8-8.7 1.8-16.7 5.3-25.5 6.8-8.6 1.1 1.7 3.2-.7 3.6-4.5 1.6 5.3 2.6-.6 4.3-3.7-.7-7.5-2-6-5.8-8.2 1-15.4 4.4-9 12.8h.6zm19.8-10c2-7.2 10.4 5.8 3.2.9-.9-.7-2.3-1.2-3.2-1zm.4-3.5c2.8-2.1 1.5 1.1 0 0zm3.5 0c.3-3.3 8.2 1.8 1.3 1.2zm4.9-2c1.8-2 .5 2 0 0zm1.2-.8c3-3.5 16.7-2.2 6.7-.3-2.7-2-4.8 1.2-6.7.3zm18-2.7c-.5-9.7 8.9 3.4 0 0zm5 0c2-5 7.3-2 1-1 0 .5-.3 2.5-1 1zm-41 25.8c5.5-3.4-6-3 0 0zm4.1 1.1c2-2-4.2-.8 0 0zm-12.1-8.5c3.2-2.5-3.8-1 0 0zm164 102.6c.2-2.8-2.3 1.3 0 0zM158 145.7c.5-3.2-2.1.3 0 0zm21.3 12.5c4.4 0 13.4-1.4 3.8-1.4-1.5.3-8.9.2-3.8 1.4zM26.2 61c3.6-.2 5.6-4-.7-3.7-9.8-1 8.7 3.3-1.2 2.1-1.4.9 1.8 1.9 2 1.6zm3.2 1.6c-.4-2.3-1.1 1.3 0 0zm3.7-10c1.6-1.9-2.1-.5 0 0zm-12-20c6.5-2.1 15.3-4.6 18.3 1.1-3-3.7-1.2-7.3 1.7-1.9 4 5.5 6.1-2.5 3.5-4.3 3 3.8 6.5 5.5 2 .2 4.9-5.8-9.7.8-13 .7-1.7.7-16.6 3.8-12.4 4.3zm3.8-7.1c3.7-2.8 12.7 1.6 7-2.8-.6-.5-12.7 3.3-7 2.8zm13.4.5c4.3.1-1.9-5.7 3.2-3-.8-2.8-6-3.3-8.4-4.4C31.7 21 36 26 38.3 26zm-11-12c1.5-2-2.6 1 0 0zm5.4 1.2c7-.9-1.7-3-1.4 0h1.4zm-10.1-8c-4.9-6.3 9 1.1 4.2-5.5-4.2-3.3-8.2 3.7-4.2 5.6zm62.3 33.6c2.2-4-9.2-5.3-1.5-1.4.7.3.5 1.7 1.5 1.4z"/><path d="M190 13.6c-.8 3.1-1.3 8.4-1.4 15.8 0 1.5-.7 2.2-2 2.2s-2.2-.6-2.8-2a25 25 0 0 0-4-7 9.6 9.6 0 0 0-6-3c-2.6-.4-9.3-.6-20-.6-2.3 0-4 .3-4.7.8-.5.3-.7 1-.7 2v32c0 1 .7 1.5 2 1.5 4.2 0 10.3-.3 18.2-.9 1.5-.1 2.6-.6 3.1-1.5.6-.8 1-3 1.6-6.3.3-2 1.4-2.6 3.3-2.2 1.6.3 2.3 1 2 2.2-1.3 6.3-1.7 14.6-1.2 24.9 0 1.2-.8 1.8-2.3 2-1.4 0-2.2-.6-2.5-2.2-1.2-5.8-3.5-9-6.8-9.4a152 152 0 0 0-16.1-.6c-.9 0-1.3.3-1.3 1v31.6c0 2.3.9 4 2.6 4.8 1.4.7 4.3 1.3 8.8 1.9 2.3.2 3.3 1.2 3 3-.3 1.5-2.3 2.1-6.2 1.8a132 132 0 0 0-27.5.2c-2 .2-3-.6-3-2.5 0-1.2 1-2 3-2.1 4.6-.5 7-4.6 7-12.1V28.7c0-3-.6-5.5-1.7-7.1a14.2 14.2 0 0 0-6.2-4.6c-1.8-.8-2.6-2-2-3.4.2-.9.5-1.4 1-1.5a180.7 180.7 0 0 0 24.6 1c13 0 24.2-.3 33.6-.8 3.1-.2 4.7 0 4.7.7v.6zm45.7 89.4c0 1.8-1 2.7-3.1 2.4-6.5-.6-14.5-.5-24 .3-2 .2-3.2.1-3.6-.1-.5-.3-.7-1.1-.7-2.4 0-1 1.3-2 3.8-2.8 2.6-.8 3.9-3 3.9-7V29.9c0-3.8-.6-6.6-1.7-8.3-1-1.8-3-3.2-5.8-4.2-1.4-.5-2.2-1.2-2.2-2.2 0-1.4 1-2.4 3.2-3.1 3.2-1 6.5-2.7 10-4.8 2.7-1.7 4.5-2.5 5.3-2.5 1.7 0 2.6 1.2 2.6 3.5a766.3 766.3 0 0 0-.5 20.8l.3 62.8c0 2.8.7 5 2.1 6.2 1.4 1.3 3.8 2.1 7.3 2.6 2 .2 3.1 1 3.1 2.4zm64.2-4.8c0 1-1.8 2.5-5.4 4.5s-6.5 3-8.6 3c-1.9 0-3.5-.9-4.9-2.7-1.4-1.8-2.4-2.6-3-2.6-.4 0-2.6 1-6.6 2.8-4 2-8.1 3-12.2 3-3.8 0-7-1.2-9.6-3.5a12.8 12.8 0 0 1-4.2-10c0-8.2 9.2-14 27.8-17.5 3.2-.6 4.8-2 4.9-3.9l.1-4.5c.3-7.7-3.1-11.5-10.2-11.5-2 0-4 1.8-5.7 5.4-1.8 3.6-4.4 5.6-7.8 5.8-3.8.4-5.8-1.2-5.8-4.8 0-2.3 2.9-4.9 8.6-7.9 6-3.1 11.8-4.7 17.3-4.7 9.5 0 14.2 4.5 14.1 13.6l-.2 29c0 3 1.2 4.5 3.8 4.5l3-.3 2.5-.4c1.4 0 2 1 2 2.7zm-21.7-16c0-1.2-.2-2-.8-2.3-.6-.4-1.5-.4-2.8-.2-11.3 2-17 5.7-17 11 0 5.4 3 8.1 8.9 8.1 2.3 0 4.7-.4 7.2-1.3 3-1 4.4-2.3 4.4-3.8zm74.1 7.7c0 5-1.9 8.9-5.7 11.8-3.8 3-9 4.4-15.7 4.4-4.4 0-8.8-.4-13.2-1.4-3.8-.8-6-1.6-6.6-2.3-.4-.7-.6-3.9-.6-9.6 0-2.5.6-3.8 1.7-3.9 1.2-.1 2.1.5 3 1.8 3.4 6.2 9.1 9.2 17 9.2 6.5 0 9.8-2.3 9.8-6.9 0-2-.7-3.7-2.2-5a36.1 36.1 0 0 0-9.6-5.4c-6.8-3-11.4-5.8-13.7-8a13.2 13.2 0 0 1-3.7-9.9c0-5 2-9 5.8-11.8 3.6-2.7 8.5-4 14.5-4 3.8 0 7.3.2 10.4.8 3.4.6 5.2 1.4 5.3 2.3.4 2.6 1.1 6.4 2.3 11.4.2.6-.5 1-2 1.4-1.5.4-2.5.1-3-.7-3.7-6-8.4-9-14.1-9-6.4 0-9.6 2-9.6 6 0 2.4.8 4.2 2.6 5.6 1.5 1.1 5.1 3 10.9 5.5 6 2.5 10 4.9 12.2 7 2.8 2.6 4.2 6.2 4.2 10.7zm81.6 12.6c0 1.7-1.1 2.5-3.3 2.6-3.3 0-7.6.3-12.9.7-2.6.6-4.5.2-5.6-1a146 146 0 0 1-18.9-25c-.4-.7-1-1.1-1.6-1.1-.8 0-2.2.7-4.1 2.1-2.2 1.2-3.3 3-3.3 5.2l.1 6.9c.1 3 .8 5 2.3 6 1 .6 3.2 1 6.8 1.5 2.2.2 3.3 1 3.3 2.4 0 1.1-.2 1.8-.5 2-.4.3-1.3.3-2.8.2-4.7-.4-12.6-.2-23.8.7-2.8.2-4.3-.1-4.6-1l-.1-1.5c0-1.4 1.4-2.5 4.3-3.3 2.6-.6 3.9-3.6 3.9-9V29.4c0-3.8-.4-6.5-1.2-8-1-2-3.2-3.4-6.4-4.5-1.6-.5-2.4-1.2-2.4-2.2 0-1.3 1.1-2.4 3.3-3.1a44.1 44.1 0 0 0 10.1-4.9c2.6-1.7 4.2-2.5 4.8-2.5 1.9 0 2.9 1.2 2.9 3.6a1499.1 1499.1 0 0 0-.2 20.8l.2 44c0 1.2.3 1.8 1 1.8s1.7-.6 3.2-1.8c3.9-3 8.7-7 14.3-12 1.2-1.1 1.7-2 1.7-2.8 0-1.2-1.9-2.1-5.7-2.7-1.6-.1-2.4-1-2.3-2.7.1-1.6 1-2.3 2.5-2.1 3.3.5 8.3.7 14.7.8h13.5c1.4 0 2.1 1 2.1 2.6s-1.1 2.5-3.4 2.6c-3.6.2-7 1-10.2 2.5-4.5 2-9.2 5.6-14.3 10.6-.4.3-.5.7-.5 1 0 .7.8 2.3 2.3 4.8 6 8.9 11.4 15.6 16.6 20.2 3.4 2.8 6.5 4.3 9.4 4.3 2.1 0 3.5.1 4 .4.5.3.8 1.1.8 2.4z" font-family="High Tower Text" font-size="144" font-weight="400" style="-inkscape-font-specification:'High Tower Text'"/><g style="line-height:90%"><path d="M245.4 127c0 .2-.4.4-1 .5-.4.2-.7.5-1 1.2a99.5 99.5 0 0 1-4.6 8.9l-.2-.1-1.7-3.5c-.8-1.8-1.3-2.7-1.4-2.7l-1.4 2.6a62 62 0 0 1-2 3.4.3.3 0 0 1-.2 0l-4.6-8.6c-.3-.5-.6-.9-1-1l-.8-.6c0-.4.2-.5.6-.5 1.8.2 3.3.2 4.6 0 .3-.1.5 0 .5.2 0 .4-.2.6-.6.7-.6.1-.9.3-.9.6l.2.8a38.1 38.1 0 0 0 2.7 5.1l1.1-2 1-2.2c0-.4 0-.8-.3-1.2-.3-.6-.6-1-1-1-.6-.3-.9-.5-.9-.7 0-.4.2-.5.7-.4 1.4.1 2.8.1 4.4-.2.3 0 .5 0 .5.3 0 .4-.3.6-.7.7-.5 0-.8.3-.8.8a21.3 21.3 0 0 0 2.6 5.9s.5-.7 1.1-2l1.5-3.5a.4.4 0 0 0 0-.2c0-.3-.3-.7-1-.9-.4-.1-.6-.3-.6-.5 0-.3.1-.4.4-.4l2.2.2h2c.4 0 .6 0 .6.3zm12 7.8c0 .4-.5.9-1.5 1.5-1.2.6-2.5 1-3.7 1-1.4 0-2.6-.5-3.5-1.4a5 5 0 0 1-1.5-3.9c0-1.8.6-3.2 1.7-4.3 1-1 2.3-1.5 3.8-1.5 1 0 1.8.3 2.6.8.7.5 1.1 1.1 1.4 1.8 0 .2.2.3.3.4.3 0 .4.2.4.4 0 .4-.5.7-1.3 1l-6.4 1.9c.5 2.1 1.6 3.2 3.4 3.2 1 0 2.2-.4 3.6-1.1l.6-.2c.1 0 .2.1.2.4zm-3.2-5.5c0-.5-.2-1-.6-1.3-.4-.4-.9-.6-1.5-.6-1.7 0-2.5 1.2-2.5 3.6v.4l3.7-1.1c.6-.2 1-.5 1-1zm17.1 1.7a6 6 0 0 1-1.9 4.5 6 6 0 0 1-4.3 1.8c-1 0-1.9-.2-3-.5-1-.3-1.4-.6-1.4-.8a63.1 63.1 0 0 1 0-5.6 513.4 513.4 0 0 0-.3-10c-.2-.2-.6-.3-1.2-.5-.2 0-.4-.2-.4-.4s.2-.4.6-.5l1.9-1 1.1-.4c.3 0 .4.2.4.7v1.4a82.8 82.8 0 0 0 0 2.6v4.7c0 .5.1.6.5.4 1-.6 2.2-1 3.4-1 1.3 0 2.5.5 3.3 1.3.9.8 1.3 2 1.3 3.3zm-2.2 1.2c0-1.3-.3-2.3-1-3.1a3 3 0 0 0-2.4-1.1 4 4 0 0 0-2 .5c-.6.3-.9.7-.9 1v3.7c0 1.8 1 2.6 3 2.6 1 0 1.8-.3 2.4-1 .6-.6 1-1.5 1-2.6zm24.3 3.6a.5.5 0 0 1 0 .1c0 .2-.4.5-1.3 1-1.1.5-1.7.7-2 .7l-.5-.8-.4-.8-1.6.7c-1 .5-1.8.7-2.4.7-1.2 0-2.2-.4-3-1.3-1.2-1-1.7-2.5-1.7-4.3 0-1.6.6-3 1.9-4 1.1-1 2.2-1.6 3.4-1.6.8 0 1.8.2 3 .4.3 0 .5 0 .5-.4v-4.6c0-.6-.2-1-.4-1.1l-1.2-.6c-.3 0-.4-.3-.4-.5s.2-.4.6-.5l2-.8a4 4 0 0 1 1-.5c.4 0 .6.2.6.7v1.3a89.4 89.4 0 0 0-.1 2.7v12.4c0 .6.2.8.7.8h.7c.3-.1.5 0 .6.3zm-4.2-1.4v-4.9c0-.4-.4-.8-1-1.2a4.7 4.7 0 0 0-2.5-.7c-2 0-2.9 1.2-2.9 3.5 0 1.3.4 2.3 1.1 3.2.8 1 1.7 1.4 2.7 1.4.5 0 1-.2 1.6-.5.7-.3 1-.6 1-.8zm16 .4c0 .4-.5.9-1.5 1.5-1.2.6-2.5 1-3.7 1-1.4 0-2.6-.5-3.5-1.4a5 5 0 0 1-1.5-3.9c0-1.8.6-3.2 1.7-4.3 1-1 2.3-1.5 3.8-1.5 1 0 1.8.3 2.6.8.7.5 1.1 1.1 1.4 1.8 0 .2.2.3.3.4.3 0 .4.2.4.4 0 .4-.5.7-1.4 1l-6.3 1.9c.5 2.1 1.6 3.2 3.4 3.2 1 0 2.2-.4 3.6-1.1l.6-.2c.1 0 .2.1.2.4zm-3.2-5.5c0-.5-.2-1-.6-1.3-.4-.4-.9-.6-1.5-.6-1.7 0-2.5 1.2-2.5 3.6v.4l3.7-1.1c.6-.2 1-.5 1-1zm18.3-2.3c0 .2-.3.4-.9.5-.4.2-.7.5-1 1.2a59.2 59.2 0 0 1-4.6 8.6.3.3 0 0 1-.2 0 59.7 59.7 0 0 1-5-8.6c-.3-.6-.6-1-.9-1-.5-.3-.8-.4-.8-.6 0-.4.2-.5.6-.5H312.2c.2-.1.4 0 .4.2 0 .3-.2.5-.6.6-.7.2-1 .5-1 .8v.6a33.4 33.4 0 0 0 3.1 5.4l1.2-2a33.7 33.7 0 0 0 1.6-3.9c0-.4-.2-.6-.6-.9-.5-.1-.7-.3-.7-.5 0-.3.2-.4.4-.4a18.3 18.3 0 0 0 3.8.2c.3 0 .5 0 .5.3zm12 7.8c0 .4-.4.9-1.5 1.5-1.2.6-2.4 1-3.7 1-1.4 0-2.5-.5-3.5-1.4a5 5 0 0 1-1.5-3.9c0-1.8.6-3.2 1.7-4.3 1-1 2.3-1.5 3.9-1.5.9 0 1.7.3 2.5.8.7.5 1.2 1.1 1.4 1.8 0 .2.2.3.4.4.2 0 .3.2.3.4 0 .4-.4.7-1.3 1l-6.3 1.9c.4 2.1 1.5 3.2 3.3 3.2 1 0 2.2-.4 3.6-1.1l.6-.2c.1 0 .2.1.2.4zm-3.1-5.5c0-.5-.2-1-.7-1.3-.4-.4-.9-.6-1.5-.6-1.6 0-2.5 1.2-2.5 3.6v.4l3.8-1.1c.6-.2.9-.5.9-1zm11.6 7.4c0 .4-.2.5-.6.5a27.2 27.2 0 0 0-5.3 0l-.2-.4c0-.3.3-.5.8-.6.5-.2.7-.6.7-1.4v-12.3c0-.8 0-1.3-.3-1.7a2 2 0 0 0-1.1-.8c-.3 0-.5-.2-.5-.4 0-.3.3-.5.7-.6.6-.2 1.2-.5 1.9-1l1-.4c.4 0 .5.2.5.7v16.2c0 .6.1 1 .4 1.2.3.3.8.4 1.4.5.4 0 .6.2.6.5zm13.3-5.1c0 1.6-.6 3-1.8 4a6.2 6.2 0 0 1-4.3 1.7c-1.8 0-3.2-.5-4.2-1.5a5 5 0 0 1-1.4-3.8c0-1.6.6-3 1.8-4 1.2-1 2.6-1.6 4.3-1.6 1.8 0 3.1.5 4.1 1.4a5 5 0 0 1 1.5 3.8zm-2.4.8c0-1.4-.4-2.6-1-3.5a3.1 3.1 0 0 0-2.6-1.3 3 3 0 0 0-2.4 1c-.6.7-1 1.6-1 2.5 0 1.6.5 2.8 1.2 3.7.6.8 1.5 1.2 2.5 1.2a3 3 0 0 0 2.4-1c.6-.7.9-1.5.9-2.6zm16.7-1.2a6 6 0 0 1-1.7 4.4 5.4 5.4 0 0 1-4 1.7c-1 0-1.8-.1-2.7-.5l-.1.7v4.1c0 .7.5 1.1 1.6 1.3l1 .3.1.4c0 .3-.2.4-.6.4a23.6 23.6 0 0 0-5.6.1v-.4c0-.1.2-.3.7-.5.4-.2.7-.6.7-1.3v-12c0-1-.3-1.7-.9-2-.6-.2-1-.4-1-.6 0-.2.3-.4.7-.5.4 0 1-.3 1.4-.6l.8-.4c.3 0 .5.3.7.8.2.7.4 1 .5 1l1.2-.6a5 5 0 0 1 5.7.5c1 .8 1.5 2 1.5 3.7zm-2.3 1.1a5 5 0 0 0-1.2-3.5c-.6-.7-1.3-1-2-1a3 3 0 0 0-1.9.7c-.7.5-1.1 1.3-1.1 2.3v3.9c0 .2.3.5 1 .8.8.3 1.6.4 2.5.4 1.8 0 2.7-1.2 2.7-3.6zm27 4.4c0 .3-.2.5-.4.4a33 33 0 0 0-5.2 0c-.4 0-.6 0-.6-.4 0-.3.3-.5.8-.5.6 0 .9-.5.9-1.5v-3.6c0-2-.9-3-2.5-3a6 6 0 0 0-2.4.4c-.7.3-1 .6-1 .9v5.4l.1 1.1.7.3c.8.1 1.2.3 1.2.5v.4h-.6a67.9 67.9 0 0 0-5 0c-.1 0-.2-.1-.2-.3 0-.3.3-.4.8-.5.6 0 .8-.5.8-1.5V131c0-1-.2-1.8-.6-2.3-.4-.5-1-.8-1.6-.8-.9 0-1.7.2-2.4.6-.8.3-1.1.7-1.1 1.1v5c0 .6.1 1 .4 1.2.3.2.8.3 1.5.4.3 0 .5.1.5.4 0 .2-.1.4-.4.4a44.7 44.7 0 0 0-5.7.2v-.4c0-.2.3-.4 1-.6.3 0 .5-.6.5-1.6v-4.2c0-1-.2-1.6-.8-1.8a5 5 0 0 1-.9-.3l-.2-.3c0-.2.5-.5 1.5-1l1.8-1c.2 0 .4.4.5 1 .1.5.2.7.3.7.1 0 .4 0 .8-.4l1.6-.8a6.3 6.3 0 0 1 2.3-.4c.6 0 1.2.1 1.6.4.4.2.7.4 1 .8l.3.4.7-.4a9.5 9.5 0 0 1 1.6-.8 6.8 6.8 0 0 1 2.3-.4c2.5 0 3.7 1.4 3.7 4.1v4.4c0 .6.1 1 .4 1.1.2.2.6.4 1.3.5.4.1.7.2.7.4zm11.5-2c0 .5-.5 1-1.5 1.6-1.3.6-2.5 1-3.8 1-1.3 0-2.5-.5-3.4-1.4a5 5 0 0 1-1.5-3.9c0-1.8.5-3.2 1.7-4.3 1-1 2.3-1.5 3.8-1.5 1 0 1.8.3 2.5.8s1.2 1.1 1.4 1.8l.4.4c.2 0 .4.2.4.4 0 .4-.5.7-1.4 1l-6.3 1.9c.4 2.1 1.5 3.2 3.3 3.2 1.1 0 2.3-.4 3.6-1.1l.6-.2c.2 0 .2.1.2.4zm-3.2-5.4c0-.5-.2-1-.6-1.3-.4-.4-1-.6-1.5-.6-1.7 0-2.5 1.2-2.5 3.6v.4l3.7-1.1c.6-.2.9-.5.9-1zm19.6 7.5c0 .3-.2.5-.6.4H416c-.5 0-.8 0-.9-.2a.8.8 0 0 1 0-.3c0-.1.3-.3.8-.4.5-.2.7-.6.7-1.5v-3.6c0-2-.9-3.1-2.7-3.1-.8 0-1.6.2-2.3.6-.6.3-1 .7-1 1.1v5c0 .9.6 1.4 1.7 1.5.5 0 .7.1.7.4 0 .2 0 .3-.2.4h-.5a26.2 26.2 0 0 0-4.4.2h-.6c-.2 0-.3-.1-.3-.4 0-.2.3-.4.8-.5.5-.2.7-.8.7-1.9v-4c0-.8 0-1.2-.3-1.4a4 4 0 0 0-1.2-.6c-.2 0-.3-.2-.3-.4s.2-.3.6-.5a8 8 0 0 0 1.6-.9l1-.5c.3 0 .4.3.5.8.1.6.2.9.4.9l1.4-.8c1-.6 2-.8 3-.8 2.3 0 3.5 1.3 3.5 4v4.4c0 .6.2 1 .5 1.2.2.2.6.4 1.2.5.4 0 .6.2.6.4zm8.8-1c0 .4-.4.8-1.2 1.1a6 6 0 0 1-2.1.4c-2 0-3-1-3-3.1v-5c0-.6 0-1-.2-1.1 0-.2-.4-.3-1-.4-.1 0-.2-.2-.2-.5 0-.2 0-.4.2-.4 1-.5 1.8-1.4 2.6-2.6 0-.2.3-.3.5-.2.2 0 .4.2.4.3v2l.5.2h3c.2 0 .2.2 0 .6-.1.5-.5.8-.9.8h-2c-.4 0-.6 0-.7.2v5.1c0 1.1 0 1.8.2 2.1.3.4.9.6 1.9.6l1.1-.1.8-.2.1.2zm6.2.6c0 2.4-1 4.2-3 5.4a1 1 0 0 1-.4.1s-.2-.1-.3-.4a.8.8 0 0 1 0-.3c0-.1.2-.4.7-.7.9-.6 1.3-1.3 1.3-2.1 0-.4-.2-.8-.7-1.1-.8-.5-1.1-1-1.1-1.7 0-.4.1-.8.4-1.1.3-.3.7-.5 1.2-.5.6 0 1.1.3 1.4.7.4.4.5 1 .5 1.7zm-196.9 20.4c0 1.6-.5 3-1.7 4a6.2 6.2 0 0 1-4.4 1.7c-1.7 0-3.1-.5-4.1-1.5a5 5 0 0 1-1.5-3.8c0-1.6.6-3 1.9-4 1.1-1 2.6-1.6 4.2-1.6 1.8 0 3.2.5 4.2 1.4a5 5 0 0 1 1.4 3.8zm-2.4.8c0-1.4-.3-2.6-1-3.5a3.1 3.1 0 0 0-2.6-1.3 3 3 0 0 0-2.3 1c-.7.7-1 1.6-1 2.5 0 1.6.4 2.8 1.1 3.7.7.8 1.5 1.2 2.6 1.2a3 3 0 0 0 2.4-1c.5-.7.8-1.5.8-2.6zm19 4.4c0 .3-.1.5-.5.4h-4.5c-.5 0-.8 0-.8-.2a.8.8 0 0 1 0-.3c0-.1.2-.3.7-.4.5-.2.7-.6.7-1.5v-3.6c0-2-.9-3.1-2.7-3.1-.8 0-1.5.2-2.2.6-.7.3-1 .7-1 1.1v5c0 .9.5 1.4 1.7 1.5.4 0 .6.1.6.4 0 .2 0 .3-.2.4h-.4a26.2 26.2 0 0 0-4.5.2h-.6c-.2 0-.3-.1-.3-.4 0-.2.3-.4.8-.5.5-.2.8-.8.8-1.9v-4c0-.8-.1-1.2-.3-1.4a4 4 0 0 0-1.3-.6c-.2 0-.3-.2-.3-.4s.2-.3.6-.5a8 8 0 0 0 1.7-.9l1-.5c.2 0 .4.3.5.8 0 .6.2.9.3.9l1.4-.8c1-.6 2-.8 3-.8 2.3 0 3.5 1.3 3.5 4v4.4c0 .6.2 1 .5 1.2.2.2.6.4 1.3.5.4 0 .6.2.6.4zm11.5-2c0 .4-.5.9-1.6 1.5-1.2.6-2.4 1-3.7 1-1.4 0-2.5-.5-3.5-1.4a5 5 0 0 1-1.5-3.9c0-1.8.6-3.2 1.7-4.3 1-1 2.4-1.5 3.9-1.5.9 0 1.7.3 2.5.8.7.5 1.2 1.1 1.4 1.8 0 .2.2.3.4.4.2 0 .3.2.3.4 0 .4-.4.7-1.3 1l-6.3 1.9c.4 2.1 1.5 3.2 3.3 3.2 1 0 2.3-.4 3.6-1.1l.6-.2c.1 0 .2.1.2.4zm-3.2-5.5c0-.5-.2-1-.6-1.3-.4-.4-1-.6-1.5-.6-1.7 0-2.6 1.2-2.6 3.6v.4l3.8-1.1c.6-.2.9-.5.9-1zM289 161a.5.5 0 0 1 0 .1c0 .2-.4.5-1.3 1-1.1.5-1.8.7-2 .7l-.5-.8c-.2-.6-.4-.8-.5-.8l-1.5.7c-1 .5-1.8.7-2.4.7-1.2 0-2.2-.4-3.1-1.3-1-1-1.6-2.5-1.6-4.3 0-1.6.6-3 1.9-4 1-1 2.2-1.6 3.4-1.6.8 0 1.8.2 3 .4.3 0 .5 0 .5-.4v-4.6c0-.6-.2-1-.4-1.1l-1.2-.6c-.3 0-.4-.3-.4-.5s.2-.4.6-.5l1.9-.8a4 4 0 0 1 1.1-.5c.4 0 .5.2.5.7v1.3a89.4 89.4 0 0 0 0 2.7V160c0 .6.2.8.7.8h.7c.3-.1.5 0 .6.3zm-4.2-1.4v-4.9c0-.4-.4-.8-1-1.2a4.7 4.7 0 0 0-2.6-.7c-1.9 0-2.8 1.2-2.8 3.5 0 1.3.4 2.3 1.1 3.2.8 1 1.7 1.4 2.7 1.4.5 0 1-.2 1.6-.5.7-.3 1-.6 1-.8zm14.5-7c0 1.1-.3 1.7-1 1.7a8 8 0 0 1-1-.2c-.5-.2-1-.2-1.2-.2-1 0-1.5.7-1.5 2v4c0 .5.2.9.5 1 .2.2.7.4 1.4.6.4 0 .6.2.6.4v.5h-.6c-2-.2-3.6-.2-4.7 0h-.7c-.1 0-.2-.2-.2-.5s.3-.4.8-.6c.5-.1.8-.6.8-1.3v-4.4c0-.6-.1-1-.3-1.2a4 4 0 0 0-1.2-.8c-.3-.1-.4-.2-.4-.4s.2-.3.6-.5a6 6 0 0 0 1.7-.9l.8-.5c.4 0 .6.3.6.9.1.7.2 1 .3 1l1.5-1a3.8 3.8 0 0 1 2.2-.7c.7 0 1 .4 1 1.1zm13.6 4.2c0 1.6-.6 3-1.8 4a6.2 6.2 0 0 1-4.4 1.7c-1.7 0-3-.5-4.1-1.5a5 5 0 0 1-1.5-3.8c0-1.6.7-3 1.9-4s2.6-1.6 4.3-1.6c1.7 0 3.1.5 4.1 1.4a5 5 0 0 1 1.5 3.8zm-2.4.8c0-1.4-.4-2.6-1-3.5a3.1 3.1 0 0 0-2.6-1.3 3 3 0 0 0-2.4 1c-.6.7-1 1.6-1 2.5 0 1.6.4 2.8 1.1 3.7.7.8 1.5 1.2 2.6 1.2a3 3 0 0 0 2.4-1c.6-.7.9-1.5.9-2.6zm16.7-1.2a6 6 0 0 1-1.8 4.4 5.4 5.4 0 0 1-4 1.7c-.9 0-1.8-.1-2.6-.5-.1 0-.2.2-.2.7v4.1c0 .7.6 1.1 1.7 1.3l1 .3.1.4c0 .3-.2.4-.6.4a23.6 23.6 0 0 0-5.6.1l-.1-.4c0-.1.2-.3.8-.5.4-.2.6-.6.6-1.3v-12c0-1-.2-1.7-.8-2-.6-.2-1-.4-1-.6 0-.2.3-.4.6-.5.5 0 1-.3 1.5-.6l.8-.4c.3 0 .5.3.7.8.2.7.4 1 .5 1 0 0 .4-.1 1.1-.6a5 5 0 0 1 5.7.5c1 .8 1.6 2 1.6 3.7zm-2.4 1.1a5 5 0 0 0-1-3.5c-.7-.7-1.4-1-2.2-1a3 3 0 0 0-1.8.7c-.8.5-1.1 1.3-1.1 2.3v3.9c0 .2.3.5 1 .8.7.3 1.6.4 2.4.4 1.8 0 2.7-1.2 2.7-3.6zm22.6 3.5c0 .2-.3.5-1 .8-.7.4-1.3.6-1.7.6-.4 0-.7-.1-1-.5l-.5-.5-1.3.5c-.8.4-1.6.6-2.4.6-.7 0-1.4-.2-1.9-.6-.5-.5-.8-1.2-.8-2 0-1.6 1.8-2.7 5.4-3.4.7-.1 1-.4 1-.8v-.8c0-1.5-.6-2.3-2-2.3-.4 0-.7.4-1 1-.4.8-1 1.2-1.6 1.2-.8 0-1.1-.2-1.1-1 0-.4.5-.9 1.6-1.5 1.2-.6 2.3-.9 3.4-.9 1.9 0 2.8.9 2.8 2.7l-.1 5.6c0 .6.2.9.8.9h.5a5.7 5.7 0 0 1 .5-.2c.3 0 .4.2.4.6zm-4.2-3.1c0-.3 0-.4-.2-.5h-.5c-2.2.4-3.3 1-3.3 2.1 0 1 .6 1.6 1.7 1.6.5 0 1-.1 1.4-.3.6-.2.9-.4.9-.7zm13.4 3.1c0 .4-.4.8-1.2 1.1a6 6 0 0 1-2.2.4c-2 0-3-1-3-3.1v-6.1c-.2-.2-.5-.3-1-.4-.2 0-.3-.2-.3-.5 0-.2 0-.4.2-.4 1-.5 1.8-1.4 2.5-2.6.1-.2.3-.3.6-.2.2 0 .3.2.3.3l.1 1.8v.2l.5.2h3c.2 0 .2.2 0 .6-.2.5-.5.8-.9.8h-2c-.4 0-.6 0-.7.2v5.1c0 1.1 0 1.8.2 2.1.3.4.9.6 1.9.6l1.1-.1.7-.2c.1 0 .2 0 .2.2zm19.8 0c0 .2-.3.5-1 .8-.7.4-1.3.6-1.7.6-.4 0-.7-.1-1-.5l-.5-.5-1.3.5c-.8.4-1.6.6-2.4.6-.7 0-1.4-.2-1.9-.6-.5-.5-.8-1.2-.8-2 0-1.6 1.8-2.7 5.4-3.4.6-.1 1-.4 1-.8v-.8c0-1.5-.6-2.3-2-2.3-.4 0-.8.4-1.1 1-.4.8-.9 1.2-1.5 1.2-.8 0-1.1-.2-1.1-1 0-.4.5-.9 1.6-1.5 1.2-.6 2.3-.9 3.4-.9 1.8 0 2.8.9 2.7 2.7v5.6c0 .6.2.9.7.9h.6a5.7 5.7 0 0 1 .5-.2c.3 0 .4.2.4.6zm-4.2-3.1c0-.3 0-.4-.2-.5h-.5c-2.2.4-3.3 1-3.3 2.1 0 1 .6 1.6 1.7 1.6.5 0 1-.1 1.4-.3.6-.2.9-.4.9-.7zm20.3 3.1c0 .4-.4.8-1.2 1.1a6 6 0 0 1-2.1.4c-2 0-3-1-3-3.1v-5l-.1-1.1c-.1-.2-.5-.3-1-.4-.2 0-.3-.2-.3-.5 0-.2 0-.4.2-.4 1-.5 1.8-1.4 2.6-2.6 0-.2.3-.3.6-.2.2 0 .3.2.3.3v1.8l.1.2.4.2h3c.3 0 .3.2 0 .6-.1.5-.4.8-.8.8h-2.1c-.4 0-.6 0-.7.2v5.1c0 1.1 0 1.8.2 2.1.3.4 1 .6 1.9.6l1.1-.1.8-.2.1.2zm6.9-14.5c0 .4-.2.8-.5 1.1-.3.4-.6.6-1 .6s-.8-.1-1-.4c-.3-.3-.5-.6-.5-1s.2-.8.5-1.1c.3-.4.7-.5 1-.5 1 0 1.5.4 1.5 1.3zm1.5 15.4c0 .3-.2.5-.3.5h-.7a24.4 24.4 0 0 0-4 0h-.7l-.1-.5c0-.2.2-.3.7-.5.6-.1.8-.6.8-1.5v-3.6c0-.7 0-1.2-.2-1.5-.2-.4-.6-.7-1.2-.9-.3-.1-.5-.3-.5-.5s.2-.4.6-.5a8 8 0 0 0 2-1l1-.5c.3 0 .5.3.5.7a477.8 477.8 0 0 0 0 7.3c0 .6 0 1 .2 1.3.2.3.6.5 1 .6.7.1 1 .4.9.6zm24 0c0 .3 0 .5-.3.4a33 33 0 0 0-5.2 0c-.4 0-.6 0-.6-.4 0-.3.3-.5.7-.5.7 0 1-.5 1-1.5v-3.6c0-2-.9-3-2.5-3a6 6 0 0 0-2.4.4c-.7.3-1 .6-1 .9l-.1 5.4c0 .6 0 1 .2 1.1l.7.3c.8.1 1.2.3 1.2.5v.4h-.6a67.9 67.9 0 0 0-5 0c-.1 0-.2-.1-.2-.3 0-.3.3-.4.8-.5.6 0 .8-.5.8-1.5v-3.7c0-1-.2-1.8-.6-2.3-.4-.5-1-.8-1.6-.8-.9 0-1.7.2-2.4.6-.8.3-1.1.7-1.1 1.1v5c0 .6.1 1 .4 1.2.3.2.8.3 1.4.4.4 0 .6.1.6.4 0 .2-.1.4-.4.4a44.6 44.6 0 0 0-5.7.2v-.4c0-.2.2-.4 1-.6.3 0 .5-.6.5-1.6v-4.2c0-1-.3-1.6-.8-1.8a5 5 0 0 1-1-.3v-.3c0-.2.4-.5 1.4-1l1.8-1c.2 0 .4.4.5 1 .1.5.2.7.3.7.1 0 .4 0 .8-.4a8.8 8.8 0 0 1 1.6-.8 6.3 6.3 0 0 1 2.3-.4c.6 0 1.2.1 1.6.4.4.2.7.4 1 .8l.3.4.7-.4a9.5 9.5 0 0 1 1.6-.8 6.8 6.8 0 0 1 2.3-.4c2.4 0 3.7 1.4 3.7 4.1v4.4c0 .6.1 1 .4 1.1.2.2.6.4 1.3.5.4.1.7.2.7.4zm11.6-2c0 .5-.5 1-1.6 1.6-1.2.6-2.4 1-3.7 1-1.3 0-2.5-.5-3.4-1.4a5 5 0 0 1-1.5-3.9c0-1.8.5-3.2 1.6-4.3 1-1 2.4-1.5 3.9-1.5.9 0 1.7.3 2.5.8.7.5 1.2 1.1 1.4 1.8l.4.4c.2 0 .3.2.3.4 0 .4-.4.7-1.3 1l-6.3 1.9c.4 2.1 1.5 3.2 3.3 3.2 1 0 2.3-.4 3.6-1.1l.6-.2c.2 0 .2.1.2.4zm-3.2-5.4c0-.5-.2-1-.6-1.3-.4-.4-1-.6-1.5-.6-1.7 0-2.5 1.2-2.5 3.6v.4l3.7-1.1c.6-.2.9-.5.9-1z" font-family="High Tower Text" font-size="28" font-weight="400" style="line-height:90%;-inkscape-font-specification:'High Tower Text';text-align:end" text-anchor="end"/></g></svg>