<svg xmlns="http://www.w3.org/2000/svg" height="800" width="1200" viewBox="-144.18675 -49.706 1249.6185 298.236"><path d="M19.016 72.011c0 31.111 21.864 56.834 54.025 56.834 14.914 0 28.043-4.875 38.598-15.946 9.496-10.033 15.922-25.459 15.922-39.342 0-31.653-24.93-55.292-56.34-55.292-29.291 0-52.205 24.91-52.205 53.746zm127.088 51.704c0 21.857-.773 35.241-16.458 52.212-13.652 14.91-35.525 22.897-55.591 22.897-30.859 0-61.216-20.856-68.933-51.71h18.522c11.042 20.824 27.778 33.441 51.956 33.441 18.01 0 36.782-8.238 46.046-24.434 6.166-11.067 6.166-20.054 6.166-32.415v-7.701c-8.968 21.06-33.148 31.109-55.022 31.109-18.535 0-37.304-7.98-50.691-20.573C7.175 112.38 0 94.383 0 73.798 0 54 8.21 35.995 13.366 30.325 31.876 6.919 51.662 0 71.75 0c22.371 0 45.257 10.021 56.062 30.325V3.069l18.292.025v120.621" fill="#007f46"/><path d="M272.178 63.004c-4.9-24.93-27.79-44.739-53.767-44.739-26.5 0-49.897 18.761-54.53 44.739zM163.88 80.23c1.004 26.756 27.03 48.615 52.983 48.615 20.825 0 41.922-11.551 50.414-30.854h19.785c-9.753 28.299-38.572 49.123-68.4 49.123-41.143 0-73.808-32.403-73.808-73.556 0-40.9 32.409-73.558 73.278-73.558 22.152 0 42.46 10.021 56.618 27.246 13.11 16.223 15.925 32.67 16.444 52.984H163.883" fill="#007f46"/><path d="M290.447 3.094h18.008v20.29h.508C319.238 8.212 333.65 0 352.16 0c18.769 0 37.301 8.212 49.912 23.384 10.812 13.642 12.845 28.577 12.845 46.307v74.076H395.91V69.691c0-12.081-1.055-23.38-8.256-33.461-8.47-11.799-21.856-17.965-36.244-17.965-13.13 0-26.765 6.412-34.49 17.214-7.434 10.048-7.206 22.386-7.434 34.212v74.076h-19.037V3.092" fill="#007f46"/><path d="M407.954 127.054L484.1 20.309h-73.564V3.095h96.733v17.214l-75.633 106.233h80.531v17.227H407.955v-16.715" fill="#007f46"/><path d="M624.533 3.094l-81.284 190.075-20.075-.017 22.137-53.748L491.282 3.09h20.315l45.013 112.15L604.204 3.091h20.329" fill="#007f46"/><path d="M607.246 3.204h18.018V21.47h.535C632.226 6.791 647.13.11 662.805.11c18.536 0 34.219 7.732 45.561 21.361 1.273 1.799 2.284 3.585 3.578 5.394.77-1.809 1.8-3.34 2.834-5.394C724.538 7.842 742.803.11 759.288.11c15.168 0 29.82 7.481 43.725 21.361 11.31 11.303 13.112 25.714 13.112 42.18v80.255h-19.02V65.475c0-10.312-.795-21.632-6.964-30.377-7.72-10.793-18.758-16.72-31.906-16.72-12.085 0-24.135 6.183-31.098 15.96-6.18 8.743-5.932 20.825-5.932 31.137v78.431h-19.031V63.398c0-10.538-.524-18.783-6.691-28.045-7.222-10.297-19.04-16.974-31.652-16.974-11.79 0-23.64 5.146-30.861 14.922-6.425 9.27-6.673 19.306-6.673 30.097v80.508h-19.05l.013-140.7" fill="#007f46"/><path d="M942.196 63.155c-4.846-24.966-27.751-44.776-53.737-44.776-26.513 0-49.9 18.776-54.531 44.755zM833.927 80.347c1.045 26.773 27.008 48.623 52.968 48.623 20.844 0 41.943-11.546 50.455-30.849h19.786c-9.781 28.298-38.595 49.119-68.413 49.119-41.154.011-73.86-32.399-73.86-73.559C814.864 32.774 847.29.11 888.177.11c22.141 0 42.463 10.038 56.608 27.286 13.127 16.192 15.962 32.644 16.461 52.952H833.932" fill="#007f46"/></svg>