<svg xmlns="http://www.w3.org/2000/svg" viewBox="0 -0.47 778 1116.47"><g fill="none"><path fill="#34A853" d="M214 827c35 43 70 97 88 130 23 42 32 71 49 122 9 28 19 37 38 37 21 0 31-15 39-37 15-48 27-85 46-120 37-67 85-127 130-185 13-16 94-110 130-186 0 0 44-82 44-197 0-107-44-182-44-182l-126 34-77 202-19 28-4 5-5 6-9 11-13 12-68 56-171 99z"/><path fill="#FBBC04" d="M38 575c42 95 122 178 176 252l289-343s-40 54-114 54c-82 0-149-66-149-148 0-57 34-96 34-96L78 346z"/><path fill="#4285F4" d="M507 18c96 31 178 96 227 192L503 485s34-40 34-96c0-84-71-148-148-148-73 0-115 53-115 53V120z"/><path fill="#1A73E8" d="M91 139A386 386 0 0 1 506 18L274 294H110z"/><path fill="#EA4335" d="M38 575S0 499 0 391c0-103 40-193 91-251l184 154z"/></g></svg>