<svg xmlns="http://www.w3.org/2000/svg" xmlns:xlink="http://www.w3.org/1999/xlink" width="1200" height="800" viewBox="-19 -29 166 171"><g transform="translate(0 -7)"><linearGradient id="a" x1="64" x2="64" y1="7" y2="120.8" gradientUnits="userSpaceOnUse"><stop offset="0" stop-color="#4387fd"/><stop offset="1" stop-color="#4683ea"/></linearGradient><path fill="url(#a)" d="M28 115 2 70a11 11 0 0 1 0-12l26-45a12 12 0 0 1 10-6h52a12 12 0 0 1 10 6l26 45a11 11 0 0 1 0 12l-26 45a12 12 0 0 1-10 6H38a11 11 0 0 1-10-6z"/></g><g transform="translate(0 -7)"><defs><path id="b" d="M28 115 2 70a11 11 0 0 1 0-12l26-45a11 11 0 0 1 10-6h52a12 12 0 0 1 10 6l26 45a11 11 0 0 1 0 12l-26 45a12 12 0 0 1-10 6H38a11 11 0 0 1-10-6z"/></defs><clipPath id="c"><use xlink:href="#b" width="100%" height="100%" overflow="visible"/></clipPath><path d="m73 46-7-6-3 6-7-6-2 8-6 1-1 5-8 2 7 7-6 3 6 6-6 3 46 47h12l21-39-43-43z" clip-path="url(#c)" opacity=".1"/></g><g fill="#fff"><path d="M70 50H58l-1 1v12a1 1 0 0 0 1 1h12a1 1 0 0 0 1-1V51l-1-1"/><path d="m88 49 1-1v-2l-1-1h-6v-5a1 1 0 0 0-1-1h-5v-6l-1-1h-2l-1 1v6h-6v-6l-1-1h-2l-1 1v6h-6v-6l-1-1h-2l-1 1v6h-5a1 1 0 0 0-1 1v5h-6l-1 1v2l1 1h6v6h-6l-1 1v2l1 1h6v6h-6l-1 1v2l1 1h6v5l1 1h5v6l1 1h2l1-1v-6h6v6l1 1h2l1-1v-6h6v6l1 1h2l1-1v-6h5a1 1 0 0 0 1-1v-5h6l1-1v-2l-1-1h-6v-6h6l1-1v-2l-1-1h-6v-6h6zM78 71H50V43h28z"/></g></svg>