<svg xmlns="http://www.w3.org/2000/svg" xml:space="preserve" id="Livello_1" x="0" y="0" version="1.1" viewBox="0 -0.47 6079.68 1116.47"><style id="style2" type="text/css">.st1{fill:#63666a}</style><g id="g19"><path id="path6" fill="#5f6368" fill-rule="evenodd" d="m3596 667 207-86c-12-29-46-49-86-49-52 0-124 46-121 135m242 83 79 53c-25 38-86 103-192 103a224 224 0 0 1-227-232c0-138 96-231 215-231 120 0 179 95 198 147l11 26-310 128c24 47 61 70 112 70 52 0 88-25 115-64m-502 142h102V211h-102zm-166-217c0-82-55-141-124-141-70 0-129 59-129 141 0 81 59 139 129 139 69 0 124-58 124-139zm89-218v415c0 171-101 241-220 241-112 0-180-75-205-136l89-37c15 37 54 82 116 82 77 0 124-47 124-136v-33h-4c-22 28-66 53-121 53a229 229 0 0 1-222-231c0-131 106-232 221-232 56 0 100 24 122 51h4v-37h96zM2150 674c0-83-59-140-128-140s-129 57-129 140c1 82 60 140 129 140s128-58 128-140m100 0a228 228 0 1 1-456 0c0-134 102-231 228-231s228 97 228 231m412 0c0-83-60-140-129-140s-128 57-128 140c0 82 59 140 128 140s129-58 129-140m99 0c1 133-102 232-228 232-125 0-228-99-228-232 0-134 103-231 228-231 126 0 229 97 229 231M1403 906a365 365 0 0 1-365-360c0-198 166-360 365-360 109 0 187 43 246 100l-69 69a258 258 0 0 0-435 191c0 145 113 261 258 261 93 0 147-37 181-72 28-28 47-68 54-123h-235v-98h330a329 329 0 0 1-79 291 330 330 0 0 1-251 101" clip-rule="evenodd"/><g id="flowRoot2998" transform="translate(-384 -1511) scale(4.21911)"><path id="path3911" d="M1078 568V425h18l50 87h1l49-87h19v143h-19v-85l1-24h-1l-45 78h-10l-45-78h-1l1 24v85z" class="st1"/><path id="path3913" d="M1271 571c-10 0-19-3-26-9s-10-14-10-24 4-19 12-25 19-9 31-9c11 0 19 2 26 6v-3c0-7-2-13-7-17s-11-6-18-6c-6 0-11 1-15 3-4 3-7 6-9 11l-17-8c3-5 7-11 14-16s15-7 26-7c13 0 23 3 31 11s13 17 13 31v59h-18v-14c-8 11-19 17-33 17zm3-17c8 0 15-2 21-8s9-13 9-20c-5-5-13-7-23-7-9 0-16 2-20 6s-7 9-7 14 2 8 6 11 9 4 14 4z" class="st1"/><path id="path3915" d="M1394 571c-8 0-15-1-21-5-5-3-10-7-13-12h-1l1 14v43h-18V470h17v13h1a41 41 0 0 1 33-17c13 1 24 6 33 16 10 10 14 22 14 37s-4 27-14 37c-9 10-20 15-32 15zm-3-17c8 0 15-3 22-9 6-7 9-15 9-26s-3-19-9-26-14-10-22-10c-9 1-16 4-23 10-6 7-9 15-9 26s3 19 10 26c6 6 13 9 22 9z" class="st1"/><path id="path3917" d="M1494 571a44 44 0 0 1-43-28l16-7c5 13 14 19 27 19 5 0 10-2 14-4 3-3 5-6 5-10 0-6-4-11-13-13l-20-5c-6-1-12-4-18-9-5-4-8-10-8-18 0-9 4-16 11-21 8-6 17-8 28-8 8 0 16 2 23 6s12 9 14 17l-16 6c-3-9-11-13-22-13-5 0-10 1-14 4-3 2-5 5-5 9 0 5 4 9 13 11l19 5c9 2 16 5 20 11 5 5 7 11 7 17 0 9-4 16-11 22s-16 9-28 9z" class="st1"/></g><g id="g842" transform="translate(-583 53)"><path id="path835" fill="#34a853" d="M798 774c34 43 69 97 88 130 22 42 31 71 48 122 10 28 19 37 38 37 22 0 31-15 39-37 15-48 27-85 46-120 38-67 85-127 131-185 12-16 93-110 129-186 0 0 44-82 44-197 0-107-43-182-43-182l-127 34-77 202-19 28-4 5-5 6-9 11-12 12-69 56-170 99z"/><path id="path833" fill="#fbbc04" d="M621 522c42 95 122 178 177 252l289-343s-41 54-115 54c-82 0-149-66-149-148 1-57 34-96 34-96l-196 52z"/><path id="path831" fill="#4285f4" d="M1090-35c96 31 178 96 228 192l-231 275s33-40 33-96c0-84-71-148-148-148-73 0-115 53-115 53V67z"/><path id="path829" fill="#1a73e8" d="M674 86a386 386 0 0 1 415-121L857 241H693z"/><path id="path827" fill="#ea4335" d="M621 522s-38-76-38-184c0-103 41-193 92-251l183 154z"/></g></g></svg>