<svg xmlns="http://www.w3.org/2000/svg" width="335.3" height="136.8"><path d="M52 902h114l1 1v110l-1 1H52l-1-1V903l1-1z" style="fill:#314cb0;fill-opacity:1;fill-rule:nonzero;stroke:#1d2d68;stroke-width:4.85048628;stroke-miterlimit:4;stroke-opacity:1" transform="translate(-41 -884)"/><path d="m80 948 17-21c4-5 5-8 5-10v-2h30c-3 1-5 4-9 8l-5 6-22 28 27 36a97 97 0 0 0 9 10h-31l1-2c0-3-2-6-5-10l-17-23v23c0 6 1 10 4 12H56l3-5v-78l-3-5h28c-3 2-4 6-4 12v21M159 938v55l1 5 2 5h-26c2-1 2-3 3-5v-55l-3-5h23m-10-30 9 3c2 2 3 5 3 8 0 4-1 7-3 9-3 2-5 3-9 3-3 0-6-1-8-3-2-3-4-5-4-9 0-3 2-6 4-8s5-3 8-3" style="font-style:normal;font-weight:400;font-size:120.79350281px;line-height:122.00000286%;font-family:Sans;letter-spacing:0;word-spacing:0;fill:#fff;fill-opacity:1;stroke:none" transform="translate(-41 -884)"/><path d="M236 999c-6 4-13 5-21 5-12 0-22-4-29-13s-11-19-11-32c0-14 5-25 13-34 8-7 17-11 27-11 7 0 14 2 21 6l5 2-11 15c-3-5-8-7-13-7-10 0-15 6-18 17l-2 12c0 13 4 21 10 26l9 3c6 0 12-3 16-8l10 16-6 3M279 985v-10l-5-1-8 2c-3 2-5 4-5 7 0 2 1 4 3 5l6 2c4 0 7-2 9-5m23 18h-22v-5c-4 4-9 6-15 6-5 0-9-1-13-3s-7-5-8-9c-2-3-2-6-2-10 0-8 4-14 12-18 4-2 11-3 19-3h6c0-6-3-10-9-10-5 0-10 2-15 5l-6-15 8-1 8-2 8-1c13 0 21 4 24 12 2 4 2 9 2 15v29l1 5 2 5M347 985v-30c-2-2-5-3-8-3-7 0-11 7-11 20 0 11 3 17 10 17 3 0 6-2 9-4m-2-75h23v83c0 5 1 8 3 10h-23v-5c-4 4-9 6-16 6-6 0-10-1-15-5-3-3-6-7-8-13l-2-13c0-15 4-26 12-32 4-2 8-4 13-4 7 0 12 2 15 5v-27l-2-5" style="font-style:normal;font-weight:400;font-size:120.79350281px;line-height:122.00000286%;font-family:Sans;letter-spacing:-6.5999999px;word-spacing:0;fill:#1b2b63;fill-opacity:1;stroke:none" transform="translate(-41 -884)"/><path d="M135 907h29v27h-29z" style="fill:#314cb0;fill-opacity:1;fill-rule:nonzero;stroke:none" transform="translate(-41 -884)"/><path d="M161 902a12 12 0 1 1-24 0 12 12 0 0 1 24 0z" style="fill:#f70;fill-opacity:1;fill-rule:nonzero;stroke:none" transform="translate(-41 -884)"/></svg>