<svg xmlns="http://www.w3.org/2000/svg" viewBox="-0.15 -0.03 703.36 682.03"><path fill="#326ce5" d="M349 0a47 46 0 0 0-18 5L87 121a47 46 0 0 0-26 32L1 415a47 46 0 0 0 7 36 47 46 0 0 0 2 3l169 211a47 46 0 0 0 37 17h271a47 46 0 0 0 37-18l169-210a47 46 0 0 0 9-39l-61-262a47 46 0 0 0-25-32L372 5a47 46 0 0 0-23-5z"/><path fill="#fff" stroke="#fff" stroke-width=".3" d="M351 89c-8 0-14 8-14 17v4l2 14c1 10 2 18 1 26 0 3-2 6-4 8l-1 6a190 190 0 0 0-26 4c-38 9-71 28-96 55a245 245 0 0 1-5-4c-3 0-5 1-9-1-6-4-12-11-19-18l-10-10-3-3-10-4c-5 0-9 2-12 6-5 6-4 16 4 21l3 3 12 7 22 15 3 9 4 4c-25 38-36 84-30 132l-6 2-6 6-26 4-14 1-4 1c-9 2-15 10-13 18s10 13 19 11h1l3-1 13-5c10-4 18-7 26-8 3 0 7 2 8 3l7-1c14 46 45 82 84 105l-3 7 2 8c-3 8-8 15-14 24l-7 12-2 4c-4 8-1 17 6 20 7 4 16 0 20-8l2-4 4-13c4-10 6-20 12-26 1-2 3-3 6-3l3-6c34 13 72 16 110 7a190 190 0 0 0 25-7l3 6c3 0 5 1 8 4 4 7 6 15 10 25l4 13 2 4c4 8 13 12 20 8 7-3 10-13 6-21l-2-4-8-11c-5-9-10-16-12-24-2-3 0-6 1-8l-3-6c41-24 70-62 85-106l6 1c2-1 4-3 8-3 8 1 16 4 25 7l14 6h4c9 2 17-2 19-10s-4-16-13-18l-4-1-14-1-26-4-6-7-6-2a189 189 0 0 0-31-131l5-5c1-2 0-5 3-8l22-15 12-7 3-3c7-6 9-15 4-22-5-6-15-7-22-1l-3 3-10 10-20 18-8 1-6 4c-32-34-75-55-121-59l-1-7c-2-1-4-3-5-7l2-26 2-14v-4c0-9-7-17-15-17zm-18 114-4 76-1 1a13 13 0 0 1-20 9v1l-63-45c19-19 44-33 73-40a154 154 0 0 1 15-2zm37 0c33 4 64 19 87 42l-62 44c-6 4-14 3-18-2a13 13 0 0 1-3-8zm-148 71 58 51c5 5 5 13 1 18a13 13 0 0 1-7 4v1l-73 21c-4-34 4-68 21-95zm258 0a153 153 0 0 1 22 95l-74-22c-6-2-10-8-9-15a13 13 0 0 1 4-7l57-51zm-140 55h23l15 18-5 23-22 10-21-10-5-23zm75 63h3l76 12c-11 32-32 59-61 77l-29-71a13 13 0 0 1 11-18zm-128 0a13 13 0 0 1 12 18l-29 71c-28-18-49-44-61-76l76-13h2zm64 31a13 13 0 0 1 6 1c3 1 5 3 6 6l37 67a154 154 0 0 1-15 4c-28 6-56 4-82-4l37-67a13 13 0 0 1 11-7z" color="#000" font-family="Sans" font-weight="400" overflow="visible" style="line-height:normal;-inkscape-font-specification:Sans;text-indent:0;text-align:start;text-decoration-line:none;text-transform:none;marker:none"/></svg>