<svg xmlns="http://www.w3.org/2000/svg" width="800" height="800" fill="none" viewBox="0 0 16 16"><path fill="#202020" d="M13.34 12.03c-.1-.1-.15-.32-.2-.54-.05-.22-.1-.45-.29-.6a.76.76 0 0 0-.22-.14 3.2 3.2 0 0 0-.1-2.16 7.25 7.25 0 0 0-1.27-2.03c-.46-.58-.92-1.14-.91-1.96.01-1.26.14-3.58-2.07-3.58H8c-2.46.2-1.81 2.81-1.85 3.68a3.15 3.15 0 0 1-.61 1.77A8.72 8.72 0 0 0 3.96 9.1c-.17.5-.24.99-.17 1.46a.76.76 0 0 0-.07.06c-.15.16-.26.36-.38.49-.12.12-.29.16-.47.23a.83.83 0 0 0-.5.39.7.7 0 0 0-.08.34l.03.32c.04.22.07.43.03.57-.15.4-.17.67-.06.86.1.2.3.29.54.34.48.1 1.12.07 1.62.34l.04-.08-.04.08a2.3 2.3 0 0 0 1.53.29.99.99 0 0 0 .7-.56c.35 0 .72-.14 1.32-.18.4-.03.92.15 1.5.12a.8.8 0 0 0 .07.18c.23.46.65.66 1.1.63a2 2 0 0 0 1.32-.76l-.07-.06.07.06c.37-.45.98-.64 1.39-.88.2-.13.36-.28.38-.5 0-.22-.12-.47-.42-.8z"/><path fill="#F8BF11" d="M13.57 12.83c0 .13-.1.24-.29.35-.37.22-1.02.41-1.43.92-.36.43-.8.66-1.2.7a.9.9 0 0 1-.91-.53c-.12-.24-.07-.6.03-1s.25-.78.27-1.1c.02-.42.04-.78.11-1.06s.18-.47.38-.57a.88.88 0 0 1 .02-.02c.03.36.2.73.52.8.34.1.84-.2 1.05-.44h.12c.18 0 .33 0 .5.14.11.1.17.3.22.52.05.21.1.45.24.62.29.32.38.53.37.67zM6.6 13.84c-.03.44-.28.68-.65.76-.38.09-.9 0-1.4-.26-.57-.3-1.24-.27-1.67-.36-.21-.05-.36-.12-.42-.24-.06-.13-.07-.34.07-.72.07-.21.02-.44-.01-.66-.04-.21-.05-.4.02-.54.1-.18.23-.25.4-.31.18-.06.38-.11.54-.27.15-.16.26-.35.39-.5.11-.11.22-.19.39-.19a.61.61 0 0 1 .1 0c.21.04.4.2.59.45l.53.97c.14.3.44.62.7.95.25.33.45.67.42.92z"/><path fill="#D6A312" d="M9.25 4.79c-.04-.09-.13-.17-.28-.23-.31-.13-.44-.14-.62-.25a1.3 1.3 0 0 0-.7-.24.83.83 0 0 0-.27.04c-.24.08-.4.25-.5.34l-.1.08-.28.21c-.12.09-.15.2-.11.33.04.14.16.29.4.42.14.09.24.2.36.3a.8.8 0 0 0 .19.1c.07.04.15.06.26.07.24.01.43-.06.59-.15.16-.1.3-.2.45-.26.32-.1.55-.3.62-.5a.32.32 0 0 0-.01-.26z"/><path fill="#202020" d="M8.44 5.26c-.26.13-.55.3-.87.3a1.2 1.2 0 0 1-.75-.3l-.21-.19c-.1-.07-.09-.18-.05-.18.07.01.08.1.12.14l.2.19c.18.13.4.26.69.26.28 0 .61-.16.82-.28.11-.06.26-.18.37-.26.1-.07.1-.15.17-.14.07 0 .02.09-.09.18-.1.09-.27.21-.4.28z"/><path fill="#fff" d="M12.34 10.7a1.72 1.72 0 0 0-.1 0h-.02c.1-.28-.1-.49-.62-.72-.53-.23-.96-.21-1.03.27l-.01.07a.8.8 0 0 0-.12.06c-.25.13-.39.38-.47.69-.07.3-.1.67-.11 1.09-.02.2-.1.49-.2.79-.87.62-2.08.9-3.11.19a4.6 4.6 0 0 0-.24-.33 13.85 13.85 0 0 0-.16-.2.65.65 0 0 0 .27-.05.34.34 0 0 0 .19-.2c.06-.17 0-.4-.2-.68-.2-.27-.55-.58-1.05-.88a1.48 1.48 0 0 1-.67-.82c-.1-.3-.08-.63 0-.96.14-.62.5-1.23.74-1.61.06-.05.02.08-.24.56-.23.44-.67 1.46-.07 2.25.01-.56.15-1.14.38-1.67.32-.75 1.01-2.05 1.07-3.08.03.02.12.09.17.11.12.08.22.19.34.29a.85.85 0 0 0 .58.2c.24 0 .42-.08.58-.17.17-.1.3-.2.43-.25.27-.08.49-.23.6-.4.22.82.7 2.02 1.02 2.6.17.31.5.97.65 1.77.09 0 .19 0 .3.03.37-.97-.32-2.02-.64-2.31-.13-.12-.14-.18-.07-.18.34.3.8.92.96 1.61.07.32.09.65 0 .97l.13.06c.6.29.82.55.72.9z"/><path fill="#E6E6E6" d="M8.04 8.06c-.56 0-1.1.25-1.56.72a4.22 4.22 0 0 0-1.02 1.89l.06.03c.47.3.81.6 1.02.89.22.3.31.58.22.83a.51.51 0 0 1-.27.28l-.04.02.21.3c.95.63 2.04.4 2.87-.17.08-.28.15-.54.16-.7.02-.42.04-.8.13-1.12.08-.33.24-.63.54-.8l.05-.02a.76.76 0 0 1 .02-.1 3.76 3.76 0 0 0-1-1.5c-.43-.35-.9-.54-1.39-.55zm2.37 2.16z"/><path fill="#fff" d="M9.28 3.83a1.05 1.05 0 0 1-.22.66 4.12 4.12 0 0 0-.21-.1l-.13-.04c.03-.03.08-.07.1-.12a.67.67 0 0 0 .05-.25.67.67 0 0 0-.03-.24.43.43 0 0 0-.1-.19.22.22 0 0 0-.16-.07h-.01a.23.23 0 0 0-.15.06.43.43 0 0 0-.12.18.68.68 0 0 0-.05.24v.01a.72.72 0 0 0 0 .14A1.77 1.77 0 0 0 7.9 4a1.2 1.2 0 0 1 0-.13v-.01a1.03 1.03 0 0 1 .08-.45.8.8 0 0 1 .25-.33.55.55 0 0 1 .35-.12c.13 0 .23.03.34.11a.78.78 0 0 1 .26.33c.06.14.1.27.1.43v.01zM7.38 4a1.05 1.05 0 0 0-.27.12.62.62 0 0 0 0-.15.65.65 0 0 0-.05-.2.37.37 0 0 0-.1-.14.16.16 0 0 0-.11-.04.16.16 0 0 0-.11.06.37.37 0 0 0-.07.16.63.63 0 0 0-.01.2v.01a.63.63 0 0 0 .04.2.37.37 0 0 0 .12.15l-.1.08-.08.05a.7.7 0 0 1-.16-.24 1.06 1.06 0 0 1-.09-.38 1.07 1.07 0 0 1 .05-.39.67.67 0 0 1 .16-.29.36.36 0 0 1 .27-.12c.08 0 .15.03.23.1a.68.68 0 0 1 .2.26 1.2 1.2 0 0 1 .1.56z"/><path fill="#202020" d="M7.8 4.33c.02.04.07.03.1.05l.08.05c.03 0 .08-.01.08-.04 0-.04-.05-.07-.08-.08-.05-.02-.11-.03-.16 0 0 0-.02.01-.01.03zm-.32 0c0 .04-.06.03-.1.05l-.07.05c-.03 0-.08-.01-.08-.04 0-.04.05-.07.08-.08.05-.02.11-.03.16 0 0 0 .02.01.01.03z"/></svg>