<svg xmlns="http://www.w3.org/2000/svg" width="1200" height="800" viewBox="-79 -36 685 215"><defs><linearGradient id="b" x1="0" x2="1" y1="0" y2="0" gradientTransform="matrix(344.394 -116.194 -104.815 -309.067 78 576)" gradientUnits="userSpaceOnUse" spreadMethod="pad"><stop offset="0" stop-color="#929669"/><stop offset=".2" stop-color="#929669"/><stop offset="1" stop-color="#fdfcf1"/></linearGradient><linearGradient id="d" x1="0" x2="1" y1="0" y2="0" gradientTransform="matrix(241.166 -936.211 -1007.33 -161.502 204 1136)" gradientUnits="userSpaceOnUse" spreadMethod="pad"><stop offset="0" stop-color="#45aa3a"/><stop offset="1" stop-color="#3d9439"/></linearGradient><linearGradient id="f" x1="0" x2="1" y1="0" y2="0" gradientTransform="matrix(422.095 95.9042 131.897 -394.11 -25 596)" gradientUnits="userSpaceOnUse" spreadMethod="pad"><stop offset="0" stop-color="#41a83b"/><stop offset="1" stop-color="#5ebc44"/></linearGradient><clipPath id="a" clipPathUnits="userSpaceOnUse"><path d="m276 29-30 10s4 151-51 162c-36 42 6 1785 137 6 0 0-45-23-54-61-8-38-2-117-2-117z"/></clipPath><clipPath id="c" clipPathUnits="userSpaceOnUse"><path d="M292 175s260 172 199 528c-58 258-197 343-212 376-16 23-33 64-33 64l11-721s-23-220 35-247z"/></clipPath><clipPath id="e" clipPathUnits="userSpaceOnUse"><path d="M231 166S-13 332 1 626a620 620 0 0 0 220 465c21 23 22 32 24 55 15-33 13-489 14-542 7-207-11-399-28-438z"/></clipPath></defs><g clip-path="url(#a)" transform="matrix(.125 0 0 -.125 0 143)"><path fill="url(#b)" d="m276 29-30 10s4 151-51 162c-36 42 6 1785 137 6 0 0-45-23-54-61-8-38-2-117-2-117"/></g><g clip-path="url(#c)" transform="matrix(.125 0 0 -.125 0 143)"><path fill="url(#d)" d="M292 175s260 172 199 528c-58 258-197 343-212 376-16 23-33 64-33 64l11-721s-23-220 35-247"/></g><g clip-path="url(#e)" transform="matrix(.125 0 0 -.125 0 143)"><path fill="url(#f)" d="M231 166S-13 332 1 626a620 620 0 0 0 220 465c21 23 22 32 24 55 15-33 13-489 14-542 7-207-11-399-28-438"/></g><path fill="#c0bdba" d="m398 111 10 2c5 0 10-1 14-5 5-4 9-11 9-22 0-10-4-18-12-23-5-3-11-4-17-4h-5l-1 2-1 24a541 541 0 0 0 3 26zm-21-57 12 1 20-1c9 0 17 3 22 7 7 6 10 14 10 24 0 13-6 21-12 26-6 4-15 7-26 7h-26l2-4 4-1c2-1 2-2 2-5V64c0-4-1-4-4-5l-6-1 2-4m92 5-1 2a991 991 0 0 0 0 20h7l8-1c3-1 5-5 5-9 0-9-7-12-16-12h-3zm23 41c0-9-7-14-19-14h-6l1 21c0 2 1 4 3 5l8 1c7 0 13-4 13-13zm-42-46 11 1 18-1c8 0 19 3 19 15 0 6-4 10-10 13 8 2 15 7 15 16 0 8-6 14-14 17-5 2-11 3-17 3h-23c-1-1 0-4 1-4l4-1c3-1 3-2 4-5V63c0-3-1-3-3-4l-7-1 2-4"/><path fill="#414044" d="M82 118v-3l4-1c2-1 3-2 3-4V87l-1-3-5-2-2-1 2-2 14-3v1a89 89 0 0 1 0 4l1 1c6-5 11-6 14-6 4 0 8 2 11 6a1 1 0 0 0 1 0c5-4 10-6 14-6 8 0 13 6 13 16v11a1120 1120 0 0 0 2 10l5 1v4h-3a130 130 0 0 0-18 0v-4h4l2-4V90c-1-4-4-8-10-8-2 0-5 1-9 4v25c0 2 2 2 2 3h5v3l-1 1a294 294 0 0 0-16 0h-4l-1-2 1-1 1-1h3l2-4V90c-1-6-4-8-9-8l-9 3-1 2a1873 1873 0 0 1 0 24l3 3h3v4H82m102-38-5 1c-3 2-5 7-5 13 0 12 6 20 14 20 3 0 5 0 7-2s4-6 4-12c0-12-6-20-15-20zm2 39c-16 0-21-11-21-22 0-7 3-13 9-17 4-3 9-4 14-4 12 0 20 8 20 20 0 8-3 15-10 19-3 2-8 4-12 4m158-39-5 1c-3 2-5 7-5 13 0 12 6 20 14 20 3 0 5 0 7-2s4-6 4-12c0-12-6-20-15-20zm2 39c-16 0-21-11-21-22 0-7 3-13 9-17 4-3 9-4 14-4 12 0 20 8 20 20 0 8-3 15-10 19-3 2-8 4-12 4m-53-39c-5 0-8 3-8 9s2 13 10 13l5-2 2-8c0-8-3-12-9-12zm-1 40-4 1c-4 2-5 4-5 7s1 5 3 7 6 3 11 3c9 0 13-5 13-10 0-3-2-6-5-7l-13-1zm1 23c-6 0-10-1-13-4-4-2-5-6-5-9l2-4 8-7v-1c-4-1-6-4-6-5a3 3 0 0 0 0-1v-1l3-2 4-3a1 1 0 0 0 0-1c-6-2-10-6-10-14 0-4 3-8 6-11 3-2 9-4 13-4h1l10 2 5 1c4 0 5-1 7-3v2l-1 4-4 2h-3v5c0 7-2 10-6 13l-10 4h-3c-1 0-2 1-2 3 0 1 0 3 4 3h3l15 2c4 1 6 5 6 10 0 6-4 13-12 17l-12 2m-26-29-6-1v-2l-1-18c0-5 0-9-3-12-2-4-5-6-10-6-4 0-9 3-14 7h-1l1-5-1-1-14 3c-2 1-3 3 0 3l5 3 1 2v23l-3 4a32 32 0 0 1-3 0v4h21v-4h-4c-2-1-2-1-2-3V89l1-3c2-2 5-4 8-4s5 1 6 3c2 1 3 4 3 5l1 19c0 3-1 4-2 5h-4v4h21v-4"/><path fill="#c0bdba" d="M517 109h2l2-1c0-2-1-2-2-2h-2zm4 6-2-5h-2v5h-1v-10h3c2 0 3 1 3 3l-2 2 2 5zm-2-12c-4 0-7 3-7 7a7 7 0 0 0 7 7 7 7 0 0 0 7-7c0-4-3-7-7-7zm0 15c-5 0-8-4-8-8 0-5 3-8 8-8 4 0 8 3 8 8 0 4-4 8-8 8"/></svg>