<svg xmlns="http://www.w3.org/2000/svg" height="800" width="1200" fill="none" viewBox="-21.6 -6.884125 187.2 41.30475"><path fill="#1F74BD" d="M6.1816 9.9978c1.9385 0 4.0187.958 5.0741 2.4174 1.0553-1.4594 3.1378-2.6025 5.0763-2.6025 3.2933 0 6.1816 2.4036 6.1816 7.0065l.074 3.1045c0 4.7724 3.1475 5.383 4.4435 5.383 1.296 0 4.325-.8676 4.325-4.9408v-8.5918c0-1.4779 2.2291-1.4779 2.2291 0v8.5918c-.0792 5.3692-3.9621 7.1595-6.5541 7.1595s-6.6652-1.5333-6.6652-7.6017l-.0752-3.2842c0-3.8645-2.702-4.4227-3.9587-4.4227-1.9796 0-3.9592 1.6456-3.9592 4.4227v9.7784c0 .6136-.4976 1.1075-1.1112 1.1075h-.0096c-.6136 0-1.1113-.4939-1.1113-1.1075v-9.7784c0-2.7771-1.9795-4.4227-3.9591-4.4227-1.9796 0-3.9599 1.0446-3.9588 5.1484v9.0527c0 .6099-.4976 1.1075-1.1116 1.1075C.4977 27.5254 0 27.0315 0 26.4179v-9.0527c0-5.3998 2.9786-7.3674 6.1816-7.3674zm20.6283-7.776c-2.8294 0-4.4657 2.4068-4.4657 4.6285 0 1.6663-2.2202 1.6663-2.2206 0C20.1236 2.9623 23.0548 0 26.8099 0s6.6871 2.9623 6.6871 6.8503c0 1.6663-2.227 1.6663-2.227 0 0-2.2217-1.6307-4.6286-4.4601-4.6286zm.2144 3.2242c.8102 0 1.4664.6561 1.4664 1.4664 0 .8102-.6562 1.4663-1.4664 1.4663-.8101 0-1.4663-.6561-1.4663-1.4664 0-.8102.6562-1.4663 1.4663-1.4663zm18.6016 12.8367c3.4914 1.1413 4.1087 3.0574 4.0228 4.4756-.1574 2.7202-2.8964 4.7749-6.3653 4.7749-2.8964 0-5.3173-1.5271-6.3167-3.9817-.2318-.5688.0415-1.216.6061-1.4482.5651-.2281 1.2164.0411 1.4482.6098.6625 1.6278 2.2566 2.601 4.2624 2.601 2.4999 0 4.0751-1.366 4.1499-2.6869.0189-.3817.0785-1.3882-2.3988-2.1965L40.851 19.061c-2.7053-.8943-3.9628-2.3238-3.8506-4.3632.1459-2.6793 2.8327-4.7 6.2531-4.7 2.8812 0 5.3173 1.5455 6.2156 3.9404.217.5725-.0789 1.2124-.6513 1.4257-.5651.217-1.2086-.0786-1.4256-.6511-.5651-1.5193-2.1892-2.4997-4.135-2.4997-2.2192 0-3.9555 1.1189-4.0377 2.6045-.0263.4677-.0748 1.3359 2.3351 2.1329zm21.3419-1.0643c0 1.296-.7406 2.2218-2.4068 2.2393h-9.7968c.2059 3.6298 2.5128 5.8527 5.3792 5.8527 1.7322 0 3.8621-1.2316 4.6027-2.7228.2733-.5502.9309-.6435 1.4811-.3703.5462.2733.5955.8195.3185 1.3657-1.0575 2.5224-3.9295 3.9461-6.4023 3.9461-4.2772 0-7.6168-3.5248-7.6168-8.7674s3.2433-8.7639 7.5242-8.7639c4.2306 0 6.917 4.1096 6.917 7.2206zm-12.1251.0202h9.348c.6665.0539.7346-.4773.6294-.9459-.4984-2.2217-2.3694-4.0796-4.7693-4.0796-2.642 0-4.7852 1.886-5.2081 5.0255zm23.8519 1.0441c3.4915 1.1413 4.1088 3.0574 4.0229 4.4756-.1574 2.7202-2.8964 4.7749-6.3653 4.7749-2.8964 0-5.3173-1.5271-6.3168-3.9817-.2318-.5688.0415-1.216.6066-1.4482.5647-.2281 1.216.0411 1.4478.6098.6625 1.6278 2.2566 2.601 4.2624 2.601 2.4998 0 4.075-1.366 4.1498-2.6869.0189-.3817.0785-1.3882-2.3987-2.1965l-4.1835-1.3697c-2.7054-.8943-3.9629-2.3238-3.8507-4.3632.1459-2.6793 2.8328-4.7 6.2531-4.7 2.8812 0 5.3174 1.5455 6.2157 3.9404.217.5725-.0789 1.2124-.6514 1.4257-.565.217-1.2086-.0786-1.4256-.6511-.565-1.5193-2.1891-2.4997-4.135-2.4997-2.2191 0-3.9554 1.1189-4.0376 2.6045-.0263.4677-.0748 1.3359 2.335 2.1329zM92.6685 12.22c-2.9441 0-4.9521 2.5065-4.9593 6.5432 0 4.0366 2.0081 6.5468 4.9557 6.5468 1.7815 0 3.3405-.9017 4.1662-2.5998.2641-.5466.9124-.771 1.4409-.494.529.2729.746.9391.478 1.489-1.1803 2.4279-3.514 3.8195-6.0851 3.8195-4.1389 0-7.1031-3.5241-7.1031-8.7653s2.9606-8.7616 7.1031-8.7616c2.5818 0 4.9156 1.3917 6.0891 3.8196.268.5463.054 1.2159-.478 1.489-.5289.2694-1.1772.0561-1.4377-.4938-.8257-1.6947-2.3807-2.5926-4.1698-2.5926zm16.1505-2.2222c4.285 0 7.343 3.5241 7.343 8.7616 0 5.2449-3.062 8.7653-7.343 8.7653-4.276 0-7.339-3.5241-7.339-8.7653s3.059-8.7616 7.339-8.7616zm0 15.3122c3.05 0 5.124-2.5102 5.124-6.5468 0-4.0404-2.078-6.5469-5.124-6.5469-3.045 0-5.12 2.5102-5.12 6.5469 0 4.0366 2.075 6.5468 5.12 6.5468zm13.123-6.0549v7.1724c0 .6132-.497 1.109-1.111 1.109-.613 0-1.111-.4973-1.111-1.1108V11.1253c0-.6135.498-1.1109 1.111-1.1109.614 0 1.111.497 1.111 1.1104v.3542c0 .5368-.019.9783-.042 1.4956-.006.1421-.012.3653-.018.5224 1.355-2.1119 3.411-3.4992 5.614-3.4992 1.768 0 1.685 2.2217 0 2.2217-3.451 0-5.554 3.5178-5.554 7.0356zM144 17.2184c0 1.296-.741 2.2218-2.407 2.2393h-9.797c.206 3.6298 2.513 5.8527 5.379 5.8527 1.732 0 3.862-1.2316 4.603-2.7228.273-.5502.931-.6435 1.481-.3703.546.2733.595.8195.318 1.3657-1.057 2.5224-3.929 3.9461-6.402 3.9461-4.277 0-7.616-3.5248-7.616-8.7674s3.243-8.7639 7.524-8.7639c4.23 0 6.917 4.1096 6.917 7.2206zm-12.125.0202h9.348c.666.0539.734-.4773.629-.9459-.498-2.2217-2.37-4.0796-4.769-4.0796-2.642 0-4.785 1.886-5.208 5.0255z"/></svg>