<svg xmlns="http://www.w3.org/2000/svg" width="1200" height="800" viewBox="-58.5 -50.3 506.7 302"><path fill="#00618a" d="M0 183.4h12.8v-50.8l20 44.3c2.3 5.3 5.5 7.2 11.8 7.2 6.3 0 9.4-1.9 11.7-7.2l19.9-44.3v50.8H89v-50.7c0-5-2-7.3-6-8.5-9.8-3-16.3-.4-19.3 6.1L44.2 174l-18.9-43.7c-2.8-6.5-9.5-9.2-19.2-6.1-4.1 1.2-6.1 3.6-6.1 8.5v50.7zM99.7 142h12.8v28c0 1.4.5 5 7.6 5.1H148V142h12.9v45.6c0 11.2-14 13.6-20.4 13.8H100v-8.6h40.6c8.3-1 7.3-5 7.3-6.4V183h-27.3c-12.7 0-20.8-5.6-20.9-12 0-.6.3-28.5 0-28.8z"/><path fill="#e48e00" d="M170.8 183.4h36.9c4.3 0 8.5-1 11.8-2.5 5.6-2.6 8.3-6 8.3-10.6V161c0-3.7-3-7.2-9.1-9.5a31.6 31.6 0 0 0-11-1.9H192c-5.2 0-7.6-1.6-8.3-5v-8c.7-2.7 2-3.5 6.6-3.9h38V124h-36c-5.2 0-8 .3-10.4 1-7.7 2.4-11 6.2-11 12.8v7.5c0 5.8 6.5 10.7 17.5 11.9l3.7.1h13.4l1.3.1c4 .3 5.8 1 7 2.6a3 3 0 0 1 1 2.3v7.5c0 .9-.6 2-1.8 3-1.1 1-3 1.6-5.4 1.8h-36.8v8.7zm137.1-15c0 8.9 6.6 13.8 19.8 14.8l3.7.2h33.4v-8.6h-33.7c-7.5 0-10.3-1.9-10.3-6.4V124h-12.9v44.4zm-71.9.5v-30.5c0-7.8 5.4-12.5 16.2-14a24.6 24.6 0 0 1 3.5-.2H280c1.2 0 2.3 0 3.5.2 10.8 1.5 16.2 6.2 16.2 14v30.5c0 6.3-2.3 9.7-7.6 11.9l12.7 11.4h-15l-10.2-9.3-10.3.7h-13.7c-2.4 0-4.8-.3-7.6-1-8.1-2.3-12.1-6.6-12.1-13.7zm13.9-.7c0 .4 0 .8.2 1.3.8 3.5 4 5.5 9.2 5.5h11.6l-10.7-9.7h15l9.3 8.5a6 6 0 0 0 3.2-4.2l.1-1.2V138c-.8-3.3-4.2-5.2-9.1-5.2h-19.4c-5.7 0-9.4 2.4-9.4 6.3v29z"/><path fill="#00618a" d="M376.1 109.9c-7.9-.2-13.9.5-19 2.7-1.5.6-3.8.6-4 2.4.7.9.9 2.1 1.5 3.2a23 23 0 0 0 5.2 6c2 1.6 4 3.2 6.2 4.5 3.9 2.4 8.2 3.7 12 6.1 2.1 1.4 4.3 3.1 6.4 4.7 1.1.8 1.8 2 3.2 2.5v-.2c-.7-1-1-2.2-1.6-3.2l-2.9-3a47.9 47.9 0 0 0-10.3-9.8c-3.1-2.2-10-5.2-11.2-8.7l-.3-.3c2.2-.2 4.8-1 6.8-1.5 3.3-1 6.4-.7 9.8-1.6l4.8-1.4v-.8c-1.8-1.9-3-4.2-5-5.9-5-4.3-10.5-8.5-16.1-12.1-3.2-2-7-3.3-10.4-5-1-.5-3-.8-3.8-1.7-1.7-2.3-2.7-5-4-7.7-2.8-5.4-5.6-11.3-8.1-17-1.7-4-2.8-7.8-5-11.3a99.1 99.1 0 0 0-38-36.8c-3.6-2-8-3-12.6-4l-7.4-.5c-1.5-.6-3-2.4-4.5-3.3-5.6-3.6-20-11.3-24.2-1.1-2.6 6.4 4 12.6 6.3 15.9 1.6 2.3 3.7 4.8 5 7.4.7 1.7.8 3.4 1.5 5.2 1.6 4.4 3 9.1 5.1 13.2 1.1 2 2.3 4.2 3.6 6 .9 1.2 2.3 1.7 2.5 3.4-1.4 2-1.5 5-2.2 7.4a43 43 0 0 0 2.9 33c1.5 2.6 5.2 8 10.3 5.9 4.4-1.8 3.4-7.4 4.7-12.4.3-1 .1-2 .7-2.7v.3l4 8a55 55 0 0 0 12.8 13.3c2.4 1.7 4.2 4.8 7.2 5.8v-.2h-.2c-.6-1-1.5-1.3-2.3-2a51.4 51.4 0 0 1-5.1-5.9 129 129 0 0 1-11-18c-1.6-3-3-6.3-4.3-9.3-.5-1.2-.5-3-1.6-3.6-1.4 2.2-3.6 4-4.7 6.7-1.8 4.2-2 9.4-2.7 14.8l-.4.2c-3.1-.7-4.2-4-5.4-6.7a42 42 0 0 1-.9-26.3c.7-2 3.7-8.6 2.5-10.5-.6-2-2.5-3-3.6-4.5a35.3 35.3 0 0 1-3.6-6.3c-2.4-5.4-3.5-11.5-6-17-1.3-2.7-3.3-5.3-5-7.7-1.9-2.6-4-4.5-5.4-7.6-.5-1.1-1.2-2.9-.5-4 .3-.8.6-1.1 1.4-1.4 1.3-1 5 .3 6.3.9 3.6 1.5 6.6 3 9.6 5 1.5 1 3 2.8 4.7 3.3h2c3.2.7 6.8.2 9.7 1.1 5.2 1.6 10 4 14.2 6.8a87.5 87.5 0 0 1 30.7 33.6c1.2 2.3 1.7 4.4 2.7 6.8 2 4.7 4.7 9.7 6.7 14.3 2 4.7 4 9.4 7 13.3 1.5 2 7.4 3.1 10.1 4.2 1.9.8 5 1.7 6.7 2.7 3.4 2 6.7 4.5 10 6.8 1.5 1 6.4 3.6 6.6 5.6z"/><path fill="#00618a" fill-rule="evenodd" d="M275.8 24.4a16 16 0 0 0-4 .4v.2h.2c.8 1.6 2.2 2.7 3.1 4a6815.3 6815.3 0 0 0 2.3 4.8l.2-.2c1.4-1 2-2.6 2-5-.5-.6-.6-1.3-1.1-2-.6-1-1.9-1.5-2.7-2.2z"/><path fill="#e48e00" fill-rule="evenodd" d="M370.9 174.5c0 5.7 4.4 9.5 9.4 9.5s9.5-3.8 9.5-9.5c0-5.6-4.5-9.4-9.5-9.4s-9.4 3.8-9.4 9.4zm16.8 0c0 4.3-3.3 7.5-7.4 7.5a7.3 7.3 0 0 1-7.3-7.5c0-4.2 3.2-7.4 7.3-7.4s7.4 3.2 7.4 7.4zm-4.8 5.4h2.1l-3.1-4.7c1.7-.2 3-1 3-3 0-2.1-1.5-3-4.1-3h-4.2v10.7h1.8v-4.6h1.7l2.8 4.6zm-4.5-6.1v-3.1h2c1.1 0 2.5.2 2.5 1.4 0 1.5-1.2 1.7-2.6 1.7h-2z"/></svg>