<svg xmlns="http://www.w3.org/2000/svg" version="1.0" viewBox="-0.1 -0.01 638.25 80.01"><path fill="#f80000" d="M265.6 52h40.6l-21.5-34.6L245.3 80h-18l48-75.1a11.5 11.5 0 0 1 18.7-.2L342.2 80h-18l-8.5-14h-41.1zM452 66V.8h-15.2v71.6c0 2 .7 3.8 2.2 5.3a7.8 7.8 0 0 0 5.5 2.3H514l9-14zM200 54.3a26.8 26.8 0 1 0 0-53.5h-66.7V80h15.2V14.7H199a12.8 12.8 0 0 1 0 25.7h-43L201.6 80h22.2L193 54.3zM39.5 80a39.6 39.6 0 1 1 0-79.2h46a39.6 39.6 0 0 1 0 79.2zm45-14a25.6 25.6 0 1 0 0-51.3h-44a25.7 25.7 0 0 0 0 51.3zM374 80a39.6 39.6 0 1 1 0-79.2h54.6l-8.9 14H375a25.7 25.7 0 0 0 0 51.2h55l-9 14zm186.3-14a25.6 25.6 0 0 1-24.7-18.6h65.1l9-14h-74a25.6 25.6 0 0 1 24.6-18.7H605l9-14h-54.7a39.7 39.7 0 0 0 0 79.3h47l9-14h-55m61.9-56.8a7 7 0 0 1 7-7c3.8 0 7 3.1 7 7s-3.2 7-7 7a7 7 0 0 1-7-7zm7 9a8.9 8.9 0 1 0 0-17.9 8.9 8.9 0 0 0 0 17.8zm-.9-14.3c1.4 0 2 0 2.6.3 1.8.6 2 2.2 2 2.8 0 .1 0 .5-.2.8 0 .4-.3 1.2-1.2 1.7l-.4.3 2.3 4.1H631l-2-3.8h-1.4V14h-2V4zm.7 4.6c.6 0 1.3 0 1.6-.7.2-.2.3-.5.3-.8 0-.6-.3-1-.8-1.2-.4-.2-.9-.2-1.8-.2h-.6v2.9h1.3"/></svg>