<svg xmlns="http://www.w3.org/2000/svg" width="1200" height="800" viewBox="-36.5 -60.8 315.9 364.8"><circle cx="121.5" cy="121.5" r="121.5" fill="#fff"/><path fill="#e60023" d="M121.5 0a121.5 121.5 0 0 0-44.3 234.7 117 117 0 0 1 .4-34.9l14.2-60.4s-3.6-7.3-3.6-18c0-16.9 9.8-29.5 22-29.5 10.4 0 15.4 7.8 15.4 17.1 0 10.4-6.6 26-10.1 40.5-2.9 12.1 6.1 22 18 22 21.6 0 38.2-22.8 38.2-55.6 0-29.1-20.9-49.4-50.8-49.4A52.6 52.6 0 0 0 66 119.2c0 10.4 4 21.6 9 27.7 1 1.2 1.1 2.3.8 3.5l-3.4 13.8c-.5 2.2-1.8 2.7-4.1 1.6-15.2-7.1-24.7-29.2-24.7-47.1 0-38.3 27.8-73.5 80.3-73.5 42.1 0 74.9 30 74.9 70.2 0 41.9-26.4 75.6-63 75.6-12.3 0-23.9-6.4-27.8-14l-7.6 28.9a132.4 132.4 0 0 1-15.1 31.9 121.5 121.5 0 0 0 157.5-116.1A121.2 121.2 0 0 0 121.5 0z"/></svg>