<svg xmlns="http://www.w3.org/2000/svg" xml:space="preserve" id="svg36" width="1200" height="800" x="0" y="0" version="1.1" viewBox="-153 -61 1327 365"><style id="style2" type="text/css">.st0{fill:#e60019}</style><g id="g26" transform="translate(-1 -3)"><g id="g8"><path id="path4" d="M403 90h32v102h-32z" class="st0"/><path id="path6" d="M442 90h31v14h1c7-11 17-17 31-17 22 0 35 16 35 39v66h-32v-60c0-11-5-18-16-18-10 0-18 9-18 22v56h-32z" class="st0"/></g><circle id="circle10" cx="419.2" cy="63" r="19.4" class="st0"/><path id="path12" d="m768 89-4-1c-12 1-20 6-27 18h-1V90h-31v102h32v-46c0-21 12-31 31-29z" class="st0"/><path id="path14" d="M926 128c-13-3-24-4-24-11 0-6 6-9 14-9 9 0 15 3 16 12h30c-2-20-17-33-46-33-24 0-44 11-44 33 0 24 19 28 37 31 13 3 26 4 26 13 0 6-6 10-16 10s-16-4-18-13h-31c2 21 20 34 49 34 27 0 46-12 46-34 0-26-21-30-39-33z" class="st0"/><path id="path16" d="M820 171c-14 0-21-8-23-22h73c0-20-6-38-18-49-9-8-20-13-35-13-31 0-52 23-52 54 0 30 21 54 54 54 13 0 23-4 32-10s15-15 17-24h-32c-2 7-8 10-16 10zm-2-61c10 0 18 8 19 20h-40c2-12 9-20 21-20z" class="st0"/><path id="path18" d="M1022 168h-6c-6 0-11-2-11-10v-48h17V90h-17V58h-31v32h-10v20h10v55c0 22 13 28 32 28l16-1z" class="st0"/><path id="path20" d="M598 168h-4c-7 0-11-2-11-10v-48h15V90h-15V58h-32v32h-10v20h10v55c0 22 14 28 32 28l15-1z" class="st0"/><path id="path22" d="M597 141c0-31 21-54 52-54 14 0 26 5 34 13 12 11 18 29 18 49h-73c2 14 10 22 23 22 9 0 14-3 17-10h31c-2 9-8 18-17 24-8 6-19 10-31 10-34 0-55-24-55-54zm72-11c-2-12-9-20-20-20-12 0-18 8-21 20z" class="st0"/><path id="path24" d="M289 50h56c18 0 30 5 39 13 9 9 14 21 14 35 1 27-18 46-47 46h-29v48h-33zm58 67c13 0 20-8 20-19s-8-18-20-18h-25v37h25z" class="st0"/></g><g id="g34" transform="translate(-1 -3)"><circle id="circle28" cx="122.6" cy="124.5" r="121.5" fill="#fff"/><g id="g32"><path id="path30" d="M123 3a121 121 0 0 0-45 235c-1-10-2-25 1-35l14-61s-4-7-4-18c0-17 10-29 22-29 11 0 16 8 16 17 0 10-7 26-10 40-3 13 6 22 18 22 21 0 38-22 38-55 0-29-21-50-51-50-35 0-55 26-55 53 0 11 4 22 9 28l1 3-3 14c-1 2-2 3-5 2-15-7-24-30-24-47 0-39 28-74 80-74 42 0 75 30 75 70 0 42-26 76-63 76-12 0-24-7-28-14l-7 29c-3 10-10 24-15 32a122 122 0 0 0 157-116C244 57 190 3 123 3z" class="st0"/></g></g></svg>