<svg xmlns="http://www.w3.org/2000/svg" width="1200" height="800" preserveAspectRatio="xMidYMid" viewBox="-108.2 -139 937.4 834.1"><defs><linearGradient id="a" x1=".7" x2="590.9" y1="3.7" y2="593.8" gradientTransform="matrix(1.22194 0 0 .81837 -1 -3)" gradientUnits="userSpaceOnUse" spreadMethod="pad"><stop offset="0" stop-color="#CBCED0"/><stop offset="1" stop-color="#84838B"/></linearGradient><linearGradient id="b" x1="301" x2="703.1" y1="151.4" y2="553.4" gradientTransform="matrix(.98995 0 0 1.01015 -1 -3)" gradientUnits="userSpaceOnUse" spreadMethod="pad"><stop offset="0" stop-color="#276DC3"/><stop offset="1" stop-color="#165CAA"/></linearGradient></defs><path fill="url(#a)" fill-rule="evenodd" d="M360.5 483C161.5 483 0 374.7 0 241.4 0 108 161.4 0 360.5 0c199.2 0 360.6 108.1 360.6 241.5 0 133.3-161.4 241.4-360.6 241.4zm55.2-388.6c-151.3 0-274 74-274 165s122.7 165.2 274 165.2c151.4 0 263-50.6 263-165.1s-111.6-165-263-165z"/><path fill="url(#b)" fill-rule="evenodd" d="M549 374s22 6.6 34.6 13a67 67 0 0 1 17.5 12.5c5.4 5.7 8 11.5 8 11.5l86 145H556l-65-122s-13.3-22.9-21.5-29.5c-6.8-5.5-9.8-7.5-16.5-7.5h-33v159H297V150h247s112.5 2 112.5 109S549 374 549 374zm-53.4-136H421v69h74.5s34.5-.1 34.5-35.1c0-35.7-34.5-33.9-34.5-33.9z"/></svg>