<svg xmlns="http://www.w3.org/2000/svg" viewBox="0 -0.12 72.51 92.72"><path d="M19.6 0c-.4 0-1 .2-1.5.6-1.4-.5-2.8-.7-4 .4-1.9-.2-2.5.3-3 .9-.3 0-3-.5-4.2 1.4-3.1-.4-4 1.8-3 3.8-.6 1-1.3 2 .2 3.8-.5 1-.2 2.1 1 3.5-.3 1.4.3 2.5 1.5 3.3-.2 2 1.8 3.1 2.4 3.5.2 1.2.7 2.3 3 2.9.4 1.7 1.8 2 3.2 2.4-4.5 2.6-8.3 6-8.3 14.4L6.2 42a14.2 14.2 0 0 0-2.5 21.3c.5 2.6 1.3 4.4 2 6.4 1 8.2 8 12 9.7 12.5 2.7 2 5.5 4 9.3 5.3 3.6 3.7 7.5 5.1 11.5 5.1h.1c4 0 7.9-1.4 11.5-5.1a36 36 0 0 0 9.3-5.3c1.8-.5 8.7-4.3 9.7-12.5.7-2 1.5-3.8 2-6.4A14.2 14.2 0 0 0 66.3 42l-.7-1.1c0-8.4-3.8-11.8-8.3-14.4 1.4-.4 2.8-.7 3.2-2.4 2.3-.6 2.8-1.7 3-2.9.6-.4 2.6-1.5 2.4-3.5 1.2-.8 1.8-1.9 1.5-3.3 1.2-1.4 1.5-2.5 1-3.5C70 9 69.2 8 68.6 7c1.1-2 .1-4.2-3-3.8-1.2-1.9-3.8-1.5-4.2-1.4-.5-.6-1.1-1.1-3-.9-1.2-1-2.6-.9-4-.4-1.6-1.3-2.7-.2-4 .2-2-.7-2.5.2-3.5.6-2.2-.5-2.8.5-3.9 1.6h-1.2c-3.3 2-5 6-5.5 8-.6-2-2.3-6-5.6-8h-1.2c-1-1-1.7-2-4-1.6-1-.4-1.4-1.3-3.4-.6-.8-.3-1.6-.8-2.5-.8z"/><path fill="#75a928" d="M13 8.6a59.5 59.5 0 0 1 16.7 11.3c-1.4 5.8-8.9 6-11.6 5.9.5-.3 1-.6 1.2-1-.7-.6-3.1-.1-4.8-1.1.6-.1 1-.3 1.2-.7-1.6-.6-3.3-1-4.3-1.8.5 0 1 0 1.7-.4-1.4-.8-3-1.4-4.1-2.6.7 0 1.5 0 1.8-.3a16 16 0 0 1-3.4-2.7c1 .1 1.5 0 1.7-.2-1-1-2.2-1.8-2.8-3 .8.2 1.5.3 2-.1-.4-.8-1.8-1.2-2.6-3 .8 0 1.6.2 1.8 0-.4-1.5-1-2.4-1.6-3.3 1.7 0 4.3 0 4.2-.1l-1-1.1c1.6-.5 3.4 0 4.6.4.6-.4 0-1-.7-1.6 1.5.2 2.8.6 4 1 .6-.6-.4-1.1-1-1.7 2.3.4 3.2 1 4.2 1.6.6-.6 0-1.2-.5-1.8 1.7.7 2.6 1.5 3.5 2.3.3-.4.8-.8.2-1.8 1.2.7 2.1 1.5 2.8 2.4.7-.4.4-1 .4-1.7 1.3 1 2 2.1 3 3.2.2-.2.4-.6.5-1.4 3 2.9 7.2 10.1 1.1 13A57 57 0 0 0 13 8.6zm46.7 0A59.5 59.5 0 0 0 43 19.9c1.4 5.8 8.9 6 11.6 5.9-.5-.3-1-.6-1.2-1 .7-.6 3.2-.1 4.9-1.1-.7-.1-1-.3-1.3-.7 1.6-.6 3.3-1 4.3-1.8-.5 0-1 0-1.7-.4 1.4-.8 3-1.4 4.1-2.6-.7 0-1.5 0-1.8-.3a16 16 0 0 0 3.4-2.7c-1 .1-1.5 0-1.7-.2 1-1 2.2-1.8 2.8-3-.8.2-1.5.3-2-.1.4-.8 1.8-1.2 2.6-3-.8 0-1.6.2-1.8 0 .4-1.5 1-2.4 1.7-3.3-1.8 0-4.4 0-4.3-.1l1-1.1c-1.6-.5-3.4 0-4.6.4-.6-.4 0-1 .7-1.6a17 17 0 0 0-4 1c-.6-.6.5-1.1 1-1.7a10 10 0 0 0-4.2 1.6c-.6-.6 0-1.2.5-1.8-1.7.7-2.6 1.5-3.5 2.3-.3-.4-.8-.8-.2-1.8a9.6 9.6 0 0 0-2.8 2.4c-.7-.4-.4-1-.4-1.7-1.3 1-2 2.1-3 3.2-.2-.2-.4-.6-.5-1.4-3 2.9-7.2 10.1-1.1 13a57 57 0 0 1 18.2-9.7z"/><path fill="#bc1142" d="M47 67.1a10.5 9.7 0 1 1-21 0 10.5 9.7 0 1 1 21 0zM30.4 39.4A11.1 9.4-56 1 1 18 58a11.1 9.4-56 1 1 12.3-18.6z"/><path fill="#bc1142" d="M42.2 38.9a9.4 11.1-34 1 0 12.2 18.6 9.4 11.1-34 1 0-12.2-18.6zM8.6 44c4.7-1.2 1.6 19.5-2.3 17.8C2.1 58.4.8 48.5 8.6 44z"/><path fill="#bc1142" d="M63 43.8c-4.7-1.3-1.6 19.5 2.3 17.8 4.2-3.4 5.5-13.3-2.3-17.8zM47 28.3c8.1-1.3 15 3.5 14.6 12.3C61.4 44 44 28.8 47 28.3zm-22.5-.2c-8-1.4-14.9 3.4-14.6 12.3.3 3.3 17.6-11.8 14.6-12.3zm11.7-2c-4.8-.2-9.5 3.5-9.5 5.7 0 2.6 3.8 5.3 9.6 5.4 5.8 0 9.5-2.2 9.5-4.9 0-3-5.3-6.3-9.6-6.3zm.3 53.8c4.2-.2 10 1.4 10 3.4s-5.2 6.5-10.3 6.4C31 90 26 85.4 26 84c0-2.3 6.4-4.1 10.6-4zM21 67.7c3 3.7 4.4 10 1.9 12-2.4 1.3-8.2.8-12.3-5.1-2.8-5-2.4-10-.5-11.5 3-1.8 7.4.6 10.9 4.6zm30.6-1.1c-3.2 3.8-5 10.8-2.7 13 2.3 1.7 8.4 1.5 13-4.8 3.2-4.2 2.1-11.2.2-13-2.7-2.2-6.7.6-10.5 4.8z"/></svg>