<svg xmlns="http://www.w3.org/2000/svg" width="1200" height="800" version="1.0" viewBox="-27.71 -13.63 240.17 81.81"><defs><clipPath id="a"><path d="M409.44 126.25V82.62h147.8v43.63"/></clipPath><clipPath id="b"><path d="M409.44 126.25V82.62h147.8v43.63"/></clipPath></defs><path fill="#009e4d" d="M21.01 7.94c-4.22-1.87-6.74-2.6-9.24-2.6-2.63 0-4.3.94-4.3 2.4 0 4.38 14.86 3.14 14.86 13.28 0 5.6-4.69 8.84-11.2 8.84C6 29.86 3.5 28.54.6 27.04v-6.27c4.18 2.77 6.74 3.75 9.97 3.75 2.8 0 4.3-.98 4.3-2.69C14.87 17.07 0 18.82 0 8.38 0 3.33 4.35 0 11.13 0 14.4 0 17.35.69 21 2.26v5.68m20.82 20.59a19.2 19.2 0 0 1-6.66 1.33c-6.93 0-11.4-4.04-11.4-10.17 0-6.03 4.65-10.29 11.14-10.29 2 0 4.57.52 6.62 1.28v4.61a11.3 11.3 0 0 0-5.04-1.33c-3.72 0-6.1 2.23-6.1 5.68 0 3.5 2.34 5.8 5.89 5.8 1.5 0 2.82-.34 5.56-1.37v4.46m54-11.1c.25-2.74 1.84-4.32 4.27-4.32 2.4 0 4.02 1.62 4.28 4.32zm3.85-8.02c-6.08 0-10.4 4.3-10.4 10.33 0 6.09 4.5 10.12 11.43 10.12 1.53 0 5.25 0 8.79-2.62v-3.85c-2.9 2.06-4.82 2.77-7.3 2.77-3.9 0-6.3-2.02-6.5-5.47h14.14c.3-7.2-4.43-11.28-10.16-11.28m12.56 20.09h6.19V9.77h-6.2zm23.4-5.4c-1.28 1.17-2.36 1.63-3.68 1.63-2.91 0-4.75-2.4-4.75-5.99 0-3.94 1.84-6.2 4.96-6.2 1.11 0 2.57.5 3.47 1.15zm0-23.74v10.28a11.55 11.55 0 0 0-5.13-1.24c-5.65 0-9.55 4.18-9.55 10.21 0 5.9 3.9 10.25 9.2 10.25 2.1 0 3.72-.55 5.48-1.95v1.58h6.19V.36h-6.19M151 17.43c.26-2.74 1.84-4.32 4.27-4.32 2.4 0 4.04 1.62 4.3 4.32zm3.85-8.02c-6.08 0-10.4 4.3-10.4 10.33 0 6.09 4.5 10.12 11.43 10.12 1.53 0 5.25 0 8.8-2.62v-3.85c-2.9 2.06-4.82 2.77-7.31 2.77-3.88 0-6.28-2.02-6.5-5.47h14.14c.3-7.2-4.43-11.28-10.16-11.28"/><g fill="#009e4d" clip-path="url(#a)" transform="matrix(1.25 0 0 -1.25 -511.8 157.81)"><path d="M548.86 113.91h.08c1.46 3.29 3.11 4.83 5.02 4.83.99 0 1.84-.38 3.28-1.44l-1.36-4.38c-1.3.82-2.16 1.17-2.94 1.17-1.82 0-2.98-1.72-4.08-4.6v-6.82h-4.95v15.78h4.95v-4.54m-44.44 11.16c.47-1.23-.37-2.94-1.86-3.82-1.5-.87-3.08-.6-3.54.63-.47 1.23.36 2.94 1.86 3.82 1.49.88 3.07.6 3.54-.63"/></g><path fill="#009e4d" d="M64.12 16.95c0-5.35-3.63-7.54-7.22-7.54-2.43 0-4.44 1.03-6.23 3.3h-.09V.36H44.4v29.08h6.2v-12.5c1.44-2.1 2.68-2.99 4.13-2.99 1.93 0 3.2 1.37 3.2 4.32v6.93a18.57 18.57 0 0 1 6.2-1.97v-6.29M79.66 9.4c-2.53 0-4.45.94-6.42 3.2V9.78h-6.2v13.4c2.15.21 4.89 1.2 6.2 2.82V16.8c1.62-2.44 2.78-3.26 4.32-3.26 1.75 0 3.08 1.16 3.08 3.94v11.98h6.2V16.96c0-5.8-4.1-7.55-7.18-7.55m10.6 25.7h-7.2v5.11H90v2.2h-6.94v5.27h7.41v2.2h-9.82V32.91h9.6v2.2m5.88 14.77h2.2V32.92h-2.2zm13.12-9.5c1.56 0 2.53 1.07 2.6 2.76h-5.61c.3-1.76 1.32-2.77 3-2.77zm-3.05 4.23h7.85c0-4.13-1.89-6.13-4.85-6.13-3.07 0-5.2 2.27-5.2 5.66 0 3.1 1.92 5.95 5.39 5.95 1.9 0 3.11-.42 4.47-1.32v-2.14a7.11 7.11 0 0 1-3.91 1.35c-2.14 0-3.4-1.15-3.75-3.37m22.24-2.98c-1.27-.87-2.11-1.13-3.08-1.13-2.01 0-3.41 1.55-3.41 3.82 0 2.3 1.49 3.7 3.78 3.7.95 0 1.85-.25 2.96-.74v2.17c-.74.35-2.16.64-3.33.64-3.33 0-5.65-2.3-5.65-5.57 0-3.7 2.12-6.04 5.5-6.04 1.3 0 2.17.3 3.23.77v2.38m10.04-2.94h3.54v1.99h-3.54v5.74c0 1.31.95 1.7 1.6 1.7.8 0 1.62-.29 2.51-.84v2.07c-.77.43-1.96.74-2.69.74-2.4 0-3.61-1.49-3.61-3.5v-5.91h-1.95v-.25l4.14-4.05v2.31m11.97 0v2.59h.04c1.13-1.98 2.2-2.8 3.24-2.8.9 0 1.73.42 2.66 1.3l-1.17 1.94c-.67-.67-1.54-1.13-2.06-1.13-1.52 0-2.71 1.55-2.71 3.46v5.83h-2.2V38.7h2.2m28.52 2.94c-1.27-.87-2.12-1.12-3.09-1.12-2.01 0-3.4 1.54-3.4 3.8 0 2.32 1.5 3.7 3.77 3.7.95 0 1.85-.24 2.97-.73v2.17a9.2 9.2 0 0 1-3.34.64c-3.33 0-5.66-2.3-5.66-5.57 0-3.7 2.13-6.04 5.51-6.04 1.3 0 2.16.3 3.24.77v2.38m-16.74 8.25h2.2V38.7h-2.2z"/><g fill="#009e4d" clip-path="url(#b)" transform="matrix(1.25 0 0 -1.25 -511.8 157.81)"><path d="M541.05 98.5c.17-.42-.13-1.04-.66-1.35-.54-.3-1.1-.2-1.26.22-.16.44.13 1.05.67 1.36.52.32 1.09.21 1.25-.22m-78.92-.73c-.31 0-.44-.05-.57-.19-.05-.05-.07-.11-.09-.22l-1.58-6c-.37-2.1-2.95-4.2-6.32-4.2h-4.68l.81 3.08h3c.32 0 .56.11.76.34.07.08.17.22.18.36l1.25 5.24c.37 2.1 2.59 4.43 5.95 4.43h4.8l-.61-2.84zm1.08-3.65.54 1.94h4.87c.6 2.81.12 5.42-1.58 7.13-3.46 3.45-10.69 2.28-16.07-2.88-.84-.8-1.55-1.66-2.2-2.54h2.93l-.68-1.95h-3.5c-.34-.61-.65-1.22-.9-1.84h4.16l-.66-1.94h-4.08c-.7-2.97-.26-5.74 1.5-7.5 3.41-3.41 10.62-2.21 16 2.94.94.9 1.72 1.86 2.42 2.86h-3.77l.58 1.94h4.4c.33.61.62 1.22.85 1.84h-4.81"/></g></svg>