<svg xmlns="http://www.w3.org/2000/svg" xmlns:xlink="http://www.w3.org/1999/xlink" height="800" width="1200" version="1.0" viewBox="-72.8388 -121.36025 631.2696 728.1615"><defs><filter height="1.895" y="-.448" width="2.031" x="-.515" id="q" color-interpolation-filters="sRGB"><feGaussianBlur stdDeviation="7.088"/></filter><filter height="1.895" y="-.448" width="2.031" x="-.515" id="s" color-interpolation-filters="sRGB"><feGaussianBlur stdDeviation="7.088"/></filter><filter height="1.895" y="-.448" width="2.031" x="-.515" id="u" color-interpolation-filters="sRGB"><feGaussianBlur stdDeviation="7.088"/></filter><filter height="1.895" y="-.448" width="2.031" x="-.515" id="w" color-interpolation-filters="sRGB"><feGaussianBlur stdDeviation="7.088"/></filter><filter height="1.895" y="-.448" width="2.031" x="-.515" id="y" color-interpolation-filters="sRGB"><feGaussianBlur stdDeviation="7.088"/></filter><filter height="1.895" y="-.448" width="2.031" x="-.515" id="A" color-interpolation-filters="sRGB"><feGaussianBlur stdDeviation="7.088"/></filter><filter height="1.895" y="-.448" width="2.031" x="-.515" id="C" color-interpolation-filters="sRGB"><feGaussianBlur stdDeviation="7.088"/></filter><filter height="1.895" y="-.448" width="2.031" x="-.515" id="E" color-interpolation-filters="sRGB"><feGaussianBlur stdDeviation="7.088"/></filter><filter height="1.895" y="-.448" width="2.031" x="-.515" id="G" color-interpolation-filters="sRGB"><feGaussianBlur stdDeviation="7.088"/></filter><filter color-interpolation-filters="sRGB" id="H"><feGaussianBlur stdDeviation="1.943"/></filter><filter height="1.895" y="-.448" width="2.031" x="-.515" id="T" color-interpolation-filters="sRGB"><feGaussianBlur stdDeviation="7.088"/></filter><filter height="1.895" y="-.448" width="2.031" x="-.515" id="R" color-interpolation-filters="sRGB"><feGaussianBlur stdDeviation="7.088"/></filter><filter height="1.895" y="-.448" width="2.031" x="-.515" id="P" color-interpolation-filters="sRGB"><feGaussianBlur stdDeviation="7.088"/></filter><filter height="1.895" y="-.448" width="2.031" x="-.515" id="N" color-interpolation-filters="sRGB"><feGaussianBlur stdDeviation="7.088"/></filter><filter height="1.895" y="-.448" width="2.031" x="-.515" id="L" color-interpolation-filters="sRGB"><feGaussianBlur stdDeviation="7.088"/></filter><filter height="1.895" y="-.448" width="2.031" x="-.515" id="J" color-interpolation-filters="sRGB"><feGaussianBlur stdDeviation="7.088"/></filter><radialGradient r="60" fy="493.862" fx="277.5" cy="493.862" cx="277.5" gradientTransform="matrix(.81067 .65033 -.63705 .79413 367.153 -78.793)" gradientUnits="userSpaceOnUse" id="p" xlink:href="#a"/><radialGradient r="60" fy="493.862" fx="277.5" cy="493.862" cx="277.5" gradientTransform="matrix(.81067 .65033 -.63705 .79413 367.153 -78.793)" gradientUnits="userSpaceOnUse" id="r" xlink:href="#b"/><radialGradient r="60" fy="493.862" fx="277.5" cy="493.862" cx="277.5" gradientTransform="matrix(.81067 .65033 -.63705 .79413 367.153 -78.793)" gradientUnits="userSpaceOnUse" id="t" xlink:href="#c"/><radialGradient r="60" fy="493.862" fx="277.5" cy="493.862" cx="277.5" gradientTransform="matrix(.81067 .65033 -.63705 .79413 367.153 -78.793)" gradientUnits="userSpaceOnUse" id="v" xlink:href="#d"/><radialGradient r="60" fy="493.862" fx="277.5" cy="493.862" cx="277.5" gradientTransform="matrix(.81067 .65033 -.63705 .79413 367.153 -78.793)" gradientUnits="userSpaceOnUse" id="x" xlink:href="#e"/><radialGradient r="60" fy="493.862" fx="277.5" cy="493.862" cx="277.5" gradientTransform="matrix(.81067 .65033 -.63705 .79413 367.153 -78.793)" gradientUnits="userSpaceOnUse" id="z" xlink:href="#f"/><radialGradient r="60" fy="493.862" fx="277.5" cy="493.862" cx="277.5" gradientTransform="matrix(.81067 .65033 -.63705 .79413 367.153 -78.793)" gradientUnits="userSpaceOnUse" id="B" xlink:href="#g"/><radialGradient r="60" fy="493.862" fx="277.5" cy="493.862" cx="277.5" gradientTransform="matrix(.81067 .65033 -.63705 .79413 367.153 -78.793)" gradientUnits="userSpaceOnUse" id="D" xlink:href="#h"/><radialGradient r="60" fy="493.862" fx="277.5" cy="493.862" cx="277.5" gradientTransform="matrix(.81067 .65033 -.63705 .79413 367.153 -78.793)" gradientUnits="userSpaceOnUse" id="F" xlink:href="#i"/><radialGradient r="60" fy="493.862" fx="277.5" cy="493.862" cx="277.5" gradientTransform="matrix(.81067 .65033 -.63705 .79413 367.153 -78.793)" gradientUnits="userSpaceOnUse" id="I" xlink:href="#j"/><radialGradient r="60" fy="493.862" fx="277.5" cy="493.862" cx="277.5" gradientTransform="matrix(.81067 .65033 -.63705 .79413 367.153 -78.793)" gradientUnits="userSpaceOnUse" id="K" xlink:href="#k"/><radialGradient r="60" fy="493.862" fx="277.5" cy="493.862" cx="277.5" gradientTransform="matrix(.81067 .65033 -.63705 .79413 367.153 -78.793)" gradientUnits="userSpaceOnUse" id="M" xlink:href="#l"/><radialGradient r="60" fy="493.862" fx="277.5" cy="493.862" cx="277.5" gradientTransform="matrix(.81067 .65033 -.63705 .79413 367.153 -78.793)" gradientUnits="userSpaceOnUse" id="O" xlink:href="#m"/><radialGradient r="60" fy="493.862" fx="277.5" cy="493.862" cx="277.5" gradientTransform="matrix(.81067 .65033 -.63705 .79413 367.153 -78.793)" gradientUnits="userSpaceOnUse" id="Q" xlink:href="#n"/><radialGradient r="60" fy="493.862" fx="277.5" cy="493.862" cx="277.5" gradientTransform="matrix(.81067 .65033 -.63705 .79413 367.153 -78.793)" gradientUnits="userSpaceOnUse" id="S" xlink:href="#o"/><linearGradient id="a"><stop offset="0" stop-color="#fff" stop-opacity="0"/><stop offset="1" stop-opacity=".5"/></linearGradient><linearGradient id="b"><stop offset="0" stop-color="#fff" stop-opacity="0"/><stop offset="1" stop-opacity=".5"/></linearGradient><linearGradient id="c"><stop offset="0" stop-color="#fff" stop-opacity="0"/><stop offset="1" stop-opacity=".5"/></linearGradient><linearGradient id="d"><stop offset="0" stop-color="#fff" stop-opacity="0"/><stop offset="1" stop-opacity=".5"/></linearGradient><linearGradient id="e"><stop offset="0" stop-color="#fff" stop-opacity="0"/><stop offset="1" stop-opacity=".5"/></linearGradient><linearGradient id="f"><stop offset="0" stop-color="#fff" stop-opacity="0"/><stop offset="1" stop-opacity=".5"/></linearGradient><linearGradient id="g"><stop offset="0" stop-color="#fff" stop-opacity="0"/><stop offset="1" stop-opacity=".5"/></linearGradient><linearGradient id="h"><stop offset="0" stop-color="#fff" stop-opacity="0"/><stop offset="1" stop-opacity=".5"/></linearGradient><linearGradient id="i"><stop offset="0" stop-color="#fff" stop-opacity="0"/><stop offset="1" stop-opacity=".5"/></linearGradient><linearGradient id="o"><stop offset="0" stop-color="#fff" stop-opacity="0"/><stop offset="1" stop-opacity=".5"/></linearGradient><linearGradient id="n"><stop offset="0" stop-color="#fff" stop-opacity="0"/><stop offset="1" stop-opacity=".5"/></linearGradient><linearGradient id="m"><stop offset="0" stop-color="#fff" stop-opacity="0"/><stop offset="1" stop-opacity=".5"/></linearGradient><linearGradient id="l"><stop offset="0" stop-color="#fff" stop-opacity="0"/><stop offset="1" stop-opacity=".5"/></linearGradient><linearGradient id="k"><stop offset="0" stop-color="#fff" stop-opacity="0"/><stop offset="1" stop-opacity=".5"/></linearGradient><linearGradient id="j"><stop offset="0" stop-color="#fff" stop-opacity="0"/><stop offset="1" stop-opacity=".5"/></linearGradient></defs><g transform="rotate(120 160.955 289.196) scale(.29363)"><circle r="59.5" cy="493.862" cx="305.5" transform="translate(-111.5 246.5)" fill="#ed1d1d"/><circle r="59.5" cy="493.862" cx="305.5" transform="translate(-111.5 246.5)" fill="url(#p)"/><ellipse ry="19" rx="16.5" cy="717.362" cx="165.5" transform="matrix(.76542 0 0 .71734 37.322 231.268)" opacity=".8" fill="#fff" filter="url(#q)"/></g><g transform="rotate(120 149.09 268.646) scale(.29364)"><circle r="59.5" cy="493.862" cx="305.5" transform="translate(-111.5 246.5)" fill="#ed1d1d"/><circle r="59.5" cy="493.862" cx="305.5" transform="translate(-111.5 246.5)" fill="url(#r)"/><ellipse ry="19" rx="16.5" cy="717.362" cx="165.5" transform="matrix(.76542 0 0 .71734 37.322 231.268)" opacity=".8" fill="#fff" filter="url(#s)"/></g><g transform="rotate(120 140.108 301.233) scale(.29363)"><circle r="59.5" cy="493.862" cx="305.5" transform="translate(-111.5 246.5)" fill="#ed1d1d"/><circle r="59.5" cy="493.862" cx="305.5" transform="translate(-111.5 246.5)" fill="url(#t)"/><ellipse ry="19" rx="16.5" cy="717.362" cx="165.5" transform="matrix(.76542 0 0 .71734 37.322 231.268)" opacity=".8" fill="#fff" filter="url(#u)"/></g><g transform="rotate(120 127.19 280.894) scale(.29363)"><circle r="59.5" cy="493.862" cx="305.5" transform="translate(-111.5 246.5)" fill="#ed1d1d"/><circle r="59.5" cy="493.862" cx="305.5" transform="translate(-111.5 246.5)" fill="url(#v)"/><ellipse ry="19" rx="16.5" cy="717.362" cx="165.5" transform="matrix(.76542 0 0 .71734 37.322 231.268)" opacity=".8" fill="#fff" filter="url(#w)"/></g><g transform="rotate(120 188.041 261.52) scale(.29363)"><g transform="translate(83.5 258.5)"><circle r="59.5" cy="493.862" cx="305.5" fill="#e4e4e4"/><circle r="59.5" cy="493.862" cx="305.5" fill="url(#x)"/></g><ellipse ry="19" rx="16.5" cy="717.362" cx="165.5" transform="matrix(.76542 0 0 .71734 232.822 244.268)" opacity=".8" fill="#fff" filter="url(#y)"/></g><g transform="rotate(120 158.887 278.156) scale(.29363)"><g transform="translate(83.5 258.5)"><circle r="59.5" cy="493.862" cx="305.5" fill="#e4e4e4"/><circle r="59.5" cy="493.862" cx="305.5" fill="url(#z)"/></g><ellipse ry="19" rx="16.5" cy="717.362" cx="165.5" transform="matrix(.76542 0 0 .71734 232.822 244.268)" opacity=".8" fill="#fff" filter="url(#A)"/></g><g transform="rotate(120 165.15 255.944) scale(.29363)"><g transform="translate(83.5 258.5)"><circle r="59.5" cy="493.862" cx="305.5" fill="#e4e4e4"/><circle r="59.5" cy="493.862" cx="305.5" fill="url(#B)"/></g><ellipse ry="19" rx="16.5" cy="717.362" cx="165.5" transform="matrix(.76542 0 0 .71734 232.822 244.268)" opacity=".8" fill="#fff" filter="url(#C)"/></g><g transform="rotate(120 181.842 283.5) scale(.29363)"><g transform="translate(83.5 258.5)"><circle r="59.5" cy="493.862" cx="305.5" fill="#e4e4e4"/><circle r="59.5" cy="493.862" cx="305.5" fill="url(#D)"/></g><ellipse ry="19" rx="16.5" cy="717.362" cx="165.5" transform="matrix(.76542 0 0 .71734 232.822 244.268)" opacity=".8" fill="#fff" filter="url(#E)"/></g><g transform="rotate(120 144.513 284.79) scale(.29363)"><circle r="59.5" cy="493.862" cx="305.5" transform="translate(-111.5 246.5)" fill="#ed1d1d"/><circle r="59.5" cy="493.862" cx="305.5" transform="translate(-111.5 246.5)" fill="url(#F)"/><ellipse ry="19" rx="16.5" cy="717.362" cx="165.5" transform="matrix(.76542 0 0 .71734 37.322 231.268)" opacity=".8" fill="#fff" filter="url(#G)"/></g><g fill="#1414b8" stroke="#1414b8"><path d="M585 338c-1.737 25.051-16.248 88.008-39.466 141.879-21.88 50.764-52.04 92.549-77.254 89.035-41.586-5.835-38.87-122.227-8.882-220.579C481.076 277.06 515.725 208.685 553 200.25c23.513-5.32 32.75 32.75 32.75 32.75l-3.182.884s-7.735-35.978-31.159-30.275c-33.916 8.258-68.828 78.849-89.537 145.61-29.006 93.69-33.822 212.498 6.939 218.104 24.477 3.367 54.314-36.857 76.192-87.621C568.222 425.831 583.263 363.051 585 338" filter="url(#H)" transform="rotate(60 515.83 74.149) scale(1.02597)"/><path d="M321.908 283.523c-23.15 11.308-86.532 30.71-146.308 37.716-56.328 6.601-108.926 1.238-118.74-22.967-16.147-39.944 88.662-97.239 191.432-121.047 74.45-17.301 152.978-21.59 179.593 7.202 16.79 18.163-12.298 45.9-12.298 45.9l-2.418-2.375s28-25.329 10.916-43.216c-24.736-25.898-105.367-20.706-175.308-4.858-98.125 22.288-206.159 78.957-190.23 118.049 9.565 23.475 60.61 29.351 116.938 22.75 59.776-7.006 123.274-25.846 146.423-37.154" stroke-width="1.026"/></g><g transform="translate(327.642 107.528) scale(.15519)"><g transform="translate(275.75 261)"><circle r="59.5" cy="493.862" cx="305.5" fill="#1d28ed"/><circle r="59.5" cy="493.862" cx="305.5" fill="url(#I)"/></g><ellipse ry="19" rx="16.5" cy="717.362" cx="165.5" transform="matrix(.76542 0 0 .71734 424.322 249.268)" opacity=".8" fill="#fff" filter="url(#J)"/></g><g fill="#1414b8" stroke="#1414b8"><path d="M585 338c-1.737 25.051-16.248 88.008-39.466 141.879-21.88 50.764-52.04 92.549-77.254 89.035-41.586-5.835-38.87-122.227-8.882-220.579C481.076 277.06 515.725 208.685 553 200.25c23.513-5.32 32.75 32.75 32.75 32.75l-3.182.884s-7.735-35.978-31.159-30.275c-33.916 8.258-68.828 78.849-89.537 145.61-29.006 93.69-33.822 212.498 6.939 218.104 24.477 3.367 54.314-36.857 76.192-87.621C568.222 425.831 583.263 363.051 585 338" filter="url(#H)" transform="rotate(30 666.3 -209.123) scale(1.02597)"/><path d="M331.098 239.248c-14.394 21.367-59.583 69.861-107.848 105.816-45.48 33.881-93.714 55.536-114.315 39.48C74.98 358.026 137.1 256.003 214.196 183.999c55.825-52.209 121.687-95.187 159.133-83.56 23.622 7.335 12.3 45.9 12.3 45.9l-3.282-.848s11.584-35.935-12.154-42.884c-34.371-10.06-101.603 34.752-154.251 83.447-73.834 68.364-139.06 171.458-105.72 197.348 20.022 15.548 67.167-4.886 112.648-38.767 48.264-35.955 93.834-84.02 108.228-105.387" stroke-width="1.026"/></g><g transform="translate(293.678 21.561) scale(.15519)"><g transform="translate(275.75 261)"><circle r="59.5" cy="493.862" cx="305.5" fill="#1d28ed"/><circle r="59.5" cy="493.862" cx="305.5" fill="url(#K)"/></g><ellipse ry="19" rx="16.5" cy="717.362" cx="165.5" transform="matrix(.76542 0 0 .71734 424.322 249.268)" opacity=".8" fill="#fff" filter="url(#L)"/></g><g fill="#1414b8" stroke="#1414b8"><path d="M585 338c-1.737 25.051-16.248 88.008-39.466 141.879-21.88 50.764-52.04 92.549-77.254 89.035-41.586-5.835-38.87-122.227-8.882-220.579C481.076 277.06 515.725 208.685 553 200.25c23.513-5.32 32.75 32.75 32.75 32.75l-3.182.884s-7.735-35.978-31.159-30.275c-33.916 8.258-68.828 78.849-89.537 145.61-29.006 93.69-33.822 212.498 6.939 218.104 24.477 3.367 54.314-36.857 76.192-87.621C568.222 425.831 583.263 363.051 585 338" filter="url(#H)" transform="translate(-282.79 -151.694) scale(1.02597)"/><path d="M317.404 195.084c-1.782 25.702-16.67 90.293-40.491 145.564-22.448 52.082-53.391 94.952-79.26 91.348-42.667-5.987-39.88-125.402-9.114-226.308 22.242-73.127 57.79-143.278 96.034-151.931 24.124-5.46 33.6 33.6 33.6 33.6l-3.264.907s-7.937-36.913-31.969-31.061c-34.797 8.472-70.615 80.897-91.862 149.392-29.76 96.122-34.7 218.017 7.119 223.768 25.113 3.454 55.724-37.814 78.171-89.897 23.821-55.27 39.254-119.68 41.036-145.382" stroke-width="1.026"/></g><g transform="translate(222.55 -35.25) scale(.15519)"><g transform="translate(275.75 261)"><circle r="59.5" cy="493.862" cx="305.5" fill="#1d28ed"/><circle r="59.5" cy="493.862" cx="305.5" fill="url(#M)"/></g><ellipse ry="19" rx="16.5" cy="717.362" cx="165.5" transform="matrix(.76542 0 0 .71734 424.322 249.268)" opacity=".8" fill="#fff" filter="url(#N)"/></g><g fill="#1414b8" stroke="#1414b8"><path d="M585 338c-1.737 25.051-16.248 88.008-39.466 141.879-21.88 50.764-52.04 92.549-77.254 89.035-41.586-5.835-38.87-122.227-8.882-220.579C481.076 277.06 515.725 208.685 553 200.25c23.513-5.32 32.75 32.75 32.75 32.75l-3.182.884s-7.735-35.978-31.159-30.275c-33.916 8.258-68.828 78.849-89.537 145.61-29.006 93.69-33.822 212.498 6.939 218.104 24.477 3.367 54.314-36.857 76.192-87.621C568.222 425.831 583.263 363.051 585 338" filter="url(#H)" transform="rotate(-30 100.172 846.26) scale(1.02597)"/><path d="M283.462 163.684c11.308 23.15 30.71 86.532 37.715 146.308 6.602 56.328 1.239 108.926-22.967 118.74-39.943 16.147-97.238-88.662-121.046-191.432-17.302-74.45-21.59-152.977 7.202-179.593 18.162-16.79 45.899 12.298 45.899 12.298l-2.374 2.418s-25.33-28-43.216-10.916c-25.899 24.736-20.706 105.367-4.859 175.309 22.288 98.124 78.957 206.158 118.05 190.23 23.475-9.566 29.35-60.611 22.75-116.94-7.006-59.775-25.846-123.272-37.154-146.422" stroke-width="1.026"/></g><g transform="translate(134.752 -47.938) scale(.15519)"><g transform="translate(275.75 261)"><circle r="59.5" cy="493.862" cx="305.5" fill="#1d28ed"/><circle r="59.5" cy="493.862" cx="305.5" fill="url(#O)"/></g><ellipse ry="19" rx="16.5" cy="717.362" cx="165.5" transform="matrix(.76542 0 0 .71734 424.322 249.268)" opacity=".8" fill="#fff" filter="url(#P)"/></g><g fill="#1414b8" stroke="#1414b8"><path d="M585 338c-1.737 25.051-16.248 88.008-39.466 141.879-21.88 50.764-52.04 92.549-77.254 89.035-41.586-5.835-38.87-122.227-8.882-220.579C481.076 277.06 515.725 208.685 553 200.25c23.513-5.32 32.75 32.75 32.75 32.75l-3.182.884s-7.735-35.978-31.159-30.275c-33.916 8.258-68.828 78.849-89.537 145.61-29.006 93.69-33.822 212.498 6.939 218.104 24.477 3.367 54.314-36.857 76.192-87.621C568.222 425.831 583.263 363.051 585 338" filter="url(#H)" transform="rotate(-60 252.927 563.067) scale(1.02597)"/><path d="M239.248 154.18c21.367 14.395 69.861 59.584 105.816 107.849 33.881 45.48 55.536 93.714 39.48 114.315-26.518 33.956-128.541-28.163-200.545-105.261-52.209-55.825-95.187-121.687-83.56-159.133 7.335-23.622 45.9-12.3 45.9-12.3l-.848 3.282s-35.935-11.584-42.884 12.154c-10.06 34.371 34.752 101.603 83.447 154.251 68.364 73.834 171.458 139.06 197.348 105.72 15.548-20.022-4.886-67.167-38.767-112.647-35.955-48.265-84.02-93.835-105.387-108.23" stroke-width="1.026"/></g><g transform="translate(50.18 -14.725) scale(.15519)"><g transform="translate(275.75 261)"><circle r="59.5" cy="493.862" cx="305.5" fill="#1d28ed"/><circle r="59.5" cy="493.862" cx="305.5" fill="url(#Q)"/></g><ellipse ry="19" rx="16.5" cy="717.362" cx="165.5" transform="matrix(.76542 0 0 .71734 424.322 249.268)" opacity=".8" fill="#fff" filter="url(#R)"/></g><g fill="#1414b8" stroke="#1414b8"><path d="M585 338c-1.737 25.051-16.248 88.008-39.466 141.879-21.88 50.764-52.04 92.549-77.254 89.035-41.586-5.835-38.87-122.227-8.882-220.579C481.076 277.06 515.725 208.685 553 200.25c23.513-5.32 32.75 32.75 32.75 32.75l-3.182.884s-7.735-35.978-31.159-30.275c-33.916 8.258-68.828 78.849-89.537 145.61-29.006 93.69-33.822 212.498 6.939 218.104 24.477 3.367 54.314-36.857 76.192-87.621C568.222 425.831 583.263 363.051 585 338" filter="url(#H)" transform="rotate(-90 309.042 459.51) scale(1.02597)"/><path d="M196.31 168.36c25.7 1.781 90.292 16.67 145.563 40.49 52.082 22.447 94.952 53.391 91.348 79.26-5.988 42.666-125.402 39.88-226.308 9.114-73.127-22.242-143.278-57.79-151.931-96.034-5.46-24.124 33.6-33.6 33.6-33.6l.907 3.264s-36.913 7.937-31.061 31.969c8.472 34.796 80.897 70.615 149.392 91.862 96.122 29.76 218.017 34.7 223.768-7.119 3.454-25.113-37.814-55.724-89.897-78.171-55.27-23.822-119.68-39.254-145.382-41.036" stroke-width="1.026"/></g><g transform="translate(-5.647 54.285) scale(.15519)"><g transform="translate(275.75 261)"><circle r="59.5" cy="493.862" cx="305.5" fill="#1d28ed"/><circle r="59.5" cy="493.862" cx="305.5" fill="url(#S)"/></g><ellipse ry="19" rx="16.5" cy="717.362" cx="165.5" transform="matrix(.76542 0 0 .71734 424.322 249.268)" opacity=".8" fill="#fff" filter="url(#T)"/></g><text style="line-height:0%;-inkscape-font-specification:'Nimbus Mono L Bold';text-align:center" x="521.59" y="625.324" font-style="italic" font-weight="700" font-family="Nimbus Mono L" text-anchor="middle" fill="#fff" stroke="#000" stroke-width="1.565" transform="translate(-278.2 -141.87)"><tspan x="521.59" y="625.324" style="line-height:1.25;-inkscape-font-specification:'Liberation Sans Bold'" font-style="normal" font-size="53" font-family="Liberation Sans" fill="#000" stroke="none">Scientific Linux</tspan></text></svg>