<svg xmlns="http://www.w3.org/2000/svg" xmlns:xlink="http://www.w3.org/1999/xlink" width="1200" height="800" version="1.0" viewBox="-73 -121 631 728"><defs><filter id="q" width="2" height="1.9" x="-1" y="0" color-interpolation-filters="sRGB"><feGaussianBlur stdDeviation="7.1"/></filter><filter id="s" width="2" height="1.9" x="-1" y="0" color-interpolation-filters="sRGB"><feGaussianBlur stdDeviation="7.1"/></filter><filter id="u" width="2" height="1.9" x="-1" y="0" color-interpolation-filters="sRGB"><feGaussianBlur stdDeviation="7.1"/></filter><filter id="w" width="2" height="1.9" x="-1" y="0" color-interpolation-filters="sRGB"><feGaussianBlur stdDeviation="7.1"/></filter><filter id="y" width="2" height="1.9" x="-1" y="0" color-interpolation-filters="sRGB"><feGaussianBlur stdDeviation="7.1"/></filter><filter id="A" width="2" height="1.9" x="-1" y="0" color-interpolation-filters="sRGB"><feGaussianBlur stdDeviation="7.1"/></filter><filter id="C" width="2" height="1.9" x="-1" y="0" color-interpolation-filters="sRGB"><feGaussianBlur stdDeviation="7.1"/></filter><filter id="E" width="2" height="1.9" x="-1" y="0" color-interpolation-filters="sRGB"><feGaussianBlur stdDeviation="7.1"/></filter><filter id="G" width="2" height="1.9" x="-1" y="0" color-interpolation-filters="sRGB"><feGaussianBlur stdDeviation="7.1"/></filter><filter id="H" color-interpolation-filters="sRGB"><feGaussianBlur stdDeviation="1.9"/></filter><filter id="T" width="2" height="1.9" x="-1" y="0" color-interpolation-filters="sRGB"><feGaussianBlur stdDeviation="7.1"/></filter><filter id="R" width="2" height="1.9" x="-1" y="0" color-interpolation-filters="sRGB"><feGaussianBlur stdDeviation="7.1"/></filter><filter id="P" width="2" height="1.9" x="-1" y="0" color-interpolation-filters="sRGB"><feGaussianBlur stdDeviation="7.1"/></filter><filter id="N" width="2" height="1.9" x="-1" y="0" color-interpolation-filters="sRGB"><feGaussianBlur stdDeviation="7.1"/></filter><filter id="L" width="2" height="1.9" x="-1" y="0" color-interpolation-filters="sRGB"><feGaussianBlur stdDeviation="7.1"/></filter><filter id="J" width="2" height="1.9" x="-1" y="0" color-interpolation-filters="sRGB"><feGaussianBlur stdDeviation="7.1"/></filter><radialGradient xlink:href="#a" id="p" cx="277.5" cy="493.9" r="60" fx="277.5" fy="493.9" gradientTransform="matrix(.81067 .65033 -.63705 .79413 367 -79)" gradientUnits="userSpaceOnUse"/><radialGradient xlink:href="#b" id="r" cx="277.5" cy="493.9" r="60" fx="277.5" fy="493.9" gradientTransform="matrix(.81067 .65033 -.63705 .79413 367 -79)" gradientUnits="userSpaceOnUse"/><radialGradient xlink:href="#c" id="t" cx="277.5" cy="493.9" r="60" fx="277.5" fy="493.9" gradientTransform="matrix(.81067 .65033 -.63705 .79413 367 -79)" gradientUnits="userSpaceOnUse"/><radialGradient xlink:href="#d" id="v" cx="277.5" cy="493.9" r="60" fx="277.5" fy="493.9" gradientTransform="matrix(.81067 .65033 -.63705 .79413 367 -79)" gradientUnits="userSpaceOnUse"/><radialGradient xlink:href="#e" id="x" cx="277.5" cy="493.9" r="60" fx="277.5" fy="493.9" gradientTransform="matrix(.81067 .65033 -.63705 .79413 367 -79)" gradientUnits="userSpaceOnUse"/><radialGradient xlink:href="#f" id="z" cx="277.5" cy="493.9" r="60" fx="277.5" fy="493.9" gradientTransform="matrix(.81067 .65033 -.63705 .79413 367 -79)" gradientUnits="userSpaceOnUse"/><radialGradient xlink:href="#g" id="B" cx="277.5" cy="493.9" r="60" fx="277.5" fy="493.9" gradientTransform="matrix(.81067 .65033 -.63705 .79413 367 -79)" gradientUnits="userSpaceOnUse"/><radialGradient xlink:href="#h" id="D" cx="277.5" cy="493.9" r="60" fx="277.5" fy="493.9" gradientTransform="matrix(.81067 .65033 -.63705 .79413 367 -79)" gradientUnits="userSpaceOnUse"/><radialGradient xlink:href="#i" id="F" cx="277.5" cy="493.9" r="60" fx="277.5" fy="493.9" gradientTransform="matrix(.81067 .65033 -.63705 .79413 367 -79)" gradientUnits="userSpaceOnUse"/><radialGradient xlink:href="#j" id="I" cx="277.5" cy="493.9" r="60" fx="277.5" fy="493.9" gradientTransform="matrix(.81067 .65033 -.63705 .79413 367 -79)" gradientUnits="userSpaceOnUse"/><radialGradient xlink:href="#k" id="K" cx="277.5" cy="493.9" r="60" fx="277.5" fy="493.9" gradientTransform="matrix(.81067 .65033 -.63705 .79413 367 -79)" gradientUnits="userSpaceOnUse"/><radialGradient xlink:href="#l" id="M" cx="277.5" cy="493.9" r="60" fx="277.5" fy="493.9" gradientTransform="matrix(.81067 .65033 -.63705 .79413 367 -79)" gradientUnits="userSpaceOnUse"/><radialGradient xlink:href="#m" id="O" cx="277.5" cy="493.9" r="60" fx="277.5" fy="493.9" gradientTransform="matrix(.81067 .65033 -.63705 .79413 367 -79)" gradientUnits="userSpaceOnUse"/><radialGradient xlink:href="#n" id="Q" cx="277.5" cy="493.9" r="60" fx="277.5" fy="493.9" gradientTransform="matrix(.81067 .65033 -.63705 .79413 367 -79)" gradientUnits="userSpaceOnUse"/><radialGradient xlink:href="#o" id="S" cx="277.5" cy="493.9" r="60" fx="277.5" fy="493.9" gradientTransform="matrix(.81067 .65033 -.63705 .79413 367 -79)" gradientUnits="userSpaceOnUse"/><linearGradient id="a"><stop offset="0" stop-color="#fff" stop-opacity="0"/><stop offset="1" stop-opacity=".5"/></linearGradient><linearGradient id="b"><stop offset="0" stop-color="#fff" stop-opacity="0"/><stop offset="1" stop-opacity=".5"/></linearGradient><linearGradient id="c"><stop offset="0" stop-color="#fff" stop-opacity="0"/><stop offset="1" stop-opacity=".5"/></linearGradient><linearGradient id="d"><stop offset="0" stop-color="#fff" stop-opacity="0"/><stop offset="1" stop-opacity=".5"/></linearGradient><linearGradient id="e"><stop offset="0" stop-color="#fff" stop-opacity="0"/><stop offset="1" stop-opacity=".5"/></linearGradient><linearGradient id="f"><stop offset="0" stop-color="#fff" stop-opacity="0"/><stop offset="1" stop-opacity=".5"/></linearGradient><linearGradient id="g"><stop offset="0" stop-color="#fff" stop-opacity="0"/><stop offset="1" stop-opacity=".5"/></linearGradient><linearGradient id="h"><stop offset="0" stop-color="#fff" stop-opacity="0"/><stop offset="1" stop-opacity=".5"/></linearGradient><linearGradient id="i"><stop offset="0" stop-color="#fff" stop-opacity="0"/><stop offset="1" stop-opacity=".5"/></linearGradient><linearGradient id="o"><stop offset="0" stop-color="#fff" stop-opacity="0"/><stop offset="1" stop-opacity=".5"/></linearGradient><linearGradient id="n"><stop offset="0" stop-color="#fff" stop-opacity="0"/><stop offset="1" stop-opacity=".5"/></linearGradient><linearGradient id="m"><stop offset="0" stop-color="#fff" stop-opacity="0"/><stop offset="1" stop-opacity=".5"/></linearGradient><linearGradient id="l"><stop offset="0" stop-color="#fff" stop-opacity="0"/><stop offset="1" stop-opacity=".5"/></linearGradient><linearGradient id="k"><stop offset="0" stop-color="#fff" stop-opacity="0"/><stop offset="1" stop-opacity=".5"/></linearGradient><linearGradient id="j"><stop offset="0" stop-color="#fff" stop-opacity="0"/><stop offset="1" stop-opacity=".5"/></linearGradient></defs><g transform="rotate(120 161 289) scale(.29363)"><circle cx="305.5" cy="493.9" r="59.5" fill="#ed1d1d" transform="translate(-111 247)"/><circle cx="305.5" cy="493.9" r="59.5" fill="url(#p)" transform="translate(-111 247)"/><ellipse cx="165.5" cy="717.4" fill="#fff" filter="url(#q)" opacity=".8" rx="16.5" ry="19" transform="matrix(.76542 0 0 .71734 37 231)"/></g><g transform="rotate(120 149 269) scale(.29364)"><circle cx="305.5" cy="493.9" r="59.5" fill="#ed1d1d" transform="translate(-111 247)"/><circle cx="305.5" cy="493.9" r="59.5" fill="url(#r)" transform="translate(-111 247)"/><ellipse cx="165.5" cy="717.4" fill="#fff" filter="url(#s)" opacity=".8" rx="16.5" ry="19" transform="matrix(.76542 0 0 .71734 37 231)"/></g><g transform="rotate(120 140 301) scale(.29363)"><circle cx="305.5" cy="493.9" r="59.5" fill="#ed1d1d" transform="translate(-111 247)"/><circle cx="305.5" cy="493.9" r="59.5" fill="url(#t)" transform="translate(-111 247)"/><ellipse cx="165.5" cy="717.4" fill="#fff" filter="url(#u)" opacity=".8" rx="16.5" ry="19" transform="matrix(.76542 0 0 .71734 37 231)"/></g><g transform="rotate(120 127 281) scale(.29363)"><circle cx="305.5" cy="493.9" r="59.5" fill="#ed1d1d" transform="translate(-111 247)"/><circle cx="305.5" cy="493.9" r="59.5" fill="url(#v)" transform="translate(-111 247)"/><ellipse cx="165.5" cy="717.4" fill="#fff" filter="url(#w)" opacity=".8" rx="16.5" ry="19" transform="matrix(.76542 0 0 .71734 37 231)"/></g><g transform="rotate(120 188 262) scale(.29363)"><g transform="translate(84 259)"><circle cx="305.5" cy="493.9" r="59.5" fill="#e4e4e4"/><circle cx="305.5" cy="493.9" r="59.5" fill="url(#x)"/></g><ellipse cx="165.5" cy="717.4" fill="#fff" filter="url(#y)" opacity=".8" rx="16.5" ry="19" transform="matrix(.76542 0 0 .71734 233 244)"/></g><g transform="rotate(120 159 278) scale(.29363)"><g transform="translate(84 259)"><circle cx="305.5" cy="493.9" r="59.5" fill="#e4e4e4"/><circle cx="305.5" cy="493.9" r="59.5" fill="url(#z)"/></g><ellipse cx="165.5" cy="717.4" fill="#fff" filter="url(#A)" opacity=".8" rx="16.5" ry="19" transform="matrix(.76542 0 0 .71734 233 244)"/></g><g transform="rotate(120 165 256) scale(.29363)"><g transform="translate(84 259)"><circle cx="305.5" cy="493.9" r="59.5" fill="#e4e4e4"/><circle cx="305.5" cy="493.9" r="59.5" fill="url(#B)"/></g><ellipse cx="165.5" cy="717.4" fill="#fff" filter="url(#C)" opacity=".8" rx="16.5" ry="19" transform="matrix(.76542 0 0 .71734 233 244)"/></g><g transform="rotate(120 182 283) scale(.29363)"><g transform="translate(84 259)"><circle cx="305.5" cy="493.9" r="59.5" fill="#e4e4e4"/><circle cx="305.5" cy="493.9" r="59.5" fill="url(#D)"/></g><ellipse cx="165.5" cy="717.4" fill="#fff" filter="url(#E)" opacity=".8" rx="16.5" ry="19" transform="matrix(.76542 0 0 .71734 233 244)"/></g><g transform="rotate(120 145 285) scale(.29363)"><circle cx="305.5" cy="493.9" r="59.5" fill="#ed1d1d" transform="translate(-111 247)"/><circle cx="305.5" cy="493.9" r="59.5" fill="url(#F)" transform="translate(-111 247)"/><ellipse cx="165.5" cy="717.4" fill="#fff" filter="url(#G)" opacity=".8" rx="16.5" ry="19" transform="matrix(.76542 0 0 .71734 37 231)"/></g><g fill="#1414b8" stroke="#1414b8"><path d="M585 338c-2 25-16 88-39 142-22 51-53 92-78 89-41-6-39-122-9-221 22-71 57-139 94-148 24-5 33 33 33 33l-3 1s-8-36-32-30c-34 8-68 78-89 145-29 94-34 213 7 218 24 4 54-37 76-87 23-54 38-117 40-142" filter="url(#H)" transform="rotate(60 516 74) scale(1.02597)"/><path d="M322 284c-23 11-87 30-146 37-57 7-109 1-119-23-16-40 89-97 191-121 75-17 153-21 180 7 17 19-12 46-12 46l-3-2s28-25 11-43c-25-26-105-21-175-5-98 22-206 79-190 118 9 23 60 29 116 23 60-7 124-26 147-37"/></g><g transform="translate(328 108) scale(.15519)"><g transform="translate(276 261)"><circle cx="305.5" cy="493.9" r="59.5" fill="#1d28ed"/><circle cx="305.5" cy="493.9" r="59.5" fill="url(#I)"/></g><ellipse cx="165.5" cy="717.4" fill="#fff" filter="url(#J)" opacity=".8" rx="16.5" ry="19" transform="matrix(.76542 0 0 .71734 424 249)"/></g><g fill="#1414b8" stroke="#1414b8"><path d="M585 338c-2 25-16 88-39 142-22 51-53 92-78 89-41-6-39-122-9-221 22-71 57-139 94-148 24-5 33 33 33 33l-3 1s-8-36-32-30c-34 8-68 78-89 145-29 94-34 213 7 218 24 4 54-37 76-87 23-54 38-117 40-142" filter="url(#H)" transform="rotate(30 666 -209) scale(1.02597)"/><path d="M331 239c-14 22-59 70-108 106-45 34-93 56-114 40-34-27 28-129 105-201 56-52 122-95 159-84 24 8 13 46 13 46l-4-1s12-35-12-42c-34-10-101 34-154 83-74 68-139 172-106 197 20 16 67-4 113-38 48-36 94-84 108-106"/></g><g transform="translate(294 22) scale(.15519)"><g transform="translate(276 261)"><circle cx="305.5" cy="493.9" r="59.5" fill="#1d28ed"/><circle cx="305.5" cy="493.9" r="59.5" fill="url(#K)"/></g><ellipse cx="165.5" cy="717.4" fill="#fff" filter="url(#L)" opacity=".8" rx="16.5" ry="19" transform="matrix(.76542 0 0 .71734 424 249)"/></g><g fill="#1414b8" stroke="#1414b8"><path d="M585 338c-2 25-16 88-39 142-22 51-53 92-78 89-41-6-39-122-9-221 22-71 57-139 94-148 24-5 33 33 33 33l-3 1s-8-36-32-30c-34 8-68 78-89 145-29 94-34 213 7 218 24 4 54-37 76-87 23-54 38-117 40-142" filter="url(#H)" transform="translate(-283 -152) scale(1.02597)"/><path d="M317 195c-1 26-16 90-40 146-23 52-53 95-79 91-43-6-40-125-9-226 22-73 57-144 96-152 24-6 33 33 33 33l-3 1s-8-37-32-31c-35 9-71 81-92 150-30 96-35 218 7 223 25 4 56-37 78-90 24-55 40-119 41-145"/></g><g transform="translate(223 -35) scale(.15519)"><g transform="translate(276 261)"><circle cx="305.5" cy="493.9" r="59.5" fill="#1d28ed"/><circle cx="305.5" cy="493.9" r="59.5" fill="url(#M)"/></g><ellipse cx="165.5" cy="717.4" fill="#fff" filter="url(#N)" opacity=".8" rx="16.5" ry="19" transform="matrix(.76542 0 0 .71734 424 249)"/></g><g fill="#1414b8" stroke="#1414b8"><path d="M585 338c-2 25-16 88-39 142-22 51-53 92-78 89-41-6-39-122-9-221 22-71 57-139 94-148 24-5 33 33 33 33l-3 1s-8-36-32-30c-34 8-68 78-89 145-29 94-34 213 7 218 24 4 54-37 76-87 23-54 38-117 40-142" filter="url(#H)" transform="rotate(-30 100 846) scale(1.02597)"/><path d="M283 164c12 23 31 86 38 146 7 56 1 109-23 119-40 16-97-89-121-192-17-74-21-153 7-179 19-17 46 12 46 12l-2 2s-25-28-43-10c-26 24-21 105-5 175 22 98 79 206 118 190 23-10 29-61 23-117-7-60-26-123-38-146"/></g><g transform="translate(135 -48) scale(.15519)"><g transform="translate(276 261)"><circle cx="305.5" cy="493.9" r="59.5" fill="#1d28ed"/><circle cx="305.5" cy="493.9" r="59.5" fill="url(#O)"/></g><ellipse cx="165.5" cy="717.4" fill="#fff" filter="url(#P)" opacity=".8" rx="16.5" ry="19" transform="matrix(.76542 0 0 .71734 424 249)"/></g><g fill="#1414b8" stroke="#1414b8"><path d="M585 338c-2 25-16 88-39 142-22 51-53 92-78 89-41-6-39-122-9-221 22-71 57-139 94-148 24-5 33 33 33 33l-3 1s-8-36-32-30c-34 8-68 78-89 145-29 94-34 213 7 218 24 4 54-37 76-87 23-54 38-117 40-142" filter="url(#H)" transform="rotate(-60 253 563) scale(1.02597)"/><path d="M239 154c22 15 70 60 106 108 34 46 56 94 40 114-27 34-129-28-201-105-52-56-95-122-84-159 8-24 46-12 46-12l-1 3s-35-12-42 12c-10 34 34 102 83 154 68 74 172 139 197 106 16-20-4-67-38-113-36-48-84-93-106-108"/></g><g transform="translate(50 -15) scale(.15519)"><g transform="translate(276 261)"><circle cx="305.5" cy="493.9" r="59.5" fill="#1d28ed"/><circle cx="305.5" cy="493.9" r="59.5" fill="url(#Q)"/></g><ellipse cx="165.5" cy="717.4" fill="#fff" filter="url(#R)" opacity=".8" rx="16.5" ry="19" transform="matrix(.76542 0 0 .71734 424 249)"/></g><g fill="#1414b8" stroke="#1414b8"><path d="M585 338c-2 25-16 88-39 142-22 51-53 92-78 89-41-6-39-122-9-221 22-71 57-139 94-148 24-5 33 33 33 33l-3 1s-8-36-32-30c-34 8-68 78-89 145-29 94-34 213 7 218 24 4 54-37 76-87 23-54 38-117 40-142" filter="url(#H)" transform="rotate(-90 309 460) scale(1.02597)"/><path d="M196 168c26 2 91 17 146 41 52 22 95 53 91 79-6 43-125 40-226 9-73-22-143-58-152-96-5-24 34-33 34-33v3s-36 8-31 32c9 35 81 70 150 92 96 29 218 34 224-7 3-26-38-56-90-79-56-23-120-39-146-41"/></g><g transform="translate(-6 54) scale(.15519)"><g transform="translate(276 261)"><circle cx="305.5" cy="493.9" r="59.5" fill="#1d28ed"/><circle cx="305.5" cy="493.9" r="59.5" fill="url(#S)"/></g><ellipse cx="165.5" cy="717.4" fill="#fff" filter="url(#T)" opacity=".8" rx="16.5" ry="19" transform="matrix(.76542 0 0 .71734 424 249)"/></g><text x="522" y="625" fill="#fff" stroke="#000" stroke-width="1.6" font-family="Nimbus Mono L" font-style="italic" font-weight="700" style="line-height:0%;-inkscape-font-specification:'Nimbus Mono L Bold';text-align:center" text-anchor="middle" transform="translate(-278 -142)"><tspan x="522" y="625" fill="#000" stroke="none" font-family="Liberation Sans" font-size="53" font-style="normal" style="line-height:1.25;-inkscape-font-specification:'Liberation Sans Bold'">Scientific Linux</tspan></text></svg>