<svg xmlns="http://www.w3.org/2000/svg" data-name="Layer 1" viewBox="0 0 658.2 122.2"><path fill="#da291c" fill-rule="evenodd" d="M465 55a2.1 2.1 0 0 1 .7 1.7 2.4 2.4 0 0 1-.2 1v.1l-21.1 47.5a6 6 0 0 1-5.7 4h-4l-6.1-30-14.7 26.3a9.4 9.4 0 0 1-2.4 2.6 5.7 5.7 0 0 1-3.5 1h-4.7V54.5h3.6a2.5 2.5 0 0 1 1.7.5 2.3 2.3 0 0 1 .8 1.8l-.2 45.6L426 73.2h3.5a4.1 4.1 0 0 1 4.3 3.7l5.6 25.7 21.2-48.1h2.8a2.4 2.4 0 0 1 1.6.5Zm45.5 29.5c-3.7 16-14.6 21.9-24.7 21.4l-1-.1c-9.9-1.3-17.2-8.9-13.3-24.5 4-16 15.4-21.9 25.5-21.3 10 1 17.3 8.9 13.5 24.5Zm-12.1-30.1c16.4 1.9 21.3 16.5 18 30.6-3.7 15.5-15 27.8-32.8 26.4-16.7-2-21.4-16.6-18-30.6 4-15.5 15.1-27.8 32.8-26.4ZM331 54.3h-10.3l-10 54.7H323l9.7-52.9a1.6 1.6 0 0 0-1.6-1.9Zm292.8 13c0-4.1 1.2-12.8 11.7-12.8h22.7v4.1a1.9 1.9 0 0 1-1.4 1.7v.1-.1h-20.3c-4.1 0-6.6 2.7-6.7 6.1 0 2 1.2 3.8 3 5.6l14.6 14.4s5.3 4.4 5.3 10c0 4.1-1.2 12.8-11.8 12.8h-22.4v-4.1a1.9 1.9 0 0 1 1.3-1.7H640c4.2 0 6.7-2.7 6.7-6a8.3 8.3 0 0 0-2.7-6l-15.4-15c-1.6-1.4-4.7-4.8-4.7-9.1Zm-72.4 12a50 50 0 0 1-13 1.1h-6.3l3.6-20h15.4a25.3 25.3 0 0 1 3 .4c2.7.5 4.4 1 5.4 2 4.8 4.5.5 14.3-8 16.6ZM531 54.6h14.1c8.3 0 15.6.1 19.9 5 2.4 2.8 2.6 8 1.9 11-.8 4-4.5 13.7-18.3 15l11.6 19.9a5 5 0 0 1 .8 2 1.9 1.9 0 0 1-.7 1.5 2.5 2.5 0 0 1-1.5.4h-3l-13.6-23.5h-11l-4.3 23.5h-6Zm-159-.2h-29.5l-.2.8c-.6 3.8-.3 8 5.5 8h21.9c8.6 0 11.9 6.3 9.8 18-2 10.8-7.8 19-16.6 19H351l5.7-30.8h-10a2.4 2.4 0 0 0-2.5 1.9l-7 37.8h23.1c17.1 0 29-8 32.6-28.2 3-15.6-3.6-26.5-21-26.5Zm239.8.3h2.7a2.3 2.3 0 0 1 1.5.4 1.9 1.9 0 0 1 .7 1.5 2.7 2.7 0 0 1-.8 2l-28.2 23.9 21.1 23a3.7 3.7 0 0 1 .8 2 2 2 0 0 1-.7 1.5 2.6 2.6 0 0 1-1.5.4h-2.7L582.5 85l-4.4 24.2h-6l10.2-54.7h2.7a2.8 2.8 0 0 1 1.7.6 2.2 2.2 0 0 1 .8 2.3l-3.7 21.3ZM302.1 100h-23.3l8-44a1.6 1.6 0 0 0-1.6-1.9H275L265 109h38.6l1-5.5c.4-2.4-.4-3.4-2.5-3.4ZM165.8 79.2a13.1 13.1 0 0 1-5.6-13c1-6.4 6.5-12 12.7-12H201v5.9c-.4 2.6-1.9 5.3-4.5 5.3h-21.2c-2.1 0-3.4.5-3.5 1.9-.1.8.2 1.3 1.7 2.4L192.1 83c4 2.8 6 7.3 5 13.4-1 6.6-6.1 12.7-16.6 12.7h-23.8v-7.6c.4-2.5 1.6-3.5 3.8-3.5h20.3c3.6 0 4.7-.9 5-2.9.2-1.5-.7-2.3-2.5-3.6ZM37.6 57.9c9.8-.5 21.6 1 28.3 5.6a10.1 10.1 0 0 1 4.3 11.2c-3.8 13.6-18.2 30-50 42.7-10.2 4-18.2 5.5-19.8 4.5s2.2-8 4.2-11.8l.8-1.3A239.2 239.2 0 0 1 23 81.2l.7-1c2.2-3.2 5.4-7.7 8.3-7.3s-.5 6.2-2.7 10c-3.7 6.2-13.9 23.5-10.5 24.5 7.4 2.3 42.3-21.5 37.1-34.7-2.3-6.1-17.5-6.7-27-6.7h-2.6c-4.7.2-11.2.4-11.7-2-.6-2.8 14.3-5.6 23-6Zm211.5 24.9c-2 12.7-7.9 19.2-19 19.2s-14.8-6.5-12.7-19.2 8-19.2 19-19.2 14.8 6.5 12.7 19.2Zm-43.8 0c2.6-15.5 13-28.5 32.7-28.5s25.8 13 23.2 28.5-13 28.5-32.6 28.5-25.8-13-23.3-28.5ZM114.1 42h-.4c-10.3-1.8-28.9-2.4-35.2 7.3C73.8 56.4 82 66 90 75.7l1.2 1.3 2.1 2.5c6 7 11.7 13.6 9 17.6-2.1 3-14 3.5-20.8 3.8h-2.8c-1.8.2-3.8.2-5.8.3-5.4.2-10.7.4-11.9 1-1.5.8-2.3 3.3 3.3 4.3a158 158 0 0 0 26.3 2.4c11.7 0 24-2 26.7-11 2-6.6-4-13.6-10-20.7l-1.9-2.3-4.7-5.5c-5.3-6-9.5-10.7-9-15.5s9.8-5 25.3-5.3c3.3 0 9.7-.2 8.5-2.8-1.1-2.1-5.8-2.9-11.6-3.8ZM92 9.6C89.5 2 75.6-.4 64 .1S41.6 3.4 42.3 5.5s6.5 2 10.1 2H54c11.1 0 21.8 2 24.4 5 4 4.6-3 15.9-24 31.3-4 3-7.1 5.7-7.8 7a1.2 1.2 0 0 0 1 1.9 21 21 0 0 0 8.5-2.7c18.7-9.1 40.2-27.7 36-40.4Z"/></svg>