<svg id="Layer_1" data-name="Layer 1" xmlns="http://www.w3.org/2000/svg" viewBox="0 0 658.24 122.21"><title>SolidWorks logo - Brandlogos.net</title><path d="M519.85,377.88a2.13,2.13,0,0,1,.74,1.67,2.36,2.36,0,0,1-.25,1.08l0,.07-21.11,47.5a6.09,6.09,0,0,1-5.67,3.92h-4l-6.09-29.86-14.7,26.19a9.39,9.39,0,0,1-2.35,2.64,5.73,5.73,0,0,1-3.54,1h-4.65V377.39h3.58a2.5,2.5,0,0,1,1.67.53,2.32,2.32,0,0,1,.77,1.79l-.17,45.57,16.77-29.22h3.57a4.11,4.11,0,0,1,4.3,3.69l5.54,25.79,21.25-48.15h2.77A2.41,2.41,0,0,1,519.85,377.88Zm45.57,29.53c-3.79,16-14.61,21.89-24.78,21.34l-1-.05c-9.85-1.26-17.11-8.86-13.25-24.5,4-16,15.44-21.88,25.49-21.33C561.86,383.89,569.13,391.77,565.42,407.41Zm-12.15-30.15v0c16.44,1.91,21.34,16.57,18,30.6-3.69,15.56-14.91,27.84-32.81,26.47-16.67-1.94-21.42-16.62-17.89-30.63C524.45,388.17,535.63,375.89,553.27,377.26Zm-167.3-.1H375.72l-10,54.73h12.17L387.54,379A1.59,1.59,0,0,0,386,377.15Zm292.83,13c.05-4.09,1.16-12.75,11.72-12.78h22.61v4.15a1.87,1.87,0,0,1-1.33,1.64l0,.15,0-.15c-.17,0-20.28.08-20.31.08-4.13,0-6.66,2.69-6.68,6.05,0,2,1.15,3.83,3,5.62l14.59,14.36s5.24,4.38,5.24,10.05v0c0,4.08-1.17,12.74-11.72,12.78H673.5V428l-.07,0h.07a1.87,1.87,0,0,1,1.32-1.66c.12,0,8.82-.06,14.73-.07h5.37c4.11,0,6.67-2.71,6.67-6.05a8.3,8.3,0,0,0-2.73-5.87l-15.39-15.08C681.92,397.91,678.8,394.47,678.8,390.17Zm-72.47,12.09c-3.34.89-8,1.06-12.92,1.06l-3.42,0h0l-2.9,0,3.59-19.93,2.58,0c4,0,10.26-.09,12.74,0a25.28,25.28,0,0,1,3.06.29c2.59.49,4.27,1,5.36,2.08C619.13,390.2,614.9,400,606.32,402.26ZM586,377.39h14.08c8.31,0,15.62.13,19.87,5,2.43,2.79,2.6,7.93,1.93,11.08-.85,3.9-4.52,13.64-18.33,14.88l11.63,19.9a5.05,5.05,0,0,1,.78,2,1.86,1.86,0,0,1-.69,1.51,2.47,2.47,0,0,1-1.49.41h-3l-13.64-23.48-11-.06-4.26,23.54h-6Zm-159.08-.24H397.46l-.15.88c-.68,3.73-.38,8,5.51,8h21.81c8.64,0,11.95,6.26,9.82,18-2,10.74-7.77,19-16.57,19H406l5.64-30.79H401.61a2.43,2.43,0,0,0-2.44,1.86l-6.92,37.82h23.08c17.05,0,28.94-8,32.59-28.25C450.8,388.1,444.3,377.15,426.92,377.15Zm239.88.34h2.7a2.31,2.31,0,0,1,1.49.43,1.87,1.87,0,0,1,.67,1.48,2.7,2.7,0,0,1-.79,2L642.68,405.3l21.11,22.94a3.71,3.71,0,0,1,.81,2,1.93,1.93,0,0,1-.71,1.51,2.62,2.62,0,0,1-1.49.41h-2.67l-22.3-24.24L633,432.12h-6l10.18-54.73h2.7a2.8,2.8,0,0,1,1.73.59,2.23,2.23,0,0,1,.8,2.33l-3.73,21.28ZM357,423H333.7l8-44a1.58,1.58,0,0,0-1.58-1.88H329.91l-10,54.75h38.53l1-5.49C359.88,424,359.07,423,357,423ZM220.66,402.1a13.1,13.1,0,0,1-5.55-13c1-6.36,6.45-11.94,12.69-11.94h28.08V383c-.4,2.64-1.87,5.28-4.48,5.28H230.15c-2.11,0-3.33.55-3.5,1.9-.11.8.26,1.36,1.76,2.43L247,405.82c4,2.82,6,7.23,5.06,13.38-1,6.55-6.2,12.7-16.65,12.7H211.57v-7.59c.4-2.47,1.6-3.51,3.76-3.51h20.35c3.62,0,4.7-.85,5-2.89.22-1.48-.67-2.34-2.53-3.61ZM92.52,380.84c9.76-.51,21.61,1,28.27,5.58a10.14,10.14,0,0,1,4.29,11.23c-3.84,13.58-18.19,30-50.06,42.64-10.13,4-18.1,5.55-19.78,4.47s2.24-8,4.27-11.74h0l.73-1.35a239.15,239.15,0,0,1,17.64-27.6l.68-1h0c2.27-3.19,5.43-7.65,8.31-7.25s-.49,6.22-2.69,9.92C80.5,412,70.32,429.27,73.68,430.3c7.43,2.28,42.28-21.47,37.14-34.71-2.38-6.14-17.51-6.73-27-6.73-.75,0-1.66,0-2.65.06h0c-4.7.14-11.24.34-11.67-2.11C68.88,384.07,83.83,381.31,92.52,380.84ZM304,405.7c-2.07,12.71-7.91,19.16-19,19.16s-14.79-6.45-12.7-19.16,7.89-19.16,19-19.16S306.07,393,304,405.7Zm-43.81,0c2.57-15.53,13.08-28.55,32.65-28.55s25.82,13,23.26,28.55S303,434.24,283.45,434.24,257.65,421.25,260.17,405.7Zm-91.25-40.84-.32-.05c-10.37-1.69-28.91-2.36-35.25,7.35-4.68,7.17,3.55,16.87,11.64,26.4l1.15,1.35,2.16,2.53h0c6,7,11.63,13.55,8.94,17.52-2.11,3.13-14.05,3.56-20.78,3.8l-2.79.11c-1.8.1-3.82.17-5.84.24-5.34.19-10.65.38-11.85,1-1.48.8-2.31,3.28,3.25,4.28a157.91,157.91,0,0,0,26.32,2.42c11.72,0,24-1.92,26.69-11,1.94-6.58-3.94-13.58-9.91-20.7h0l-1.92-2.3c-1.62-2-3.25-3.8-4.79-5.54h0c-5.25-5.93-9.48-10.7-9-15.45s9.84-5,25.37-5.32c3.24-.06,9.67-.21,8.43-2.77C179.34,366.56,174.68,365.8,168.92,364.86ZM147,332.53c-2.59-7.75-16.48-10.09-28.23-9.57s-22.29,3.3-21.63,5.44,6.57,2.08,10.15,2l1.6,0c11.1,0,21.8,2,24.35,5,4,4.58-2.88,15.88-24,31.29-4,3-7.07,5.68-7.73,7a1.23,1.23,0,0,0,.92,1.89c1.16.15,3.95-.46,8.54-2.69C129.73,363.75,151.23,345.23,147,332.53Z" transform="translate(-54.88 -322.9)" style="fill:#da291c;fill-rule:evenodd"/></svg>