<svg xmlns="http://www.w3.org/2000/svg" version="1.0" viewBox="-0.01 0.01 109.52 24.55"><g transform="translate(-1.97 -3.17)"><circle cx="14.27" cy="15.48" r="11.83" fill="#FFF" fill-rule="evenodd" clip-rule="evenodd"/><g fill="#C90827" fill-rule="evenodd" clip-rule="evenodd"><path d="M106.64 14.05c.83-.04 1.36.36 1.59.72.32.47.36 1.45.36 1.92 0 1.4-.34 2.55-1.82 2.55-1.79 0-1.85-1.72-1.85-2.55 0-1.4.34-2.58 1.72-2.64zm1.97 7.61c0 .81 0 1.85-1.76 1.85-.45 0-.74-.1-.93-.19-.77-.35-.8-.98-.85-1.41h-3c0 .53-.02 1.53.75 2.3.53.55 1.82 1.23 3.78 1.23.9 0 2.36-.15 3.36-.75 1.44-.84 1.48-2.1 1.52-3.18v-9.48h-2.72v.92a3.43 3.43 0 0 0-2.65-1.07c-3.27 0-4.2 2.85-4.2 4.83 0 1.7.52 3.23 1.84 4.08a4 4 0 0 0 2.25.65 4.2 4.2 0 0 0 2.6-.83v1.05zm-9.72-9.63h-2.83v9.88h2.9v-5.56c0-1.25.43-1.45 1.82-1.7l.97-.15v-2.57a4.57 4.57 0 0 0-2.86 1.14v-1.04zm-10.93 3.72c.1-.42.19-.87.59-1.3a2.05 2.05 0 0 1 2.9-.1c.4.43.48.98.54 1.4zm4.72 2.53c-.35.7-.9 1.74-2.49 1.74-1.57 0-2.27-1.23-2.25-2.46H95c-.04-1.11-.11-3.04-1.4-4.42a4.79 4.79 0 0 0-3.55-1.42c-3.9 0-5.06 3.07-5.06 5.45 0 3.23 2.06 5.1 4.98 5.1 1.6 0 2.88-.6 3.73-1.4a8 8 0 0 0 1.19-1.47zm-13.36-4.4c1.65-.1 2.14 1.41 2.14 2.98 0 .44-.06 1.72-.59 2.42-.24.3-.73.74-1.5.74-.67 0-1.35-.32-1.73-.93a4.77 4.77 0 0 1-.45-2.21c0-.58.02-2.89 2.13-3zm-4.89-5.33v13.36h2.8l-.12-1.04c.36.4 1.16 1.3 2.9 1.3a4 4 0 0 0 3.68-2.36c.44-.87.6-2.04.6-3.04 0-3.93-2.6-5.03-4.19-5.03-1.68 0-2.42.76-2.83 1.2v-4.4zm-7.7 3.51H63.8v9.85h2.91v-5.33c0-1.23 0-2.46 1.53-2.46.57 0 1.08.23 1.3.76.12.26.14.59.14 1.47v5.56h2.89v-6.75c0-1.53-.27-2.42-1.3-2.96a3.74 3.74 0 0 0-1.76-.4c-.7 0-1.35.17-1.8.36-.5.24-.7.47-.98.77v-.87zm-7.69 9.85h2.87v-9.88h-2.87zm0-11.11h2.87V8.55h-2.87zm-8.17 4.95c.1-.42.19-.87.58-1.3a2.05 2.05 0 0 1 2.9-.1c.41.43.48.98.54 1.4zm4.72 2.53c-.36.7-.9 1.74-2.5 1.74-1.56 0-2.26-1.23-2.24-2.46h7.05c-.04-1.11-.12-3.04-1.4-4.42a4.79 4.79 0 0 0-3.55-1.42c-3.9 0-5.07 3.07-5.07 5.45 0 3.23 2.06 5.1 5 5.1 1.58 0 2.86-.6 3.71-1.4.51-.47.85-.96 1.2-1.47zm-12.78-6.03h-1.44v1.78h1.44v4.76c0 .94.02 1.64.41 2.23.63.9 1.72.96 2.72.96.53 0 .91-.05 1.53-.15v-2.27l-1.03.04c-.78 0-.78-.5-.76-1.11v-4.44h1.93v-1.78H45.7V9.2h-2.9zm-10.96 8a6.5 6.5 0 0 0 4.78 1.9c2.33 0 4.67-1.13 4.67-3.45 0-2.35-2.3-2.88-4.29-3.24-.94-.17-1.57-.28-1.57-.85 0-.28.27-.73 1.4-.73.68 0 1.55.26 2.47.98l1.8-1.66c-.68-.48-2.08-1.48-4.4-1.48-2.76 0-4.16 1.68-4.16 3.3 0 .75.3 1.43.74 1.86.43.44 1.04.68 1.64.85.44.13.89.23 1.32.3.57.1 1.25.15 1.69.38.17.1.37.23.37.57 0 .73-1.05.96-1.75.96-1.1 0-2.08-.59-2.87-1.36z"/><path d="M106.64 14.05c.83-.04 1.36.36 1.59.72.32.47.36 1.45.36 1.92 0 1.4-.34 2.55-1.82 2.55-1.79 0-1.85-1.72-1.85-2.55 0-1.4.34-2.58 1.72-2.64zm1.97 7.61c0 .81 0 1.85-1.76 1.85-.45 0-.74-.1-.93-.19-.77-.35-.8-.98-.85-1.41h-3c0 .53-.02 1.53.75 2.3.53.55 1.82 1.23 3.78 1.23.9 0 2.36-.15 3.36-.75 1.44-.84 1.48-2.1 1.52-3.18v-9.48h-2.72v.92a3.43 3.43 0 0 0-2.65-1.07c-3.27 0-4.2 2.85-4.2 4.83 0 1.7.52 3.23 1.84 4.08a4 4 0 0 0 2.25.65 4.2 4.2 0 0 0 2.6-.83v1.05zm-9.72-9.63h-2.83v9.88h2.9v-5.56c0-1.25.43-1.45 1.82-1.7l.97-.15v-2.57a4.57 4.57 0 0 0-2.86 1.14v-1.04zm-10.93 3.72c.1-.42.19-.87.59-1.3a2.05 2.05 0 0 1 2.9-.1c.4.43.48.98.54 1.4zm4.72 2.53c-.35.7-.9 1.74-2.49 1.74-1.57 0-2.27-1.23-2.25-2.46H95c-.04-1.11-.11-3.04-1.4-4.42a4.79 4.79 0 0 0-3.55-1.42c-3.9 0-5.06 3.07-5.06 5.45 0 3.23 2.06 5.1 4.98 5.1 1.6 0 2.88-.6 3.73-1.4a8 8 0 0 0 1.19-1.47zm-13.36-4.4c1.65-.1 2.14 1.41 2.14 2.98 0 .44-.06 1.72-.59 2.42-.24.3-.73.74-1.5.74-.67 0-1.35-.32-1.73-.93a4.77 4.77 0 0 1-.45-2.21c0-.58.02-2.89 2.13-3zm-4.89-5.33v13.36h2.8l-.12-1.04c.36.4 1.16 1.3 2.9 1.3a4 4 0 0 0 3.68-2.36c.44-.87.6-2.04.6-3.04 0-3.93-2.6-5.03-4.19-5.03-1.68 0-2.42.76-2.83 1.2v-4.4zm-7.7 3.51H63.8v9.85h2.91v-5.33c0-1.23 0-2.46 1.53-2.46.57 0 1.08.23 1.3.76.12.26.14.59.14 1.47v5.56h2.89v-6.75c0-1.53-.27-2.42-1.3-2.96a3.74 3.74 0 0 0-1.76-.4c-.7 0-1.35.17-1.8.36-.5.24-.7.47-.98.77v-.87zm-7.69 9.85h2.87v-9.88h-2.87zm0-11.11h2.87V8.55h-2.87zm-8.17 4.95c.1-.42.19-.87.58-1.3a2.05 2.05 0 0 1 2.9-.1c.41.43.48.98.54 1.4zm4.72 2.53c-.36.7-.9 1.74-2.5 1.74-1.56 0-2.26-1.23-2.24-2.46h7.05c-.04-1.11-.12-3.04-1.4-4.42a4.79 4.79 0 0 0-3.55-1.42c-3.9 0-5.07 3.07-5.07 5.45 0 3.23 2.06 5.1 5 5.1 1.58 0 2.86-.6 3.71-1.4.51-.47.85-.96 1.2-1.47zm-12.78-6.03h-1.44v1.78h1.44v4.76c0 .94.02 1.64.41 2.23.63.9 1.72.96 2.72.96.53 0 .91-.05 1.53-.15v-2.27l-1.03.04c-.78 0-.78-.5-.76-1.11v-4.44h1.93v-1.78H45.7V9.2h-2.9zm-10.96 8a6.5 6.5 0 0 0 4.78 1.9c2.33 0 4.67-1.13 4.67-3.45 0-2.35-2.3-2.88-4.29-3.24-.94-.17-1.57-.28-1.57-.85 0-.28.27-.73 1.4-.73.68 0 1.55.26 2.47.98l1.8-1.66c-.68-.48-2.08-1.48-4.4-1.48-2.76 0-4.16 1.68-4.16 3.3 0 .75.3 1.43.74 1.86.43.44 1.04.68 1.64.85.44.13.89.23 1.32.3.57.1 1.25.15 1.69.38.17.1.37.23.37.57 0 .73-1.05.96-1.75.96-1.1 0-2.08-.59-2.87-1.36z"/></g><path fill="#C90827" d="M17.01 18.9c-.65.38-1.22.06-1.22-.7v-5.64c0-.76.57-1.08 1.22-.7l4.88 2.81c.66.38.66 1.04 0 1.41z"/><path fill="#C90827" fill-rule="evenodd" d="M106.64 14.05c.83-.04 1.36.36 1.59.72.32.47.36 1.45.36 1.92 0 1.4-.34 2.55-1.82 2.55-1.79 0-1.85-1.72-1.85-2.55 0-1.4.34-2.58 1.72-2.64zm1.97 7.61c0 .81 0 1.85-1.76 1.85-.45 0-.74-.1-.93-.19-.77-.35-.8-.98-.85-1.41h-3c0 .53-.02 1.53.75 2.3.53.55 1.82 1.23 3.78 1.23.9 0 2.36-.15 3.36-.75 1.44-.84 1.48-2.1 1.52-3.18v-9.48h-2.72v.92a3.43 3.43 0 0 0-2.65-1.07c-3.27 0-4.2 2.85-4.2 4.83 0 1.7.52 3.23 1.84 4.08a4 4 0 0 0 2.25.65 4.2 4.2 0 0 0 2.6-.83v1.05zm-9.72-9.63h-2.83v9.88h2.9v-5.56c0-1.25.43-1.45 1.82-1.7l.97-.15v-2.57a4.57 4.57 0 0 0-2.86 1.14v-1.04zm-10.93 3.72c.1-.42.19-.87.59-1.3a2.05 2.05 0 0 1 2.9-.1c.4.43.48.98.54 1.4zm4.72 2.53c-.35.7-.9 1.74-2.49 1.74-1.57 0-2.27-1.23-2.25-2.46H95c-.04-1.11-.11-3.04-1.4-4.42a4.79 4.79 0 0 0-3.55-1.42c-3.9 0-5.06 3.07-5.06 5.45 0 3.23 2.06 5.1 4.98 5.1 1.6 0 2.88-.6 3.73-1.4a8 8 0 0 0 1.19-1.47zm-13.36-4.4c1.65-.1 2.14 1.41 2.14 2.98 0 .44-.06 1.72-.59 2.42-.24.3-.73.74-1.5.74-.67 0-1.35-.32-1.73-.93a4.77 4.77 0 0 1-.45-2.21c0-.58.02-2.89 2.13-3zm-4.89-5.33v13.36h2.8l-.12-1.04c.36.4 1.16 1.3 2.9 1.3a4 4 0 0 0 3.68-2.36c.44-.87.6-2.04.6-3.04 0-3.93-2.6-5.03-4.19-5.03-1.68 0-2.42.76-2.83 1.2v-4.4zm-7.7 3.51H63.8v9.85h2.91v-5.33c0-1.23 0-2.46 1.53-2.46.57 0 1.08.23 1.3.76.12.26.14.59.14 1.47v5.56h2.89v-6.75c0-1.53-.27-2.42-1.3-2.96a3.74 3.74 0 0 0-1.76-.4c-.7 0-1.35.17-1.8.36-.5.24-.7.47-.98.77v-.87zm-7.69 9.85h2.87v-9.88h-2.87zm0-11.11h2.87V8.55h-2.87zm-8.17 4.95c.1-.42.19-.87.58-1.3a2.05 2.05 0 0 1 2.9-.1c.41.43.48.98.54 1.4zm4.72 2.53c-.36.7-.9 1.74-2.5 1.74-1.56 0-2.26-1.23-2.24-2.46h7.05c-.04-1.11-.12-3.04-1.4-4.42a4.79 4.79 0 0 0-3.55-1.42c-3.9 0-5.07 3.07-5.07 5.45 0 3.23 2.06 5.1 5 5.1 1.58 0 2.86-.6 3.71-1.4.51-.47.85-.96 1.2-1.47zm-12.78-6.03h-1.44v1.78h1.44v4.76c0 .94.02 1.64.41 2.23.63.9 1.72.96 2.72.96.53 0 .91-.05 1.53-.15v-2.27l-1.03.04c-.78 0-.78-.5-.76-1.11v-4.44h1.93v-1.78H45.7V9.2h-2.9zm-10.96 8a6.5 6.5 0 0 0 4.78 1.9c2.33 0 4.67-1.13 4.67-3.45 0-2.35-2.3-2.88-4.29-3.24-.94-.17-1.57-.28-1.57-.85 0-.28.27-.73 1.4-.73.68 0 1.55.26 2.47.98l1.8-1.66c-.68-.48-2.08-1.48-4.4-1.48-2.76 0-4.16 1.68-4.16 3.3 0 .75.3 1.43.74 1.86.43.44 1.04.68 1.64.85.44.13.89.23 1.32.3.57.1 1.25.15 1.69.38.17.1.37.23.37.57 0 .73-1.05.96-1.75.96-1.1 0-2.08-.59-2.87-1.36zm-27.1-4.8a9.49 9.49 0 1 1 18.98 0 9.49 9.49 0 0 1-18.98 0zm-2.79 0a12.27 12.27 0 1 1 24.55 0 12.27 12.27 0 0 1-24.55 0z" clip-rule="evenodd"/></g></svg>