<svg xmlns="http://www.w3.org/2000/svg" height="800" width="1200" viewBox="-2.042742 -2.3960675 17.703764 14.376405"><defs><clipPath clipPathUnits="userSpaceOnUse" id="h"><path d="M514.153 48.724h38.603v27.168h-38.603z"/></clipPath><clipPath clipPathUnits="userSpaceOnUse" id="i"><path d="M518.495 75.5525h33.92V62.9489h-33.92z"/></clipPath><clipPath clipPathUnits="userSpaceOnUse" id="j"><path d="M518.495 62.949h33.919v12.604h-33.919z"/></clipPath><clipPath clipPathUnits="userSpaceOnUse" id="a"><path d="M514.153 48.724h38.603v27.168h-38.603z"/></clipPath><radialGradient fx="0" fy="0" cx="0" cy="0" r="1" gradientUnits="userSpaceOnUse" gradientTransform="matrix(-18.02149 -12.82824 -12.64364 17.76215 540.63649 74.20611)" spreadMethod="pad" id="g"><stop offset="0" stop-color="#5da1c2"/><stop offset=".3865" stop-color="#3882b9"/><stop offset=".99387" stop-color="#234964"/><stop offset="1" stop-color="#234964"/></radialGradient><radialGradient fx="0" fy="0" cx="0" cy="0" r="1" gradientUnits="userSpaceOnUse" gradientTransform="matrix(-18.02077 -12.82773 -12.64313 17.76144 540.57983 74.2062)" spreadMethod="pad" id="e"><stop offset="0" stop-color="#5da1c2"/><stop offset=".3865" stop-color="#3882b9"/><stop offset=".99387" stop-color="#234964"/><stop offset="1" stop-color="#234964"/></radialGradient><radialGradient fx="0" fy="0" cx="0" cy="0" r="1" gradientUnits="userSpaceOnUse" gradientTransform="matrix(-19.20239 -13.66884 -13.47214 18.92605 538.76804 74.20742)" spreadMethod="pad" id="c"><stop offset="0" stop-color="#5da1c2"/><stop offset=".3865" stop-color="#3882b9"/><stop offset=".99387" stop-color="#234964"/><stop offset="1" stop-color="#234964"/></radialGradient><linearGradient x1="0" y1="0" x2="1" y2="0" gradientUnits="userSpaceOnUse" gradientTransform="scale(-13.46735 13.46735) rotate(-87.529 -17.13995 23.2705)" spreadMethod="pad" id="f"><stop offset="0" stop-color="#5da1c2"/><stop offset=".13646" stop-color="#1e4965"/><stop offset=".36128" stop-color="#3882b9"/><stop offset=".44521" stop-color="#5da1c2"/><stop offset=".54016" stop-color="#3882b9"/><stop offset=".64389" stop-color="#1e4965"/><stop offset=".71085" stop-color="#306187"/><stop offset="1" stop-color="#306187"/></linearGradient><linearGradient x1="0" y1="0" x2="1" y2="0" gradientUnits="userSpaceOnUse" gradientTransform="scale(-18.08753 18.08753) rotate(-61.415 -11.91048 27.44308)" spreadMethod="pad" id="d"><stop offset="0" stop-color="#5da1c2"/><stop offset=".23009" stop-color="#1e4965"/><stop offset=".36128" stop-color="#3882b9"/><stop offset=".44521" stop-color="#5da1c2"/><stop offset=".54016" stop-color="#3882b9"/><stop offset=".64389" stop-color="#1e4965"/><stop offset=".71085" stop-color="#306187"/><stop offset="1" stop-color="#306187"/></linearGradient><linearGradient x1="0" y1="0" x2="1" y2="0" gradientUnits="userSpaceOnUse" gradientTransform="matrix(-.6361 -21.64267 -21.64267 .6361 534.65147 75.92868)" spreadMethod="pad" id="b"><stop offset="0" stop-color="#5da1c2"/><stop offset=".13646" stop-color="#1e4965"/><stop offset=".36128" stop-color="#3882b9"/><stop offset=".44521" stop-color="#5da1c2"/><stop offset=".54016" stop-color="#3882b9"/><stop offset=".64389" stop-color="#1e4965"/><stop offset=".71085" stop-color="#306187"/><stop offset="1" stop-color="#306187"/></linearGradient></defs><g clip-path="url(#a)" transform="matrix(.35278 0 0 -.35278 -181.38175 26.77301)"><path d="M552.142 75.8922l-26.132-.003v-.002c-2.058 0-3.917-1.209-4.739-3.084l-6.607-15.908c-.033-.077-.051-.158-.051-.241 0-.335.276-.608.615-.608l26.345.002.277.019c1.904.174 3.56 1.364 4.301 3.133l6.558 15.849c.032.073.047.152.047.234 0 .336-.275.609-.614.609" fill="#fff"/><path d="M526.9684 52.0495c-.317.456-.824.507-1.031.507-.912 0-1.457-.721-1.457-1.418 0-.801.64-1.427 1.457-1.427.205 0 .71.05 1.031.503v-.443h.382v2.711h-.382zm-1.031-1.991c-.613 0-1.075.458-1.075 1.065 0 .713.541 1.085 1.075 1.085.579 0 1.051-.484 1.051-1.08 0-.6-.462-1.07-1.051-1.07m4.1544.992c0-.475-.129-.644-.273-.787-.141-.141-.321-.21-.553-.21-.257 0-.46.083-.605.247-.126.156-.187.383-.187.691v1.492h-.381v-1.497c0-.383.08-.677.239-.872.122-.153.405-.408.934-.408.53 0 .769.304.846.44v-.374h.362v2.711h-.382zm3.249.9894c-.327.465-.82.517-1.021.517-.682 0-1.418-.549-1.418-1.437 0-.87.736-1.408 1.418-1.408.337 0 .801.138 1.021.516v-.179c0-.721-.511-.977-.948-.977-.649 0-.904.463-.984.662l-.005.013h-.401l.007-.026c.271-.925 1.131-.997 1.388-.997.073 0 .726.014 1.076.502.248.333.248.697.248.989v2.268h-.381zm-1.021-1.981c-.572 0-1.036.48-1.036 1.071 0 .595.464 1.08 1.036 1.08.573 0 1.041-.485 1.041-1.08 0-.432-.331-1.071-1.041-1.071m4.8688 2.4938c-.239 0-.689-.104-.899-.49-.211.386-.661.49-.9.49-.244 0-.551-.105-.708-.33v.262h-.382v-2.714h.382v1.569c0 .278.048.42.119.548.121.204.33.317.589.317.259 0 .469-.113.589-.317.072-.128.12-.27.12-.548v-1.569h.381v1.569c0 .277.048.42.12.548.121.204.33.317.589.317.259 0 .468-.113.589-.317.072-.128.12-.271.12-.548v-1.569h.381v1.609c0 .926-.685 1.173-1.09 1.173m2.9459.0023c-.776-.015-1.408-.655-1.408-1.428 0-.781.634-1.417 1.413-1.417.599 0 1.136.382 1.334.951l.009.027h-.403l-.005-.013c-.102-.279-.41-.607-.94-.617-.51 0-.979.43-1.015.928h2.432l.001.018c.018.32-.052.608-.207.857-.191.332-.609.689-1.211.694m-1.012-1.222c.1.574.585.874 1.017.874.416 0 .909-.274 1.022-.874zm4.1361 1.2197c-.4 0-.68-.196-.811-.381v.313h-.382v-2.714h.382v1.491c-.005.308.082.563.243.719.214.208.489.224.568.224.079 0 .354-.016.568-.224.16-.154.248-.41.248-.719v-1.491h.382v1.491c0 .411-.117.742-.338.958-.231.23-.496.333-.86.333m2.562.8773h-.382v-.946h-.562v-.348h.562V49.77h.382v2.366h.64v.348h-.64zm2.2669-.8742c-.776-.014-1.407-.655-1.407-1.427 0-.782.633-1.418 1.412-1.418.599 0 1.135.382 1.334.952l.009.026h-.403l-.005-.013c-.103-.278-.41-.607-.94-.617-.51 0-.98.431-1.015.928h2.432l.001.018c.018.32-.052.608-.208.857-.19.332-.608.689-1.21.694m-1.013-1.222c.101.574.586.875 1.018.875.416 0 .909-.274 1.022-.875zm5.2976 2.095v-1.374c-.343.463-.874.499-1.031.499-.912 0-1.457-.721-1.457-1.418 0-.8.64-1.427 1.457-1.427.328 0 .769.135 1.031.504v-.441h.382v3.657zm-1.031-3.373c-.613 0-1.075.458-1.075 1.066 0 .712.541 1.085 1.075 1.085.579 0 1.051-.485 1.051-1.081 0-.6-.462-1.07-1.051-1.07" fill="#0f1f47"/><path d="M516.576 53.523h-.364v-.546h.364zm-1.6018-.0942h-.792v-.343h.43v-2.972h-.46v-.342h1.247v.342h-.425zm1.688-.9446h-.792v-.343h.43v-2.027h-.44v-.343h1.232v.343h-.43zm1.4949.7709c-.237-.212-.246-.457-.256-.753v-.019h-.43v-.353h.435v-2.016h-.435v-.342h1.237v.342h-.44v2.016h.44v.353h-.44l.001.058c.004.196.008.365.173.488.088.072.201.112.346.123l.018.002v.327l-.021-.001c-.285-.018-.478-.088-.628-.225m2.4191-.7706c-.753 0-1.365-.628-1.365-1.4 0-.756.621-1.371 1.385-1.371.546 0 1.042.32 1.264.815l.013.028h-.392l-.006-.01c-.182-.317-.506-.498-.889-.498-.528 0-.965.403-1.005.921h2.39v.12c0 .782-.613 1.395-1.395 1.395m-.993-1.206c.07.48.508.867.988.867.529 0 .966-.363 1.048-.867zm3.6262-1.5789c.259 0 .47.21.47.469 0 .26-.211.47-.47.47-.26 0-.47-.21-.47-.47 0-.259.21-.469.47-.469" fill="#50ade5"/></g><path d="M526.01 75.551c.001 0 .002-.001.002-.001-1.983 0-3.685-1.187-4.426-2.876l-5.159-12.426c-.013-.033-.021-.067-.021-.105 0-.148.122-.269.273-.269l11.799.001c.839 0 1.204.807.55 1.452l-4.333 4.054c-2.277 2.233-1.301 7.41 3.429 7.41h23.098c.12 0 .222.076.259.182l.914 2.209c.013.03.02.065.02.101 0 .15-.122.27-.273.27z" fill="url(#b)" transform="matrix(.35278 0 0 -.35278 -181.38175 26.77301)"/><path d="M526.638 75.196l.001-.001h-.606c-1.794 0-3.396-1.048-4.103-2.672l-5.081-12.239h11.629c.233 0 .41.089.474.239.066.161-.007.371-.19.552l-4.341 4.062c-1.287 1.261-1.658 3.404-.901 5.21.76 1.811 2.437 2.851 4.604 2.851h23.02l.829 1.999-.001.001z" fill="url(#c)" transform="matrix(.35278 0 0 -.35278 -181.38175 26.77301)"/><path d="M545.103 69.224c-.3 0-.556-.18-.664-.439l-4.97-12.009c-.02-.038-.032-.081-.032-.126 0-.147.124-.268.274-.268l1.656-.001-.001.002c2.011 0 3.746 1.218 4.47 2.946l.006-.004 3.95 9.535c.012.031.019.065.019.099 0 .15-.123.27-.273.27z" fill="url(#d)" transform="matrix(.35278 0 0 -.35278 -181.38175 26.77301)"/><path d="M545.103 68.868c-.135 0-.254-.079-.305-.202l-4.94-11.933h.884l-.001.004h.604c1.78 0 3.37 1.031 4.085 2.634l3.937 9.501h-.001z" fill="url(#e)" transform="matrix(.35278 0 0 -.35278 -181.38175 26.77301)"/><path d="M527.969 69.229c-.682 0-1.279-.839-.556-1.504l4.155-3.866s1.682-1.551 1.321-3.77c-.318-1.953-1.651-3.149-2.615-3.579l-.003-.001c-.023-.012-.038-.035-.038-.06 0-.037.03-.068.069-.068h4.846c.3 0 .557.18.664.439l4.989 12.043c.012.031.018.063.018.096 0 .15-.122.27-.274.27z" fill="url(#f)" transform="matrix(.35278 0 0 -.35278 -181.38175 26.77301)"/><path d="M527.969 68.872c-.196 0-.398-.136-.47-.318-.086-.218.049-.404.18-.524l4.153-3.866c.075-.069 1.829-1.717 1.44-4.11-.236-1.45-1.029-2.602-1.907-3.321h3.758c.135 0 .255.08.306.201l4.946 11.938z" fill="url(#g)" transform="matrix(.35278 0 0 -.35278 -181.38175 26.77301)"/><g clip-path="url(#h)" transform="matrix(.35278 0 0 -.35278 -181.38175 26.77301)"><g clip-path="url(#i)"><g clip-path="url(#j)" opacity=".10001" fill="#fff"><path d="M540.8203 68.9595c0-.033-.006-.065-.02-.098l-2.333-5.633c-1.735-.182-3.541-.28-5.396-.28-.266 0-.531.004-.795.007-.351.576-.708.904-.708.904l-4.156 3.867c-.723.664-.124 1.503.557 1.503h12.576c.151 0 .275-.12.275-.27m8.9899 0c0-.036-.007-.068-.02-.101l-1.387-3.35c-1.803-.693-3.829-1.269-6.022-1.695l2.059 4.97c.108.26.363.439.664.439l4.434.007c.151 0 .272-.12.272-.27"/><path d="M552.4147 75.2824c0-.036-.007-.071-.02-.101l-.912-2.208c-.039-.108-.141-.182-.262-.182h-23.098c-4.729 0-5.704-5.178-3.429-7.41l2.205-2.062c-3.089.378-5.936 1.034-8.403 1.909l3.089 7.445c.742 1.692 2.444 2.876 4.427 2.876v.003h26.132c.15 0 .271-.12.271-.27"/></g></g></g></svg>