<svg xmlns="http://www.w3.org/2000/svg" width="1200" height="800" viewBox="-2.04 -2.4 17.7 14.38"><defs><clipPath id="h" clipPathUnits="userSpaceOnUse"><path d="M514.15 48.72h38.6V75.9h-38.6z"/></clipPath><clipPath id="i" clipPathUnits="userSpaceOnUse"><path d="M518.5 75.55h33.92v-12.6H518.5z"/></clipPath><clipPath id="j" clipPathUnits="userSpaceOnUse"><path d="M518.5 62.95h33.91v12.6H518.5z"/></clipPath><clipPath id="a" clipPathUnits="userSpaceOnUse"><path d="M514.15 48.72h38.6V75.9h-38.6z"/></clipPath><radialGradient id="g" cx="0" cy="0" r="1" fx="0" fy="0" gradientTransform="matrix(-18.02149 -12.82824 -12.64364 17.76215 540.64 74.2)" gradientUnits="userSpaceOnUse" spreadMethod="pad"><stop offset="0" stop-color="#5da1c2"/><stop offset=".39" stop-color="#3882b9"/><stop offset=".99" stop-color="#234964"/><stop offset="1" stop-color="#234964"/></radialGradient><radialGradient id="e" cx="0" cy="0" r="1" fx="0" fy="0" gradientTransform="matrix(-18.02077 -12.82773 -12.64313 17.76144 540.58 74.2)" gradientUnits="userSpaceOnUse" spreadMethod="pad"><stop offset="0" stop-color="#5da1c2"/><stop offset=".39" stop-color="#3882b9"/><stop offset=".99" stop-color="#234964"/><stop offset="1" stop-color="#234964"/></radialGradient><radialGradient id="c" cx="0" cy="0" r="1" fx="0" fy="0" gradientTransform="matrix(-19.20239 -13.66884 -13.47214 18.92605 538.77 74.2)" gradientUnits="userSpaceOnUse" spreadMethod="pad"><stop offset="0" stop-color="#5da1c2"/><stop offset=".39" stop-color="#3882b9"/><stop offset=".99" stop-color="#234964"/><stop offset="1" stop-color="#234964"/></radialGradient><linearGradient id="f" x1="0" x2="1" y1="0" y2="0" gradientTransform="scale(-13.46735 13.46735) rotate(-87.53 -17.14 23.27)" gradientUnits="userSpaceOnUse" spreadMethod="pad"><stop offset="0" stop-color="#5da1c2"/><stop offset=".14" stop-color="#1e4965"/><stop offset=".36" stop-color="#3882b9"/><stop offset=".45" stop-color="#5da1c2"/><stop offset=".54" stop-color="#3882b9"/><stop offset=".64" stop-color="#1e4965"/><stop offset=".71" stop-color="#306187"/><stop offset="1" stop-color="#306187"/></linearGradient><linearGradient id="d" x1="0" x2="1" y1="0" y2="0" gradientTransform="scale(-18.08753 18.08753) rotate(-61.41 -11.91 27.44)" gradientUnits="userSpaceOnUse" spreadMethod="pad"><stop offset="0" stop-color="#5da1c2"/><stop offset=".23" stop-color="#1e4965"/><stop offset=".36" stop-color="#3882b9"/><stop offset=".45" stop-color="#5da1c2"/><stop offset=".54" stop-color="#3882b9"/><stop offset=".64" stop-color="#1e4965"/><stop offset=".71" stop-color="#306187"/><stop offset="1" stop-color="#306187"/></linearGradient><linearGradient id="b" x1="0" x2="1" y1="0" y2="0" gradientTransform="scale(-21.65202 21.65202) rotate(-88.32 -10.54 14.47)" gradientUnits="userSpaceOnUse" spreadMethod="pad"><stop offset="0" stop-color="#5da1c2"/><stop offset=".14" stop-color="#1e4965"/><stop offset=".36" stop-color="#3882b9"/><stop offset=".45" stop-color="#5da1c2"/><stop offset=".54" stop-color="#3882b9"/><stop offset=".64" stop-color="#1e4965"/><stop offset=".71" stop-color="#306187"/><stop offset="1" stop-color="#306187"/></linearGradient></defs><g clip-path="url(#a)" transform="matrix(.35278 0 0 -.35278 -181.38 26.77)"><path fill="#fff" d="m552.14 75.9-26.13-.01a5.17 5.17 0 0 1-4.74-3.09l-6.6-15.9a.61.61 0 0 1-.06-.25c0-.33.28-.6.62-.6h26.34l.28.02a5.15 5.15 0 0 1 4.3 3.13l6.56 15.85c.03.07.05.15.05.23 0 .34-.28.61-.62.61"/><path fill="#0f1f47" d="M526.97 52.05c-.32.46-.83.5-1.03.5a1.42 1.42 0 1 1 0-2.84c.2 0 .7.05 1.03.5v-.44h.38v2.71h-.38zm-1.03-2c-.62 0-1.08.47-1.08 1.07 0 .72.54 1.09 1.08 1.09.58 0 1.05-.49 1.05-1.08 0-.6-.46-1.07-1.05-1.07m4.15.99c0-.47-.13-.64-.27-.79a.74.74 0 0 0-.55-.2.77.77 0 0 0-.6.24c-.14.16-.2.38-.2.7v1.48h-.38v-1.5c0-.38.08-.67.24-.87.12-.15.4-.4.94-.4.53 0 .76.3.84.44v-.38h.36v2.71h-.38zm3.25.99c-.33.46-.82.52-1.02.52-.68 0-1.42-.55-1.42-1.44 0-.87.74-1.4 1.42-1.4.34 0 .8.13 1.02.5v-.17c0-.72-.51-.98-.95-.98-.65 0-.9.46-.98.66v.02h-.4v-.03c.27-.92 1.13-1 1.39-1 .07 0 .72.02 1.07.5.25.34.25.7.25 1v2.26h-.38zm-1.02-1.98c-.57 0-1.04.48-1.04 1.07 0 .6.47 1.08 1.04 1.08.57 0 1.04-.49 1.04-1.08 0-.43-.33-1.07-1.04-1.07m4.87 2.5c-.24 0-.69-.11-.9-.5-.21.39-.66.5-.9.5s-.55-.11-.7-.34v.26h-.39v-2.7h.38v1.56c0 .28.05.42.12.55.12.2.33.31.59.31.26 0 .47-.1.59-.31.07-.13.12-.27.12-.55v-1.57h.38v1.57c0 .28.05.42.12.55.12.2.33.31.59.31.26 0 .47-.1.59-.31.07-.13.12-.27.12-.55v-1.57h.38v1.61c0 .93-.69 1.17-1.1 1.17m2.95 0a1.44 1.44 0 0 1-1.4-1.42c0-.78.63-1.42 1.41-1.42.6 0 1.14.38 1.33.95l.01.03h-.4v-.01a.99.99 0 0 0-.95-.62c-.5 0-.97.43-1.01.93h2.43V51c.02.32-.05.61-.2.86-.2.33-.61.69-1.22.7m-1-1.23c.1.58.58.88 1.01.88.42 0 .9-.28 1.02-.88zm4.13 1.22c-.4 0-.68-.2-.81-.38v.31h-.38v-2.7h.38v1.48c0 .31.08.56.24.72a.84.84 0 0 0 1.14 0c.16-.15.24-.4.24-.72v-1.49h.39v1.5c0 .4-.12.73-.34.95-.23.23-.5.33-.86.33m2.56.88h-.38v-.95h-.56v-.34h.56v-2.37h.38v2.37h.64v.34h-.64zm2.27-.87a1.44 1.44 0 0 1-1.4-1.43c0-.78.62-1.42 1.4-1.42.6 0 1.14.38 1.34.95v.03h-.4v-.01a.99.99 0 0 0-.94-.62c-.51 0-.98.43-1.02.93h2.43V51c.02.32-.05.61-.2.86-.2.33-.61.7-1.21.7m-1.02-1.23c.1.58.6.88 1.02.88.42 0 .91-.28 1.02-.88zm5.3 2.1v-1.38c-.34.47-.87.5-1.03.5a1.42 1.42 0 1 1 0-2.84c.33 0 .77.13 1.03.5v-.44h.38v3.66zm-1.03-3.37c-.61 0-1.07.45-1.07 1.06 0 .71.54 1.09 1.07 1.09.58 0 1.05-.49 1.05-1.08 0-.6-.46-1.07-1.05-1.07"/><path fill="#50ade5" d="M516.58 53.52h-.37v-.54h.37zm-1.6-.1h-.8v-.33h.43V50.1h-.46v-.34h1.25v.34h-.43zm1.68-.94h-.79v-.34h.43v-2.03h-.44v-.34h1.23v.34h-.43zm1.5.78c-.24-.22-.25-.46-.26-.76v-.02h-.43v-.35h.44v-2.02h-.44v-.34h1.24v.34h-.44v2.02h.44v.35h-.44v.06c0 .2 0 .37.17.49.09.07.2.11.35.12h.02v.33h-.02c-.29-.02-.48-.09-.63-.22m2.42-.78a1.38 1.38 0 1 1 1.28-1.95l.01.03h-.39v-.01a1 1 0 0 0-.9-.5 1 1 0 0 0-1 .92h2.4v.12c0 .78-.62 1.4-1.4 1.4m-1-1.21a1.03 1.03 0 0 0 2.04 0zm3.63-1.58a.47.47 0 1 1 0 .94.47.47 0 0 1 0-.94"/></g><path fill="url(#b)" d="M526.01 75.55a4.83 4.83 0 0 1-4.42-2.88l-5.16-12.42a.27.27 0 0 1 .25-.37h11.8c.84 0 1.2.8.55 1.45l-4.34 4.05c-2.27 2.23-1.3 7.41 3.43 7.41h23.1c.12 0 .22.08.26.18l.91 2.21c.02.03.02.07.02.1 0 .15-.12.27-.27.27z" transform="matrix(.35278 0 0 -.35278 -181.38 26.77)"/><path fill="url(#c)" d="M526.64 75.2h-.6c-1.8 0-3.4-1.05-4.11-2.68l-5.08-12.24h11.63c.23 0 .4.1.47.24.07.16 0 .37-.19.55l-4.34 4.07a4.82 4.82 0 0 0-.9 5.2c.76 1.82 2.44 2.86 4.6 2.86h23.02l.83 2z" transform="matrix(.35278 0 0 -.35278 -181.38 26.77)"/><path fill="url(#d)" d="M545.1 69.22a.72.72 0 0 1-.66-.43l-4.97-12.01a.27.27 0 0 1-.03-.13c0-.15.12-.27.27-.27h1.66a4.84 4.84 0 0 1 4.47 2.95l3.95 9.53.02.1c0 .15-.12.27-.27.27z" transform="matrix(.35278 0 0 -.35278 -181.38 26.77)"/><path fill="url(#e)" d="M545.1 68.87a.33.33 0 0 1-.3-.2l-4.94-11.94h1.48a4.45 4.45 0 0 1 4.09 2.64l3.94 9.5z" transform="matrix(.35278 0 0 -.35278 -181.38 26.77)"/><path fill="url(#f)" d="M527.97 69.23c-.68 0-1.28-.84-.56-1.5l4.16-3.87s1.68-1.55 1.32-3.77a4.8 4.8 0 0 0-2.62-3.58.07.07 0 0 1-.04-.06c0-.04.03-.07.07-.07h4.85c.3 0 .55.18.66.44l5 12.04v.1c0 .15-.11.27-.26.27z" transform="matrix(.35278 0 0 -.35278 -181.38 26.77)"/><path fill="url(#g)" d="M527.97 68.87c-.2 0-.4-.13-.47-.32-.09-.21.05-.4.18-.52l4.15-3.87a4.88 4.88 0 0 0 1.44-4.1 5.46 5.46 0 0 0-1.9-3.33h3.75c.14 0 .26.08.3.2l4.96 11.94z" transform="matrix(.35278 0 0 -.35278 -181.38 26.77)"/><g clip-path="url(#h)" transform="matrix(.35278 0 0 -.35278 -181.38 26.77)"><g clip-path="url(#i)"><g fill="#fff" clip-path="url(#j)" opacity=".1"><path d="M540.82 68.96c0-.03 0-.07-.02-.1l-2.33-5.63a51.8 51.8 0 0 0-5.4-.28h-.8c-.34.58-.7.9-.7.9l-4.16 3.88c-.72.66-.12 1.5.56 1.5h12.58c.15 0 .27-.12.27-.27m8.99 0c0-.04 0-.07-.02-.1l-1.39-3.35a36 36 0 0 0-6.02-1.7l2.06 4.97c.1.26.36.44.66.44l4.44.01c.15 0 .27-.12.27-.27"/><path d="M552.41 75.28c0-.03 0-.07-.02-.1l-.9-2.2a.28.28 0 0 0-.27-.19h-23.1c-4.73 0-5.7-5.18-3.43-7.4l2.2-2.07a39.8 39.8 0 0 0-8.4 1.9l3.1 7.45a4.83 4.83 0 0 0 4.42 2.88h26.13c.15 0 .27-.12.27-.27"/></g></g></g></svg>