<svg xmlns="http://www.w3.org/2000/svg" width="706" height="716"><path fill="#f7fafb" fill-rule="evenodd" d="M383 37h1v-1l-1 1m30 4h1v-1l-1 1m74 57v1h-6v2h-4v2h-4v2h-8v2h-4v2h-5l-2 1-1 2 2 1h2v2h6v2h8v2h6v2h6v2h6v2h6v2h4v-2h4v-2h6v-2h4v-2h4v-2h6v-2h4v-2h4v-2h3l3-1-1-2-2-1h-7v-2h-8v-2h-8v-2h-6v-2h-8v-2h-10v1m54 14v1h-4v2h-4v2h-6v2h-6v2h-4v2h-4v2h-5l-2 1-1 2 3 1h3v2h6v2h6v2h6v2h8v2h6v2h6v2h6v2h6v-2h4v-2h4v-2h4v-2h4v-2h4v-2h4v-2h4v-2h4v-2h4v-2h-6v-2h-8v-2h-8v-2h-6v-2h-10v-2h-6v-2h-8v-2h-4v1m-98 2v1h-4v2h-6v2h-6v2h-4v2h-6v2h-6v2h-4v2h-4v2h-4v2h6v2h6v2h6v2h4v2h6v2h6v2h6v2h4v2h4v-2h4v-2h4v-2h6v-2h4v-2h4v-2h6v-2h4v-2h4v-2h5l2-1 1-2-2-1h-2v-2h-8v-2h-6v-2h-6v-2h-6v-2h-6v-2h-6v-2h-6v1m158 14v1h-4v2h-4v2h-4v2h-4v2h-4v2h-4v2h-4v2h-4v2h-4v2h6v2h8v2h6v2h6v2h6v2h8v2h6v2h6v2h8v2h6v-2h4v-2h4l1-2 1-2h4v-2h4v-2h4l1-2 1-2h4v-2h2l3-1 1-2-4-1h-4v-2h-6v-2h-8v-2h-8v-2h-6v-2h-6v-2h-10v-2h-6v-2h-6v1m-108 4v1h-4v2h-4v2h-6v2h-4v2h-4v2h-6v2h-4v2h-4v2h-6v2h4v2h4v2h6v2h6v2h6v2h6v2h6v2h6v2h4v2h12v-2h4v-2h4v-2h4v-2h4v-2h4v-2h4v-2h6l1-2 1-2h4v-2h3l3-1-1-2-2-1h-5v-2h-8v-2h-6v-2h-6v-2h-6v-2h-6v-2h-6v-2h-14v1m-102 2v1h-4v2h-6v2h-6v2h-4v2h-6v2h-6v2h-4v2h-6v2h-6v2h-2l-3 1-1 2 3 1h3v2h4v2h4v2h6v2h4v2h4v2h6v2h4v2h4v2h4v-2h4v-2h4v-2h6v-2h4v-2h6v-2h4v-2h6v-2h4v-2h4v-2h6v-2h2l3-1 1-2-3-1h-3v-2h-4v-2h-6v-2h-6v-2h-4v-2h-6v-2h-6v-2h-4v-2h-4v1m166 16v1h-4v2h-4v2h-4v2h-4v2h-4v2h-4v2h-4v2h-4v2h-4v2h-2l-3 1-1 2 2 1h2v2h6v2h6v2h4v2h6v2h6v2h4v2h6v2h6v2h4v2h6v2h6v1l1 2 2-3 3-2h2l1-2 1-2h4v-2h4l1-2 1-2h4l1-2 1-2h4l1-2 1-2h4l1-2 1-2h4v-4h-6v-2h-6v-2h-6v-2h-6v-2h-6v-2h-8v-2h-6v-2h-6v-2h-8v-2h-6v1m108 0v1h-4l-1 2-1 2h-4v2h-4l-1 2-1 2h-4v2h-4l-1 2-3 2-4 2-2 3v13h-2v12h-2v14h-2v16h-2v8h3l3-3 4-3 4-3 4-3 3-2 3-2 4-3 3-3h3v-10h2v-12h2v-10h2v-12h2v-14h2v-6h-1l-1 1m-222 2v1h-4v2h-4v2h-6v2h-4v2h-4v2h-6v2h-4v2h-4v2h-6v2h-6v2h-2l-3 2-1 1 1 2 3 1h2v2h6v2h4v2h4v2h4v2h6v2h4v2h4v2h4v2h4v2h4v2h6v-2h4v-2h4v-2h4v-2h4v-2h4v-2h4v-2h4v-2h4v-2h4v-2h4v-2h4v-2h4v-2h2l3-1 1-2-3-1h-3v-2h-4v-2h-6v-2h-4v-2h-8v-2h-4v-2h-6v-2h-6v-2h-4v-2h-6v-1l-1-1-1 1m-110 8 1 1h1v12h2v14h2v14h2v12h2v11l1 2 3 1h2v2h4v2h4v2h4v2h4v2h4l1 2 1 2h6l1 2 1 2h4v2h4v-18h-2v-16h-2v-26h-2v-7l-1-2-2-1h-5v-2h-4v-2h-4v-2h-6v-2h-4v-2h-4v-2h-4v-2h-6v-2h-4v-2h-4v1m168 16v1h-4v2h-4l-1 2-1 2h-6l-1 2-1 2h-4v2h-4v2h-4v2h-4v2h-4v2h-4l-1 2-1 2h-4v2h-2l-3 1-1 3v2h4v-2h6v-2h6v-2h6v-2h6v-2h6v-2h4v-2h8v-2h4v-2h5l2-1 1-2v-13h-4v1m120 0v1h-3l-3 3-3 3h-3v2h-4l-1 2-1 2h-4l-1 2-1 2h-4l-1 2-3 2-4 2-2 3v5h-2v22h-2v24h-2v18h1l1-1v-1h3l3-3 4-3 4-3 4-3 5-4 5-4 4-3 4-3 3-1 1-2v-21h2v-16h2v-18h2v-10h-4v1m-110 6v4l1 2 3 1h2v2h4v2h4v2h4l1 2 1 2h4v2h4v2h4l1 2 1 2h4v2h4v2h4l1 2 1 2h4v2h4v4h-4v2h-6v2h-4v2h-4v2h-6v2h-4v2h-4v2h-6v2h-4v2h-4v2h-6v2h-4v2h-4v2h-6v2h-8v-2h-3l-3-3-4-3-3-2-1-2h-4l-1-2-3-2-4-3-4-3-3-2-3-2-4-3-3-3h-3v-2h-2l-3-2-1-1 1-1h1v-2l-2-4-3-2h-5v-2h-4v-2h-4v-2h-4v-2h-6v-2h-4v-2h-4v-2h-4v-2h-4v-2h-4v-2h-6v-1l-1-1h-1v16h2v20h2v24h2v12h6l1 2 1 2h4v2h4v2h4v2h4l1 2 1 2h4v2h4v2h4v2h4v2h4l1 2 2 2h1v-14h-2v-34h-2v-16h1l1 1v1h3l3 3 4 3 3 2 3 2 4 3 4 3 4 3 4 3 3 2 1 2h4l1 2 3 2 5 3 3 4v57h2v20h-1l-1-1v-1h-3l-6-6-7-6-6-5-6-5-7-6-6-6-1 1 1 1h1v8h2v41l2 3 4 2 3 2 1 2h4l1 2 1 2h4v2h4l1 2 1 2h4l1 2 1 2h4l1 2 1 2h4l1 2 1 2h4v2h3l3 3 3 3h1v-57l1-2 2-1h5v1l-1 1h-1v44h-2v6l1 6 3-3 4-3 7-6 7-6 5-4 5-4 6-5 6-5 3-1 1-2v-5h2v-28h2v-20h2v-6h-4v14h-4v2h-4v2h-4v2h-4v2h-4v2h-4v2h-4v2h-4v2h-4v2h-4v2h-4v2h-6l-1 2-1 2h-4v2h-6v2h-4v1l-1 1h-1v-78h4v-2h4v-2h4v-2h6v-2h4v-2h6v-2h4v-2h6v-2h4v-2h4v-2h6v-2h4v-2h6v-2h4v-2h6v24h-2v26h2v-14h2v-28h2v-20h2v-12h-4v-2h-4v-2h-6v-2h-6v-2h-4v-2h-6v-2h-6v-2h-4v-2h-4v-2h-6v-2h-6v-2h-4v-2h-6v5m141 39-3 2h-1l-4 4-5 4-4 3-4 3-4 3-4 3-3 1-1 2v17h-2v14h-2v16h-2v4l1 4 3-3 4-3 7-6 7-6 7-5 5-6v-7h2v-12h2v-14h2v-12h2v-8h-1l-2 2m-307 14v6h2v10h2v10h2v12h2v10h2v4h4v2h4l1 2 1 2h4l1 2 1 2h4l1 2 1 2h4l1 2 1 2h4v2h4l1 2 2 2h1v-14h-2v-16h-2v-16h-2v-11l-2-3-3-2h-5v-2h-4l-1-2-1-2h-4v-2h-4v-2h-4v-2h-4v-2h-4v-2h-4l-1-2-2-2h-1v6m268 15-4 3-4 3-4 3-4 3-4 3-4 3-4 3-4 3-3 3h-3v8h-2v30h-2v11l1 11 4-4 5-4 6-5 6-5 7-6 7-6 3-1 1-2v-17h2v-16h2v-14h2v-10h-1l-3 3m-220 8 1 1h1v16h2v20h2v16h2v4h4l1 2 1 2h4l1 2 1 2h4l1 2 1 2h4v2h4l1 2 1 2h4l1 2 1 2h4v2h4l1 2 1 2h4v-46h-1l-1-1 1-1 1-1-3-3-3-3v-7h-6l-1-2-1-2h-4v-2h-4v-2h-4v-2h-4v-2h-4v-2h-4l-1-2-1-2h-4v-2h-4v-2h-4v-2h-4v1m174 23v2h2v-4h-2v2m73 2-5 4-7 6-7 6-6 4-4 5v7h-2v16h-2v20h-2v4h1l1-1v-1h3l12-12 12-12h3v-8h2v-14h2v-10h2v-12h2v-6h-1l-4 4m-285 10v2h2v14h2v12h2v10h2v8h3l3 3 4 3 4 3 4 3 4 3 4 3 3 2 1 2h4l1 2 1 2h4v-10h-2v-16h-2v-16h-2v-8h-4v-2h-4l-1-2-1-2h-4l-1-2-1-2h-4l-1-2-1-2h-4v-2h-4l-1-2-1-2h-4v-2h-4v-1l-1-1h-1v2m243 26-7 8h-2l-7 6-7 6-5 3-3 4v29h-2v10l1 10 18-17 17-18v-3h2v-16h2v-20h2v-10h-1l-8 8m-197 3 1 1h1v20h2v18h2v10h3l3 3 4 3 3 2 1 2h4l1 2 3 2 4 3 4 3 3 2 1 2h4l1 2 1 2h4v1l1 1h1v-32h-2v-20h-4v-2h-3l-3-3-3-3h-3v-2h-4l-1-2-1-2h-4v-2h-4l-1-2-1-2h-4l-1-2-1-2h-4l-1-2-1-2h-6v1m161 29-3 2h-1l-6 6-7 6-8 7-8 7-7 5-5 6v35h-2v9l1 9 23-22 22-23v-13h2v-26h2v-10h-1l-2 2m-107 9v7h2v38h3l3 3 4 3 3 2 1 2h4l1 2 3 2 4 3 4 3 3 2 1 2h4l1 2 1 2h4l1 2 3 2 4 3 3 3h1v-53l-2-3-3-2h-3v-2h-4l-1-2-1-2h-4l-1-2-1-2h-4v-2h-4l-1-2-1-2h-4l-1-2-1-2h-4v-2h-4l-1-2-1-2h-4l-1-2-1-2h-4v-1l-1-1h-1v7m-92 65v2h-2v16h1l1 1v1h-3l-3 2-2 3v8l2 3 3 2h10l2-2 2-2 1 1 2 3v2h2v3l2 3 3 2h8l3-2 2-3v-9h-1l-1-1v-1h5l5-4 4-5v-6l-1-2-2-1h-9v2h-8v2h-4v-2h-6v-4h-2v-3l-3-3-3-3v-3h-4v-2h-4v2m10 39 1 1 1-1-1-1-1 1m-230 6v1h-3l-3 2-2 3v3h-2v18h2v2a5 5 0 0 0 4 4l3 2 1 2h6v2h5l4 3 3 4v8l-1 2-2 1h-11v-4h-2v-8h-14v10h2v4h2v2l1 3 2 1h5v2h20v-2h4v-2h2l3-1 1-3v-2h2v-18h-2v-2a5 5 0 0 0-4-4l-3-2-1-2h-4v-2h-6v-2h-3l-3-2-2-3v-8l1-2 2-1h6l2 1 1 3v2h2v4h12v-10h-2v-3l-2-3-3-2h-5v-2h-18v1m35 3-1 1 1 1h1v4h-1l-1 1v1h16v56h12v-56h14v-10h-39l-2 2m47 31v33h12v-50h2v12h2v10h2v8h2v8h2v9l1 2 2 1h6l2-1 1-3v-2h2v-8h2v-10h2v-10h2v-8h2v-8h2v50h9l2-1 1-2v-63h-20v4h-2v8h-2v12h-2v10h-2v8h-2v-4h-2v-12h-2v-8h-2v-10h-2v-8h-20v33m73-29-3 3v3h-2v8h6v-6h2v-3l2-3 3-2h9v2h4v4h2v11l-3 4-4 3h-9v4h8v2h3l4 3 3 4v11h-2v3l-3 4-4 3h-7v-2h-3l-3-2-2-3v-7h-6v9l4 5 5 4h17v-2h2l3-1 1-3v-2h2v-4h2v-14h-2v-3l-4-4-4-4 2-1 3-1 1-3v-2h2v-14h-2v-2l-1-3-3-1h-2v-2h-17l-4 4m49-3v1h-4v4l-2 1-2 1v6h-2v6h6v-4h2v-6h2v-4h4v-2h9l3 2 2 3v3h2v10h-2v4h-2v3l-3 4-5 3-7 5-5 6v3h-2v4h-2v8h-1l-1 1 1 1 2 2h7v-1l1-1 1 1v1h20v-1l1-1 1 1 1 1h1v-6h-28v-6h2v-3l5-6 7-5 6-4 4-5v-3h2v-4h2v-14h-2v-3l-3-4-4-3h-17v1m-106 78v1h-5l-5 4-4 5v5h-2v38h2v6h2v2l1 3 3 1h2v2h4v2h16v-2h3l4-3 3-4v-5h2v-12h-14v11l-2 3-3 2h-4l-3-2-2-3v-40l2-3 3-2h4l3 2 2 3v9h14v-10h-2v-5l-3-4-4-3h-5v-2h-12v1m80 34v33h12v-2h4l1 2 1 2h10v-2h3l3-2 2-3v-5h2v-28h-2v-5l-3-4-4-3h-11v2h-4v1l-1 1h-1v-20h-12v33m54-16v1h-4v4l-2 1-2 1v4h-2v26h2v5l3 4 4 3h3v2h14v-2h3l3-2 2-3v-3h2v-8h-12v5l-1 2-2 1h-4l-2-1-1-3v-2h-2v-8h23l2-1 1-2v-9h-2v-8l-2-1-2-1v-4h-4v-2h-18v1m-100 23v21l3 4 4 3h11v-2h4v-1l1-1 1 1v1h14v-48h-14v38h-4v2h-3l-3-2-2-3v-35h-12v22m105-15-1 3v2h-2v6h12v-9l-1-2-2-1h-4l-2 1m-44 2-1 3v2h-2v18h2v5l1 2 2 1h4l2-1 1-2v-7h2v-14h-2v-5l-1-2-2-1h-4l-2 1m-3 98h1v-1l-1 1"/><path fill="#29b3e4" fill-rule="evenodd" d="M331 35a943 943 0 0 0-52 7 296 296 0 0 0-103 45l-23 17-12 9-14 14-14 14-7 9a909 909 0 0 0-30 43 378 378 0 0 0-36 93l-4 16-1 11-2 18-1 7v33l1 8 2 19 1 11 4 15a368 368 0 0 0 35 91 448 448 0 0 0 51 66 310 310 0 0 0 192 93l12 1v1l1 4v3h4v-7h2l28-1 25-1 6-1a610 610 0 0 0 71-18 176 176 0 0 0 24-10l8-4 6-3a1413 1413 0 0 1 39-25l4-3 5-4a1066 1066 0 0 0 48-47 306 306 0 0 0 72-176l1-13v-36l-1-12-1-11-4-18-3-18-5-14-4-15v-3l1-6 2-11a678 678 0 0 1 11-69l2-11v-2l-1-3-2-1-13-3a9154 9154 0 0 0-75-21l-18-5-5-4a430 430 0 0 0-78-48 383 383 0 0 0-83-22l-8-1-3-1h-23l-22-1-10 1m52 2h1v-1l-1 1m30 4h1v-1l-1 1m74 57v1h-6v2h-4v2h-4v2h-8v2h-4v2h-5l-2 1-1 2 2 1h2v2h6v2h8v2h6v2h6v2h6v2h6v2h4v-2h4v-2h6v-2h4v-2h4v-2h6v-2h4v-2h4v-2h3l3-1-1-2-2-1h-7v-2h-8v-2h-8v-2h-6v-2h-8v-2h-10v1m54 14v1h-4v2h-4v2h-6v2h-6v2h-4v2h-4v2h-5l-2 1-1 2 3 1h3v2h6v2h6v2h6v2h8v2h6v2h6v2h6v2h6v-2h4v-2h4v-2h4v-2h4v-2h4v-2h4v-2h4v-2h4v-2h4v-2h-6v-2h-8v-2h-8v-2h-6v-2h-10v-2h-6v-2h-8v-2h-4v1m-98 2v1h-4v2h-6v2h-6v2h-4v2h-6v2h-6v2h-4v2h-4v2h-4v2h6v2h6v2h6v2h4v2h6v2h6v2h6v2h4v2h4v-2h4v-2h4v-2h6v-2h4v-2h4v-2h6v-2h4v-2h4v-2h5l2-1 1-2-2-1h-2v-2h-8v-2h-6v-2h-6v-2h-6v-2h-6v-2h-6v-2h-6v1m158 14v1h-4v2h-4v2h-4v2h-4v2h-4v2h-4v2h-4v2h-4v2h-4v2h6v2h8v2h6v2h6v2h6v2h8v2h6v2h6v2h8v2h6v-2h4v-2h4l1-2 1-2h4v-2h4v-2h4l1-2 1-2h4v-2h2l3-1 1-2-4-1h-4v-2h-6v-2h-8v-2h-8v-2h-6v-2h-6v-2h-10v-2h-6v-2h-6v1m-108 4v1h-4v2h-4v2h-6v2h-4v2h-4v2h-6v2h-4v2h-4v2h-6v2h4v2h4v2h6v2h6v2h6v2h6v2h6v2h6v2h4v2h12v-2h4v-2h4v-2h4v-2h4v-2h4v-2h4v-2h6l1-2 1-2h4v-2h3l3-1-1-2-2-1h-5v-2h-8v-2h-6v-2h-6v-2h-6v-2h-6v-2h-6v-2h-14v1m-102 2v1h-4v2h-6v2h-6v2h-4v2h-6v2h-6v2h-4v2h-6v2h-6v2h-2l-3 1-1 2 3 1h3v2h4v2h4v2h6v2h4v2h4v2h6v2h4v2h4v2h4v-2h4v-2h4v-2h6v-2h4v-2h6v-2h4v-2h6v-2h4v-2h4v-2h6v-2h2l3-1 1-2-3-1h-3v-2h-4v-2h-6v-2h-6v-2h-4v-2h-6v-2h-6v-2h-4v-2h-4v1m166 16v1h-4v2h-4v2h-4v2h-4v2h-4v2h-4v2h-4v2h-4v2h-4v2h-2l-3 1-1 2 2 1h2v2h6v2h6v2h4v2h6v2h6v2h4v2h6v2h6v2h4v2h6v2h6v1l1 2 2-3 3-2h2l1-2 1-2h4v-2h4l1-2 1-2h4l1-2 1-2h4l1-2 1-2h4l1-2 1-2h4v-4h-6v-2h-6v-2h-6v-2h-6v-2h-6v-2h-8v-2h-6v-2h-6v-2h-8v-2h-6v1m108 0v1h-4l-1 2-1 2h-4v2h-4l-1 2-1 2h-4v2h-4l-1 2-3 2-4 2-2 3v13h-2v12h-2v14h-2v16h-2v8h3l3-3 4-3 4-3 4-3 3-2 3-2 4-3 3-3h3v-10h2v-12h2v-10h2v-12h2v-14h2v-6h-1l-1 1m-222 2v1h-4v2h-4v2h-6v2h-4v2h-4v2h-6v2h-4v2h-4v2h-6v2h-6v2h-2l-3 2-1 1 1 2 3 1h2v2h6v2h4v2h4v2h4v2h6v2h4v2h4v2h4v2h4v2h4v2h6v-2h4v-2h4v-2h4v-2h4v-2h4v-2h4v-2h4v-2h4v-2h4v-2h4v-2h4v-2h4v-2h2l3-1 1-2-3-1h-3v-2h-4v-2h-6v-2h-4v-2h-8v-2h-4v-2h-6v-2h-6v-2h-4v-2h-6v-1l-1-1-1 1m-110 8 1 1h1v12h2v14h2v14h2v12h2v11l1 2 3 1h2v2h4v2h4v2h4v2h4v2h4l1 2 1 2h6l1 2 1 2h4v2h4v-18h-2v-16h-2v-26h-2v-7l-1-2-2-1h-5v-2h-4v-2h-4v-2h-6v-2h-4v-2h-4v-2h-4v-2h-6v-2h-4v-2h-4v1m168 16v1h-4v2h-4l-1 2-1 2h-6l-1 2-1 2h-4v2h-4v2h-4v2h-4v2h-4v2h-4l-1 2-1 2h-4v2h-2l-3 1-1 3v2h4v-2h6v-2h6v-2h6v-2h6v-2h6v-2h4v-2h8v-2h4v-2h5l2-1 1-2v-13h-4v1m120 0v1h-3l-3 3-3 3h-3v2h-4l-1 2-1 2h-4l-1 2-1 2h-4l-1 2-3 2-4 2-2 3v5h-2v22h-2v24h-2v18h1l1-1v-1h3l3-3 4-3 4-3 4-3 5-4 5-4 4-3 4-3 3-1 1-2v-21h2v-16h2v-18h2v-10h-4v1m-110 6v4l1 2 3 1h2v2h4v2h4v2h4l1 2 1 2h4v2h4v2h4l1 2 1 2h4v2h4v2h4l1 2 1 2h4v2h4v4h-4v2h-6v2h-4v2h-4v2h-6v2h-4v2h-4v2h-6v2h-4v2h-4v2h-6v2h-4v2h-4v2h-6v2h-8v-2h-3l-3-3-4-3-3-2-1-2h-4l-1-2-3-2-4-3-4-3-3-2-3-2-4-3-3-3h-3v-2h-2l-3-2-1-1 1-1h1v-2l-2-4-3-2h-5v-2h-4v-2h-4v-2h-4v-2h-6v-2h-4v-2h-4v-2h-4v-2h-4v-2h-4v-2h-6v-1l-1-1h-1v16h2v20h2v24h2v12h6l1 2 1 2h4v2h4v2h4v2h4l1 2 1 2h4v2h4v2h4v2h4v2h4l1 2 2 2h1v-14h-2v-34h-2v-16h1l1 1v1h3l3 3 4 3 3 2 3 2 4 3 4 3 4 3 4 3 3 2 1 2h4l1 2 3 2 5 3 3 4v57h2v20h-1l-1-1v-1h-3l-6-6-7-6-6-5-6-5-7-6-6-6-1 1 1 1h1v8h2v41l2 3 4 2 3 2 1 2h4l1 2 1 2h4v2h4l1 2 1 2h4l1 2 1 2h4l1 2 1 2h4l1 2 1 2h4v2h3l3 3 3 3h1v-57l1-2 2-1h5v1l-1 1h-1v44h-2v6l1 6 3-3 4-3 7-6 7-6 5-4 5-4 6-5 6-5 3-1 1-2v-5h2v-28h2v-20h2v-6h-4v14h-4v2h-4v2h-4v2h-4v2h-4v2h-4v2h-4v2h-4v2h-4v2h-4v2h-4v2h-6l-1 2-1 2h-4v2h-6v2h-4v1l-1 1h-1v-78h4v-2h4v-2h4v-2h6v-2h4v-2h6v-2h4v-2h6v-2h4v-2h4v-2h6v-2h4v-2h6v-2h4v-2h6v24h-2v26h2v-14h2v-28h2v-20h2v-12h-4v-2h-4v-2h-6v-2h-6v-2h-4v-2h-6v-2h-6v-2h-4v-2h-4v-2h-6v-2h-6v-2h-4v-2h-6v5m141 39-3 2h-1l-4 4-5 4-4 3-4 3-4 3-4 3-3 1-1 2v17h-2v14h-2v16h-2v4l1 4 3-3 4-3 7-6 7-6 7-5 5-6v-7h2v-12h2v-14h2v-12h2v-8h-1l-2 2m-307 14v6h2v10h2v10h2v12h2v10h2v4h4v2h4l1 2 1 2h4l1 2 1 2h4l1 2 1 2h4l1 2 1 2h4v2h4l1 2 2 2h1v-14h-2v-16h-2v-16h-2v-11l-2-3-3-2h-5v-2h-4l-1-2-1-2h-4v-2h-4v-2h-4v-2h-4v-2h-4v-2h-4l-1-2-2-2h-1v6m268 15-4 3-4 3-4 3-4 3-4 3-4 3-4 3-4 3-3 3h-3v8h-2v30h-2v11l1 11 4-4 5-4 6-5 6-5 7-6 7-6 3-1 1-2v-17h2v-16h2v-14h2v-10h-1l-3 3m-220 8 1 1h1v16h2v20h2v16h2v4h4l1 2 1 2h4l1 2 1 2h4l1 2 1 2h4v2h4l1 2 1 2h4l1 2 1 2h4v2h4l1 2 1 2h4v-46h-1l-1-1 1-1 1-1-3-3-3-3v-7h-6l-1-2-1-2h-4v-2h-4v-2h-4v-2h-4v-2h-4v-2h-4l-1-2-1-2h-4v-2h-4v-2h-4v-2h-4v1m174 23v2h2v-4h-2v2m73 2-5 4-7 6-7 6-6 4-4 5v7h-2v16h-2v20h-2v4h1l1-1v-1h3l12-12 12-12h3v-8h2v-14h2v-10h2v-12h2v-6h-1l-4 4m-285 10v2h2v14h2v12h2v10h2v8h3l3 3 4 3 4 3 4 3 4 3 4 3 3 2 1 2h4l1 2 1 2h4v-10h-2v-16h-2v-16h-2v-8h-4v-2h-4l-1-2-1-2h-4l-1-2-1-2h-4l-1-2-1-2h-4v-2h-4l-1-2-1-2h-4v-2h-4v-1l-1-1h-1v2m243 26-7 8h-2l-7 6-7 6-5 3-3 4v29h-2v10l1 10 18-17 17-18v-3h2v-16h2v-20h2v-10h-1l-8 8m-197 3 1 1h1v20h2v18h2v10h3l3 3 4 3 3 2 1 2h4l1 2 3 2 4 3 4 3 3 2 1 2h4l1 2 1 2h4v1l1 1h1v-32h-2v-20h-4v-2h-3l-3-3-3-3h-3v-2h-4l-1-2-1-2h-4v-2h-4l-1-2-1-2h-4l-1-2-1-2h-4l-1-2-1-2h-6v1m161 29-3 2h-1l-6 6-7 6-8 7-8 7-7 5-5 6v35h-2v9l1 9 23-22 22-23v-13h2v-26h2v-10h-1l-2 2m-107 9v7h2v38h3l3 3 4 3 3 2 1 2h4l1 2 3 2 4 3 4 3 3 2 1 2h4l1 2 1 2h4l1 2 3 2 4 3 3 3h1v-53l-2-3-3-2h-3v-2h-4l-1-2-1-2h-4l-1-2-1-2h-4v-2h-4l-1-2-1-2h-4l-1-2-1-2h-4v-2h-4l-1-2-1-2h-4l-1-2-1-2h-4v-1l-1-1h-1v7m-92 65v2h-2v16h1l1 1v1h-3l-3 2-2 3v8l2 3 3 2h10l2-2 2-2 1 1 2 3v2h2v3l2 3 3 2h8l3-2 2-3v-9h-1l-1-1v-1h5l5-4 4-5v-6l-1-2-2-1h-9v2h-8v2h-4v-2h-6v-4h-2v-3l-3-3-3-3v-3h-4v-2h-4v2m10 39 1 1 1-1-1-1-1 1m-230 6v1h-3l-3 2-2 3v3h-2v18h2v2a5 5 0 0 0 4 4l3 2 1 2h6v2h5l4 3 3 4v8l-1 2-2 1h-11v-4h-2v-8h-14v10h2v4h2v2l1 3 2 1h5v2h20v-2h4v-2h2l3-1 1-3v-2h2v-18h-2v-2a5 5 0 0 0-4-4l-3-2-1-2h-4v-2h-6v-2h-3l-3-2-2-3v-8l1-2 2-1h6l2 1 1 3v2h2v4h12v-10h-2v-3l-2-3-3-2h-5v-2h-18v1m35 3-1 1 1 1h1v4h-1l-1 1v1h16v56h12v-56h14v-10h-39l-2 2m47 31v33h12v-50h2v12h2v10h2v8h2v8h2v9l1 2 2 1h6l2-1 1-3v-2h2v-8h2v-10h2v-10h2v-8h2v-8h2v50h9l2-1 1-2v-63h-20v4h-2v8h-2v12h-2v10h-2v8h-2v-4h-2v-12h-2v-8h-2v-10h-2v-8h-20v33m73-29-3 3v3h-2v8h6v-6h2v-3l2-3 3-2h9v2h4v4h2v11l-3 4-4 3h-9v4h8v2h3l4 3 3 4v11h-2v3l-3 4-4 3h-7v-2h-3l-3-2-2-3v-7h-6v9l4 5 5 4h17v-2h2l3-1 1-3v-2h2v-4h2v-14h-2v-3l-4-4-4-4 2-1 3-1 1-3v-2h2v-14h-2v-2l-1-3-3-1h-2v-2h-17l-4 4m49-3v1h-4v4l-2 1-2 1v6h-2v6h6v-4h2v-6h2v-4h4v-2h9l3 2 2 3v3h2v10h-2v4h-2v3l-3 4-5 3-7 5-5 6v3h-2v4h-2v8h-1l-1 1 1 1 2 2h7v-1l1-1 1 1v1h20v-1l1-1 1 1 1 1h1v-6h-28v-6h2v-3l5-6 7-5 6-4 4-5v-3h2v-4h2v-14h-2v-3l-3-4-4-3h-17v1m-106 78v1h-5l-5 4-4 5v5h-2v38h2v6h2v2l1 3 3 1h2v2h4v2h16v-2h3l4-3 3-4v-5h2v-12h-14v11l-2 3-3 2h-4l-3-2-2-3v-40l2-3 3-2h4l3 2 2 3v9h14v-10h-2v-5l-3-4-4-3h-5v-2h-12v1m80 34v33h12v-2h4l1 2 1 2h10v-2h3l3-2 2-3v-5h2v-28h-2v-5l-3-4-4-3h-11v2h-4v1l-1 1h-1v-20h-12v33m54-16v1h-4v4l-2 1-2 1v4h-2v26h2v5l3 4 4 3h3v2h14v-2h3l3-2 2-3v-3h2v-8h-12v5l-1 2-2 1h-4l-2-1-1-3v-2h-2v-8h23l2-1 1-2v-9h-2v-8l-2-1-2-1v-4h-4v-2h-18v1m-100 23v21l3 4 4 3h11v-2h4v-1l1-1 1 1v1h14v-48h-14v38h-4v2h-3l-3-2-2-3v-35h-12v22m105-15-1 3v2h-2v6h12v-9l-1-2-2-1h-4l-2 1m-44 2-1 3v2h-2v18h2v5l1 2 2 1h4l2-1 1-2v-7h2v-14h-2v-5l-1-2-2-1h-4l-2 1m-3 98h1v-1l-1 1"/></svg>