<svg xmlns="http://www.w3.org/2000/svg" viewBox="0 0.39 345 129.61"><path fill="#141414" d="M0 46v19l51-6V39L0 46m16 20v64h19V64l-19 2m41-28v92h20V35l-20 3m24-4v22l28-3V30l-28 4m0 38v21l18-1V70l-18 2m0 37v21h28v-22l-28 1m101-89v110h25V17l-25 3m30-4v25l38-4V11l-38 5m0 44v26l25-1V58l-25 2m0 45v25h38v-26l-38 1m-96-76v101h23V26l-23 3m27 78v23h32v-24l-32 1M333 9c-8-7-20-10-33-8v28c6-1 10 1 12 5 3 6 0 16-8 24-11 14-41 41-41 41l43-2c26-25 36-41 37-60 1-11-2-21-10-28m12 121v-29l-87 2m0 0v27h87M295 1c-25 6-37 24-36 55l27-3c-1-17 4-21 9-23V1"/></svg>