<svg xmlns="http://www.w3.org/2000/svg" width="706" height="716" viewBox="0 0 706 716" version="1.1"><path d="M 383 36.500 C 383 36.775, 383.225 37, 383.500 37 C 383.775 37, 384 36.775, 384 36.500 C 384 36.225, 383.775 36, 383.500 36 C 383.225 36, 383 36.225, 383 36.500 M 413 40.500 C 413 40.775, 413.225 41, 413.500 41 C 413.775 41, 414 40.775, 414 40.500 C 414 40.225, 413.775 40, 413.500 40 C 413.225 40, 413 40.225, 413 40.500 M 487 98 L 487 99 484 99 L 481 99 481 100 L 481 101 479 101 L 477 101 477 102 L 477 103 475 103 L 473 103 473 104 L 473 105 469 105 L 465 105 465 106 L 465 107 463 107 L 461 107 461 108 L 461 109 458.429 109 L 455.857 109 454.429 110.429 C 453.643 111.214, 453 112.114, 453 112.429 C 453 112.743, 453.900 113, 455 113 L 457 113 457 114 L 457 115 460 115 L 463 115 463 116 L 463 117 467 117 L 471 117 471 118 L 471 119 474 119 L 477 119 477 120 L 477 121 480 121 L 483 121 483 122 L 483 123 486 123 L 489 123 489 124 L 489 125 492 125 L 495 125 495 126 L 495 127 497 127 L 499 127 499 126 L 499 125 501 125 L 503 125 503 124 L 503 123 506 123 L 509 123 509 122 L 509 121 511 121 L 513 121 513 120 L 513 119 515 119 L 517 119 517 118 L 517 117 520 117 L 523 117 523 116 L 523 115 525 115 L 527 115 527 114 L 527 113 529 113 L 531 113 531 112 L 531 111 534 111 C 535.650 111, 537 110.743, 537 110.429 C 537 110.114, 536.357 109.214, 535.571 108.429 L 534.143 107 530.571 107 L 527 107 527 106 L 527 105 523 105 L 519 105 519 104 L 519 103 515 103 L 511 103 511 102 L 511 101 508 101 L 505 101 505 100 L 505 99 501 99 L 497 99 497 98 L 497 97 492 97 L 487 97 487 98 M 541 112 L 541 113 539 113 L 537 113 537 114 L 537 115 535 115 L 533 115 533 116 L 533 117 530 117 L 527 117 527 118 L 527 119 524 119 L 521 119 521 120 L 521 121 519 121 L 517 121 517 122 L 517 123 515 123 L 513 123 513 124 L 513 125 510.429 125 L 507.857 125 506.429 126.429 C 505.643 127.214, 505 128.114, 505 128.429 C 505 128.743, 506.350 129, 508 129 L 511 129 511 130 L 511 131 514 131 L 517 131 517 132 L 517 133 520 133 L 523 133 523 134 L 523 135 526 135 L 529 135 529 136 L 529 137 533 137 L 537 137 537 138 L 537 139 540 139 L 543 139 543 140 L 543 141 546 141 L 549 141 549 142 L 549 143 552 143 L 555 143 555 144 L 555 145 558 145 L 561 145 561 144 L 561 143 563 143 L 565 143 565 142 L 565 141 567 141 L 569 141 569 140 L 569 139 571 139 L 573 139 573 138 L 573 137 575 137 L 577 137 577 136 L 577 135 579 135 L 581 135 581 134 L 581 133 583 133 L 585 133 585 132 L 585 131 587 131 L 589 131 589 130 L 589 129 591 129 L 593 129 593 128 L 593 127 595 127 L 597 127 597 126 L 597 125 594 125 L 591 125 591 124 L 591 123 587 123 L 583 123 583 122 L 583 121 579 121 L 575 121 575 120 L 575 119 572 119 L 569 119 569 118 L 569 117 564 117 L 559 117 559 116 L 559 115 556 115 L 553 115 553 114 L 553 113 549 113 L 545 113 545 112 L 545 111 543 111 L 541 111 541 112 M 443 114 L 443 115 441 115 L 439 115 439 116 L 439 117 436 117 L 433 117 433 118 L 433 119 430 119 L 427 119 427 120 L 427 121 425 121 L 423 121 423 122 L 423 123 420 123 L 417 123 417 124 L 417 125 414 125 L 411 125 411 126 L 411 127 409 127 L 407 127 407 128 L 407 129 405 129 L 403 129 403 130 L 403 131 401 131 L 399 131 399 132 L 399 133 402 133 L 405 133 405 134 L 405 135 408 135 L 411 135 411 136 L 411 137 414 137 L 417 137 417 138 L 417 139 419 139 L 421 139 421 140 L 421 141 424 141 L 427 141 427 142 L 427 143 430 143 L 433 143 433 144 L 433 145 436 145 L 439 145 439 146 L 439 147 441 147 L 443 147 443 148 L 443 149 445 149 L 447 149 447 148 L 447 147 449 147 L 451 147 451 146 L 451 145 453 145 L 455 145 455 144 L 455 143 458 143 L 461 143 461 142 L 461 141 463 141 L 465 141 465 140 L 465 139 467 139 L 469 139 469 138 L 469 137 472 137 L 475 137 475 136 L 475 135 477 135 L 479 135 479 134 L 479 133 481 133 L 483 133 483 132 L 483 131 485.571 131 L 488.143 131 489.571 129.571 C 490.357 128.786, 491 127.886, 491 127.571 C 491 127.257, 490.100 127, 489 127 L 487 127 487 126 L 487 125 483 125 L 479 125 479 124 L 479 123 476 123 L 473 123 473 122 L 473 121 470 121 L 467 121 467 120 L 467 119 464 119 L 461 119 461 118 L 461 117 458 117 L 455 117 455 116 L 455 115 452 115 L 449 115 449 114 L 449 113 446 113 L 443 113 443 114 M 601 128 L 601 129 599 129 L 597 129 597 130 L 597 131 595 131 L 593 131 593 132 L 593 133 591 133 L 589 133 589 134 L 589 135 587 135 L 585 135 585 136 L 585 137 583 137 L 581 137 581 138 L 581 139 579 139 L 577 139 577 140 L 577 141 575 141 L 573 141 573 142 L 573 143 571 143 L 569 143 569 144 L 569 145 567 145 L 565 145 565 146 L 565 147 568 147 L 571 147 571 148 L 571 149 575 149 L 579 149 579 150 L 579 151 582 151 L 585 151 585 152 L 585 153 588 153 L 591 153 591 154 L 591 155 594 155 L 597 155 597 156 L 597 157 601 157 L 605 157 605 158 L 605 159 608 159 L 611 159 611 160 L 611 161 614 161 L 617 161 617 162 L 617 163 621 163 L 625 163 625 164 L 625 165 628 165 L 631 165 631 164 L 631 163 633 163 L 635 163 635 162 L 635 161 636.779 161 L 638.558 161 640 159 L 641.442 157 643.221 157 L 645 157 645 156 L 645 155 647 155 L 649 155 649 154 L 649 153 650.779 153 L 652.558 153 654 151 L 655.442 149 657.221 149 L 659 149 659 148 L 659 147 660.571 147 C 661.436 147, 662.786 146.357, 663.571 145.571 C 664.357 144.786, 665 143.886, 665 143.571 C 665 143.257, 663.200 143, 661 143 L 657 143 657 142 L 657 141 654 141 L 651 141 651 140 L 651 139 647 139 L 643 139 643 138 L 643 137 639 137 L 635 137 635 136 L 635 135 632 135 L 629 135 629 134 L 629 133 626 133 L 623 133 623 132 L 623 131 618 131 L 613 131 613 130 L 613 129 610 129 L 607 129 607 128 L 607 127 604 127 L 601 127 601 128 M 493 132 L 493 133 491 133 L 489 133 489 134 L 489 135 487 135 L 485 135 485 136 L 485 137 482 137 L 479 137 479 138 L 479 139 477 139 L 475 139 475 140 L 475 141 473 141 L 471 141 471 142 L 471 143 468 143 L 465 143 465 144 L 465 145 463 145 L 461 145 461 146 L 461 147 459 147 L 457 147 457 148 L 457 149 454 149 L 451 149 451 150 L 451 151 453 151 L 455 151 455 152 L 455 153 457 153 L 459 153 459 154 L 459 155 462 155 L 465 155 465 156 L 465 157 468 157 L 471 157 471 158 L 471 159 474 159 L 477 159 477 160 L 477 161 480 161 L 483 161 483 162 L 483 163 486 163 L 489 163 489 164 L 489 165 492 165 L 495 165 495 166 L 495 167 497 167 L 499 167 499 168 L 499 169 505 169 L 511 169 511 168 L 511 167 513 167 L 515 167 515 166 L 515 165 517 165 L 519 165 519 164 L 519 163 521 163 L 523 163 523 162 L 523 161 525 161 L 527 161 527 160 L 527 159 529 159 L 531 159 531 158 L 531 157 533 157 L 535 157 535 156 L 535 155 537.779 155 L 540.558 155 542 153 L 543.442 151 545.221 151 L 547 151 547 150 L 547 149 550 149 C 551.650 149, 553 148.743, 553 148.429 C 553 148.114, 552.357 147.214, 551.571 146.429 L 550.143 145 547.571 145 L 545 145 545 144 L 545 143 541 143 L 537 143 537 142 L 537 141 534 141 L 531 141 531 140 L 531 139 528 139 L 525 139 525 138 L 525 137 522 137 L 519 137 519 136 L 519 135 516 135 L 513 135 513 134 L 513 133 510 133 L 507 133 507 132 L 507 131 500 131 L 493 131 493 132 M 391 134 L 391 135 389 135 L 387 135 387 136 L 387 137 384 137 L 381 137 381 138 L 381 139 378 139 L 375 139 375 140 L 375 141 373 141 L 371 141 371 142 L 371 143 368 143 L 365 143 365 144 L 365 145 362 145 L 359 145 359 146 L 359 147 357 147 L 355 147 355 148 L 355 149 352 149 L 349 149 349 150 L 349 151 346 151 L 343 151 343 152 L 343 153 341.429 153 C 340.564 153, 339.214 153.643, 338.429 154.429 C 337.643 155.214, 337 156.114, 337 156.429 C 337 156.743, 338.350 157, 340 157 L 343 157 343 158 L 343 159 345 159 L 347 159 347 160 L 347 161 349 161 L 351 161 351 162 L 351 163 354 163 L 357 163 357 164 L 357 165 359 165 L 361 165 361 166 L 361 167 363 167 L 365 167 365 168 L 365 169 368 169 L 371 169 371 170 L 371 171 373 171 L 375 171 375 172 L 375 173 377 173 L 379 173 379 174 L 379 175 381 175 L 383 175 383 174 L 383 173 385 173 L 387 173 387 172 L 387 171 389 171 L 391 171 391 170 L 391 169 394 169 L 397 169 397 168 L 397 167 399 167 L 401 167 401 166 L 401 165 404 165 L 407 165 407 164 L 407 163 409 163 L 411 163 411 162 L 411 161 414 161 L 417 161 417 160 L 417 159 419 159 L 421 159 421 158 L 421 157 423 157 L 425 157 425 156 L 425 155 428 155 L 431 155 431 154 L 431 153 432.571 153 C 433.436 153, 434.786 152.357, 435.571 151.571 C 436.357 150.786, 437 149.886, 437 149.571 C 437 149.257, 435.650 149, 434 149 L 431 149 431 148 L 431 147 429 147 L 427 147 427 146 L 427 145 424 145 L 421 145 421 144 L 421 143 418 143 L 415 143 415 142 L 415 141 413 141 L 411 141 411 140 L 411 139 408 139 L 405 139 405 138 L 405 137 402 137 L 399 137 399 136 L 399 135 397 135 L 395 135 395 134 L 395 133 393 133 L 391 133 391 134 M 557 150 L 557 151 555 151 L 553 151 553 152 L 553 153 551 153 L 549 153 549 154 L 549 155 547 155 L 545 155 545 156 L 545 157 543 157 L 541 157 541 158 L 541 159 539 159 L 537 159 537 160 L 537 161 535 161 L 533 161 533 162 L 533 163 531 163 L 529 163 529 164 L 529 165 527 165 L 525 165 525 166 L 525 167 523 167 L 521 167 521 168 L 521 169 519.429 169 C 518.564 169, 517.214 169.643, 516.429 170.429 C 515.643 171.214, 515 172.114, 515 172.429 C 515 172.743, 515.900 173, 517 173 L 519 173 519 174 L 519 175 522 175 L 525 175 525 176 L 525 177 528 177 L 531 177 531 178 L 531 179 533 179 L 535 179 535 180 L 535 181 538 181 L 541 181 541 182 L 541 183 544 183 L 547 183 547 184 L 547 185 549 185 L 551 185 551 186 L 551 187 554 187 L 557 187 557 188 L 557 189 560 189 L 563 189 563 190 L 563 191 565 191 L 567 191 567 192 L 567 193 570 193 L 573 193 573 194 L 573 195 575.917 195 L 578.833 195 579.282 196.250 L 579.731 197.500 581.733 195.250 C 582.834 194.012, 584.370 193, 585.147 193 L 586.558 193 588 191 L 589.442 189 591.221 189 L 593 189 593 188 L 593 187 594.779 187 L 596.558 187 598 185 L 599.442 183 601 183 L 602.558 183 604 181 L 605.442 179 607 179 L 608.558 179 610 177 L 611.442 175 613 175 L 614.558 175 616 173 L 617.442 171 619.221 171 L 621 171 621 169 L 621 167 618 167 L 615 167 615 166 L 615 165 612 165 L 609 165 609 164 L 609 163 606 163 L 603 163 603 162 L 603 161 600 161 L 597 161 597 160 L 597 159 594 159 L 591 159 591 158 L 591 157 587 157 L 583 157 583 156 L 583 155 580 155 L 577 155 577 154 L 577 153 574 153 L 571 153 571 152 L 571 151 567 151 L 563 151 563 150 L 563 149 560 149 L 557 149 557 150 M 665 150 L 665 151 663.221 151 L 661.442 151 660 153 L 658.558 155 656.779 155 L 655 155 655 156 L 655 157 653.221 157 L 651.442 157 650 159 L 648.558 161 646.779 161 L 645 161 645 162 L 645 163 643.221 163 L 641.442 163 640 165 C 639.207 166.100, 637.962 167, 637.234 167 C 636.505 167, 634.805 168.105, 633.455 169.455 L 631 171.909 631 178.455 L 631 185 630 185 L 629 185 629 191 L 629 197 628 197 L 627 197 627 204 L 627 211 626 211 L 625 211 625 219 L 625 227 624 227 L 623 227 623 231 L 623 235 624.599 235 L 626.198 235 629 232 C 630.541 230.350, 632.341 229, 633 229 C 633.659 229, 635.459 227.650, 637 226 C 638.541 224.350, 640.423 223, 641.180 223 C 641.938 223, 643.207 222.100, 644 221 C 644.793 219.900, 646.062 219, 646.820 219 C 647.577 219, 649.459 217.650, 651 216 L 653.802 213 655.401 213 L 657 213 657 208 L 657 203 658 203 L 659 203 659 197 L 659 191 660 191 L 661 191 661 186 L 661 181 662 181 L 663 181 663 175 L 663 169 664 169 L 665 169 665 162 L 665 155 666 155 L 667 155 667 152 L 667 149 666 149 C 665.450 149, 665 149.450, 665 150 M 443 152 L 443 153 441 153 L 439 153 439 154 L 439 155 437 155 L 435 155 435 156 L 435 157 432 157 L 429 157 429 158 L 429 159 427 159 L 425 159 425 160 L 425 161 423 161 L 421 161 421 162 L 421 163 418 163 L 415 163 415 164 L 415 165 413 165 L 411 165 411 166 L 411 167 409 167 L 407 167 407 168 L 407 169 404 169 L 401 169 401 170 L 401 171 398 171 L 395 171 395 172 L 395 173 393.429 173 C 392.564 173, 391.182 173.675, 390.357 174.500 L 388.857 176 390.357 177.500 C 391.182 178.325, 392.564 179, 393.429 179 L 395 179 395 180 L 395 181 398 181 L 401 181 401 182 L 401 183 403 183 L 405 183 405 184 L 405 185 407 185 L 409 185 409 186 L 409 187 411 187 L 413 187 413 188 L 413 189 416 189 L 419 189 419 190 L 419 191 421 191 L 423 191 423 192 L 423 193 425 193 L 427 193 427 194 L 427 195 429 195 L 431 195 431 196 L 431 197 433 197 L 435 197 435 198 L 435 199 437 199 L 439 199 439 200 L 439 201 442 201 L 445 201 445 200 L 445 199 447 199 L 449 199 449 198 L 449 197 451 197 L 453 197 453 196 L 453 195 455 195 L 457 195 457 194 L 457 193 459 193 L 461 193 461 192 L 461 191 463 191 L 465 191 465 190 L 465 189 467 189 L 469 189 469 188 L 469 187 471 187 L 473 187 473 186 L 473 185 475 185 L 477 185 477 184 L 477 183 479 183 L 481 183 481 182 L 481 181 483 181 L 485 181 485 180 L 485 179 487 179 L 489 179 489 178 L 489 177 491 177 L 493 177 493 176 L 493 175 494.571 175 C 495.436 175, 496.786 174.357, 497.571 173.571 C 498.357 172.786, 499 171.886, 499 171.571 C 499 171.257, 497.650 171, 496 171 L 493 171 493 170 L 493 169 491 169 L 489 169 489 168 L 489 167 486 167 L 483 167 483 166 L 483 165 481 165 L 479 165 479 164 L 479 163 475 163 L 471 163 471 162 L 471 161 469 161 L 467 161 467 160 L 467 159 464 159 L 461 159 461 158 L 461 157 458 157 L 455 157 455 156 L 455 155 453 155 L 451 155 451 154 L 451 153 448 153 L 445 153 445 152 C 445 151.450, 444.550 151, 444 151 C 443.450 151, 443 151.450, 443 152 M 333 160 C 333 160.550, 333.450 161, 334 161 L 335 161 335 167 L 335 173 336 173 L 337 173 337 180 L 337 187 338 187 L 339 187 339 194 L 339 201 340 201 L 341 201 341 207 L 341 213 342 213 L 343 213 343 218.571 L 343 224.143 344.429 225.571 C 345.214 226.357, 346.564 227, 347.429 227 L 349 227 349 228 L 349 229 351 229 L 353 229 353 230 L 353 231 355 231 L 357 231 357 232 L 357 233 359 233 L 361 233 361 234 L 361 235 363 235 L 365 235 365 236 L 365 237 366.779 237 L 368.558 237 370 239 L 371.442 241 374 241 L 376.558 241 378 243 L 379.442 245 381.221 245 L 383 245 383 246 L 383 247 385 247 L 387 247 387 238 L 387 229 386 229 L 385 229 385 221 L 385 213 384 213 L 383 213 383 200 L 383 187 382 187 L 381 187 381 183.429 L 381 179.857 379.571 178.429 L 378.143 177 375.571 177 L 373 177 373 176 L 373 175 371 175 L 369 175 369 174 L 369 173 367 173 L 365 173 365 172 L 365 171 362 171 L 359 171 359 170 L 359 169 357 169 L 355 169 355 168 L 355 167 353 167 L 351 167 351 166 L 351 165 349 165 L 347 165 347 164 L 347 163 344 163 L 341 163 341 162 L 341 161 339 161 L 337 161 337 160 L 337 159 335 159 L 333 159 333 160 M 501 176 L 501 177 499 177 L 497 177 497 178 L 497 179 495.221 179 L 493.442 179 492 181 L 490.558 183 488 183 L 485.442 183 484 185 L 482.558 187 480.779 187 L 479 187 479 188 L 479 189 477 189 L 475 189 475 190 L 475 191 473 191 L 471 191 471 192 L 471 193 469 193 L 467 193 467 194 L 467 195 465 195 L 463 195 463 196 L 463 197 461.221 197 L 459.442 197 458 199 L 456.558 201 454.779 201 L 453 201 453 202 L 453 203 451.429 203 C 450.564 203, 449.214 203.643, 448.429 204.429 C 447.643 205.214, 447 206.564, 447 207.429 L 447 209 449 209 L 451 209 451 208 L 451 207 454 207 L 457 207 457 206 L 457 205 460 205 L 463 205 463 204 L 463 203 466 203 L 469 203 469 202 L 469 201 472 201 L 475 201 475 200 L 475 199 478 199 L 481 199 481 198 L 481 197 483 197 L 485 197 485 196 L 485 195 489 195 L 493 195 493 194 L 493 193 495 193 L 497 193 497 192 L 497 191 499.571 191 L 502.143 191 503.571 189.571 L 505 188.143 505 181.571 L 505 175 503 175 L 501 175 501 176 M 621 176 L 621 177 619.401 177 L 617.802 177 615 180 L 612.198 183 610.599 183 L 609 183 609 184 L 609 185 607.221 185 L 605.442 185 604 187 L 602.558 189 601 189 L 599.442 189 598 191 L 596.558 193 595 193 L 593.442 193 592 195 C 591.207 196.100, 589.962 197, 589.234 197 C 588.505 197, 586.805 198.105, 585.455 199.455 L 583 201.909 583 204.455 L 583 207 582 207 L 581 207 581 218 L 581 229 580 229 L 579 229 579 241 L 579 253 578 253 L 577 253 577 262 L 577 271 578 271 C 578.550 271, 579 270.550, 579 270 L 579 269 580.599 269 L 582.198 269 585 266 C 586.541 264.350, 588.341 263, 589 263 C 589.659 263, 591.459 261.650, 593 260 C 594.541 258.350, 596.332 257, 596.980 257 C 597.627 257, 599.886 255.200, 602 253 C 604.114 250.800, 606.373 249, 607.020 249 C 607.668 249, 609.459 247.650, 611 246 C 612.541 244.350, 614.329 243, 614.973 243 C 615.616 243, 616.786 242.357, 617.571 241.571 L 619 240.143 619 229.571 L 619 219 620 219 L 621 219 621 211 L 621 203 622 203 L 623 203 623 194 L 623 185 624 185 L 625 185 625 180 L 625 175 623 175 L 621 175 621 176 M 511 181.571 L 511 186.143 512.429 187.571 C 513.214 188.357, 514.564 189, 515.429 189 L 517 189 517 190 L 517 191 519 191 L 521 191 521 192 L 521 193 523 193 L 525 193 525 194 L 525 195 526.779 195 L 528.558 195 530 197 L 531.442 199 533.221 199 L 535 199 535 200 L 535 201 537 201 L 539 201 539 202 L 539 203 540.779 203 L 542.558 203 544 205 L 545.442 207 547.221 207 L 549 207 549 208 L 549 209 551 209 L 553 209 553 210 L 553 211 554.779 211 L 556.558 211 558 213 L 559.442 215 561.221 215 L 563 215 563 216 L 563 217 565 217 L 567 217 567 219 L 567 221 565 221 L 563 221 563 222 L 563 223 560 223 L 557 223 557 224 L 557 225 555 225 L 553 225 553 226 L 553 227 551 227 L 549 227 549 228 L 549 229 546 229 L 543 229 543 230 L 543 231 541 231 L 539 231 539 232 L 539 233 537 233 L 535 233 535 234 L 535 235 532 235 L 529 235 529 236 L 529 237 527 237 L 525 237 525 238 L 525 239 523 239 L 521 239 521 240 L 521 241 518 241 L 515 241 515 242 L 515 243 513 243 L 511 243 511 244 L 511 245 509 245 L 507 245 507 246 L 507 247 504 247 L 501 247 501 248 L 501 249 497 249 L 493 249 493 248 L 493 247 491.401 247 L 489.802 247 487 244 C 485.459 242.350, 483.577 241, 482.820 241 C 482.062 241, 480.793 240.100, 480 239 L 478.558 237 477 237 L 475.442 237 474 235 C 473.207 233.900, 471.938 233, 471.180 233 C 470.423 233, 468.541 231.650, 467 230 C 465.459 228.350, 463.577 227, 462.820 227 C 462.062 227, 460.793 226.100, 460 225 C 459.207 223.900, 457.938 223, 457.180 223 C 456.423 223, 454.541 221.650, 453 220 L 450.198 217 448.599 217 L 447 217 447 216 L 447 215 445.429 215 C 444.564 215, 443.106 214.249, 442.188 213.330 L 440.518 211.661 441.759 211.247 L 443 210.833 443 209.371 C 443 208.567, 441.895 206.805, 440.545 205.455 L 438.091 203 435.545 203 L 433 203 433 202 L 433 201 431 201 L 429 201 429 200 L 429 199 427 199 L 425 199 425 198 L 425 197 423 197 L 421 197 421 196 L 421 195 418 195 L 415 195 415 194 L 415 193 413 193 L 411 193 411 192 L 411 191 409 191 L 407 191 407 190 L 407 189 405 189 L 403 189 403 188 L 403 187 401 187 L 399 187 399 186 L 399 185 397 185 L 395 185 395 184 L 395 183 392 183 L 389 183 389 182 C 389 181.450, 388.550 181, 388 181 L 387 181 387 189 L 387 197 388 197 L 389 197 389 207 L 389 217 390 217 L 391 217 391 229 L 391 241 392 241 L 393 241 393 247 L 393 253 395.779 253 L 398.558 253 400 255 L 401.442 257 403.221 257 L 405 257 405 258 L 405 259 407 259 L 409 259 409 260 L 409 261 411 261 L 413 261 413 262 L 413 263 414.779 263 L 416.558 263 418 265 L 419.442 267 421.221 267 L 423 267 423 268 L 423 269 425 269 L 427 269 427 270 L 427 271 429 271 L 431 271 431 272 L 431 273 433 273 L 435 273 435 274 L 435 275 436.779 275 L 438.558 275 440 277 C 440.793 278.100, 441.792 279, 442.221 279 L 443 279 443 272 L 443 265 442 265 L 441 265 441 248 L 441 231 440 231 L 439 231 439 223 L 439 215 440 215 C 440.550 215, 441 215.450, 441 216 L 441 217 442.599 217 L 444.198 217 447 220 C 448.541 221.650, 450.423 223, 451.180 223 C 451.938 223, 453.207 223.900, 454 225 C 454.793 226.100, 456.062 227, 456.820 227 C 457.577 227, 459.459 228.350, 461 230 C 462.541 231.650, 464.341 233, 465 233 C 465.659 233, 467.459 234.350, 469 236 C 470.541 237.650, 472.423 239, 473.180 239 C 473.938 239, 475.207 239.900, 476 241 L 477.442 243 479 243 L 480.558 243 482 245 C 482.793 246.100, 484.032 247, 484.754 247 C 485.476 247, 487.627 248.560, 489.533 250.467 L 493 253.933 493 282.467 L 493 311 494 311 L 495 311 495 321 L 495 331 494 331 C 493.450 331, 493 330.550, 493 330 L 493 329 491.445 329 L 489.889 329 484 323 C 480.761 319.700, 477.607 317, 476.990 317 C 476.374 317, 473.679 314.750, 471 312 C 468.321 309.250, 465.626 307, 465.010 307 C 464.393 307, 461.190 304.250, 457.890 300.888 L 451.891 294.776 451.195 295.525 L 450.500 296.274 451.750 296.720 L 453 297.167 453 301.083 L 453 305 454 305 L 455 305 455 325.545 L 455 346.091 457.455 348.545 C 458.805 349.895, 460.505 351, 461.234 351 C 461.962 351, 463.207 351.900, 464 353 L 465.442 355 467 355 L 468.558 355 470 357 L 471.442 359 473.221 359 L 475 359 475 360 L 475 361 476.779 361 L 478.558 361 480 363 L 481.442 365 483 365 L 484.558 365 486 367 L 487.442 369 489 369 L 490.558 369 492 371 L 493.442 373 495 373 L 496.558 373 498 375 L 499.442 377 501.221 377 L 503 377 503 378 L 503 379 504.599 379 L 506.198 379 509 382 C 510.541 383.650, 512.072 385, 512.401 385 L 513 385 513 356.429 L 513 327.857 514.429 326.429 L 515.857 325 518.429 325 L 521 325 521 326 C 521 326.550, 520.550 327, 520 327 L 519 327 519 349 L 519 371 518 371 L 517 371 517 377 C 517 380.300, 517.269 383, 517.599 383 C 517.928 383, 519.459 381.650, 521 380 C 522.541 378.350, 524.322 377, 524.957 377 C 525.591 377, 528.761 374.300, 532 371 C 535.239 367.700, 538.399 365, 539.023 365 C 539.647 365, 541.886 363.200, 544 361 C 546.114 358.800, 548.358 357, 548.987 357 C 549.615 357, 552.321 354.750, 555 352 C 557.679 349.250, 560.382 347, 561.007 347 C 561.631 347, 562.786 346.357, 563.571 345.571 L 565 344.143 565 341.571 L 565 339 566 339 L 567 339 567 325 L 567 311 568 311 L 569 311 569 301 L 569 291 570 291 L 571 291 571 288 L 571 285 569 285 L 567 285 567 292 L 567 299 565 299 L 563 299 563 300 L 563 301 561 301 L 559 301 559 302 L 559 303 557 303 L 555 303 555 304 L 555 305 553 305 L 551 305 551 306 L 551 307 549 307 L 547 307 547 308 L 547 309 545 309 L 543 309 543 310 L 543 311 541 311 L 539 311 539 312 L 539 313 537 313 L 535 313 535 314 L 535 315 533 315 L 531 315 531 316 L 531 317 529 317 L 527 317 527 318 L 527 319 525 319 L 523 319 523 320 L 523 321 520.221 321 L 517.442 321 516 323 L 514.558 325 512.779 325 L 511 325 511 326 L 511 327 508 327 L 505 327 505 328 L 505 329 503 329 L 501 329 501 330 C 501 330.550, 500.550 331, 500 331 L 499 331 499 292 L 499 253 501 253 L 503 253 503 252 L 503 251 505 251 L 507 251 507 250 L 507 249 509 249 L 511 249 511 248 L 511 247 514 247 L 517 247 517 246 L 517 245 519 245 L 521 245 521 244 L 521 243 524 243 L 527 243 527 242 L 527 241 529 241 L 531 241 531 240 L 531 239 534 239 L 537 239 537 238 L 537 237 539 237 L 541 237 541 236 L 541 235 543 235 L 545 235 545 234 L 545 233 548 233 L 551 233 551 232 L 551 231 553 231 L 555 231 555 230 L 555 229 558 229 L 561 229 561 228 L 561 227 563 227 L 565 227 565 226 L 565 225 568 225 L 571 225 571 237 L 571 249 570 249 L 569 249 569 262 L 569 275 570 275 L 571 275 571 268 L 571 261 572 261 L 573 261 573 247 L 573 233 574 233 L 575 233 575 223 L 575 213 576 213 L 577 213 577 207 L 577 201 575 201 L 573 201 573 200 L 573 199 571 199 L 569 199 569 198 L 569 197 566 197 L 563 197 563 196 L 563 195 560 195 L 557 195 557 194 L 557 193 555 193 L 553 193 553 192 L 553 191 550 191 L 547 191 547 190 L 547 189 544 189 L 541 189 541 188 L 541 187 539 187 L 537 187 537 186 L 537 185 535 185 L 533 185 533 184 L 533 183 530 183 L 527 183 527 182 L 527 181 524 181 L 521 181 521 180 L 521 179 519 179 L 517 179 517 178 L 517 177 514 177 L 511 177 511 181.571 M 652 221 C 651.207 222.100, 649.948 223, 649.201 223 L 647.843 223 644 227 C 641.886 229.200, 639.627 231, 638.980 231 C 638.332 231, 636.541 232.350, 635 234 C 633.459 235.650, 631.659 237, 631 237 C 630.341 237, 628.541 238.350, 627 240 C 625.459 241.650, 623.671 243, 623.027 243 C 622.384 243, 621.214 243.643, 620.429 244.429 L 619 245.857 619 254.429 L 619 263 618 263 L 617 263 617 270 L 617 277 616 277 L 615 277 615 285 L 615 293 614 293 L 613 293 613 297 C 613 299.200, 613.269 301, 613.599 301 C 613.928 301, 615.459 299.650, 617 298 C 618.541 296.350, 620.322 295, 620.957 295 C 621.591 295, 624.761 292.300, 628 289 C 631.239 285.700, 634.374 283, 634.966 283 C 635.559 283, 638.509 280.535, 641.522 277.522 L 647 272.043 647 268.522 L 647 265 648 265 L 649 265 649 259 L 649 253 650 253 L 651 253 651 246 L 651 239 652 239 L 653 239 653 233 L 653 227 654 227 L 655 227 655 223 L 655 219 654.221 219 C 653.792 219, 652.793 219.900, 652 221 M 345 235 L 345 241 346 241 L 347 241 347 246 L 347 251 348 251 L 349 251 349 256 L 349 261 350 261 L 351 261 351 267 L 351 273 352 273 L 353 273 353 278 L 353 283 354 283 L 355 283 355 285 L 355 287 357 287 L 359 287 359 288 L 359 289 360.779 289 L 362.558 289 364 291 L 365.442 293 367 293 L 368.558 293 370 295 L 371.442 297 373 297 L 374.558 297 376 299 L 377.442 301 379 301 L 380.558 301 382 303 L 383.442 305 385.221 305 L 387 305 387 306 L 387 307 388.779 307 L 390.558 307 392 309 C 392.793 310.100, 393.792 311, 394.221 311 L 395 311 395 304 L 395 297 394 297 L 393 297 393 289 L 393 281 392 281 L 391 281 391 273 L 391 265 390 265 L 389 265 389 259.455 L 389 253.909 386.545 251.455 L 384.091 249 381.545 249 L 379 249 379 248 L 379 247 377.221 247 L 375.442 247 374 245 L 372.558 243 370.779 243 L 369 243 369 242 L 369 241 367 241 L 365 241 365 240 L 365 239 363 239 L 361 239 361 238 L 361 237 359 237 L 357 237 357 236 L 357 235 355 235 L 353 235 353 234 L 353 233 351.221 233 L 349.442 233 348 231 C 347.207 229.900, 346.208 229, 345.779 229 L 345 229 345 235 M 613 250 C 611.625 251.617, 609.893 252.954, 609.151 252.970 C 608.409 252.987, 606.541 254.350, 605 256 C 603.459 257.650, 601.659 259, 601 259 C 600.341 259, 598.541 260.350, 597 262 C 595.459 263.650, 593.659 265, 593 265 C 592.341 265, 590.541 266.350, 589 268 C 587.459 269.650, 585.659 271, 585 271 C 584.341 271, 582.541 272.350, 581 274 L 578.198 277 576.599 277 L 575 277 575 281 L 575 285 574 285 L 573 285 573 300 L 573 315 572 315 L 571 315 571 326 C 571 332.050, 571.260 337, 571.578 337 C 571.897 337, 573.886 335.200, 576 333 C 578.114 330.800, 580.358 329, 580.987 329 C 581.615 329, 584.321 326.750, 587 324 C 589.679 321.250, 592.374 319, 592.990 319 C 593.607 319, 596.761 316.300, 600 313 C 603.239 309.700, 606.396 307, 607.016 307 C 607.636 307, 608.786 306.357, 609.571 305.571 L 611 304.143 611 295.571 L 611 287 612 287 L 613 287 613 279 L 613 271 614 271 L 615 271 615 264 L 615 257 616 257 L 617 257 617 252 L 617 247 616.250 247.030 C 615.837 247.046, 614.375 248.383, 613 250 M 393 258 C 393 258.550, 393.450 259, 394 259 L 395 259 395 267 L 395 275 396 275 L 397 275 397 285 L 397 295 398 295 L 399 295 399 303 L 399 311 400 311 L 401 311 401 313 L 401 315 402.779 315 L 404.558 315 406 317 L 407.442 319 409 319 L 410.558 319 412 321 L 413.442 323 415 323 L 416.558 323 418 325 L 419.442 327 421.221 327 L 423 327 423 328 L 423 329 424.779 329 L 426.558 329 428 331 L 429.442 333 431 333 L 432.558 333 434 335 L 435.442 337 437.221 337 L 439 337 439 338 L 439 339 440.779 339 L 442.558 339 444 341 L 445.442 343 447.221 343 L 449 343 449 320.083 L 449 297.167 447.750 296.659 L 446.500 296.152 447.937 295.152 L 449.373 294.151 446.187 291.174 L 443 288.198 443 284.599 L 443 281 440.221 281 L 437.442 281 436 279 L 434.558 277 432.779 277 L 431 277 431 276 L 431 275 429 275 L 427 275 427 274 L 427 273 425 273 L 423 273 423 272 L 423 271 421 271 L 419 271 419 270 L 419 269 417 269 L 415 269 415 268 L 415 267 413.221 267 L 411.442 267 410 265 L 408.558 263 406.779 263 L 405 263 405 262 L 405 261 403 261 L 401 261 401 260 L 401 259 399 259 L 397 259 397 258 L 397 257 395 257 L 393 257 393 258 M 567 281 L 567 283 568 283 L 569 283 569 281 L 569 279 568 279 L 567 279 567 281 M 640 283 C 638.075 285.149, 635.913 286.929, 635.195 286.954 C 634.477 286.979, 631.239 289.700, 628 293 C 624.761 296.300, 621.624 299, 621.029 299 C 620.434 299, 617.934 301.013, 615.474 303.474 L 611 307.947 611 311.474 L 611 315 610 315 L 609 315 609 323 L 609 331 608 331 L 607 331 607 341 L 607 351 606 351 L 605 351 605 353 L 605 355 606 355 C 606.550 355, 607 354.550, 607 354 L 607 353 608.529 353 L 610.059 353 622 341 L 633.941 329 635.471 329 L 637 329 637 325 L 637 321 638 321 L 639 321 639 314 L 639 307 640 307 L 641 307 641 302 L 641 297 642 297 L 643 297 643 291 L 643 285 644 285 L 645 285 645 282 L 645 279 644.250 279.046 C 643.837 279.071, 641.925 280.851, 640 283 M 355 293 L 355 295 356 295 L 357 295 357 302 L 357 309 358 309 L 359 309 359 315 L 359 321 360 321 L 361 321 361 326 L 361 331 362 331 L 363 331 363 335 L 363 339 364.599 339 L 366.198 339 369 342 C 370.541 343.650, 372.341 345, 373 345 C 373.659 345, 375.459 346.350, 377 348 C 378.541 349.650, 380.341 351, 381 351 C 381.659 351, 383.459 352.350, 385 354 C 386.541 355.650, 388.423 357, 389.180 357 C 389.938 357, 391.207 357.900, 392 359 L 393.442 361 395 361 L 396.558 361 398 363 L 399.442 365 401.221 365 L 403 365 403 360 L 403 355 402 355 L 401 355 401 347 L 401 339 400 339 L 399 339 399 331 L 399 323 398 323 L 397 323 397 319 L 397 315 395 315 L 393 315 393 314 L 393 313 391.221 313 L 389.442 313 388 311 L 386.558 309 385 309 L 383.442 309 382 307 L 380.558 305 379 305 L 377.442 305 376 303 L 374.558 301 372.779 301 L 371 301 371 300 L 371 299 369.221 299 L 367.442 299 366 297 L 364.558 295 362.779 295 L 361 295 361 294 L 361 293 359 293 L 357 293 357 292 C 357 291.450, 356.550 291, 356 291 L 355 291 355 293 M 598 319 L 590.500 326.867 589.195 326.934 C 588.477 326.970, 585.239 329.700, 582 333 C 578.761 336.300, 575.621 339, 575.022 339 C 574.423 339, 572.373 340.560, 570.467 342.467 L 567 345.933 567 360.467 L 567 375 566 375 L 565 375 565 385 C 565 390.500, 565.228 395, 565.507 395 C 565.786 395, 573.886 387.128, 583.507 377.507 L 601 360.014 601 358.507 L 601 357 602 357 L 603 357 603 349 L 603 341 604 341 L 605 341 605 331 L 605 321 606 321 L 607 321 607 316 L 607 311 606.250 311.066 C 605.837 311.103, 602.125 314.673, 598 319 M 401 322 C 401 322.550, 401.450 323, 402 323 L 403 323 403 333 L 403 343 404 343 L 405 343 405 352 L 405 361 406 361 L 407 361 407 366 L 407 371 408.599 371 L 410.198 371 413 374 C 414.541 375.650, 416.423 377, 417.180 377 C 417.938 377, 419.207 377.900, 420 379 L 421.442 381 423 381 L 424.558 381 426 383 C 426.793 384.100, 428.062 385, 428.820 385 C 429.577 385, 431.459 386.350, 433 388 C 434.541 389.650, 436.423 391, 437.180 391 C 437.938 391, 439.207 391.900, 440 393 L 441.442 395 443 395 L 444.558 395 446 397 L 447.442 399 449.221 399 L 451 399 451 400 C 451 400.550, 451.450 401, 452 401 L 453 401 453 385 L 453 369 452 369 L 451 369 451 359 L 451 349 449 349 L 447 349 447 348 L 447 347 445.401 347 L 443.802 347 441 344 L 438.198 341 436.599 341 L 435 341 435 340 L 435 339 433.221 339 L 431.442 339 430 337 L 428.558 335 426.779 335 L 425 335 425 334 L 425 333 423.221 333 L 421.442 333 420 331 L 418.558 329 417 329 L 415.442 329 414 327 L 412.558 325 411 325 L 409.442 325 408 323 L 406.558 321 403.779 321 L 401 321 401 322 M 562 351 C 561.207 352.100, 559.958 353, 559.224 353 L 557.889 353 552 359 C 548.761 362.300, 545.614 365, 545.007 365 C 544.400 365, 540.797 368.150, 537 372 C 533.203 375.850, 529.615 379, 529.027 379 C 528.438 379, 525.491 381.465, 522.478 384.478 L 517 389.957 517 407.478 L 517 425 516 425 L 515 425 515 434 C 515 438.950, 515.227 443, 515.505 443 C 515.784 443, 526.134 432.877, 538.505 420.505 L 561 398.011 561 391.505 L 561 385 562 385 L 563 385 563 372 L 563 359 564 359 L 565 359 565 354 L 565 349 564.221 349 C 563.792 349, 562.793 349.900, 562 351 M 455 360 L 455 367 456 367 L 457 367 457 386 L 457 405 458.599 405 L 460.198 405 463 408 C 464.541 409.650, 466.423 411, 467.180 411 C 467.938 411, 469.207 411.900, 470 413 L 471.442 415 473 415 L 474.558 415 476 417 C 476.793 418.100, 478.062 419, 478.820 419 C 479.577 419, 481.459 420.350, 483 422 C 484.541 423.650, 486.423 425, 487.180 425 C 487.938 425, 489.207 425.900, 490 427 L 491.442 429 493 429 L 494.558 429 496 431 L 497.442 433 499 433 L 500.558 433 502 435 C 502.793 436.100, 504.062 437, 504.820 437 C 505.577 437, 507.459 438.350, 509 440 C 510.541 441.650, 512.072 443, 512.401 443 L 513 443 513 416.455 L 513 389.909 510.545 387.455 L 508.091 385 506.545 385 L 505 385 505 384 L 505 383 503.221 383 L 501.442 383 500 381 L 498.558 379 497 379 L 495.442 379 494 377 L 492.558 375 490.779 375 L 489 375 489 374 L 489 373 487.221 373 L 485.442 373 484 371 L 482.558 369 481 369 L 479.442 369 478 367 L 476.558 365 474.779 365 L 473 365 473 364 L 473 363 471.221 363 L 469.442 363 468 361 L 466.558 359 465 359 L 463.442 359 462 357 L 460.558 355 458.779 355 L 457 355 457 354 C 457 353.450, 456.550 353, 456 353 L 455 353 455 360 M 363 425 L 363 427 362 427 L 361 427 361 435 L 361 443 362 443 C 362.550 443, 363 443.450, 363 444 L 363 445 361.455 445 L 359.909 445 357.455 447.455 L 355 449.909 355 454 L 355 458.091 357.455 460.545 L 359.909 463 365.087 463 L 370.265 463 372.095 460.891 L 373.924 458.781 375.462 460.319 C 376.308 461.165, 377 462.564, 377 463.429 L 377 465 378 465 L 379 465 379 466.545 L 379 468.091 381.455 470.545 L 383.909 473 388 473 L 392.091 473 394.545 470.545 L 397 468.091 397 463.545 L 397 459 396 459 C 395.450 459, 395 458.550, 395 458 L 395 457 397.526 457 L 400.053 457 404.526 452.526 L 409 448.053 409 444.955 L 409 441.857 407.571 440.429 L 406.143 439 401.571 439 L 397 439 397 440 L 397 441 393 441 L 389 441 389 442 L 389 443 387 443 L 385 443 385 442 L 385 441 382 441 L 379 441 379 439 L 379 437 378 437 L 377 437 377 435.401 L 377 433.802 374 431 L 371 428.198 371 426.599 L 371 425 369 425 L 367 425 367 424 L 367 423 365 423 L 363 423 363 425 M 373 464 C 373 464.550, 373.450 465, 374 465 C 374.550 465, 375 464.550, 375 464 C 375 463.450, 374.550 463, 374 463 C 373.450 463, 373 463.450, 373 464 M 143 470 L 143 471 141.455 471 L 139.909 471 137.455 473.455 L 135 475.909 135 477.455 L 135 479 134 479 L 133 479 133 488 L 133 497 134 497 L 135 497 135 498.571 C 135 499.436, 135.643 500.786, 136.429 501.571 C 137.214 502.357, 138.465 503, 139.208 503 C 139.951 503, 141.207 503.900, 142 505 L 143.442 507 146.221 507 L 149 507 149 508 L 149 509 151.533 509 L 154.067 509 157.533 512.467 L 161 515.933 161 520.038 L 161 524.143 159.571 525.571 L 158.143 527 152.571 527 L 147 527 147 525 L 147 523 146 523 L 145 523 145 519 L 145 515 138 515 L 131 515 131 520 L 131 525 132 525 L 133 525 133 527 L 133 529 134 529 L 135 529 135 530.571 C 135 531.436, 135.643 532.786, 136.429 533.571 L 137.857 535 140.429 535 L 143 535 143 536 L 143 537 153 537 L 163 537 163 536 L 163 535 165 535 L 167 535 167 534 L 167 533 168.571 533 C 169.436 533, 170.786 532.357, 171.571 531.571 C 172.357 530.786, 173 529.436, 173 528.571 L 173 527 174 527 L 175 527 175 518 L 175 509 174 509 L 173 509 173 507.429 C 173 506.564, 172.357 505.214, 171.571 504.429 C 170.786 503.643, 169.535 503, 168.792 503 C 168.049 503, 166.793 502.100, 166 501 L 164.558 499 162.779 499 L 161 499 161 498 L 161 497 158 497 L 155 497 155 496 L 155 495 153.455 495 L 151.909 495 149.455 492.545 L 147 490.091 147 485.974 L 147 481.857 148.429 480.429 L 149.857 479 153 479 L 156.143 479 157.571 480.429 C 158.357 481.214, 159 482.564, 159 483.429 L 159 485 160 485 L 161 485 161 487 L 161 489 167 489 L 173 489 173 484 L 173 479 172 479 L 171 479 171 477.455 L 171 475.909 168.545 473.455 L 166.091 471 163.545 471 L 161 471 161 470 L 161 469 152 469 L 143 469 143 470 M 178.042 472.719 L 176.584 474.361 177.792 474.764 L 179 475.167 179 477.083 L 179 479 178 479 C 177.450 479, 177 479.450, 177 480 L 177 481 185 481 L 193 481 193 509 L 193 537 199 537 L 205 537 205 509 L 205 481 212 481 L 219 481 219 476 L 219 471 199.250 471.038 L 179.500 471.076 178.042 472.719 M 225 504 L 225 537 231 537 L 237 537 237 512 L 237 487 238 487 L 239 487 239 493 L 239 499 240 499 L 241 499 241 504 L 241 509 242 509 L 243 509 243 513 L 243 517 244 517 L 245 517 245 521 L 245 525 246 525 L 247 525 247 529.571 L 247 534.143 248.429 535.571 L 249.857 537 253 537 L 256.143 537 257.571 535.571 C 258.357 534.786, 259 533.436, 259 532.571 L 259 531 260 531 L 261 531 261 527 L 261 523 262 523 L 263 523 263 518 L 263 513 264 513 L 265 513 265 508 L 265 503 266 503 L 267 503 267 499 L 267 495 268 495 L 269 495 269 491 L 269 487 270 487 L 271 487 271 512 L 271 537 275.571 537 L 280.143 537 281.571 535.571 L 283 534.143 283 502.571 L 283 471 273 471 L 263 471 263 473 L 263 475 262 475 L 261 475 261 479 L 261 483 260 483 L 259 483 259 489 L 259 495 258 495 L 257 495 257 500 L 257 505 256 505 L 255 505 255 509 L 255 513 254 513 L 253 513 253 511 L 253 509 252 509 L 251 509 251 503 L 251 497 250 497 L 249 497 249 493 L 249 489 248 489 L 247 489 247 484 L 247 479 246 479 L 245 479 245 475 L 245 471 235 471 L 225 471 225 504 M 298.250 474.540 L 295 477.943 295 479.472 L 295 481 294 481 L 293 481 293 485 L 293 489 296 489 L 299 489 299 486 L 299 483 300 483 L 301 483 301 481.455 L 301 479.909 303.455 477.455 L 305.909 475 310.455 475 L 315 475 315 476 L 315 477 317 477 L 319 477 319 479 L 319 481 320 481 L 321 481 321 486.533 L 321 492.067 317.533 495.533 L 314.067 499 309.533 499 L 305 499 305 501 L 305 503 309 503 L 313 503 313 504 L 313 505 314.533 505 L 316.067 505 319.533 508.467 L 323 511.933 323 517.467 L 323 523 322 523 L 321 523 321 524.533 L 321 526.067 317.533 529.533 L 314.067 533 310.533 533 L 307 533 307 532 L 307 531 305.455 531 L 303.909 531 301.455 528.545 L 299 526.091 299 522.545 L 299 519 296 519 L 293 519 293 523.526 L 293 528.053 297.474 532.526 L 301.947 537 310.474 537 L 319 537 319 536 L 319 535 320.571 535 C 321.436 535, 322.786 534.357, 323.571 533.571 C 324.357 532.786, 325 531.436, 325 530.571 L 325 529 326 529 L 327 529 327 527 L 327 525 328 525 L 329 525 329 518 L 329 511 328 511 L 327 511 327 509.422 L 327 507.843 323 504 C 320.800 501.886, 319 499.897, 319 499.578 C 319 499.260, 319.707 499, 320.571 499 C 321.436 499, 322.786 498.357, 323.571 497.571 C 324.357 496.786, 325 495.436, 325 494.571 L 325 493 326 493 L 327 493 327 486 L 327 479 326 479 L 325 479 325 477.429 C 325 476.564, 324.357 475.214, 323.571 474.429 C 322.786 473.643, 321.436 473, 320.571 473 L 319 473 319 472 L 319 471 310.250 471.069 L 301.500 471.137 298.250 474.540 M 347 472 L 347 473 345 473 L 343 473 343 474.779 L 343 476.558 341 478 L 339 479.442 339 482.221 L 339 485 338 485 L 337 485 337 488 L 337 491 340 491 L 343 491 343 489 L 343 487 344 487 L 345 487 345 484 L 345 481 346 481 L 347 481 347 479 L 347 477 349 477 L 351 477 351 476 L 351 475 355.545 475 L 360.091 475 362.545 477.455 L 365 479.909 365 481.455 L 365 483 366 483 L 367 483 367 488 L 367 493 366 493 L 365 493 365 495 L 365 497 364 497 L 363 497 363 498.533 L 363 500.067 359.533 503.533 C 357.627 505.440, 355.592 507, 355.012 507 C 354.431 507, 351.491 509.465, 348.478 512.478 L 343 517.957 343 519.478 L 343 521 342 521 L 341 521 341 523 L 341 525 340 525 L 339 525 339 528.917 L 339 532.833 337.759 533.247 L 336.518 533.661 338.188 535.330 L 339.857 537 343.345 537 L 346.833 537 347.417 535.750 L 348 534.500 348.583 535.750 L 349.167 537 359 537 L 368.833 537 369.417 535.750 L 370 534.500 370.583 535.750 C 370.904 536.438, 371.579 537, 372.083 537 L 373 537 373 534 L 373 531 359 531 L 345 531 345 528 L 345 525 346 525 L 347 525 347 523.478 L 347 521.957 352.478 516.478 C 355.491 513.465, 358.428 511, 359.005 511 C 359.581 511, 362.066 508.987, 364.526 506.526 L 369 502.053 369 500.526 L 369 499 370 499 L 371 499 371 497 L 371 495 372 495 L 373 495 373 488 L 373 481 372 481 L 371 481 371 479.467 L 371 477.933 367.533 474.467 L 364.067 471 355.533 471 L 347 471 347 472 M 241 550 L 241 551 238.474 551 L 235.947 551 231.474 555.474 L 227 559.947 227 562.474 L 227 565 226 565 L 225 565 225 584 L 225 603 226 603 L 227 603 227 606 L 227 609 228 609 L 229 609 229 610.571 C 229 611.436, 229.643 612.786, 230.429 613.571 C 231.214 614.357, 232.564 615, 233.429 615 L 235 615 235 616 L 235 617 237 617 L 239 617 239 618 L 239 619 247 619 L 255 619 255 618 L 255 617 256.533 617 L 258.067 617 261.533 613.533 L 265 610.067 265 607.533 L 265 605 266 605 L 267 605 267 599 L 267 593 260 593 L 253 593 253 598.545 L 253 604.091 250.545 606.545 L 248.091 609 246 609 L 243.909 609 241.455 606.545 L 239 604.091 239 584 L 239 563.909 241.455 561.455 L 243.909 559 246 559 L 248.091 559 250.545 561.455 L 253 563.909 253 568.455 L 253 573 260 573 L 267 573 267 568 L 267 563 266 563 L 265 563 265 560.467 L 265 557.933 261.533 554.467 L 258.067 551 255.533 551 L 253 551 253 550 L 253 549 247 549 L 241 549 241 550 M 321 584 L 321 617 327 617 L 333 617 333 616 L 333 615 334.779 615 L 336.558 615 338 617 L 339.442 619 344.221 619 L 349 619 349 618 L 349 617 350.545 617 L 352.091 617 354.545 614.545 L 357 612.091 357 609.545 L 357 607 358 607 L 359 607 359 593 L 359 579 358 579 L 357 579 357 576.467 L 357 573.933 353.533 570.467 L 350.067 567 344.533 567 L 339 567 339 568 L 339 569 337 569 L 335 569 335 570 C 335 570.550, 334.550 571, 334 571 L 333 571 333 561 L 333 551 327 551 L 321 551 321 584 M 375 568 L 375 569 373 569 L 371 569 371 570.779 L 371 572.558 369 574 L 367 575.442 367 577.221 L 367 579 366 579 L 365 579 365 592 L 365 605 366 605 L 367 605 367 607.533 L 367 610.067 370.467 613.533 L 373.933 617 375.467 617 L 377 617 377 618 L 377 619 384 619 L 391 619 391 618 L 391 617 392.545 617 L 394.091 617 396.545 614.545 L 399 612.091 399 610.545 L 399 609 400 609 L 401 609 401 605 L 401 601 395 601 L 389 601 389 603.571 L 389 606.143 387.571 607.571 L 386.143 609 384 609 L 381.857 609 380.429 607.571 C 379.643 606.786, 379 605.436, 379 604.571 L 379 603 378 603 L 377 603 377 599 L 377 595 388.571 595 L 400.143 595 401.571 593.571 L 403 592.143 403 587.571 L 403 583 402 583 L 401 583 401 579.221 L 401 575.442 399 574 L 397 572.558 397 570.779 L 397 569 395 569 L 393 569 393 568 L 393 567 384 567 L 375 567 375 568 M 275 590.533 L 275 612.067 278.467 615.533 L 281.933 619 287.467 619 L 293 619 293 618 L 293 617 294.917 617 L 296.833 617 297.417 615.750 L 298 614.500 298.583 615.750 L 299.167 617 306.083 617 L 313 617 313 593 L 313 569 306 569 L 299 569 299 588 L 299 607 297 607 L 295 607 295 608 L 295 609 293.455 609 L 291.909 609 289.455 606.545 L 287 604.091 287 586.545 L 287 569 281 569 L 275 569 275 590.533 M 380.250 576.496 C 379.563 577.277, 379 578.610, 379 579.458 L 379 581 378 581 L 377 581 377 584 L 377 587 383 587 L 389 587 389 582.429 L 389 577.857 387.571 576.429 L 386.143 575 383.821 575.038 L 381.500 575.076 380.250 576.496 M 336.250 578.496 C 335.563 579.277, 335 580.610, 335 581.458 L 335 583 334 583 L 333 583 333 592 L 333 601 334 601 L 335 601 335 603.571 L 335 606.143 336.429 607.571 L 337.857 609 340 609 L 342.143 609 343.571 607.571 L 345 606.143 345 602.571 L 345 599 346 599 L 347 599 347 592 L 347 585 346 585 L 345 585 345 582.429 L 345 579.857 343.571 578.429 L 342.143 577 339.821 577.038 L 337.500 577.076 336.250 578.496 M 333 675.500 C 333 675.775, 333.225 676, 333.500 676 C 333.775 676, 334 675.775, 334 675.500 C 334 675.225, 333.775 675, 333.500 675 C 333.225 675, 333 675.225, 333 675.500" stroke="none" fill="#f7fafb" fill-rule="evenodd"/><path d="M 330.500 34.988 C 325 35.406, 315.775 36.234, 310 36.827 C 304.225 37.420, 297.475 38.321, 295 38.829 C 292.525 39.338, 285.325 40.940, 279 42.391 C 272.675 43.841, 263.225 46.421, 258 48.123 C 252.775 49.826, 244.450 52.716, 239.500 54.545 C 234.550 56.375, 226.900 59.506, 222.500 61.503 C 218.100 63.501, 211.125 66.858, 207 68.963 C 202.875 71.069, 196.800 74.277, 193.500 76.093 C 190.200 77.909, 182.325 82.881, 176 87.141 C 169.675 91.401, 159.233 98.996, 152.795 104.018 L 141.089 113.148 127.105 127.071 L 113.120 140.994 105.745 150.247 C 101.689 155.336, 96.335 162.200, 93.847 165.500 C 91.358 168.800, 87.284 174.650, 84.792 178.500 C 82.300 182.350, 78.361 188.650, 76.040 192.500 C 73.718 196.350, 68.514 206.274, 64.474 214.554 C 60.434 222.834, 55.537 233.859, 53.591 239.054 C 51.645 244.249, 48.491 253.450, 46.581 259.500 C 44.672 265.550, 41.560 277.475, 39.665 286 L 36.219 301.500 35.042 312.500 C 34.394 318.550, 33.445 326.781, 32.932 330.791 L 32 338.082 32 354.382 L 32 370.682 32.944 378.591 C 33.464 382.941, 34.414 391.450, 35.056 397.500 L 36.222 408.500 39.661 424 C 41.552 432.525, 44.456 443.775, 46.114 449 C 47.772 454.225, 50.719 462.775, 52.664 468 C 54.609 473.225, 57.106 479.525, 58.215 482 C 59.323 484.475, 62.846 491.764, 66.042 498.198 C 69.239 504.631, 73.092 512.056, 74.606 514.698 C 76.119 517.339, 80.936 524.900, 85.309 531.500 C 89.683 538.100, 95.114 545.975, 97.378 549 C 99.642 552.025, 101.721 554.725, 101.997 555 C 102.274 555.275, 104.730 558.200, 107.456 561.500 C 110.182 564.800, 118.422 573.575, 125.767 581 C 133.112 588.425, 141.417 596.300, 144.222 598.500 C 147.028 600.700, 150.281 603.400, 151.451 604.500 C 152.621 605.600, 155.361 607.884, 157.539 609.575 C 159.718 611.266, 165.775 615.503, 171 618.991 C 176.225 622.478, 180.725 625.594, 181 625.916 C 181.275 626.237, 183.525 627.591, 186 628.925 C 188.475 630.259, 190.725 631.609, 191 631.925 C 191.275 632.241, 192.576 633.106, 193.890 633.846 C 195.205 634.586, 202.446 638.299, 209.982 642.096 C 217.518 645.893, 223.969 649, 224.317 649 C 224.665 649, 227.897 650.350, 231.500 652 C 235.103 653.650, 238.452 655, 238.942 655 C 239.433 655, 242.009 655.934, 244.667 657.075 C 247.325 658.216, 251.750 659.761, 254.500 660.508 C 257.250 661.255, 263.550 663.070, 268.500 664.540 C 273.450 666.011, 281.100 667.828, 285.500 668.580 C 289.900 669.331, 296.425 670.584, 300 671.364 C 303.575 672.144, 311.675 673.346, 318 674.035 L 329.500 675.287 330.235 676.394 C 330.639 677.002, 330.976 678.737, 330.985 680.250 L 331 683 333 683 L 335 683 335 679.519 L 335 676.038 337.250 675.545 C 338.488 675.273, 350.750 674.844, 364.500 674.592 L 389.500 674.133 396 673.071 C 399.575 672.487, 404.975 671.542, 408 670.972 C 411.025 670.402, 415.750 669.499, 418.500 668.966 C 421.250 668.432, 425.423 667.712, 427.773 667.365 C 430.123 667.018, 432.287 666.344, 432.582 665.867 C 432.877 665.390, 434.223 665, 435.573 665 C 436.923 665, 438.809 664.594, 439.764 664.097 C 440.719 663.601, 443.525 662.673, 446 662.035 C 448.475 661.398, 452.525 660.185, 455 659.340 C 457.475 658.495, 462.650 656.683, 466.500 655.313 C 470.350 653.944, 475.750 651.786, 478.500 650.518 C 481.250 649.251, 486.975 646.591, 491.222 644.607 C 495.468 642.623, 499.151 641, 499.405 641 C 499.659 641, 502.035 639.712, 504.684 638.137 C 507.333 636.562, 512.875 633.325, 517 630.943 C 521.125 628.561, 528.550 623.893, 533.500 620.569 C 538.450 617.245, 543.126 613.926, 543.890 613.194 C 544.655 612.461, 546.455 611.106, 547.890 610.181 C 549.326 609.257, 551.625 607.554, 553 606.398 C 554.375 605.243, 559.325 600.932, 564 596.820 C 568.675 592.708, 577.450 584.269, 583.500 578.068 C 589.550 571.866, 594.950 566.273, 595.500 565.639 C 596.050 565.005, 598.593 561.995, 601.150 558.950 C 603.708 555.906, 607.318 551.409, 609.172 548.957 C 611.026 546.506, 616.175 539.100, 620.614 532.500 C 625.052 525.900, 630.188 517.800, 632.026 514.500 C 633.865 511.200, 637.126 505.125, 639.275 501 C 641.423 496.875, 645.117 489, 647.484 483.500 C 649.851 478, 653.343 469.225, 655.245 464 C 657.147 458.775, 659.285 452.475, 659.996 450 C 660.707 447.525, 661.934 443.475, 662.723 441 C 663.512 438.525, 665.036 432.450, 666.110 427.500 C 667.184 422.550, 668.517 416.025, 669.073 413 C 669.629 409.975, 670.493 405.025, 670.993 402 C 671.493 398.975, 672.374 390.448, 672.951 383.050 L 674 369.600 674 351.662 L 674 333.723 672.909 322.112 L 671.819 310.500 668.373 292.712 L 664.928 274.923 660.464 260.546 L 656 246.169 656 243.234 C 656 241.619, 656.405 238.994, 656.901 237.399 C 657.396 235.805, 658.350 230.450, 659.020 225.500 C 659.690 220.550, 660.860 212.787, 661.619 208.250 C 662.379 203.713, 663.625 196.287, 664.389 191.750 C 665.152 187.213, 666.303 179.900, 666.945 175.500 C 667.587 171.100, 669.040 162.678, 670.173 156.785 L 672.234 146.070 671.641 143.707 L 671.048 141.343 668.745 140.294 C 667.479 139.717, 661.956 138.017, 656.471 136.517 C 650.987 135.018, 641.550 132.453, 635.500 130.818 C 629.450 129.184, 620 126.574, 614.500 125.018 C 609 123.463, 603.150 121.930, 601.500 121.611 C 599.850 121.293, 590.507 118.812, 580.737 116.099 L 562.975 111.165 558.237 107.278 C 555.632 105.140, 549.225 100.258, 544 96.431 C 538.775 92.603, 532.700 88.307, 530.500 86.883 C 528.300 85.459, 523.125 82.174, 519 79.583 C 514.875 76.992, 505.425 71.849, 498 68.155 C 490.575 64.462, 482.250 60.478, 479.500 59.303 C 476.750 58.127, 470.900 55.818, 466.500 54.172 C 462.100 52.525, 454.225 49.851, 449 48.230 C 443.775 46.609, 437.475 44.793, 435 44.196 C 432.525 43.598, 426.675 42.198, 422 41.085 C 417.325 39.972, 410.830 38.597, 407.566 38.030 C 404.303 37.464, 399.575 37, 397.060 37 C 394.545 37, 391.043 36.586, 389.279 36.080 L 386.071 35.160 363.285 34.693 L 340.500 34.226 330.500 34.988 M 383 36.500 C 383 36.775, 383.225 37, 383.500 37 C 383.775 37, 384 36.775, 384 36.500 C 384 36.225, 383.775 36, 383.500 36 C 383.225 36, 383 36.225, 383 36.500 M 413 40.500 C 413 40.775, 413.225 41, 413.500 41 C 413.775 41, 414 40.775, 414 40.500 C 414 40.225, 413.775 40, 413.500 40 C 413.225 40, 413 40.225, 413 40.500 M 487 98 L 487 99 484 99 L 481 99 481 100 L 481 101 479 101 L 477 101 477 102 L 477 103 475 103 L 473 103 473 104 L 473 105 469 105 L 465 105 465 106 L 465 107 463 107 L 461 107 461 108 L 461 109 458.429 109 L 455.857 109 454.429 110.429 C 453.643 111.214, 453 112.114, 453 112.429 C 453 112.743, 453.900 113, 455 113 L 457 113 457 114 L 457 115 460 115 L 463 115 463 116 L 463 117 467 117 L 471 117 471 118 L 471 119 474 119 L 477 119 477 120 L 477 121 480 121 L 483 121 483 122 L 483 123 486 123 L 489 123 489 124 L 489 125 492 125 L 495 125 495 126 L 495 127 497 127 L 499 127 499 126 L 499 125 501 125 L 503 125 503 124 L 503 123 506 123 L 509 123 509 122 L 509 121 511 121 L 513 121 513 120 L 513 119 515 119 L 517 119 517 118 L 517 117 520 117 L 523 117 523 116 L 523 115 525 115 L 527 115 527 114 L 527 113 529 113 L 531 113 531 112 L 531 111 534 111 C 535.650 111, 537 110.743, 537 110.429 C 537 110.114, 536.357 109.214, 535.571 108.429 L 534.143 107 530.571 107 L 527 107 527 106 L 527 105 523 105 L 519 105 519 104 L 519 103 515 103 L 511 103 511 102 L 511 101 508 101 L 505 101 505 100 L 505 99 501 99 L 497 99 497 98 L 497 97 492 97 L 487 97 487 98 M 541 112 L 541 113 539 113 L 537 113 537 114 L 537 115 535 115 L 533 115 533 116 L 533 117 530 117 L 527 117 527 118 L 527 119 524 119 L 521 119 521 120 L 521 121 519 121 L 517 121 517 122 L 517 123 515 123 L 513 123 513 124 L 513 125 510.429 125 L 507.857 125 506.429 126.429 C 505.643 127.214, 505 128.114, 505 128.429 C 505 128.743, 506.350 129, 508 129 L 511 129 511 130 L 511 131 514 131 L 517 131 517 132 L 517 133 520 133 L 523 133 523 134 L 523 135 526 135 L 529 135 529 136 L 529 137 533 137 L 537 137 537 138 L 537 139 540 139 L 543 139 543 140 L 543 141 546 141 L 549 141 549 142 L 549 143 552 143 L 555 143 555 144 L 555 145 558 145 L 561 145 561 144 L 561 143 563 143 L 565 143 565 142 L 565 141 567 141 L 569 141 569 140 L 569 139 571 139 L 573 139 573 138 L 573 137 575 137 L 577 137 577 136 L 577 135 579 135 L 581 135 581 134 L 581 133 583 133 L 585 133 585 132 L 585 131 587 131 L 589 131 589 130 L 589 129 591 129 L 593 129 593 128 L 593 127 595 127 L 597 127 597 126 L 597 125 594 125 L 591 125 591 124 L 591 123 587 123 L 583 123 583 122 L 583 121 579 121 L 575 121 575 120 L 575 119 572 119 L 569 119 569 118 L 569 117 564 117 L 559 117 559 116 L 559 115 556 115 L 553 115 553 114 L 553 113 549 113 L 545 113 545 112 L 545 111 543 111 L 541 111 541 112 M 443 114 L 443 115 441 115 L 439 115 439 116 L 439 117 436 117 L 433 117 433 118 L 433 119 430 119 L 427 119 427 120 L 427 121 425 121 L 423 121 423 122 L 423 123 420 123 L 417 123 417 124 L 417 125 414 125 L 411 125 411 126 L 411 127 409 127 L 407 127 407 128 L 407 129 405 129 L 403 129 403 130 L 403 131 401 131 L 399 131 399 132 L 399 133 402 133 L 405 133 405 134 L 405 135 408 135 L 411 135 411 136 L 411 137 414 137 L 417 137 417 138 L 417 139 419 139 L 421 139 421 140 L 421 141 424 141 L 427 141 427 142 L 427 143 430 143 L 433 143 433 144 L 433 145 436 145 L 439 145 439 146 L 439 147 441 147 L 443 147 443 148 L 443 149 445 149 L 447 149 447 148 L 447 147 449 147 L 451 147 451 146 L 451 145 453 145 L 455 145 455 144 L 455 143 458 143 L 461 143 461 142 L 461 141 463 141 L 465 141 465 140 L 465 139 467 139 L 469 139 469 138 L 469 137 472 137 L 475 137 475 136 L 475 135 477 135 L 479 135 479 134 L 479 133 481 133 L 483 133 483 132 L 483 131 485.571 131 L 488.143 131 489.571 129.571 C 490.357 128.786, 491 127.886, 491 127.571 C 491 127.257, 490.100 127, 489 127 L 487 127 487 126 L 487 125 483 125 L 479 125 479 124 L 479 123 476 123 L 473 123 473 122 L 473 121 470 121 L 467 121 467 120 L 467 119 464 119 L 461 119 461 118 L 461 117 458 117 L 455 117 455 116 L 455 115 452 115 L 449 115 449 114 L 449 113 446 113 L 443 113 443 114 M 601 128 L 601 129 599 129 L 597 129 597 130 L 597 131 595 131 L 593 131 593 132 L 593 133 591 133 L 589 133 589 134 L 589 135 587 135 L 585 135 585 136 L 585 137 583 137 L 581 137 581 138 L 581 139 579 139 L 577 139 577 140 L 577 141 575 141 L 573 141 573 142 L 573 143 571 143 L 569 143 569 144 L 569 145 567 145 L 565 145 565 146 L 565 147 568 147 L 571 147 571 148 L 571 149 575 149 L 579 149 579 150 L 579 151 582 151 L 585 151 585 152 L 585 153 588 153 L 591 153 591 154 L 591 155 594 155 L 597 155 597 156 L 597 157 601 157 L 605 157 605 158 L 605 159 608 159 L 611 159 611 160 L 611 161 614 161 L 617 161 617 162 L 617 163 621 163 L 625 163 625 164 L 625 165 628 165 L 631 165 631 164 L 631 163 633 163 L 635 163 635 162 L 635 161 636.779 161 L 638.558 161 640 159 L 641.442 157 643.221 157 L 645 157 645 156 L 645 155 647 155 L 649 155 649 154 L 649 153 650.779 153 L 652.558 153 654 151 L 655.442 149 657.221 149 L 659 149 659 148 L 659 147 660.571 147 C 661.436 147, 662.786 146.357, 663.571 145.571 C 664.357 144.786, 665 143.886, 665 143.571 C 665 143.257, 663.200 143, 661 143 L 657 143 657 142 L 657 141 654 141 L 651 141 651 140 L 651 139 647 139 L 643 139 643 138 L 643 137 639 137 L 635 137 635 136 L 635 135 632 135 L 629 135 629 134 L 629 133 626 133 L 623 133 623 132 L 623 131 618 131 L 613 131 613 130 L 613 129 610 129 L 607 129 607 128 L 607 127 604 127 L 601 127 601 128 M 493 132 L 493 133 491 133 L 489 133 489 134 L 489 135 487 135 L 485 135 485 136 L 485 137 482 137 L 479 137 479 138 L 479 139 477 139 L 475 139 475 140 L 475 141 473 141 L 471 141 471 142 L 471 143 468 143 L 465 143 465 144 L 465 145 463 145 L 461 145 461 146 L 461 147 459 147 L 457 147 457 148 L 457 149 454 149 L 451 149 451 150 L 451 151 453 151 L 455 151 455 152 L 455 153 457 153 L 459 153 459 154 L 459 155 462 155 L 465 155 465 156 L 465 157 468 157 L 471 157 471 158 L 471 159 474 159 L 477 159 477 160 L 477 161 480 161 L 483 161 483 162 L 483 163 486 163 L 489 163 489 164 L 489 165 492 165 L 495 165 495 166 L 495 167 497 167 L 499 167 499 168 L 499 169 505 169 L 511 169 511 168 L 511 167 513 167 L 515 167 515 166 L 515 165 517 165 L 519 165 519 164 L 519 163 521 163 L 523 163 523 162 L 523 161 525 161 L 527 161 527 160 L 527 159 529 159 L 531 159 531 158 L 531 157 533 157 L 535 157 535 156 L 535 155 537.779 155 L 540.558 155 542 153 L 543.442 151 545.221 151 L 547 151 547 150 L 547 149 550 149 C 551.650 149, 553 148.743, 553 148.429 C 553 148.114, 552.357 147.214, 551.571 146.429 L 550.143 145 547.571 145 L 545 145 545 144 L 545 143 541 143 L 537 143 537 142 L 537 141 534 141 L 531 141 531 140 L 531 139 528 139 L 525 139 525 138 L 525 137 522 137 L 519 137 519 136 L 519 135 516 135 L 513 135 513 134 L 513 133 510 133 L 507 133 507 132 L 507 131 500 131 L 493 131 493 132 M 391 134 L 391 135 389 135 L 387 135 387 136 L 387 137 384 137 L 381 137 381 138 L 381 139 378 139 L 375 139 375 140 L 375 141 373 141 L 371 141 371 142 L 371 143 368 143 L 365 143 365 144 L 365 145 362 145 L 359 145 359 146 L 359 147 357 147 L 355 147 355 148 L 355 149 352 149 L 349 149 349 150 L 349 151 346 151 L 343 151 343 152 L 343 153 341.429 153 C 340.564 153, 339.214 153.643, 338.429 154.429 C 337.643 155.214, 337 156.114, 337 156.429 C 337 156.743, 338.350 157, 340 157 L 343 157 343 158 L 343 159 345 159 L 347 159 347 160 L 347 161 349 161 L 351 161 351 162 L 351 163 354 163 L 357 163 357 164 L 357 165 359 165 L 361 165 361 166 L 361 167 363 167 L 365 167 365 168 L 365 169 368 169 L 371 169 371 170 L 371 171 373 171 L 375 171 375 172 L 375 173 377 173 L 379 173 379 174 L 379 175 381 175 L 383 175 383 174 L 383 173 385 173 L 387 173 387 172 L 387 171 389 171 L 391 171 391 170 L 391 169 394 169 L 397 169 397 168 L 397 167 399 167 L 401 167 401 166 L 401 165 404 165 L 407 165 407 164 L 407 163 409 163 L 411 163 411 162 L 411 161 414 161 L 417 161 417 160 L 417 159 419 159 L 421 159 421 158 L 421 157 423 157 L 425 157 425 156 L 425 155 428 155 L 431 155 431 154 L 431 153 432.571 153 C 433.436 153, 434.786 152.357, 435.571 151.571 C 436.357 150.786, 437 149.886, 437 149.571 C 437 149.257, 435.650 149, 434 149 L 431 149 431 148 L 431 147 429 147 L 427 147 427 146 L 427 145 424 145 L 421 145 421 144 L 421 143 418 143 L 415 143 415 142 L 415 141 413 141 L 411 141 411 140 L 411 139 408 139 L 405 139 405 138 L 405 137 402 137 L 399 137 399 136 L 399 135 397 135 L 395 135 395 134 L 395 133 393 133 L 391 133 391 134 M 557 150 L 557 151 555 151 L 553 151 553 152 L 553 153 551 153 L 549 153 549 154 L 549 155 547 155 L 545 155 545 156 L 545 157 543 157 L 541 157 541 158 L 541 159 539 159 L 537 159 537 160 L 537 161 535 161 L 533 161 533 162 L 533 163 531 163 L 529 163 529 164 L 529 165 527 165 L 525 165 525 166 L 525 167 523 167 L 521 167 521 168 L 521 169 519.429 169 C 518.564 169, 517.214 169.643, 516.429 170.429 C 515.643 171.214, 515 172.114, 515 172.429 C 515 172.743, 515.900 173, 517 173 L 519 173 519 174 L 519 175 522 175 L 525 175 525 176 L 525 177 528 177 L 531 177 531 178 L 531 179 533 179 L 535 179 535 180 L 535 181 538 181 L 541 181 541 182 L 541 183 544 183 L 547 183 547 184 L 547 185 549 185 L 551 185 551 186 L 551 187 554 187 L 557 187 557 188 L 557 189 560 189 L 563 189 563 190 L 563 191 565 191 L 567 191 567 192 L 567 193 570 193 L 573 193 573 194 L 573 195 575.917 195 L 578.833 195 579.282 196.250 L 579.731 197.500 581.733 195.250 C 582.834 194.012, 584.370 193, 585.147 193 L 586.558 193 588 191 L 589.442 189 591.221 189 L 593 189 593 188 L 593 187 594.779 187 L 596.558 187 598 185 L 599.442 183 601 183 L 602.558 183 604 181 L 605.442 179 607 179 L 608.558 179 610 177 L 611.442 175 613 175 L 614.558 175 616 173 L 617.442 171 619.221 171 L 621 171 621 169 L 621 167 618 167 L 615 167 615 166 L 615 165 612 165 L 609 165 609 164 L 609 163 606 163 L 603 163 603 162 L 603 161 600 161 L 597 161 597 160 L 597 159 594 159 L 591 159 591 158 L 591 157 587 157 L 583 157 583 156 L 583 155 580 155 L 577 155 577 154 L 577 153 574 153 L 571 153 571 152 L 571 151 567 151 L 563 151 563 150 L 563 149 560 149 L 557 149 557 150 M 665 150 L 665 151 663.221 151 L 661.442 151 660 153 L 658.558 155 656.779 155 L 655 155 655 156 L 655 157 653.221 157 L 651.442 157 650 159 L 648.558 161 646.779 161 L 645 161 645 162 L 645 163 643.221 163 L 641.442 163 640 165 C 639.207 166.100, 637.962 167, 637.234 167 C 636.505 167, 634.805 168.105, 633.455 169.455 L 631 171.909 631 178.455 L 631 185 630 185 L 629 185 629 191 L 629 197 628 197 L 627 197 627 204 L 627 211 626 211 L 625 211 625 219 L 625 227 624 227 L 623 227 623 231 L 623 235 624.599 235 L 626.198 235 629 232 C 630.541 230.350, 632.341 229, 633 229 C 633.659 229, 635.459 227.650, 637 226 C 638.541 224.350, 640.423 223, 641.180 223 C 641.938 223, 643.207 222.100, 644 221 C 644.793 219.900, 646.062 219, 646.820 219 C 647.577 219, 649.459 217.650, 651 216 L 653.802 213 655.401 213 L 657 213 657 208 L 657 203 658 203 L 659 203 659 197 L 659 191 660 191 L 661 191 661 186 L 661 181 662 181 L 663 181 663 175 L 663 169 664 169 L 665 169 665 162 L 665 155 666 155 L 667 155 667 152 L 667 149 666 149 C 665.450 149, 665 149.450, 665 150 M 443 152 L 443 153 441 153 L 439 153 439 154 L 439 155 437 155 L 435 155 435 156 L 435 157 432 157 L 429 157 429 158 L 429 159 427 159 L 425 159 425 160 L 425 161 423 161 L 421 161 421 162 L 421 163 418 163 L 415 163 415 164 L 415 165 413 165 L 411 165 411 166 L 411 167 409 167 L 407 167 407 168 L 407 169 404 169 L 401 169 401 170 L 401 171 398 171 L 395 171 395 172 L 395 173 393.429 173 C 392.564 173, 391.182 173.675, 390.357 174.500 L 388.857 176 390.357 177.500 C 391.182 178.325, 392.564 179, 393.429 179 L 395 179 395 180 L 395 181 398 181 L 401 181 401 182 L 401 183 403 183 L 405 183 405 184 L 405 185 407 185 L 409 185 409 186 L 409 187 411 187 L 413 187 413 188 L 413 189 416 189 L 419 189 419 190 L 419 191 421 191 L 423 191 423 192 L 423 193 425 193 L 427 193 427 194 L 427 195 429 195 L 431 195 431 196 L 431 197 433 197 L 435 197 435 198 L 435 199 437 199 L 439 199 439 200 L 439 201 442 201 L 445 201 445 200 L 445 199 447 199 L 449 199 449 198 L 449 197 451 197 L 453 197 453 196 L 453 195 455 195 L 457 195 457 194 L 457 193 459 193 L 461 193 461 192 L 461 191 463 191 L 465 191 465 190 L 465 189 467 189 L 469 189 469 188 L 469 187 471 187 L 473 187 473 186 L 473 185 475 185 L 477 185 477 184 L 477 183 479 183 L 481 183 481 182 L 481 181 483 181 L 485 181 485 180 L 485 179 487 179 L 489 179 489 178 L 489 177 491 177 L 493 177 493 176 L 493 175 494.571 175 C 495.436 175, 496.786 174.357, 497.571 173.571 C 498.357 172.786, 499 171.886, 499 171.571 C 499 171.257, 497.650 171, 496 171 L 493 171 493 170 L 493 169 491 169 L 489 169 489 168 L 489 167 486 167 L 483 167 483 166 L 483 165 481 165 L 479 165 479 164 L 479 163 475 163 L 471 163 471 162 L 471 161 469 161 L 467 161 467 160 L 467 159 464 159 L 461 159 461 158 L 461 157 458 157 L 455 157 455 156 L 455 155 453 155 L 451 155 451 154 L 451 153 448 153 L 445 153 445 152 C 445 151.450, 444.550 151, 444 151 C 443.450 151, 443 151.450, 443 152 M 333 160 C 333 160.550, 333.450 161, 334 161 L 335 161 335 167 L 335 173 336 173 L 337 173 337 180 L 337 187 338 187 L 339 187 339 194 L 339 201 340 201 L 341 201 341 207 L 341 213 342 213 L 343 213 343 218.571 L 343 224.143 344.429 225.571 C 345.214 226.357, 346.564 227, 347.429 227 L 349 227 349 228 L 349 229 351 229 L 353 229 353 230 L 353 231 355 231 L 357 231 357 232 L 357 233 359 233 L 361 233 361 234 L 361 235 363 235 L 365 235 365 236 L 365 237 366.779 237 L 368.558 237 370 239 L 371.442 241 374 241 L 376.558 241 378 243 L 379.442 245 381.221 245 L 383 245 383 246 L 383 247 385 247 L 387 247 387 238 L 387 229 386 229 L 385 229 385 221 L 385 213 384 213 L 383 213 383 200 L 383 187 382 187 L 381 187 381 183.429 L 381 179.857 379.571 178.429 L 378.143 177 375.571 177 L 373 177 373 176 L 373 175 371 175 L 369 175 369 174 L 369 173 367 173 L 365 173 365 172 L 365 171 362 171 L 359 171 359 170 L 359 169 357 169 L 355 169 355 168 L 355 167 353 167 L 351 167 351 166 L 351 165 349 165 L 347 165 347 164 L 347 163 344 163 L 341 163 341 162 L 341 161 339 161 L 337 161 337 160 L 337 159 335 159 L 333 159 333 160 M 501 176 L 501 177 499 177 L 497 177 497 178 L 497 179 495.221 179 L 493.442 179 492 181 L 490.558 183 488 183 L 485.442 183 484 185 L 482.558 187 480.779 187 L 479 187 479 188 L 479 189 477 189 L 475 189 475 190 L 475 191 473 191 L 471 191 471 192 L 471 193 469 193 L 467 193 467 194 L 467 195 465 195 L 463 195 463 196 L 463 197 461.221 197 L 459.442 197 458 199 L 456.558 201 454.779 201 L 453 201 453 202 L 453 203 451.429 203 C 450.564 203, 449.214 203.643, 448.429 204.429 C 447.643 205.214, 447 206.564, 447 207.429 L 447 209 449 209 L 451 209 451 208 L 451 207 454 207 L 457 207 457 206 L 457 205 460 205 L 463 205 463 204 L 463 203 466 203 L 469 203 469 202 L 469 201 472 201 L 475 201 475 200 L 475 199 478 199 L 481 199 481 198 L 481 197 483 197 L 485 197 485 196 L 485 195 489 195 L 493 195 493 194 L 493 193 495 193 L 497 193 497 192 L 497 191 499.571 191 L 502.143 191 503.571 189.571 L 505 188.143 505 181.571 L 505 175 503 175 L 501 175 501 176 M 621 176 L 621 177 619.401 177 L 617.802 177 615 180 L 612.198 183 610.599 183 L 609 183 609 184 L 609 185 607.221 185 L 605.442 185 604 187 L 602.558 189 601 189 L 599.442 189 598 191 L 596.558 193 595 193 L 593.442 193 592 195 C 591.207 196.100, 589.962 197, 589.234 197 C 588.505 197, 586.805 198.105, 585.455 199.455 L 583 201.909 583 204.455 L 583 207 582 207 L 581 207 581 218 L 581 229 580 229 L 579 229 579 241 L 579 253 578 253 L 577 253 577 262 L 577 271 578 271 C 578.550 271, 579 270.550, 579 270 L 579 269 580.599 269 L 582.198 269 585 266 C 586.541 264.350, 588.341 263, 589 263 C 589.659 263, 591.459 261.650, 593 260 C 594.541 258.350, 596.332 257, 596.980 257 C 597.627 257, 599.886 255.200, 602 253 C 604.114 250.800, 606.373 249, 607.020 249 C 607.668 249, 609.459 247.650, 611 246 C 612.541 244.350, 614.329 243, 614.973 243 C 615.616 243, 616.786 242.357, 617.571 241.571 L 619 240.143 619 229.571 L 619 219 620 219 L 621 219 621 211 L 621 203 622 203 L 623 203 623 194 L 623 185 624 185 L 625 185 625 180 L 625 175 623 175 L 621 175 621 176 M 511 181.571 L 511 186.143 512.429 187.571 C 513.214 188.357, 514.564 189, 515.429 189 L 517 189 517 190 L 517 191 519 191 L 521 191 521 192 L 521 193 523 193 L 525 193 525 194 L 525 195 526.779 195 L 528.558 195 530 197 L 531.442 199 533.221 199 L 535 199 535 200 L 535 201 537 201 L 539 201 539 202 L 539 203 540.779 203 L 542.558 203 544 205 L 545.442 207 547.221 207 L 549 207 549 208 L 549 209 551 209 L 553 209 553 210 L 553 211 554.779 211 L 556.558 211 558 213 L 559.442 215 561.221 215 L 563 215 563 216 L 563 217 565 217 L 567 217 567 219 L 567 221 565 221 L 563 221 563 222 L 563 223 560 223 L 557 223 557 224 L 557 225 555 225 L 553 225 553 226 L 553 227 551 227 L 549 227 549 228 L 549 229 546 229 L 543 229 543 230 L 543 231 541 231 L 539 231 539 232 L 539 233 537 233 L 535 233 535 234 L 535 235 532 235 L 529 235 529 236 L 529 237 527 237 L 525 237 525 238 L 525 239 523 239 L 521 239 521 240 L 521 241 518 241 L 515 241 515 242 L 515 243 513 243 L 511 243 511 244 L 511 245 509 245 L 507 245 507 246 L 507 247 504 247 L 501 247 501 248 L 501 249 497 249 L 493 249 493 248 L 493 247 491.401 247 L 489.802 247 487 244 C 485.459 242.350, 483.577 241, 482.820 241 C 482.062 241, 480.793 240.100, 480 239 L 478.558 237 477 237 L 475.442 237 474 235 C 473.207 233.900, 471.938 233, 471.180 233 C 470.423 233, 468.541 231.650, 467 230 C 465.459 228.350, 463.577 227, 462.820 227 C 462.062 227, 460.793 226.100, 460 225 C 459.207 223.900, 457.938 223, 457.180 223 C 456.423 223, 454.541 221.650, 453 220 L 450.198 217 448.599 217 L 447 217 447 216 L 447 215 445.429 215 C 444.564 215, 443.106 214.249, 442.188 213.330 L 440.518 211.661 441.759 211.247 L 443 210.833 443 209.371 C 443 208.567, 441.895 206.805, 440.545 205.455 L 438.091 203 435.545 203 L 433 203 433 202 L 433 201 431 201 L 429 201 429 200 L 429 199 427 199 L 425 199 425 198 L 425 197 423 197 L 421 197 421 196 L 421 195 418 195 L 415 195 415 194 L 415 193 413 193 L 411 193 411 192 L 411 191 409 191 L 407 191 407 190 L 407 189 405 189 L 403 189 403 188 L 403 187 401 187 L 399 187 399 186 L 399 185 397 185 L 395 185 395 184 L 395 183 392 183 L 389 183 389 182 C 389 181.450, 388.550 181, 388 181 L 387 181 387 189 L 387 197 388 197 L 389 197 389 207 L 389 217 390 217 L 391 217 391 229 L 391 241 392 241 L 393 241 393 247 L 393 253 395.779 253 L 398.558 253 400 255 L 401.442 257 403.221 257 L 405 257 405 258 L 405 259 407 259 L 409 259 409 260 L 409 261 411 261 L 413 261 413 262 L 413 263 414.779 263 L 416.558 263 418 265 L 419.442 267 421.221 267 L 423 267 423 268 L 423 269 425 269 L 427 269 427 270 L 427 271 429 271 L 431 271 431 272 L 431 273 433 273 L 435 273 435 274 L 435 275 436.779 275 L 438.558 275 440 277 C 440.793 278.100, 441.792 279, 442.221 279 L 443 279 443 272 L 443 265 442 265 L 441 265 441 248 L 441 231 440 231 L 439 231 439 223 L 439 215 440 215 C 440.550 215, 441 215.450, 441 216 L 441 217 442.599 217 L 444.198 217 447 220 C 448.541 221.650, 450.423 223, 451.180 223 C 451.938 223, 453.207 223.900, 454 225 C 454.793 226.100, 456.062 227, 456.820 227 C 457.577 227, 459.459 228.350, 461 230 C 462.541 231.650, 464.341 233, 465 233 C 465.659 233, 467.459 234.350, 469 236 C 470.541 237.650, 472.423 239, 473.180 239 C 473.938 239, 475.207 239.900, 476 241 L 477.442 243 479 243 L 480.558 243 482 245 C 482.793 246.100, 484.032 247, 484.754 247 C 485.476 247, 487.627 248.560, 489.533 250.467 L 493 253.933 493 282.467 L 493 311 494 311 L 495 311 495 321 L 495 331 494 331 C 493.450 331, 493 330.550, 493 330 L 493 329 491.445 329 L 489.889 329 484 323 C 480.761 319.700, 477.607 317, 476.990 317 C 476.374 317, 473.679 314.750, 471 312 C 468.321 309.250, 465.626 307, 465.010 307 C 464.393 307, 461.190 304.250, 457.890 300.888 L 451.891 294.776 451.195 295.525 L 450.500 296.274 451.750 296.720 L 453 297.167 453 301.083 L 453 305 454 305 L 455 305 455 325.545 L 455 346.091 457.455 348.545 C 458.805 349.895, 460.505 351, 461.234 351 C 461.962 351, 463.207 351.900, 464 353 L 465.442 355 467 355 L 468.558 355 470 357 L 471.442 359 473.221 359 L 475 359 475 360 L 475 361 476.779 361 L 478.558 361 480 363 L 481.442 365 483 365 L 484.558 365 486 367 L 487.442 369 489 369 L 490.558 369 492 371 L 493.442 373 495 373 L 496.558 373 498 375 L 499.442 377 501.221 377 L 503 377 503 378 L 503 379 504.599 379 L 506.198 379 509 382 C 510.541 383.650, 512.072 385, 512.401 385 L 513 385 513 356.429 L 513 327.857 514.429 326.429 L 515.857 325 518.429 325 L 521 325 521 326 C 521 326.550, 520.550 327, 520 327 L 519 327 519 349 L 519 371 518 371 L 517 371 517 377 C 517 380.300, 517.269 383, 517.599 383 C 517.928 383, 519.459 381.650, 521 380 C 522.541 378.350, 524.322 377, 524.957 377 C 525.591 377, 528.761 374.300, 532 371 C 535.239 367.700, 538.399 365, 539.023 365 C 539.647 365, 541.886 363.200, 544 361 C 546.114 358.800, 548.358 357, 548.987 357 C 549.615 357, 552.321 354.750, 555 352 C 557.679 349.250, 560.382 347, 561.007 347 C 561.631 347, 562.786 346.357, 563.571 345.571 L 565 344.143 565 341.571 L 565 339 566 339 L 567 339 567 325 L 567 311 568 311 L 569 311 569 301 L 569 291 570 291 L 571 291 571 288 L 571 285 569 285 L 567 285 567 292 L 567 299 565 299 L 563 299 563 300 L 563 301 561 301 L 559 301 559 302 L 559 303 557 303 L 555 303 555 304 L 555 305 553 305 L 551 305 551 306 L 551 307 549 307 L 547 307 547 308 L 547 309 545 309 L 543 309 543 310 L 543 311 541 311 L 539 311 539 312 L 539 313 537 313 L 535 313 535 314 L 535 315 533 315 L 531 315 531 316 L 531 317 529 317 L 527 317 527 318 L 527 319 525 319 L 523 319 523 320 L 523 321 520.221 321 L 517.442 321 516 323 L 514.558 325 512.779 325 L 511 325 511 326 L 511 327 508 327 L 505 327 505 328 L 505 329 503 329 L 501 329 501 330 C 501 330.550, 500.550 331, 500 331 L 499 331 499 292 L 499 253 501 253 L 503 253 503 252 L 503 251 505 251 L 507 251 507 250 L 507 249 509 249 L 511 249 511 248 L 511 247 514 247 L 517 247 517 246 L 517 245 519 245 L 521 245 521 244 L 521 243 524 243 L 527 243 527 242 L 527 241 529 241 L 531 241 531 240 L 531 239 534 239 L 537 239 537 238 L 537 237 539 237 L 541 237 541 236 L 541 235 543 235 L 545 235 545 234 L 545 233 548 233 L 551 233 551 232 L 551 231 553 231 L 555 231 555 230 L 555 229 558 229 L 561 229 561 228 L 561 227 563 227 L 565 227 565 226 L 565 225 568 225 L 571 225 571 237 L 571 249 570 249 L 569 249 569 262 L 569 275 570 275 L 571 275 571 268 L 571 261 572 261 L 573 261 573 247 L 573 233 574 233 L 575 233 575 223 L 575 213 576 213 L 577 213 577 207 L 577 201 575 201 L 573 201 573 200 L 573 199 571 199 L 569 199 569 198 L 569 197 566 197 L 563 197 563 196 L 563 195 560 195 L 557 195 557 194 L 557 193 555 193 L 553 193 553 192 L 553 191 550 191 L 547 191 547 190 L 547 189 544 189 L 541 189 541 188 L 541 187 539 187 L 537 187 537 186 L 537 185 535 185 L 533 185 533 184 L 533 183 530 183 L 527 183 527 182 L 527 181 524 181 L 521 181 521 180 L 521 179 519 179 L 517 179 517 178 L 517 177 514 177 L 511 177 511 181.571 M 652 221 C 651.207 222.100, 649.948 223, 649.201 223 L 647.843 223 644 227 C 641.886 229.200, 639.627 231, 638.980 231 C 638.332 231, 636.541 232.350, 635 234 C 633.459 235.650, 631.659 237, 631 237 C 630.341 237, 628.541 238.350, 627 240 C 625.459 241.650, 623.671 243, 623.027 243 C 622.384 243, 621.214 243.643, 620.429 244.429 L 619 245.857 619 254.429 L 619 263 618 263 L 617 263 617 270 L 617 277 616 277 L 615 277 615 285 L 615 293 614 293 L 613 293 613 297 C 613 299.200, 613.269 301, 613.599 301 C 613.928 301, 615.459 299.650, 617 298 C 618.541 296.350, 620.322 295, 620.957 295 C 621.591 295, 624.761 292.300, 628 289 C 631.239 285.700, 634.374 283, 634.966 283 C 635.559 283, 638.509 280.535, 641.522 277.522 L 647 272.043 647 268.522 L 647 265 648 265 L 649 265 649 259 L 649 253 650 253 L 651 253 651 246 L 651 239 652 239 L 653 239 653 233 L 653 227 654 227 L 655 227 655 223 L 655 219 654.221 219 C 653.792 219, 652.793 219.900, 652 221 M 345 235 L 345 241 346 241 L 347 241 347 246 L 347 251 348 251 L 349 251 349 256 L 349 261 350 261 L 351 261 351 267 L 351 273 352 273 L 353 273 353 278 L 353 283 354 283 L 355 283 355 285 L 355 287 357 287 L 359 287 359 288 L 359 289 360.779 289 L 362.558 289 364 291 L 365.442 293 367 293 L 368.558 293 370 295 L 371.442 297 373 297 L 374.558 297 376 299 L 377.442 301 379 301 L 380.558 301 382 303 L 383.442 305 385.221 305 L 387 305 387 306 L 387 307 388.779 307 L 390.558 307 392 309 C 392.793 310.100, 393.792 311, 394.221 311 L 395 311 395 304 L 395 297 394 297 L 393 297 393 289 L 393 281 392 281 L 391 281 391 273 L 391 265 390 265 L 389 265 389 259.455 L 389 253.909 386.545 251.455 L 384.091 249 381.545 249 L 379 249 379 248 L 379 247 377.221 247 L 375.442 247 374 245 L 372.558 243 370.779 243 L 369 243 369 242 L 369 241 367 241 L 365 241 365 240 L 365 239 363 239 L 361 239 361 238 L 361 237 359 237 L 357 237 357 236 L 357 235 355 235 L 353 235 353 234 L 353 233 351.221 233 L 349.442 233 348 231 C 347.207 229.900, 346.208 229, 345.779 229 L 345 229 345 235 M 613 250 C 611.625 251.617, 609.893 252.954, 609.151 252.970 C 608.409 252.987, 606.541 254.350, 605 256 C 603.459 257.650, 601.659 259, 601 259 C 600.341 259, 598.541 260.350, 597 262 C 595.459 263.650, 593.659 265, 593 265 C 592.341 265, 590.541 266.350, 589 268 C 587.459 269.650, 585.659 271, 585 271 C 584.341 271, 582.541 272.350, 581 274 L 578.198 277 576.599 277 L 575 277 575 281 L 575 285 574 285 L 573 285 573 300 L 573 315 572 315 L 571 315 571 326 C 571 332.050, 571.260 337, 571.578 337 C 571.897 337, 573.886 335.200, 576 333 C 578.114 330.800, 580.358 329, 580.987 329 C 581.615 329, 584.321 326.750, 587 324 C 589.679 321.250, 592.374 319, 592.990 319 C 593.607 319, 596.761 316.300, 600 313 C 603.239 309.700, 606.396 307, 607.016 307 C 607.636 307, 608.786 306.357, 609.571 305.571 L 611 304.143 611 295.571 L 611 287 612 287 L 613 287 613 279 L 613 271 614 271 L 615 271 615 264 L 615 257 616 257 L 617 257 617 252 L 617 247 616.250 247.030 C 615.837 247.046, 614.375 248.383, 613 250 M 393 258 C 393 258.550, 393.450 259, 394 259 L 395 259 395 267 L 395 275 396 275 L 397 275 397 285 L 397 295 398 295 L 399 295 399 303 L 399 311 400 311 L 401 311 401 313 L 401 315 402.779 315 L 404.558 315 406 317 L 407.442 319 409 319 L 410.558 319 412 321 L 413.442 323 415 323 L 416.558 323 418 325 L 419.442 327 421.221 327 L 423 327 423 328 L 423 329 424.779 329 L 426.558 329 428 331 L 429.442 333 431 333 L 432.558 333 434 335 L 435.442 337 437.221 337 L 439 337 439 338 L 439 339 440.779 339 L 442.558 339 444 341 L 445.442 343 447.221 343 L 449 343 449 320.083 L 449 297.167 447.750 296.659 L 446.500 296.152 447.937 295.152 L 449.373 294.151 446.187 291.174 L 443 288.198 443 284.599 L 443 281 440.221 281 L 437.442 281 436 279 L 434.558 277 432.779 277 L 431 277 431 276 L 431 275 429 275 L 427 275 427 274 L 427 273 425 273 L 423 273 423 272 L 423 271 421 271 L 419 271 419 270 L 419 269 417 269 L 415 269 415 268 L 415 267 413.221 267 L 411.442 267 410 265 L 408.558 263 406.779 263 L 405 263 405 262 L 405 261 403 261 L 401 261 401 260 L 401 259 399 259 L 397 259 397 258 L 397 257 395 257 L 393 257 393 258 M 567 281 L 567 283 568 283 L 569 283 569 281 L 569 279 568 279 L 567 279 567 281 M 640 283 C 638.075 285.149, 635.913 286.929, 635.195 286.954 C 634.477 286.979, 631.239 289.700, 628 293 C 624.761 296.300, 621.624 299, 621.029 299 C 620.434 299, 617.934 301.013, 615.474 303.474 L 611 307.947 611 311.474 L 611 315 610 315 L 609 315 609 323 L 609 331 608 331 L 607 331 607 341 L 607 351 606 351 L 605 351 605 353 L 605 355 606 355 C 606.550 355, 607 354.550, 607 354 L 607 353 608.529 353 L 610.059 353 622 341 L 633.941 329 635.471 329 L 637 329 637 325 L 637 321 638 321 L 639 321 639 314 L 639 307 640 307 L 641 307 641 302 L 641 297 642 297 L 643 297 643 291 L 643 285 644 285 L 645 285 645 282 L 645 279 644.250 279.046 C 643.837 279.071, 641.925 280.851, 640 283 M 355 293 L 355 295 356 295 L 357 295 357 302 L 357 309 358 309 L 359 309 359 315 L 359 321 360 321 L 361 321 361 326 L 361 331 362 331 L 363 331 363 335 L 363 339 364.599 339 L 366.198 339 369 342 C 370.541 343.650, 372.341 345, 373 345 C 373.659 345, 375.459 346.350, 377 348 C 378.541 349.650, 380.341 351, 381 351 C 381.659 351, 383.459 352.350, 385 354 C 386.541 355.650, 388.423 357, 389.180 357 C 389.938 357, 391.207 357.900, 392 359 L 393.442 361 395 361 L 396.558 361 398 363 L 399.442 365 401.221 365 L 403 365 403 360 L 403 355 402 355 L 401 355 401 347 L 401 339 400 339 L 399 339 399 331 L 399 323 398 323 L 397 323 397 319 L 397 315 395 315 L 393 315 393 314 L 393 313 391.221 313 L 389.442 313 388 311 L 386.558 309 385 309 L 383.442 309 382 307 L 380.558 305 379 305 L 377.442 305 376 303 L 374.558 301 372.779 301 L 371 301 371 300 L 371 299 369.221 299 L 367.442 299 366 297 L 364.558 295 362.779 295 L 361 295 361 294 L 361 293 359 293 L 357 293 357 292 C 357 291.450, 356.550 291, 356 291 L 355 291 355 293 M 598 319 L 590.500 326.867 589.195 326.934 C 588.477 326.970, 585.239 329.700, 582 333 C 578.761 336.300, 575.621 339, 575.022 339 C 574.423 339, 572.373 340.560, 570.467 342.467 L 567 345.933 567 360.467 L 567 375 566 375 L 565 375 565 385 C 565 390.500, 565.228 395, 565.507 395 C 565.786 395, 573.886 387.128, 583.507 377.507 L 601 360.014 601 358.507 L 601 357 602 357 L 603 357 603 349 L 603 341 604 341 L 605 341 605 331 L 605 321 606 321 L 607 321 607 316 L 607 311 606.250 311.066 C 605.837 311.103, 602.125 314.673, 598 319 M 401 322 C 401 322.550, 401.450 323, 402 323 L 403 323 403 333 L 403 343 404 343 L 405 343 405 352 L 405 361 406 361 L 407 361 407 366 L 407 371 408.599 371 L 410.198 371 413 374 C 414.541 375.650, 416.423 377, 417.180 377 C 417.938 377, 419.207 377.900, 420 379 L 421.442 381 423 381 L 424.558 381 426 383 C 426.793 384.100, 428.062 385, 428.820 385 C 429.577 385, 431.459 386.350, 433 388 C 434.541 389.650, 436.423 391, 437.180 391 C 437.938 391, 439.207 391.900, 440 393 L 441.442 395 443 395 L 444.558 395 446 397 L 447.442 399 449.221 399 L 451 399 451 400 C 451 400.550, 451.450 401, 452 401 L 453 401 453 385 L 453 369 452 369 L 451 369 451 359 L 451 349 449 349 L 447 349 447 348 L 447 347 445.401 347 L 443.802 347 441 344 L 438.198 341 436.599 341 L 435 341 435 340 L 435 339 433.221 339 L 431.442 339 430 337 L 428.558 335 426.779 335 L 425 335 425 334 L 425 333 423.221 333 L 421.442 333 420 331 L 418.558 329 417 329 L 415.442 329 414 327 L 412.558 325 411 325 L 409.442 325 408 323 L 406.558 321 403.779 321 L 401 321 401 322 M 562 351 C 561.207 352.100, 559.958 353, 559.224 353 L 557.889 353 552 359 C 548.761 362.300, 545.614 365, 545.007 365 C 544.400 365, 540.797 368.150, 537 372 C 533.203 375.850, 529.615 379, 529.027 379 C 528.438 379, 525.491 381.465, 522.478 384.478 L 517 389.957 517 407.478 L 517 425 516 425 L 515 425 515 434 C 515 438.950, 515.227 443, 515.505 443 C 515.784 443, 526.134 432.877, 538.505 420.505 L 561 398.011 561 391.505 L 561 385 562 385 L 563 385 563 372 L 563 359 564 359 L 565 359 565 354 L 565 349 564.221 349 C 563.792 349, 562.793 349.900, 562 351 M 455 360 L 455 367 456 367 L 457 367 457 386 L 457 405 458.599 405 L 460.198 405 463 408 C 464.541 409.650, 466.423 411, 467.180 411 C 467.938 411, 469.207 411.900, 470 413 L 471.442 415 473 415 L 474.558 415 476 417 C 476.793 418.100, 478.062 419, 478.820 419 C 479.577 419, 481.459 420.350, 483 422 C 484.541 423.650, 486.423 425, 487.180 425 C 487.938 425, 489.207 425.900, 490 427 L 491.442 429 493 429 L 494.558 429 496 431 L 497.442 433 499 433 L 500.558 433 502 435 C 502.793 436.100, 504.062 437, 504.820 437 C 505.577 437, 507.459 438.350, 509 440 C 510.541 441.650, 512.072 443, 512.401 443 L 513 443 513 416.455 L 513 389.909 510.545 387.455 L 508.091 385 506.545 385 L 505 385 505 384 L 505 383 503.221 383 L 501.442 383 500 381 L 498.558 379 497 379 L 495.442 379 494 377 L 492.558 375 490.779 375 L 489 375 489 374 L 489 373 487.221 373 L 485.442 373 484 371 L 482.558 369 481 369 L 479.442 369 478 367 L 476.558 365 474.779 365 L 473 365 473 364 L 473 363 471.221 363 L 469.442 363 468 361 L 466.558 359 465 359 L 463.442 359 462 357 L 460.558 355 458.779 355 L 457 355 457 354 C 457 353.450, 456.550 353, 456 353 L 455 353 455 360 M 363 425 L 363 427 362 427 L 361 427 361 435 L 361 443 362 443 C 362.550 443, 363 443.450, 363 444 L 363 445 361.455 445 L 359.909 445 357.455 447.455 L 355 449.909 355 454 L 355 458.091 357.455 460.545 L 359.909 463 365.087 463 L 370.265 463 372.095 460.891 L 373.924 458.781 375.462 460.319 C 376.308 461.165, 377 462.564, 377 463.429 L 377 465 378 465 L 379 465 379 466.545 L 379 468.091 381.455 470.545 L 383.909 473 388 473 L 392.091 473 394.545 470.545 L 397 468.091 397 463.545 L 397 459 396 459 C 395.450 459, 395 458.550, 395 458 L 395 457 397.526 457 L 400.053 457 404.526 452.526 L 409 448.053 409 444.955 L 409 441.857 407.571 440.429 L 406.143 439 401.571 439 L 397 439 397 440 L 397 441 393 441 L 389 441 389 442 L 389 443 387 443 L 385 443 385 442 L 385 441 382 441 L 379 441 379 439 L 379 437 378 437 L 377 437 377 435.401 L 377 433.802 374 431 L 371 428.198 371 426.599 L 371 425 369 425 L 367 425 367 424 L 367 423 365 423 L 363 423 363 425 M 373 464 C 373 464.550, 373.450 465, 374 465 C 374.550 465, 375 464.550, 375 464 C 375 463.450, 374.550 463, 374 463 C 373.450 463, 373 463.450, 373 464 M 143 470 L 143 471 141.455 471 L 139.909 471 137.455 473.455 L 135 475.909 135 477.455 L 135 479 134 479 L 133 479 133 488 L 133 497 134 497 L 135 497 135 498.571 C 135 499.436, 135.643 500.786, 136.429 501.571 C 137.214 502.357, 138.465 503, 139.208 503 C 139.951 503, 141.207 503.900, 142 505 L 143.442 507 146.221 507 L 149 507 149 508 L 149 509 151.533 509 L 154.067 509 157.533 512.467 L 161 515.933 161 520.038 L 161 524.143 159.571 525.571 L 158.143 527 152.571 527 L 147 527 147 525 L 147 523 146 523 L 145 523 145 519 L 145 515 138 515 L 131 515 131 520 L 131 525 132 525 L 133 525 133 527 L 133 529 134 529 L 135 529 135 530.571 C 135 531.436, 135.643 532.786, 136.429 533.571 L 137.857 535 140.429 535 L 143 535 143 536 L 143 537 153 537 L 163 537 163 536 L 163 535 165 535 L 167 535 167 534 L 167 533 168.571 533 C 169.436 533, 170.786 532.357, 171.571 531.571 C 172.357 530.786, 173 529.436, 173 528.571 L 173 527 174 527 L 175 527 175 518 L 175 509 174 509 L 173 509 173 507.429 C 173 506.564, 172.357 505.214, 171.571 504.429 C 170.786 503.643, 169.535 503, 168.792 503 C 168.049 503, 166.793 502.100, 166 501 L 164.558 499 162.779 499 L 161 499 161 498 L 161 497 158 497 L 155 497 155 496 L 155 495 153.455 495 L 151.909 495 149.455 492.545 L 147 490.091 147 485.974 L 147 481.857 148.429 480.429 L 149.857 479 153 479 L 156.143 479 157.571 480.429 C 158.357 481.214, 159 482.564, 159 483.429 L 159 485 160 485 L 161 485 161 487 L 161 489 167 489 L 173 489 173 484 L 173 479 172 479 L 171 479 171 477.455 L 171 475.909 168.545 473.455 L 166.091 471 163.545 471 L 161 471 161 470 L 161 469 152 469 L 143 469 143 470 M 178.042 472.719 L 176.584 474.361 177.792 474.764 L 179 475.167 179 477.083 L 179 479 178 479 C 177.450 479, 177 479.450, 177 480 L 177 481 185 481 L 193 481 193 509 L 193 537 199 537 L 205 537 205 509 L 205 481 212 481 L 219 481 219 476 L 219 471 199.250 471.038 L 179.500 471.076 178.042 472.719 M 225 504 L 225 537 231 537 L 237 537 237 512 L 237 487 238 487 L 239 487 239 493 L 239 499 240 499 L 241 499 241 504 L 241 509 242 509 L 243 509 243 513 L 243 517 244 517 L 245 517 245 521 L 245 525 246 525 L 247 525 247 529.571 L 247 534.143 248.429 535.571 L 249.857 537 253 537 L 256.143 537 257.571 535.571 C 258.357 534.786, 259 533.436, 259 532.571 L 259 531 260 531 L 261 531 261 527 L 261 523 262 523 L 263 523 263 518 L 263 513 264 513 L 265 513 265 508 L 265 503 266 503 L 267 503 267 499 L 267 495 268 495 L 269 495 269 491 L 269 487 270 487 L 271 487 271 512 L 271 537 275.571 537 L 280.143 537 281.571 535.571 L 283 534.143 283 502.571 L 283 471 273 471 L 263 471 263 473 L 263 475 262 475 L 261 475 261 479 L 261 483 260 483 L 259 483 259 489 L 259 495 258 495 L 257 495 257 500 L 257 505 256 505 L 255 505 255 509 L 255 513 254 513 L 253 513 253 511 L 253 509 252 509 L 251 509 251 503 L 251 497 250 497 L 249 497 249 493 L 249 489 248 489 L 247 489 247 484 L 247 479 246 479 L 245 479 245 475 L 245 471 235 471 L 225 471 225 504 M 298.250 474.540 L 295 477.943 295 479.472 L 295 481 294 481 L 293 481 293 485 L 293 489 296 489 L 299 489 299 486 L 299 483 300 483 L 301 483 301 481.455 L 301 479.909 303.455 477.455 L 305.909 475 310.455 475 L 315 475 315 476 L 315 477 317 477 L 319 477 319 479 L 319 481 320 481 L 321 481 321 486.533 L 321 492.067 317.533 495.533 L 314.067 499 309.533 499 L 305 499 305 501 L 305 503 309 503 L 313 503 313 504 L 313 505 314.533 505 L 316.067 505 319.533 508.467 L 323 511.933 323 517.467 L 323 523 322 523 L 321 523 321 524.533 L 321 526.067 317.533 529.533 L 314.067 533 310.533 533 L 307 533 307 532 L 307 531 305.455 531 L 303.909 531 301.455 528.545 L 299 526.091 299 522.545 L 299 519 296 519 L 293 519 293 523.526 L 293 528.053 297.474 532.526 L 301.947 537 310.474 537 L 319 537 319 536 L 319 535 320.571 535 C 321.436 535, 322.786 534.357, 323.571 533.571 C 324.357 532.786, 325 531.436, 325 530.571 L 325 529 326 529 L 327 529 327 527 L 327 525 328 525 L 329 525 329 518 L 329 511 328 511 L 327 511 327 509.422 L 327 507.843 323 504 C 320.800 501.886, 319 499.897, 319 499.578 C 319 499.260, 319.707 499, 320.571 499 C 321.436 499, 322.786 498.357, 323.571 497.571 C 324.357 496.786, 325 495.436, 325 494.571 L 325 493 326 493 L 327 493 327 486 L 327 479 326 479 L 325 479 325 477.429 C 325 476.564, 324.357 475.214, 323.571 474.429 C 322.786 473.643, 321.436 473, 320.571 473 L 319 473 319 472 L 319 471 310.250 471.069 L 301.500 471.137 298.250 474.540 M 347 472 L 347 473 345 473 L 343 473 343 474.779 L 343 476.558 341 478 L 339 479.442 339 482.221 L 339 485 338 485 L 337 485 337 488 L 337 491 340 491 L 343 491 343 489 L 343 487 344 487 L 345 487 345 484 L 345 481 346 481 L 347 481 347 479 L 347 477 349 477 L 351 477 351 476 L 351 475 355.545 475 L 360.091 475 362.545 477.455 L 365 479.909 365 481.455 L 365 483 366 483 L 367 483 367 488 L 367 493 366 493 L 365 493 365 495 L 365 497 364 497 L 363 497 363 498.533 L 363 500.067 359.533 503.533 C 357.627 505.440, 355.592 507, 355.012 507 C 354.431 507, 351.491 509.465, 348.478 512.478 L 343 517.957 343 519.478 L 343 521 342 521 L 341 521 341 523 L 341 525 340 525 L 339 525 339 528.917 L 339 532.833 337.759 533.247 L 336.518 533.661 338.188 535.330 L 339.857 537 343.345 537 L 346.833 537 347.417 535.750 L 348 534.500 348.583 535.750 L 349.167 537 359 537 L 368.833 537 369.417 535.750 L 370 534.500 370.583 535.750 C 370.904 536.438, 371.579 537, 372.083 537 L 373 537 373 534 L 373 531 359 531 L 345 531 345 528 L 345 525 346 525 L 347 525 347 523.478 L 347 521.957 352.478 516.478 C 355.491 513.465, 358.428 511, 359.005 511 C 359.581 511, 362.066 508.987, 364.526 506.526 L 369 502.053 369 500.526 L 369 499 370 499 L 371 499 371 497 L 371 495 372 495 L 373 495 373 488 L 373 481 372 481 L 371 481 371 479.467 L 371 477.933 367.533 474.467 L 364.067 471 355.533 471 L 347 471 347 472 M 241 550 L 241 551 238.474 551 L 235.947 551 231.474 555.474 L 227 559.947 227 562.474 L 227 565 226 565 L 225 565 225 584 L 225 603 226 603 L 227 603 227 606 L 227 609 228 609 L 229 609 229 610.571 C 229 611.436, 229.643 612.786, 230.429 613.571 C 231.214 614.357, 232.564 615, 233.429 615 L 235 615 235 616 L 235 617 237 617 L 239 617 239 618 L 239 619 247 619 L 255 619 255 618 L 255 617 256.533 617 L 258.067 617 261.533 613.533 L 265 610.067 265 607.533 L 265 605 266 605 L 267 605 267 599 L 267 593 260 593 L 253 593 253 598.545 L 253 604.091 250.545 606.545 L 248.091 609 246 609 L 243.909 609 241.455 606.545 L 239 604.091 239 584 L 239 563.909 241.455 561.455 L 243.909 559 246 559 L 248.091 559 250.545 561.455 L 253 563.909 253 568.455 L 253 573 260 573 L 267 573 267 568 L 267 563 266 563 L 265 563 265 560.467 L 265 557.933 261.533 554.467 L 258.067 551 255.533 551 L 253 551 253 550 L 253 549 247 549 L 241 549 241 550 M 321 584 L 321 617 327 617 L 333 617 333 616 L 333 615 334.779 615 L 336.558 615 338 617 L 339.442 619 344.221 619 L 349 619 349 618 L 349 617 350.545 617 L 352.091 617 354.545 614.545 L 357 612.091 357 609.545 L 357 607 358 607 L 359 607 359 593 L 359 579 358 579 L 357 579 357 576.467 L 357 573.933 353.533 570.467 L 350.067 567 344.533 567 L 339 567 339 568 L 339 569 337 569 L 335 569 335 570 C 335 570.550, 334.550 571, 334 571 L 333 571 333 561 L 333 551 327 551 L 321 551 321 584 M 375 568 L 375 569 373 569 L 371 569 371 570.779 L 371 572.558 369 574 L 367 575.442 367 577.221 L 367 579 366 579 L 365 579 365 592 L 365 605 366 605 L 367 605 367 607.533 L 367 610.067 370.467 613.533 L 373.933 617 375.467 617 L 377 617 377 618 L 377 619 384 619 L 391 619 391 618 L 391 617 392.545 617 L 394.091 617 396.545 614.545 L 399 612.091 399 610.545 L 399 609 400 609 L 401 609 401 605 L 401 601 395 601 L 389 601 389 603.571 L 389 606.143 387.571 607.571 L 386.143 609 384 609 L 381.857 609 380.429 607.571 C 379.643 606.786, 379 605.436, 379 604.571 L 379 603 378 603 L 377 603 377 599 L 377 595 388.571 595 L 400.143 595 401.571 593.571 L 403 592.143 403 587.571 L 403 583 402 583 L 401 583 401 579.221 L 401 575.442 399 574 L 397 572.558 397 570.779 L 397 569 395 569 L 393 569 393 568 L 393 567 384 567 L 375 567 375 568 M 275 590.533 L 275 612.067 278.467 615.533 L 281.933 619 287.467 619 L 293 619 293 618 L 293 617 294.917 617 L 296.833 617 297.417 615.750 L 298 614.500 298.583 615.750 L 299.167 617 306.083 617 L 313 617 313 593 L 313 569 306 569 L 299 569 299 588 L 299 607 297 607 L 295 607 295 608 L 295 609 293.455 609 L 291.909 609 289.455 606.545 L 287 604.091 287 586.545 L 287 569 281 569 L 275 569 275 590.533 M 380.250 576.496 C 379.563 577.277, 379 578.610, 379 579.458 L 379 581 378 581 L 377 581 377 584 L 377 587 383 587 L 389 587 389 582.429 L 389 577.857 387.571 576.429 L 386.143 575 383.821 575.038 L 381.500 575.076 380.250 576.496 M 336.250 578.496 C 335.563 579.277, 335 580.610, 335 581.458 L 335 583 334 583 L 333 583 333 592 L 333 601 334 601 L 335 601 335 603.571 L 335 606.143 336.429 607.571 L 337.857 609 340 609 L 342.143 609 343.571 607.571 L 345 606.143 345 602.571 L 345 599 346 599 L 347 599 347 592 L 347 585 346 585 L 345 585 345 582.429 L 345 579.857 343.571 578.429 L 342.143 577 339.821 577.038 L 337.500 577.076 336.250 578.496 M 333 675.500 C 333 675.775, 333.225 676, 333.500 676 C 333.775 676, 334 675.775, 334 675.500 C 334 675.225, 333.775 675, 333.500 675 C 333.225 675, 333 675.225, 333 675.500" stroke="none" fill="#29b3e4" fill-rule="evenodd"/></svg>